<svg width="1240" height="181" viewBox="0 0 1240 181" fill="none" xmlns="http://www.w3.org/2000/svg">
<path d="M365.816 130C382.088 130 395.48 125.392 405.704 116.032C415.928 106.672 421.112 94.432 421.112 79.6C421.112 64.768 415.928 52.672 405.704 43.312C395.48 33.952 382.088 29.2 365.816 29.2H328.088V130H365.816ZM348.824 47.776H364.088C386.552 47.776 399.8 59.584 399.8 79.6C399.8 99.616 386.552 111.424 364.088 111.424H348.824V47.776ZM473.869 131.872C485.677 131.872 494.749 129.424 501.229 124.528V108.256C493.885 112.432 486.253 114.592 478.189 114.592C465.517 114.592 456.301 109.408 454.141 99.616H505.693V94.288C505.693 83.632 502.525 74.704 496.333 67.36C490.141 60.016 481.933 56.272 471.421 56.272C460.333 56.272 451.261 59.872 444.349 67.216C437.437 74.416 433.981 83.344 433.981 94C433.981 105.376 437.869 114.592 445.501 121.504C453.133 128.416 462.637 131.872 473.869 131.872ZM454.141 86.656C455.149 78.16 461.341 72.256 470.557 72.256C479.629 72.256 485.245 78.736 485.677 86.656H454.141ZM541.584 130V99.04L569.952 130H596.16L560.016 90.544L591.264 58.144H566.352L541.584 84.352V29.2H521.28V130H541.584ZM673.774 114.304C670.462 114.304 668.734 112.432 668.734 108.832V84.496C668.734 75.712 665.566 68.8 659.23 63.76C653.038 58.72 644.686 56.272 634.462 56.272C623.95 56.272 615.166 58.144 607.822 62.032V79.024C614.59 74.992 621.934 72.976 629.566 72.976C642.238 72.976 648.574 77.44 648.574 86.512V88.672C642.814 85.648 635.902 84.208 627.838 84.208C620.062 84.208 613.438 86.224 607.822 90.256C602.206 94.288 599.47 100.192 599.47 107.824C599.47 122.368 610.414 131.872 625.966 131.872C636.19 131.872 644.398 128.56 650.734 122.08C653.47 128.272 658.798 131.296 667.006 131.296C671.758 131.296 675.358 130.288 677.95 128.272V113.44C676.942 114.016 675.502 114.304 673.774 114.304ZM648.574 108.832C644.83 113.728 639.358 116.176 632.302 116.176C624.814 116.176 619.486 113.152 619.486 106.816C619.486 100.912 624.958 97.456 633.598 97.456C639.502 97.456 644.398 98.896 648.574 101.632V108.832Z" fill="#353535"/>
<path d="M8.808 125.336C10.92 125.336 12.648 124.688 13.992 123.392C15.36 122.096 16.032 120.272 16.032 117.944V108.2H12.576V118.064C12.576 120.728 11.04 122.096 8.808 122.096C6.6 122.096 5.064 120.728 5.064 118.064V108.2H1.632V117.944C1.632 120.272 2.304 122.096 3.648 123.392C4.992 124.688 6.72 125.336 8.808 125.336ZM23.0484 125V108.2H19.6164V125H23.0484ZM27.9118 128.36L38.0158 105.992H34.6318L24.5278 128.36H27.9118ZM46.6127 125.336C48.7247 125.336 50.4527 124.688 51.7967 123.392C53.1647 122.096 53.8367 120.272 53.8367 117.944V108.2H50.3807V118.064C50.3807 120.728 48.8447 122.096 46.6127 122.096C44.4047 122.096 42.8687 120.728 42.8687 118.064V108.2H39.4367V117.944C39.4367 120.272 40.1087 122.096 41.4527 123.392C42.7967 124.688 44.5247 125.336 46.6127 125.336ZM56.6051 108.2L62.1491 115.952L55.5971 125H59.5811L64.1171 118.736L68.6771 125H72.7091L66.1811 115.928L71.7251 108.2H67.7411L64.1651 113.216L60.6371 108.2H56.6051ZM75.7478 128.36L85.8518 105.992H82.4678L72.3637 128.36H75.7478ZM93.0566 125V108.2H90.0566L86.1206 110.312V113.696L89.6726 111.896V125H93.0566ZM105.36 125.336C107.184 125.336 108.768 124.928 110.136 124.112V120.632C108.888 121.616 107.352 122.096 105.528 122.096C103.872 122.096 102.504 121.592 101.424 120.56C100.344 119.528 99.7922 118.208 99.7922 116.6C99.7922 114.992 100.32 113.696 101.376 112.664C102.456 111.632 103.776 111.104 105.384 111.104C107.04 111.104 108.504 111.536 109.8 112.4V108.92C108.48 108.224 107.016 107.864 105.36 107.864C102.744 107.864 100.56 108.68 98.8322 110.312C97.1282 111.944 96.2642 114.032 96.2642 116.6C96.2642 119.144 97.1282 121.232 98.8562 122.888C100.584 124.52 102.744 125.336 105.36 125.336ZM120.486 119.864V116.816H113.07V119.864H120.486ZM133.085 125C134.861 125 136.277 124.568 137.333 123.68C138.389 122.792 138.917 121.64 138.917 120.224C138.917 119 138.581 118.016 137.909 117.224C137.237 116.432 136.445 115.928 135.509 115.736C136.661 115.256 137.621 114.104 137.621 112.4C137.621 109.712 135.605 108.2 132.533 108.2H124.637V125H133.085ZM128.093 117.632H132.437C134.141 117.632 135.173 118.424 135.173 119.84C135.173 121.256 134.141 122.024 132.437 122.024H128.093V117.632ZM128.093 111.08H131.981C133.421 111.08 134.285 111.776 134.285 112.952C134.285 114.104 133.421 114.776 131.981 114.776H128.093V111.08ZM145.177 125V113.024H141.793V125H145.177ZM141.457 109.856C141.457 110.984 142.345 111.872 143.473 111.872C144.601 111.872 145.489 110.984 145.489 109.856C145.489 108.704 144.601 107.816 143.473 107.816C142.345 107.816 141.457 108.704 141.457 109.856ZM149.784 121.28C149.784 123.968 151.08 125.312 153.696 125.312C154.92 125.312 155.856 125.096 156.552 124.664V121.856C155.976 122.144 155.4 122.288 154.8 122.288C153.648 122.288 153.168 121.784 153.168 120.608V115.856H156.576V113.024H153.168V109.736H149.784V113.024H147.432V115.856H149.784V121.28ZM162.634 125V118.016C163.114 116.936 164.506 115.928 166.138 115.928C166.546 115.928 166.906 115.976 167.194 116.048V112.736C167.098 112.712 166.978 112.712 166.81 112.712C165.922 112.712 165.082 112.952 164.314 113.408C163.546 113.864 162.994 114.416 162.634 115.04V113.024H159.25V125H162.634ZM172.95 125V113.024H169.566V125H172.95ZM169.23 109.856C169.23 110.984 170.118 111.872 171.246 111.872C172.374 111.872 173.262 110.984 173.262 109.856C173.262 108.704 172.374 107.816 171.246 107.816C170.118 107.816 169.23 108.704 169.23 109.856ZM175.589 113.024L179.765 118.76L175.181 125H178.925L181.733 121.16L184.517 125H188.309L183.749 118.736L187.949 113.024H184.205L181.781 116.384L179.381 113.024H175.589Z" fill="#353535"/>
<path d="M1032.98 112.712C1031.25 112.712 1029.93 113.312 1029.04 114.488V113.024H1025.66V129.8H1029.04V123.536C1029.98 124.712 1031.27 125.312 1032.98 125.312C1034.61 125.312 1035.95 124.712 1037.01 123.512C1038.09 122.288 1038.62 120.8 1038.62 119.024C1038.62 117.224 1038.09 115.736 1037.01 114.536C1035.95 113.312 1034.61 112.712 1032.98 112.712ZM1032.02 115.664C1032.95 115.664 1033.74 115.976 1034.34 116.624C1034.94 117.272 1035.26 118.064 1035.26 119.024C1035.26 119.96 1034.94 120.752 1034.34 121.4C1033.74 122.048 1032.95 122.36 1032.02 122.36C1030.7 122.36 1029.59 121.616 1029.04 120.584V117.464C1029.59 116.432 1030.7 115.664 1032.02 115.664ZM1044.49 125V118.016C1044.97 116.936 1046.36 115.928 1047.99 115.928C1048.4 115.928 1048.76 115.976 1049.05 116.048V112.736C1048.95 112.712 1048.83 112.712 1048.66 112.712C1047.77 112.712 1046.93 112.952 1046.17 113.408C1045.4 113.864 1044.85 114.416 1044.49 115.04V113.024H1041.1V125H1044.49ZM1054.73 121.4C1054.11 120.752 1053.79 119.96 1053.79 119C1053.79 118.04 1054.11 117.248 1054.73 116.624C1055.35 115.976 1056.15 115.664 1057.11 115.664C1058.07 115.664 1058.86 115.976 1059.48 116.624C1060.11 117.248 1060.42 118.04 1060.42 119C1060.42 119.96 1060.11 120.752 1059.48 121.4C1058.86 122.048 1058.07 122.36 1057.11 122.36C1056.15 122.36 1055.35 122.048 1054.73 121.4ZM1050.46 119C1050.46 120.8 1051.08 122.288 1052.33 123.512C1053.58 124.712 1055.16 125.312 1057.11 125.312C1059.05 125.312 1060.63 124.712 1061.88 123.512C1063.13 122.288 1063.75 120.8 1063.75 119C1063.75 117.248 1063.13 115.76 1061.88 114.536C1060.63 113.312 1059.05 112.712 1057.11 112.712C1055.16 112.712 1053.58 113.312 1052.33 114.536C1051.08 115.736 1050.46 117.224 1050.46 119ZM1071.1 125.312C1072.83 125.312 1074.15 124.712 1075.03 123.536V125H1078.42V108.2H1075.03V114.488C1074.1 113.312 1072.8 112.712 1071.1 112.712C1069.47 112.712 1068.12 113.312 1067.04 114.536C1065.99 115.736 1065.46 117.224 1065.46 119C1065.46 120.8 1065.99 122.288 1067.04 123.512C1068.12 124.712 1069.47 125.312 1071.1 125.312ZM1072.06 122.36C1071.12 122.36 1070.33 122.048 1069.73 121.4C1069.13 120.752 1068.82 119.96 1068.82 119C1068.82 118.064 1069.13 117.272 1069.73 116.624C1070.33 115.976 1071.12 115.664 1072.06 115.664C1073.38 115.664 1074.48 116.408 1075.03 117.44V120.56C1074.48 121.592 1073.38 122.36 1072.06 122.36ZM1083.23 125.264C1084.38 125.264 1085.32 124.328 1085.32 123.152C1085.32 122 1084.38 121.088 1083.23 121.088C1082.05 121.088 1081.14 122 1081.14 123.152C1081.14 124.328 1082.05 125.264 1083.23 125.264ZM1101.48 125.312C1103.12 125.312 1104.46 124.712 1105.52 123.512C1106.6 122.288 1107.12 120.8 1107.12 119C1107.12 117.224 1106.6 115.736 1105.52 114.536C1104.46 113.312 1103.12 112.712 1101.48 112.712C1099.78 112.712 1098.48 113.312 1097.55 114.488V108.2H1094.16V125H1097.55V123.536C1098.44 124.712 1099.76 125.312 1101.48 125.312ZM1100.52 122.36C1099.2 122.36 1098.1 121.592 1097.55 120.56V117.44C1098.1 116.408 1099.2 115.664 1100.52 115.664C1101.46 115.664 1102.25 115.976 1102.85 116.624C1103.45 117.272 1103.76 118.064 1103.76 119C1103.76 119.96 1103.45 120.752 1102.85 121.4C1102.25 122.048 1101.46 122.36 1100.52 122.36ZM1110.79 129.944C1112.93 129.944 1114.51 128.72 1115.57 126.248L1121.11 113.024H1117.54L1114.54 120.896L1111.37 113.024H1107.72L1112.88 124.592C1112.19 126.248 1111.44 126.992 1110.22 126.992C1109.57 126.992 1108.95 126.824 1108.39 126.512V129.464C1108.99 129.776 1109.81 129.944 1110.79 129.944ZM1137.99 125.336C1139.81 125.336 1141.39 124.928 1142.76 124.112V120.632C1141.51 121.616 1139.98 122.096 1138.15 122.096C1136.5 122.096 1135.13 121.592 1134.05 120.56C1132.97 119.528 1132.42 118.208 1132.42 116.6C1132.42 114.992 1132.95 113.696 1134 112.664C1135.08 111.632 1136.4 111.104 1138.01 111.104C1139.67 111.104 1141.13 111.536 1142.43 112.4V108.92C1141.11 108.224 1139.64 107.864 1137.99 107.864C1135.37 107.864 1133.19 108.68 1131.46 110.312C1129.75 111.944 1128.89 114.032 1128.89 116.6C1128.89 119.144 1129.75 121.232 1131.48 122.888C1133.21 124.52 1135.37 125.336 1137.99 125.336ZM1148.71 125.312C1149.55 125.312 1150.27 125.168 1150.84 124.88V122.096C1150.6 122.24 1150.32 122.312 1149.98 122.312C1149.26 122.312 1148.9 121.904 1148.9 121.112V108.2H1145.52V122C1145.52 124.4 1146.86 125.312 1148.71 125.312ZM1156.64 121.4C1156.01 120.752 1155.7 119.96 1155.7 119C1155.7 118.04 1156.01 117.248 1156.64 116.624C1157.26 115.976 1158.05 115.664 1159.01 115.664C1159.97 115.664 1160.76 115.976 1161.39 116.624C1162.01 117.248 1162.32 118.04 1162.32 119C1162.32 119.96 1162.01 120.752 1161.39 121.4C1160.76 122.048 1159.97 122.36 1159.01 122.36C1158.05 122.36 1157.26 122.048 1156.64 121.4ZM1152.36 119C1152.36 120.8 1152.99 122.288 1154.24 123.512C1155.48 124.712 1157.07 125.312 1159.01 125.312C1160.96 125.312 1162.54 124.712 1163.79 123.512C1165.04 122.288 1165.66 120.8 1165.66 119C1165.66 117.248 1165.04 115.76 1163.79 114.536C1162.54 113.312 1160.96 112.712 1159.01 112.712C1157.07 112.712 1155.48 113.312 1154.24 114.536C1152.99 115.736 1152.36 117.224 1152.36 119ZM1176.32 120.656C1175.74 121.544 1174.66 122.216 1173.6 122.216C1172.36 122.216 1171.32 121.52 1171.32 119.672V113.024H1167.94V120.368C1167.94 123.44 1169.52 125.312 1172.31 125.312C1173.92 125.312 1175.24 124.736 1176.32 123.56V125H1179.7V113.024H1176.32V120.656ZM1187.86 125.312C1189.59 125.312 1190.91 124.712 1191.8 123.536V125H1195.18V108.2H1191.8V114.488C1190.86 113.312 1189.57 112.712 1187.86 112.712C1186.23 112.712 1184.89 113.312 1183.81 114.536C1182.75 115.736 1182.22 117.224 1182.22 119C1182.22 120.8 1182.75 122.288 1183.81 123.512C1184.89 124.712 1186.23 125.312 1187.86 125.312ZM1188.82 122.36C1187.89 122.36 1187.1 122.048 1186.5 121.4C1185.9 120.752 1185.58 119.96 1185.58 119C1185.58 118.064 1185.9 117.272 1186.5 116.624C1187.1 115.976 1187.89 115.664 1188.82 115.664C1190.14 115.664 1191.25 116.408 1191.8 117.44V120.56C1191.25 121.592 1190.14 122.36 1188.82 122.36ZM1202.13 125V113.504L1206.07 118.904H1207.99L1211.85 113.504V125H1215.26V108.2H1211.85L1206.98 115.16L1202.11 108.2H1198.68V125H1202.13ZM1222.33 125V113.024H1218.95V125H1222.33ZM1218.61 109.856C1218.61 110.984 1219.5 111.872 1220.63 111.872C1221.76 111.872 1222.65 110.984 1222.65 109.856C1222.65 108.704 1221.76 107.816 1220.63 107.816C1219.5 107.816 1218.61 108.704 1218.61 109.856ZM1229 125.312C1229.84 125.312 1230.56 125.168 1231.14 124.88V122.096C1230.9 122.24 1230.61 122.312 1230.28 122.312C1229.56 122.312 1229.2 121.904 1229.2 121.112V108.2H1225.81V122C1225.81 124.4 1227.16 125.312 1229 125.312ZM1236.64 125.312C1237.48 125.312 1238.2 125.168 1238.78 124.88V122.096C1238.54 122.24 1238.25 122.312 1237.92 122.312C1237.2 122.312 1236.84 121.904 1236.84 121.112V108.2H1233.45V122C1233.45 124.4 1234.8 125.312 1236.64 125.312Z" fill="#353535"/>
</svg>
