<svg width="296" height="81" viewBox="0 0 296 81" fill="none" xmlns="http://www.w3.org/2000/svg">
<path d="M33.376 68C40.384 68 45.856 66.272 49.888 62.816C54.016 59.36 56.032 54.752 56.032 49.088C56.032 39.2 49.888 32.672 41.728 31.136C46.816 29.216 50.656 24.224 50.656 17.312C50.656 6.944 42.88 0.799995 30.88 0.799995H0.352V68H33.376ZM10.912 37.184H31.456C39.808 37.184 44.608 40.928 44.608 47.552C44.608 54.368 39.616 58.304 31.456 58.304H10.912V37.184ZM10.912 10.496H29.056C36.064 10.496 40.192 13.472 40.192 19.136C40.192 24.8 36.064 27.872 29.056 27.872H10.912V10.496ZM78.2755 68L103.716 35.936V68H114.083V20.864H104.388L78.9475 52.832V20.864H68.5795V68H78.2755ZM133.469 80.96V68H172.349V80.96H182.141V58.88H173.981V20.864H136.445C136.349 31.328 135.869 39.296 134.813 44.96C133.853 50.528 132.125 55.136 129.629 58.88H123.485V80.96H133.469ZM140.573 58.88C144.125 51.872 145.949 42.272 145.949 29.984H163.613V58.88H140.573ZM189.157 44.384C189.157 51.776 191.653 57.728 196.645 62.336C201.733 66.944 207.877 69.248 215.173 69.248C222.469 69.248 228.229 67.712 232.549 64.64V55.904C227.845 58.688 222.853 60.128 217.381 60.128C207.781 60.128 200.869 55.424 199.621 47.456H235.717V44.768C235.717 36.224 232.741 28.448 225.733 23.456C222.277 20.864 218.149 19.616 213.349 19.616C206.149 19.616 200.389 22.016 195.877 26.72C191.365 31.424 189.157 37.376 189.157 44.384ZM199.717 39.584C200.389 33.44 205.285 28.352 212.869 28.352C216.709 28.352 219.685 29.504 221.893 31.808C224.101 34.112 225.157 36.704 225.253 39.584H199.717ZM270.015 60.128C265.503 60.128 261.855 58.592 258.879 55.616C255.903 52.64 254.463 48.896 254.463 44.384C254.463 39.968 255.903 36.224 258.879 33.248C261.855 30.272 265.599 28.736 270.015 28.736C274.431 28.736 278.079 30.272 281.055 33.248C284.031 36.224 285.471 39.968 285.471 44.384C285.471 48.896 284.031 52.64 281.055 55.616C278.079 58.592 274.431 60.128 270.015 60.128ZM270.015 69.248C277.503 69.248 283.647 66.848 288.542 62.048C293.439 57.152 295.839 51.296 295.839 44.384C295.839 37.472 293.439 31.616 288.542 26.816C283.647 22.016 277.503 19.616 270.015 19.616C262.431 19.616 256.287 22.016 251.391 26.816C246.495 31.616 244.095 37.472 244.095 44.384C244.095 51.392 246.495 57.248 251.391 62.048C256.287 66.848 262.431 69.248 270.015 69.248Z" fill="#353535"/>
</svg>
