<svg width="1205" height="628" viewBox="0 0 1205 628" fill="none" xmlns="http://www.w3.org/2000/svg">
<path d="M616.678 326.091H700.062C731.363 373.579 774.369 409.978 824.888 452.329C846.548 470.435 868.709 489.167 893.311 511.157L930.057 544.174L966.804 511.157C991.218 489.167 1013.63 470.435 1035.23 452.329C1107.84 391.497 1165.25 343.445 1194.55 255.923L1195.67 252.164C1212.2 188.074 1206.25 127.241 1178.9 80.9432C1168.63 63.277 1154.96 47.8276 1138.68 35.4918C1122.4 23.1561 1103.83 14.1799 1084.06 9.08418C1013.07 -9.02153 962.985 17.2286 930.183 42.0378C897.317 16.978 847.299 -9.02153 776.373 9.08418C756.552 14.1499 737.936 23.1123 721.611 35.4493C705.285 47.7863 691.576 63.2513 681.282 80.9432C658.558 119.41 650.796 167.901 658.245 219.962H616.678V0H506V550H616.678V326.091ZM775.997 136.952C778.898 131.724 782.83 127.141 787.554 123.48C792.278 119.818 797.696 117.155 803.479 115.651C836.657 107.256 853.559 120.412 881.479 144.344C886.55 148.73 891.308 152.865 895.94 156.561L930.183 183.814L964.425 156.624C969.058 152.927 973.878 148.793 978.949 144.094C1006.81 120.35 1023.83 107.256 1056.89 115.651C1062.67 117.155 1068.09 119.818 1072.81 123.48C1077.54 127.141 1081.47 131.724 1084.37 136.952C1096.39 157.25 1098.33 188.45 1089.81 222.782C1070.1 279.73 1030.28 313.122 964.613 368.003C953.783 377.087 942.202 386.798 929.995 397.198C917.85 386.798 906.269 377.087 895.377 368.003C830.084 313.248 790.27 279.73 770.551 222.782C762.037 188.45 763.978 157.25 775.997 136.952Z" fill="#FF7200"/>
<path d="M152.58 266H167.1V125.64H213.08V112H106.6V125.64H152.58V266ZM235.171 266H249.691V190.76H328.011V266H342.531V112H328.011V177.12H249.691V112H235.171V266ZM382.124 266H396.644V135.54L472.984 266H490.144V112H475.624V242.9L399.284 112H382.124V266ZM513.442 266H529.502L571.082 194.94L612.662 266H628.722L579.002 181.3L619.262 112H603.202L571.082 167.88L538.962 112H522.902L563.162 181.3L513.442 266Z" fill="white"/>
<path d="M233.8 446H248.32V372.52H309.04V358.88H248.32V305.64H322.24V292H233.8V446ZM338.448 369C338.448 416.74 369.468 447.76 405.988 447.76C442.508 447.76 473.528 416.74 473.528 369C473.528 321.26 442.508 290.24 405.988 290.24C369.468 290.24 338.448 321.26 338.448 369ZM458.348 369C458.348 411.02 435.468 434.12 405.988 434.12C376.508 434.12 353.628 411.02 353.628 369C353.628 326.98 376.508 303.88 405.988 303.88C435.468 303.88 458.348 326.98 458.348 369ZM504.718 446H519.238V369.88H548.058L596.238 446H612.518L564.558 369.22C585.898 366.36 598.218 353.16 598.218 330.94C598.218 305.2 582.158 292 554.218 292H504.718V446ZM519.238 356.24V305.64H553.338C573.578 305.64 583.478 313.56 583.478 330.94C583.478 348.32 573.578 356.24 553.338 356.24H519.238Z" fill="white"/>
<path d="M44.88 626H59.62L94.6 510.72L129.58 626H144.32L186.56 472H171.38L136.62 603.34L101.2 488.28H88L52.58 603.34L17.82 472H2.64L44.88 626ZM180.96 626H195.92L211.32 582.22H274.68L290.08 626H305.04L249.38 472H236.62L180.96 626ZM215.94 568.58L243 491.8L270.06 568.58H215.94ZM341.33 626H355.85V485.64H401.83V472H295.35V485.64H341.33V626ZM409.331 549C408.671 600.26 441.671 628.2 477.311 627.76C506.351 627.76 527.471 611.04 535.391 583.76L521.091 579.58C515.151 601.58 500.191 614.12 477.311 614.12C446.071 614.12 424.511 590.36 424.511 549C424.511 507.64 446.071 483.88 477.311 483.88C500.191 483.88 515.151 496.42 521.091 518.42L535.391 514.24C527.471 486.96 506.351 470.24 477.311 470.24C441.671 469.8 408.671 497.74 409.331 549ZM566.148 626H580.668V550.76H658.988V626H673.508V472H658.988V537.12H580.668V472H566.148V626ZM713.101 626H727.621V472H713.101V626ZM767.241 626H781.761V495.54L858.101 626H875.261V472H860.741V602.9L784.401 472H767.241V626ZM906.479 549C906.479 599.82 937.939 627.76 974.019 627.76C994.259 627.76 1011.64 618.08 1019.78 602.24L1021.54 626H1034.3V548.34H984.139V561.98H1019.78C1019.56 596.08 1003.28 614.12 974.019 614.12C943.439 614.12 921.659 590.58 921.659 549C921.659 507.42 943.439 483.88 974.019 483.88C996.239 483.88 1012.08 496.42 1019.12 519.08L1033.42 515.12C1025.72 487.18 1004.16 470.24 974.019 470.24C937.939 470.24 906.479 498.18 906.479 549Z" fill="white"/>
</svg>
