<svg width="1522" height="830" viewBox="0 0 1522 830" fill="none" xmlns="http://www.w3.org/2000/svg">
<path d="M231.029 542.582H338.033C378.199 603.54 433.388 650.263 498.217 704.626C526.012 727.868 554.45 751.913 586.021 780.14L633.177 822.521L680.332 780.14C711.662 751.913 740.422 727.868 768.136 704.626C861.323 626.539 934.988 564.858 972.584 452.512L974.03 447.687C995.238 365.418 987.607 287.331 952.501 227.902C939.327 205.225 921.785 185.393 900.892 169.559C880 153.724 856.173 142.202 830.796 135.661C739.698 112.42 675.432 146.115 633.337 177.961C591.163 145.794 526.976 112.42 435.959 135.661C410.524 142.163 386.635 153.668 365.685 169.504C344.735 185.34 327.143 205.192 313.933 227.902C284.772 277.279 274.811 339.523 284.37 406.352H231.029V124H89V830H231.029V542.582ZM435.477 299.796C439.2 293.086 444.246 287.203 450.308 282.503C456.37 277.803 463.322 274.384 470.743 272.454C513.32 261.678 535.01 278.566 570.838 309.286C577.345 314.915 583.451 320.223 589.395 324.968L633.337 359.95L677.28 325.048C683.224 320.303 689.41 314.996 695.917 308.964C731.665 278.485 753.516 261.678 795.932 272.454C803.353 274.384 810.305 277.803 816.367 282.503C822.429 287.203 827.475 293.086 831.198 299.796C846.622 325.852 849.112 365.901 838.187 409.971C812.882 483.072 761.79 525.935 677.521 596.382C663.623 608.043 648.761 620.508 633.096 633.858C617.512 620.508 602.65 608.043 588.672 596.382C504.885 526.096 453.793 483.072 428.488 409.971C417.563 365.901 420.053 325.852 435.477 299.796Z" fill="#FF7200"/>
<path d="M9.68 173C12.1 173.66 14.96 173.88 18.26 173.88C39.16 173.88 46.86 159.58 48.62 127.24L53.68 32.64H115.28V173H129.8V19H40.7L34.98 126.14C33.88 150.78 29.04 159.36 18.26 159.36C15.4 159.36 12.54 158.92 9.68 158.04V173ZM342.911 96C343.791 48.92 311.891 16.58 276.471 17.24C243.691 17.24 215.091 43.2 210.691 84.12H183.851V19H169.331V173H183.851V97.76H210.031C209.811 143.96 241.711 175.42 276.471 174.76C311.891 175.2 343.791 143.3 342.911 96ZM327.731 96C327.731 138.02 305.071 161.12 276.471 161.12C247.871 161.12 225.211 138.02 225.211 96C225.211 53.98 247.871 30.88 276.471 30.88C305.071 30.88 327.731 53.98 327.731 96ZM358.136 202.48H372.656V173H482.656V202.48H497.176V159.36H480.456V19H387.396L383.216 88.52C382.116 105.68 381.236 118.44 380.136 126.8C379.256 134.94 377.936 141.54 375.956 146.16C374.196 150.78 371.556 155.18 368.036 159.36H358.136V202.48ZM384.756 159.36C392.236 146.82 393.556 139.56 396.636 88.74L399.716 32.64H465.936V159.36H384.756ZM525.757 173H539.617L620.577 44.08V173H635.097V19H621.237L540.277 148.36V19H525.757V173ZM719.953 173C722.373 173.66 725.233 173.88 728.533 173.88C749.433 173.88 757.133 159.58 758.893 127.24L763.953 32.64H825.553V173H840.073V19H750.973L745.253 126.14C744.153 150.78 739.313 159.36 728.533 159.36C725.673 159.36 722.813 158.92 719.953 158.04V173ZM1053.18 96C1054.06 48.92 1022.16 16.58 986.745 17.24C953.965 17.24 925.365 43.2 920.965 84.12H894.125V19H879.605V173H894.125V97.76H920.305C920.085 143.96 951.985 175.42 986.745 174.76C1022.16 175.2 1054.06 143.3 1053.18 96ZM1038 96C1038 138.02 1015.34 161.12 986.745 161.12C958.145 161.12 935.485 138.02 935.485 96C935.485 53.98 958.145 30.88 986.745 30.88C1015.34 30.88 1038 53.98 1038 96ZM1084.35 173H1136.71C1164.21 173 1181.15 156.72 1181.15 129.44C1181.15 102.16 1164.21 85.88 1136.71 85.88H1098.87V32.64H1172.79V19H1084.35V173ZM1098.87 159.36V99.52H1136.93C1156.95 99.52 1165.97 111.18 1165.97 129.44C1165.97 147.7 1156.95 159.36 1136.93 159.36H1098.87ZM1250 19C1222.5 19 1206 32.86 1206 59.92C1206 83.46 1218.32 96.88 1239.66 100.18L1191.7 173H1207.98L1256.16 100.84H1284.98V173H1299.5V19H1250ZM1284.98 87.2H1250.88C1231.52 87.2 1220.74 78.4 1220.74 59.92C1220.74 41.44 1231.52 32.64 1250.88 32.64H1284.98V87.2ZM1367.64 173H1382.16V32.64H1428.14V19H1321.66V32.64H1367.64V173Z" fill="white"/>
<path d="M737.16 303.72C737.16 336.72 761.14 354.76 789.96 354.76C818.78 354.76 842.76 336.72 842.76 303.72V199H828.24V305.04C828.24 325.5 814.6 341.12 789.96 341.12C765.32 341.12 751.68 325.5 751.68 305.04V199H737.16V303.72ZM879.663 353H894.183V199H879.663V353ZM915.764 364H930.284L1026.2 188H1011.68L915.764 364ZM1045.03 303.72C1045.03 336.72 1069.01 354.76 1097.83 354.76C1126.65 354.76 1150.63 336.72 1150.63 303.72V199H1136.11V305.04C1136.11 325.5 1122.47 341.12 1097.83 341.12C1073.19 341.12 1059.55 325.5 1059.55 305.04V199H1045.03V303.72ZM1168.68 353H1184.74L1226.32 281.94L1267.9 353H1283.96L1234.24 268.3L1274.5 199H1258.44L1226.32 254.88L1194.2 199H1178.14L1218.4 268.3L1168.68 353Z" fill="white"/>
<path d="M124.064 478H140.632V474.276H130.486L137.44 465.194C139.15 462.952 140.024 460.786 140.024 458.62C140.024 454.06 137.022 451.096 132.31 451.096C128.016 451.096 124.824 454.098 124.52 458.164L128.282 458.886C128.624 456.34 130.106 454.82 132.234 454.82C134.628 454.82 135.958 456.302 135.958 458.734C135.958 460.52 135.426 461.774 133.602 464.054L124.064 476.404V478ZM143.902 464.7C143.902 473.212 147.322 478.304 153.516 478.304C159.71 478.304 163.13 473.212 163.13 464.7C163.13 456.188 159.71 451.096 153.516 451.096C147.322 451.096 143.902 456.188 143.902 464.7ZM159.102 464.7C159.102 470.97 157.164 474.58 153.516 474.58C149.83 474.58 147.93 470.97 147.93 464.7C147.93 458.43 149.83 454.82 153.516 454.82C157.164 454.82 159.102 458.43 159.102 464.7ZM171.77 478H175.836V451.4H174.202L166.906 455.77V460.178L171.77 457.214V478ZM180.746 470.21C180.746 475.226 184.584 478.304 189.182 478.304C193.742 478.304 197.656 475.226 197.656 470.21C197.656 467.17 196.212 464.776 193.894 463.674C195.604 462.458 196.668 460.52 196.668 458.24C196.668 454.25 193.552 451.096 189.182 451.096C184.85 451.096 181.734 454.25 181.734 458.24C181.734 460.52 182.76 462.458 184.47 463.674C182.19 464.776 180.746 467.17 180.746 470.21ZM192.83 458.316C192.83 460.596 191.348 462.116 189.182 462.116C187.016 462.116 185.534 460.596 185.534 458.316C185.534 456.036 187.016 454.554 189.182 454.554C191.424 454.554 192.83 456.036 192.83 458.316ZM193.59 470.21C193.59 472.946 191.766 474.58 189.182 474.58C186.598 474.58 184.812 472.946 184.812 470.21C184.812 467.474 186.598 465.84 189.182 465.84C191.766 465.84 193.59 467.474 193.59 470.21Z" fill="white"/>
<path d="M1.824 517.7C1.71 526.402 7.6 531.38 14.136 531.304C19.722 531.304 23.598 528.378 24.852 523.4L21.014 522.374C19.874 525.718 17.594 527.39 14.136 527.39C9.614 527.39 6.118 524.084 6.118 517.7C6.118 511.316 9.614 508.01 14.136 508.01C17.594 508.01 19.874 509.682 21.014 513.026L24.852 512C23.598 507.022 19.722 504.096 14.136 504.096C7.6 504.02 1.71 508.998 1.824 517.7ZM29.6872 531H45.5332V527.086H33.9052V504.4H29.6872V531ZM47.0603 517.7C46.9463 526.402 52.6463 531.38 59.3343 531.304C66.0223 531.38 71.7223 526.402 71.6083 517.7C71.7223 508.998 66.0223 504.02 59.3343 504.096C52.6463 504.02 46.9463 508.998 47.0603 517.7ZM67.3143 517.7C67.3143 524.16 63.7803 527.39 59.3343 527.39C54.8883 527.39 51.3543 524.16 51.3543 517.7C51.3543 511.24 54.8883 508.01 59.3343 508.01C63.7803 508.01 67.3143 511.24 67.3143 517.7ZM76.2515 521.386C76.2515 527.884 80.1275 531.304 85.9415 531.304C91.7175 531.304 95.5935 527.884 95.5935 521.386V504.4H91.3755V521.5C91.3755 525.262 89.5515 527.39 85.9415 527.39C82.3315 527.39 80.4695 525.262 80.4695 521.5V504.4H76.2515V521.386ZM101.42 531H109.362C115.86 531.076 121.75 526.402 121.636 517.7C121.75 508.998 115.86 504.324 109.362 504.4H101.42V531ZM105.638 527.086V508.314H108.26C110.844 508.314 113.01 509.036 114.72 510.518C116.468 511.962 117.342 514.356 117.342 517.7C117.342 521.006 116.468 523.4 114.72 524.882C112.972 526.364 110.806 527.086 108.26 527.086H105.638ZM126.617 531H130.835V512.988L136.725 528.568H139.689L145.579 512.988V531H149.759V504.4H144.971L138.207 522.032L131.443 504.4H126.617V531ZM156.082 531H160.3V504.4H156.082V531ZM166.621 531H182.467V527.086H170.839V504.4H166.621V531ZM186.994 531H202.84V527.086H191.212V504.4H186.994V531Z" fill="white"/>
<path d="M565.44 462C564.78 513.26 597.78 541.2 633.42 540.76C662.46 540.76 683.58 524.04 691.5 496.76L677.2 492.58C671.26 514.58 656.3 527.12 633.42 527.12C602.18 527.12 580.62 503.36 580.62 462C580.62 420.64 602.18 396.88 633.42 396.88C656.3 396.88 671.26 409.42 677.2 431.42L691.5 427.24C683.58 399.96 662.46 383.24 633.42 383.24C597.78 382.8 564.78 410.74 565.44 462ZM713.897 462C713.897 509.74 744.917 540.76 781.437 540.76C817.957 540.76 848.977 509.74 848.977 462C848.977 414.26 817.957 383.24 781.437 383.24C744.917 383.24 713.897 414.26 713.897 462ZM833.797 462C833.797 504.02 810.917 527.12 781.437 527.12C751.957 527.12 729.077 504.02 729.077 462C729.077 419.98 751.957 396.88 781.437 396.88C810.917 396.88 833.797 419.98 833.797 462ZM880.167 539H894.687V408.54L971.027 539H988.187V385H973.667V515.9L897.327 385H880.167V539ZM1019.4 462C1018.74 513.26 1051.74 541.2 1087.38 540.76C1116.42 540.76 1137.54 524.04 1145.46 496.76L1131.16 492.58C1125.22 514.58 1110.26 527.12 1087.38 527.12C1056.14 527.12 1034.58 503.36 1034.58 462C1034.58 420.64 1056.14 396.88 1087.38 396.88C1110.26 396.88 1125.22 409.42 1131.16 431.42L1145.46 427.24C1137.54 399.96 1116.42 383.24 1087.38 383.24C1051.74 382.8 1018.74 410.74 1019.4 462ZM1176.22 539H1265.32V525.36H1190.74V463.76H1249.92V450.12H1190.74V398.64H1263.12V385H1176.22V539ZM1296.53 539H1311.05V469.92H1348.89C1376.39 469.92 1393.33 453.86 1393.33 427.46C1393.33 401.06 1376.39 385 1348.89 385H1296.53V539ZM1311.05 456.28V398.64H1349.11C1369.13 398.64 1378.15 409.86 1378.15 427.46C1378.15 445.06 1369.13 456.28 1349.11 456.28H1311.05ZM1453.92 539H1468.44V398.64H1514.42V385H1407.94V398.64H1453.92V539Z" fill="white"/>
</svg>
