<svg width="1863" height="158" viewBox="0 0 1863 158" fill="none" xmlns="http://www.w3.org/2000/svg">
<path d="M5.4 47H9.36V28.16H19.68C27.18 28.16 31.8 23.78 31.8 16.58C31.8 9.38 27.18 5 19.68 5H5.4V47ZM9.36 24.44V8.72H19.74C25.2 8.72 27.66 11.78 27.66 16.58C27.66 21.38 25.2 24.44 19.74 24.44H9.36ZM39.8531 47H43.8131V26.24H51.6731L64.8131 47H69.2531L56.1731 26.06C61.9931 25.28 65.3531 21.68 65.3531 15.62C65.3531 8.6 60.9731 5 53.3531 5H39.8531V47ZM43.8131 22.52V8.72H53.1131C58.6331 8.72 61.3331 10.88 61.3331 15.62C61.3331 20.36 58.6331 22.52 53.1131 22.52H43.8131ZM71.2645 26C71.2645 39.02 79.7245 47.48 89.6845 47.48C99.6445 47.48 108.105 39.02 108.105 26C108.105 12.98 99.6445 4.52 89.6845 4.52C79.7245 4.52 71.2645 12.98 71.2645 26ZM103.965 26C103.965 37.46 97.7245 43.76 89.6845 43.76C81.6445 43.76 75.4045 37.46 75.4045 26C75.4045 14.54 81.6445 8.24 89.6845 8.24C97.7245 8.24 103.965 14.54 103.965 26ZM116.611 47H127.651C138.511 47 146.731 38.96 146.731 26C146.731 13.04 138.511 5 127.651 5H116.611V47ZM120.571 43.28V8.72H127.711C135.751 8.72 142.591 14.3 142.591 26C142.591 37.7 135.751 43.28 127.711 43.28H120.571ZM154.504 33.56C154.504 42.56 161.044 47.48 168.904 47.48C176.764 47.48 183.304 42.56 183.304 33.56V5H179.344V33.92C179.344 39.5 175.624 43.76 168.904 43.76C162.184 43.76 158.464 39.5 158.464 33.92V5H154.504V33.56ZM191.089 26C190.909 39.98 199.909 47.6 209.629 47.48C217.549 47.48 223.309 42.92 225.469 35.48L221.569 34.34C219.949 40.34 215.869 43.76 209.629 43.76C201.109 43.76 195.229 37.28 195.229 26C195.229 14.72 201.109 8.24 209.629 8.24C215.869 8.24 219.949 11.66 221.569 17.66L225.469 16.52C223.309 9.08 217.549 4.52 209.629 4.52C199.909 4.4 190.909 12.02 191.089 26ZM240.395 47H244.355V8.72H256.895V5H227.855V8.72H240.395V47ZM260.508 36.14C261.588 42.38 266.808 47.48 273.648 47.48C280.308 47.48 285.348 42.62 285.348 35.42C285.348 29.36 281.808 25.88 275.628 23.06C270.048 20.54 267.108 18.8 266.808 14C266.808 10.88 269.208 8.24 272.868 8.24C276.048 8.24 278.388 9.86 279.828 13.04L283.068 11C281.208 6.92 278.208 4.52 272.868 4.52C267.288 4.52 262.848 8.54 262.848 14.3C262.848 19.76 266.328 23 272.088 25.7C276.348 27.68 278.568 28.94 280.068 31.28C280.848 32.42 281.208 33.86 281.208 35.6C281.208 40.88 278.028 43.76 273.648 43.76C268.668 43.76 265.428 40.52 263.928 34.1L260.508 36.14ZM305.977 35.36C305.977 42.98 310.837 47.48 318.217 47.48C323.017 47.48 326.857 45.68 329.797 42.08L333.697 47H338.017L331.837 39.14C332.977 37.16 334.117 34.64 335.257 31.46L332.677 28.46C331.657 31.4 330.637 33.98 329.497 36.14L319.717 23.6C324.997 20.9 328.597 17.66 328.597 12.92C328.597 7.94 324.997 4.52 319.417 4.52C314.617 4.52 310.357 7.82 310.357 13.46C310.357 16.58 311.977 19.22 314.317 22.4C309.757 24.74 305.977 29.12 305.977 35.36ZM324.877 13.22C324.877 16.34 322.597 18.44 317.557 20.9C315.217 17.9 314.077 15.32 314.077 13.22C314.077 9.86 316.237 7.76 319.417 7.76C322.957 7.76 324.877 10.1 324.877 13.22ZM327.517 39.2C325.057 42.5 322.117 44 318.217 44C313.177 44 309.697 40.58 309.697 35.48C309.697 30.74 312.157 27.44 316.477 25.1L327.517 39.2ZM356.968 26C356.788 39.98 365.788 47.6 375.508 47.48C383.428 47.48 389.188 42.92 391.348 35.48L387.448 34.34C385.828 40.34 381.748 43.76 375.508 43.76C366.988 43.76 361.108 37.28 361.108 26C361.108 14.72 366.988 8.24 375.508 8.24C381.748 8.24 385.828 11.66 387.448 17.66L391.348 16.52C389.188 9.08 383.428 4.52 375.508 4.52C365.788 4.4 356.788 12.02 356.968 26ZM394.587 47H398.667L402.867 35.06H420.147L424.347 47H428.427L413.247 5H409.767L394.587 47ZM404.127 31.34L411.507 10.4L418.887 31.34H404.127ZM433.955 47H437.915V26.24H445.775L458.915 47H463.355L450.275 26.06C456.095 25.28 459.455 21.68 459.455 15.62C459.455 8.6 455.075 5 447.455 5H433.955V47ZM437.915 22.52V8.72H447.215C452.735 8.72 455.435 10.88 455.435 15.62C455.435 20.36 452.735 22.52 447.215 22.52H437.915ZM469.345 47H480.385C491.245 47 499.465 38.96 499.465 26C499.465 13.04 491.245 5 480.385 5H469.345V47ZM473.305 43.28V8.72H480.445C488.485 8.72 495.325 14.3 495.325 26C495.325 37.7 488.485 43.28 480.445 43.28H473.305Z" fill="white"/>
<path d="M369.08 105H372.8V63H371.84L362.12 69.18V73.32L369.08 68.94V105ZM381.099 91.8C381.099 99.54 386.439 105.48 394.179 105.48C401.919 105.48 407.259 99.54 407.259 91.8C407.259 84.06 401.919 78.12 394.179 78.12C392.919 78.12 391.059 78.48 390.279 79.14L399.639 62.52H395.739L383.799 82.86C381.999 85.92 381.099 88.92 381.099 91.8ZM403.419 91.8C403.419 97.74 399.579 102.12 394.179 102.12C388.779 102.12 384.939 97.74 384.939 91.8C384.939 85.5 388.719 81.48 394.179 81.48C399.639 81.48 403.419 85.5 403.419 91.8ZM413.512 84C413.512 90.6 414.712 95.82 417.172 99.72C419.632 103.56 423.232 105.48 427.972 105.48C432.712 105.48 436.252 103.56 438.712 99.72C441.172 95.82 442.432 90.6 442.432 84C442.432 77.4 441.172 72.18 438.712 68.34C436.252 64.44 432.712 62.52 427.972 62.52C423.232 62.52 419.632 64.44 417.172 68.34C414.712 72.18 413.512 77.4 413.512 84ZM438.592 84C438.592 94.74 434.632 102.12 427.972 102.12C421.312 102.12 417.352 94.74 417.352 84C417.352 73.26 421.312 65.88 427.972 65.88C434.632 65.88 438.592 73.26 438.592 84ZM449.137 84C449.137 90.6 450.337 95.82 452.797 99.72C455.257 103.56 458.857 105.48 463.597 105.48C468.337 105.48 471.877 103.56 474.337 99.72C476.797 95.82 478.057 90.6 478.057 84C478.057 77.4 476.797 72.18 474.337 68.34C471.877 64.44 468.337 62.52 463.597 62.52C458.857 62.52 455.257 64.44 452.797 68.34C450.337 72.18 449.137 77.4 449.137 84ZM474.217 84C474.217 94.74 470.257 102.12 463.597 102.12C456.937 102.12 452.977 94.74 452.977 84C452.977 73.26 456.937 65.88 463.597 65.88C470.257 65.88 474.217 73.26 474.217 84ZM499.64 84C499.64 97.86 508.22 105.48 518.06 105.48C523.58 105.48 528.32 102.84 530.54 98.52L531.02 105H534.5V83.82H520.82V87.54H530.54C530.48 96.84 526.04 101.76 518.06 101.76C509.72 101.76 503.78 95.34 503.78 84C503.78 72.66 509.72 66.24 518.06 66.24C524.12 66.24 528.44 69.66 530.36 75.84L534.26 74.76C532.16 67.14 526.28 62.52 518.06 62.52C508.22 62.52 499.64 70.14 499.64 84ZM543.638 105H547.598V84.24H555.458L568.598 105H573.038L559.958 84.06C565.778 83.28 569.138 79.68 569.138 73.62C569.138 66.6 564.758 63 557.138 63H543.638V105ZM547.598 80.52V66.72H556.898C562.418 66.72 565.118 68.88 565.118 73.62C565.118 78.36 562.418 80.52 556.898 80.52H547.598ZM579.029 105H582.989V63H579.029V105ZM593.795 105H604.835C615.695 105 623.915 96.96 623.915 84C623.915 71.04 615.695 63 604.835 63H593.795V105ZM597.755 101.28V66.72H604.895C612.935 66.72 619.775 72.3 619.775 84C619.775 95.7 612.935 101.28 604.895 101.28H597.755Z" fill="white"/>
<path d="M1629.4 105H1640.44C1651.3 105 1659.52 96.96 1659.52 84C1659.52 71.04 1651.3 63 1640.44 63H1629.4V105ZM1633.36 101.28V66.72H1640.5C1648.54 66.72 1655.38 72.3 1655.38 84C1655.38 95.7 1648.54 101.28 1640.5 101.28H1633.36ZM1668.01 105H1692.31V101.28H1671.97V84.48H1688.11V80.76H1671.97V66.72H1691.71V63H1668.01V105ZM1697.54 94.14C1698.62 100.38 1703.84 105.48 1710.68 105.48C1717.34 105.48 1722.38 100.62 1722.38 93.42C1722.38 87.36 1718.84 83.88 1712.66 81.06C1707.08 78.54 1704.14 76.8 1703.84 72C1703.84 68.88 1706.24 66.24 1709.9 66.24C1713.08 66.24 1715.42 67.86 1716.86 71.04L1720.1 69C1718.24 64.92 1715.24 62.52 1709.9 62.52C1704.32 62.52 1699.88 66.54 1699.88 72.3C1699.88 77.76 1703.36 81 1709.12 83.7C1713.38 85.68 1715.6 86.94 1717.1 89.28C1717.88 90.42 1718.24 91.86 1718.24 93.6C1718.24 98.88 1715.06 101.76 1710.68 101.76C1705.7 101.76 1702.46 98.52 1700.96 92.1L1697.54 94.14ZM1730.77 105H1734.73V82.74L1752.79 105H1757.65L1738.93 81.84L1756.15 63H1751.11L1734.73 80.94V63H1730.77V105ZM1772.93 105H1776.89V66.72H1789.43V63H1760.39V66.72H1772.93V105ZM1791.48 84C1791.48 97.02 1799.94 105.48 1809.9 105.48C1819.86 105.48 1828.32 97.02 1828.32 84C1828.32 70.98 1819.86 62.52 1809.9 62.52C1799.94 62.52 1791.48 70.98 1791.48 84ZM1824.18 84C1824.18 95.46 1817.94 101.76 1809.9 101.76C1801.86 101.76 1795.62 95.46 1795.62 84C1795.62 72.54 1801.86 66.24 1809.9 66.24C1817.94 66.24 1824.18 72.54 1824.18 84ZM1836.82 105H1840.78V86.16H1851.1C1858.6 86.16 1863.22 81.78 1863.22 74.58C1863.22 67.38 1858.6 63 1851.1 63H1836.82V105ZM1840.78 82.44V66.72H1851.16C1856.62 66.72 1859.08 69.78 1859.08 74.58C1859.08 79.38 1856.62 82.44 1851.16 82.44H1840.78Z" fill="white"/>
<line y1="157.5" x2="1863" y2="157.5" stroke="#FF7200"/>
</svg>
