<svg width="1863" height="521" viewBox="0 0 1863 521" fill="none" xmlns="http://www.w3.org/2000/svg">
<path d="M5.4 47H9.36V26.48H30.72V47H34.68V5H30.72V22.76H9.36V5H5.4V47ZM43.1981 26C43.1981 39.02 51.6581 47.48 61.6181 47.48C71.5781 47.48 80.0381 39.02 80.0381 26C80.0381 12.98 71.5781 4.52 61.6181 4.52C51.6581 4.52 43.1981 12.98 43.1981 26ZM75.8981 26C75.8981 37.46 69.6581 43.76 61.6181 43.76C53.5781 43.76 47.3381 37.46 47.3381 26C47.3381 14.54 53.5781 8.24 61.6181 8.24C69.6581 8.24 75.8981 14.54 75.8981 26ZM88.5445 47H92.5045V12.68L104.685 43.16H107.205L119.385 12.68V47H123.345V5H118.425L105.945 36.62L93.4645 5H88.5445V47ZM134.13 47H158.43V43.28H138.09V26.48H154.23V22.76H138.09V8.72H157.83V5H134.13V47ZM182.295 47H186.255V28.16H196.575C204.075 28.16 208.695 23.78 208.695 16.58C208.695 9.38 204.075 5 196.575 5H182.295V47ZM186.255 24.44V8.72H196.635C202.095 8.72 204.555 11.78 204.555 16.58C204.555 21.38 202.095 24.44 196.635 24.44H186.255ZM207.146 47H211.226L215.426 35.06H232.706L236.906 47H240.986L225.806 5H222.326L207.146 47ZM216.686 31.34L224.066 10.4L231.446 31.34H216.686ZM243.179 26C243.179 39.86 251.759 47.48 261.599 47.48C267.119 47.48 271.859 44.84 274.079 40.52L274.559 47H278.039V25.82H264.359V29.54H274.079C274.019 38.84 269.579 43.76 261.599 43.76C253.259 43.76 247.319 37.34 247.319 26C247.319 14.66 253.259 8.24 261.599 8.24C267.659 8.24 271.979 11.66 273.899 17.84L277.799 16.76C275.699 9.14 269.819 4.52 261.599 4.52C251.759 4.52 243.179 12.14 243.179 26ZM287.177 47H311.477V43.28H291.137V26.48H307.277V22.76H291.137V8.72H310.877V5H287.177V47Z" fill="white"/>
<path d="M150.08 105H153.8V63H152.84L143.12 69.18V73.32L150.08 68.94V105ZM162.099 91.8C162.099 99.54 167.439 105.48 175.179 105.48C182.919 105.48 188.259 99.54 188.259 91.8C188.259 84.06 182.919 78.12 175.179 78.12C173.919 78.12 172.059 78.48 171.279 79.14L180.639 62.52H176.739L164.799 82.86C162.999 85.92 162.099 88.92 162.099 91.8ZM184.419 91.8C184.419 97.74 180.579 102.12 175.179 102.12C169.779 102.12 165.939 97.74 165.939 91.8C165.939 85.5 169.719 81.48 175.179 81.48C180.639 81.48 184.419 85.5 184.419 91.8ZM194.512 84C194.512 90.6 195.712 95.82 198.172 99.72C200.632 103.56 204.232 105.48 208.972 105.48C213.712 105.48 217.252 103.56 219.712 99.72C222.172 95.82 223.432 90.6 223.432 84C223.432 77.4 222.172 72.18 219.712 68.34C217.252 64.44 213.712 62.52 208.972 62.52C204.232 62.52 200.632 64.44 198.172 68.34C195.712 72.18 194.512 77.4 194.512 84ZM219.592 84C219.592 94.74 215.632 102.12 208.972 102.12C202.312 102.12 198.352 94.74 198.352 84C198.352 73.26 202.312 65.88 208.972 65.88C215.632 65.88 219.592 73.26 219.592 84ZM230.137 84C230.137 90.6 231.337 95.82 233.797 99.72C236.257 103.56 239.857 105.48 244.597 105.48C249.337 105.48 252.877 103.56 255.337 99.72C257.797 95.82 259.057 90.6 259.057 84C259.057 77.4 257.797 72.18 255.337 68.34C252.877 64.44 249.337 62.52 244.597 62.52C239.857 62.52 236.257 64.44 233.797 68.34C231.337 72.18 230.137 77.4 230.137 84ZM255.217 84C255.217 94.74 251.257 102.12 244.597 102.12C237.937 102.12 233.977 94.74 233.977 84C233.977 73.26 237.937 65.88 244.597 65.88C251.257 65.88 255.217 73.26 255.217 84ZM280.64 84C280.64 97.86 289.22 105.48 299.06 105.48C304.58 105.48 309.32 102.84 311.54 98.52L312.02 105H315.5V83.82H301.82V87.54H311.54C311.48 96.84 307.04 101.76 299.06 101.76C290.72 101.76 284.78 95.34 284.78 84C284.78 72.66 290.72 66.24 299.06 66.24C305.12 66.24 309.44 69.66 311.36 75.84L315.26 74.76C313.16 67.14 307.28 62.52 299.06 62.52C289.22 62.52 280.64 70.14 280.64 84ZM324.638 105H328.598V84.24H336.458L349.598 105H354.038L340.958 84.06C346.778 83.28 350.138 79.68 350.138 73.62C350.138 66.6 345.758 63 338.138 63H324.638V105ZM328.598 80.52V66.72H337.898C343.418 66.72 346.118 68.88 346.118 73.62C346.118 78.36 343.418 80.52 337.898 80.52H328.598ZM360.029 105H363.989V63H360.029V105ZM374.795 105H385.835C396.695 105 404.915 96.96 404.915 84C404.915 71.04 396.695 63 385.835 63H374.795V105ZM378.755 101.28V66.72H385.895C393.935 66.72 400.775 72.3 400.775 84C400.775 95.7 393.935 101.28 385.895 101.28H378.755Z" fill="white"/>
<path d="M168 517.868L168 514.736L156.372 514.736L156.372 505.088L153.456 505.088L153.456 514.736L145.716 514.736L145.716 502.928L142.8 502.928L142.8 517.868L168 517.868ZM168 498.567L168 495.435L142.8 495.435L142.8 498.567L168 498.567ZM168 489.216L168 486.084L156.048 486.084L156.048 482.124L168 474.6L168 471.108L155.868 478.668C155.184 475.32 152.988 473.412 149.424 473.412C145.212 473.412 142.8 476.112 142.8 480.756L142.8 489.216L168 489.216ZM153.132 486.084L145.716 486.084L145.716 480.864C145.716 478.02 146.94 476.58 149.424 476.58C151.98 476.58 153.132 478.02 153.132 480.864L153.132 486.084ZM161.412 469.569C165.192 468.921 168.288 465.681 168.288 461.433C168.288 457.221 165.336 454.089 160.944 454.089C157.236 454.089 155.256 456.177 153.564 459.885C152.52 462.225 151.836 463.485 150.648 464.385C150.036 464.853 149.316 465.069 148.488 465.069C146.796 465.069 145.428 463.773 145.428 461.793C145.428 459.957 146.364 458.661 148.236 457.905L146.616 455.349C143.988 456.501 142.512 458.481 142.512 461.793C142.512 465.393 145.104 468.129 148.668 468.129C151.98 468.129 153.96 466.113 155.544 462.837C156.804 460.209 157.452 458.949 158.748 457.977C159.396 457.509 160.188 457.257 161.088 457.257C163.86 457.257 165.372 458.949 165.372 461.397C165.372 464.241 163.5 466.077 159.792 466.977L161.412 469.569ZM168 445.534L168 442.438L145.716 442.438L145.716 435.058L142.8 435.058L142.8 452.914L145.716 452.914L145.716 445.534L168 445.534ZM161.412 423.619C165.192 422.971 168.288 419.731 168.288 415.483C168.288 411.271 165.336 408.139 160.944 408.139C157.236 408.139 155.256 410.227 153.564 413.935C152.52 416.275 151.836 417.535 150.648 418.435C150.036 418.903 149.316 419.119 148.488 419.119C146.796 419.119 145.428 417.823 145.428 415.843C145.428 414.007 146.364 412.711 148.236 411.955L146.616 409.399C143.988 410.551 142.512 412.531 142.512 415.843C142.512 419.443 145.104 422.179 148.668 422.179C151.98 422.179 153.96 420.163 155.544 416.887C156.804 414.259 157.452 412.999 158.748 412.027C159.396 411.559 160.188 411.307 161.088 411.307C163.86 411.307 165.372 412.999 165.372 415.447C165.372 418.291 163.5 420.127 159.792 421.027L161.412 423.619ZM155.4 405.012C163.716 405.12 168.36 399.576 168.288 393.636C168.288 388.632 165.552 385.104 160.944 383.808L160.152 386.76C163.464 387.768 165.372 390.036 165.372 393.636C165.372 398.352 161.808 401.772 155.4 401.772C148.992 401.772 145.428 398.352 145.428 393.636C145.428 390.036 147.336 387.768 150.648 386.76L149.856 383.808C145.248 385.104 142.512 388.633 142.512 393.636C142.44 399.576 147.084 405.12 155.4 405.012ZM168 379.036L168 375.904L156.048 375.904L156.048 371.944L168 364.42L168 360.928L155.868 368.488C155.184 365.14 152.988 363.232 149.424 363.232C145.212 363.232 142.8 365.932 142.8 370.576L142.8 379.036L168 379.036ZM153.132 375.904L145.716 375.904L145.716 370.684C145.716 367.84 146.94 366.4 149.424 366.4C151.98 366.4 153.132 367.84 153.132 370.684L153.132 375.904ZM168 357.591L168 342.579L165.084 342.579L165.084 354.459L156.012 354.459L156.012 345.099L153.132 345.099L153.132 354.459L145.716 354.459L145.716 342.939L142.8 342.939L142.8 357.591L168 357.591ZM168 337.657L168 322.645L165.084 322.645L165.084 334.525L156.012 334.525L156.012 325.165L153.132 325.165L153.132 334.525L145.716 334.525L145.716 323.005L142.8 323.005L142.8 337.657L168 337.657ZM168 317.723L168 314.591L148.2 314.591L168 303.179L168 299.687L142.8 299.687L142.8 302.783L162.672 302.783L142.8 314.231L142.8 317.723L168 317.723Z" fill="white"/>
<path d="M206 511.892L206 508.652L180.8 499.94L180.8 503.288L201.572 510.272L180.8 517.256L180.8 520.604L206 511.892ZM206 496.423L206 493.291L180.8 493.291L180.8 496.423L206 496.423ZM206 487.071L206 480.051C206 473.643 201.392 468.495 193.4 468.495C185.408 468.495 180.8 473.643 180.8 480.051L180.8 487.071L206 487.071ZM203.084 483.939L183.716 483.939L183.716 480.519C183.716 475.839 186.596 471.735 193.4 471.735C200.204 471.735 203.084 475.839 203.084 480.519L203.084 483.939ZM206 463.552L206 448.54L203.084 448.54L203.084 460.42L194.012 460.42L194.012 451.06L191.132 451.06L191.132 460.42L183.716 460.42L183.716 448.9L180.8 448.9L180.8 463.552L206 463.552ZM193.4 445.512C201.392 445.62 206.36 440.292 206.288 434.172C206.36 428.124 201.392 422.76 193.4 422.868C185.408 422.76 180.44 428.124 180.512 434.172C180.44 440.292 185.408 445.62 193.4 445.512ZM193.4 426.072C199.952 426.072 203.372 429.636 203.372 434.172C203.372 438.708 199.952 442.272 193.4 442.272C186.848 442.272 183.428 438.708 183.428 434.172C183.428 429.636 186.848 426.072 193.4 426.072Z" fill="white"/>
<path d="M242 517.868L242 514.736L231.164 514.736L231.164 509.012C231.164 504.26 228.428 501.524 223.964 501.524C219.536 501.524 216.8 504.26 216.8 509.012L216.8 517.868L242 517.868ZM228.248 514.736L219.716 514.736L219.716 509.048C219.716 506.132 221.336 504.764 223.964 504.764C226.664 504.764 228.248 506.132 228.248 509.048L228.248 514.736ZM242 496.95L242 493.818L230.048 493.818L230.048 489.858L242 482.334L242 478.842L229.868 486.402C229.184 483.054 226.988 481.146 223.424 481.146C219.212 481.146 216.8 483.846 216.8 488.49L216.8 496.95L242 496.95ZM227.132 493.818L219.716 493.818L219.716 488.598C219.716 485.754 220.94 484.314 223.424 484.314C225.98 484.314 227.132 485.754 227.132 488.598L227.132 493.818ZM242 475.505L242 460.493L239.084 460.493L239.084 472.373L230.012 472.373L230.012 463.013L227.132 463.013L227.132 472.373L219.716 472.373L219.716 460.853L216.8 460.853L216.8 475.505L242 475.505ZM242 449.454L242 446.214L216.8 437.502L216.8 440.85L237.572 447.834L216.8 454.818L216.8 458.166L242 449.454ZM242 433.985L242 430.853L216.8 430.853L216.8 433.985L242 433.985ZM242 424.634L242 409.622L239.084 409.622L239.084 421.502L230.012 421.502L230.012 412.142L227.132 412.142L227.132 421.502L219.716 421.502L219.716 409.982L216.8 409.982L216.8 424.634L242 424.634ZM242 400.491L242 397.287L224.432 391.959L242 386.595L242 383.427L216.8 376.623L216.8 379.899L237.32 385.119L219.464 390.555L219.464 393.327L237.32 398.799L216.8 403.983L216.8 407.295L242 400.491Z" fill="white"/>
<path d="M1629.4 105H1640.44C1651.3 105 1659.52 96.96 1659.52 84C1659.52 71.04 1651.3 63 1640.44 63H1629.4V105ZM1633.36 101.28V66.72H1640.5C1648.54 66.72 1655.38 72.3 1655.38 84C1655.38 95.7 1648.54 101.28 1640.5 101.28H1633.36ZM1668.01 105H1692.31V101.28H1671.97V84.48H1688.11V80.76H1671.97V66.72H1691.71V63H1668.01V105ZM1697.54 94.14C1698.62 100.38 1703.84 105.48 1710.68 105.48C1717.34 105.48 1722.38 100.62 1722.38 93.42C1722.38 87.36 1718.84 83.88 1712.66 81.06C1707.08 78.54 1704.14 76.8 1703.84 72C1703.84 68.88 1706.24 66.24 1709.9 66.24C1713.08 66.24 1715.42 67.86 1716.86 71.04L1720.1 69C1718.24 64.92 1715.24 62.52 1709.9 62.52C1704.32 62.52 1699.88 66.54 1699.88 72.3C1699.88 77.76 1703.36 81 1709.12 83.7C1713.38 85.68 1715.6 86.94 1717.1 89.28C1717.88 90.42 1718.24 91.86 1718.24 93.6C1718.24 98.88 1715.06 101.76 1710.68 101.76C1705.7 101.76 1702.46 98.52 1700.96 92.1L1697.54 94.14ZM1730.77 105H1734.73V82.74L1752.79 105H1757.65L1738.93 81.84L1756.15 63H1751.11L1734.73 80.94V63H1730.77V105ZM1772.93 105H1776.89V66.72H1789.43V63H1760.39V66.72H1772.93V105ZM1791.48 84C1791.48 97.02 1799.94 105.48 1809.9 105.48C1819.86 105.48 1828.32 97.02 1828.32 84C1828.32 70.98 1819.86 62.52 1809.9 62.52C1799.94 62.52 1791.48 70.98 1791.48 84ZM1824.18 84C1824.18 95.46 1817.94 101.76 1809.9 101.76C1801.86 101.76 1795.62 95.46 1795.62 84C1795.62 72.54 1801.86 66.24 1809.9 66.24C1817.94 66.24 1824.18 72.54 1824.18 84ZM1836.82 105H1840.78V86.16H1851.1C1858.6 86.16 1863.22 81.78 1863.22 74.58C1863.22 67.38 1858.6 63 1851.1 63H1836.82V105ZM1840.78 82.44V66.72H1851.16C1856.62 66.72 1859.08 69.78 1859.08 74.58C1859.08 79.38 1856.62 82.44 1851.16 82.44H1840.78Z" fill="white"/>
<line y1="157.5" x2="1863" y2="157.5" stroke="#FF7200"/>
</svg>
