<svg width="73" height="268" viewBox="0 0 73 268" fill="none" xmlns="http://www.w3.org/2000/svg">
<path d="M28 264.868L28 261.736L9.028 261.736L25.696 255.256L25.696 253.132L9.028 246.616L28 246.616L28 243.52L2.8 243.52L2.8 247.192L20.728 254.176L2.8 261.16L2.8 264.868L28 264.868ZM28 240.006L28 236.694L21.232 234.39L21.232 224.814L28 222.51L28 219.234L2.8 228.126L2.8 231.078L28 240.006ZM18.316 233.454L7.012 229.602L18.316 225.75L18.316 233.454ZM28 216.036L28 212.904L2.8 212.904L2.8 216.036L28 216.036ZM28 206.684L28 203.552L8.2 203.552L28 192.14L28 188.648L2.79999 188.648L2.79999 191.744L22.672 191.744L2.8 203.192L2.8 206.684L28 206.684ZM28 173.356L28 170.224L17.164 170.224L17.164 164.5C17.164 159.748 14.428 157.012 9.96399 157.012C5.53599 157.012 2.79999 159.748 2.79999 164.5L2.79999 173.356L28 173.356ZM14.248 170.224L5.716 170.224L5.71599 164.536C5.71599 161.62 7.336 160.252 9.96399 160.252C12.664 160.252 14.248 161.62 14.248 164.536L14.248 170.224ZM28 152.438L28 149.306L16.048 149.306L16.048 145.346L28 137.822L28 134.33L15.868 141.89C15.184 138.542 12.988 136.634 9.42399 136.634C5.21199 136.634 2.79999 139.334 2.79999 143.978L2.79999 152.438L28 152.438ZM13.132 149.306L5.71599 149.306L5.71599 144.086C5.71599 141.242 6.93999 139.802 9.42399 139.802C11.98 139.802 13.132 141.242 13.132 144.086L13.132 149.306ZM15.4 133.345C23.392 133.453 28.36 128.125 28.288 122.005C28.36 115.957 23.392 110.593 15.4 110.701C7.40799 110.593 2.43999 115.957 2.51199 122.005C2.43999 128.125 7.40799 133.453 15.4 133.345ZM15.4 113.905C21.952 113.905 25.372 117.469 25.372 122.005C25.372 126.541 21.952 130.105 15.4 130.105C8.84799 130.105 5.42799 126.541 5.42799 122.005C5.42799 117.469 8.84799 113.905 15.4 113.905ZM28 105.786L28 98.766C28 92.358 23.392 87.21 15.4 87.21C7.40799 87.21 2.79999 92.358 2.79999 98.766L2.79999 105.786L28 105.786ZM25.084 102.654L5.71599 102.654L5.71599 99.234C5.71599 94.554 8.59599 90.45 15.4 90.45C22.204 90.45 25.084 94.554 25.084 99.234L25.084 102.654ZM19.432 82.6624C25.264 82.6624 28.288 78.8104 28.288 73.7704C28.288 68.8024 25.264 64.8784 19.432 64.8784L2.79999 64.8784L2.79999 68.0104L19.612 68.0104C23.068 68.0104 25.372 70.0264 25.372 73.7704C25.372 77.5144 23.068 79.5304 19.612 79.5304L2.79999 79.5304L2.79999 82.6624L19.432 82.6624ZM15.4 60.325C23.716 60.433 28.36 54.889 28.288 48.949C28.288 43.945 25.552 40.417 20.944 39.121L20.152 42.073C23.464 43.081 25.372 45.349 25.372 48.949C25.372 53.665 21.808 57.085 15.4 57.085C8.99199 57.085 5.42799 53.665 5.42799 48.949C5.42799 45.349 7.33599 43.081 10.648 42.073L9.85599 39.121C5.24799 40.417 2.51199 43.945 2.51199 48.949C2.43999 54.889 7.08399 60.433 15.4 60.325ZM28 30.2526L28 27.1566L5.71599 27.1566L5.71599 19.7766L2.79999 19.7766L2.79999 37.6326L5.71599 37.6326L5.71599 30.2526L28 30.2526ZM21.412 17.7952C25.192 17.1472 28.288 13.9072 28.288 9.65922C28.288 5.44722 25.336 2.31522 20.944 2.31522C17.236 2.31522 15.256 4.40322 13.564 8.11122C12.52 10.4512 11.836 11.7112 10.648 12.6112C10.036 13.0792 9.31599 13.2952 8.48799 13.2952C6.79599 13.2952 5.42799 11.9992 5.42799 10.0192C5.42799 8.18322 6.36399 6.88722 8.23599 6.13122L6.61599 3.57522C3.98799 4.72722 2.51199 6.70722 2.51199 10.0192C2.51199 13.6192 5.10399 16.3552 8.66799 16.3552C11.98 16.3552 13.96 14.3392 15.544 11.0632C16.804 8.43522 17.452 7.17522 18.748 6.20322C19.396 5.73522 20.188 5.48322 21.088 5.48322C23.86 5.48322 25.372 7.17522 25.372 9.62322C25.372 12.4672 23.5 14.3032 19.792 15.2032L21.412 17.7952Z" fill="white"/>
<path d="M65 264.868L65 261.736L53.372 261.736L53.372 252.088L50.456 252.088L50.456 261.736L42.716 261.736L42.716 249.928L39.8 249.928L39.8 264.868L65 264.868ZM56.432 245.963C62.264 245.963 65.288 242.111 65.288 237.071C65.288 232.103 62.264 228.179 56.432 228.179L39.8 228.179L39.8 231.311L56.612 231.311C60.068 231.311 62.372 233.327 62.372 237.071C62.372 240.815 60.068 242.831 56.612 242.831L39.8 242.831L39.8 245.963L56.432 245.963ZM65 222.364L65 219.232L53.048 219.232L53.048 215.272L65 207.748L65 204.256L52.868 211.816C52.184 208.468 49.988 206.56 46.424 206.56C42.212 206.56 39.8 209.26 39.8 213.904L39.8 222.364L65 222.364ZM50.132 219.232L42.716 219.232L42.716 214.012C42.716 211.168 43.94 209.728 46.424 209.728C48.98 209.728 50.132 211.168 50.132 214.012L50.132 219.232ZM65 196.19L65 193.094L42.716 193.094L42.716 185.714L39.8 185.714L39.8 203.57L42.716 203.57L42.716 196.19L65 196.19ZM65 182.286L65 179.154L53.012 179.154L53.012 167.238L65 167.238L65 164.106L39.8 164.106L39.8 167.238L50.096 167.238L50.096 179.154L39.8 179.154L39.8 182.286L65 182.286ZM65 157.888L65 142.876L62.084 142.876L62.084 154.756L53.012 154.756L53.012 145.396L50.132 145.396L50.132 154.756L42.716 154.756L42.716 143.236L39.8 143.236L39.8 157.888L65 157.888ZM65 137.954L65 134.822L53.048 134.822L53.048 130.862L65 123.338L65 119.846L52.868 127.406C52.184 124.058 49.988 122.15 46.424 122.15C42.212 122.15 39.8 124.85 39.8 129.494L39.8 137.954L65 137.954ZM50.132 134.822L42.716 134.822L42.716 129.602C42.716 126.758 43.94 125.318 46.424 125.318C48.98 125.318 50.132 126.758 50.132 129.602L50.132 134.822Z" fill="white"/>
</svg>
