<svg width="1862" height="158" viewBox="0 0 1862 158" fill="none" xmlns="http://www.w3.org/2000/svg">
<path d="M3.12 26C3.12 39.02 11.58 47.48 21.54 47.48C31.5 47.48 39.96 39.02 39.96 26C39.96 12.98 31.5 4.52 21.54 4.52C11.58 4.52 3.12 12.98 3.12 26ZM35.82 26C35.82 37.46 29.58 43.76 21.54 43.76C13.5 43.76 7.26 37.46 7.26 26C7.26 14.54 13.5 8.24 21.54 8.24C29.58 8.24 35.82 14.54 35.82 26ZM54.5353 47H58.4953V8.72H71.0353V5H41.9953V8.72H54.5353V47ZM77.0602 47H81.0202V26.48H102.38V47H106.34V5H102.38V22.76H81.0202V5H77.0602V47ZM117.138 47H141.438V43.28H121.098V26.48H137.238V22.76H121.098V8.72H140.838V5H117.138V47ZM149.951 47H153.911V26.24H161.771L174.911 47H179.351L166.271 26.06C172.091 25.28 175.451 21.68 175.451 15.62C175.451 8.6 171.071 5 163.451 5H149.951V47ZM153.911 22.52V8.72H163.211C168.731 8.72 171.431 10.88 171.431 15.62C171.431 20.36 168.731 22.52 163.211 22.52H153.911ZM201.923 47H205.883V28.16H216.203C223.703 28.16 228.323 23.78 228.323 16.58C228.323 9.38 223.703 5 216.203 5H201.923V47ZM205.883 24.44V8.72H216.263C221.723 8.72 224.183 11.78 224.183 16.58C224.183 21.38 221.723 24.44 216.263 24.44H205.883ZM226.775 47H230.855L235.055 35.06H252.335L256.535 47H260.615L245.435 5H241.955L226.775 47ZM236.315 31.34L243.695 10.4L251.075 31.34H236.315ZM262.808 26C262.808 39.86 271.388 47.48 281.228 47.48C286.748 47.48 291.488 44.84 293.708 40.52L294.188 47H297.668V25.82H283.988V29.54H293.708C293.648 38.84 289.208 43.76 281.228 43.76C272.888 43.76 266.948 37.34 266.948 26C266.948 14.66 272.888 8.24 281.228 8.24C287.288 8.24 291.608 11.66 293.528 17.84L297.428 16.76C295.328 9.14 289.448 4.52 281.228 4.52C271.388 4.52 262.808 12.14 262.808 26ZM306.806 47H331.106V43.28H310.766V26.48H326.906V22.76H310.766V8.72H330.506V5H306.806V47ZM336.329 36.14C337.409 42.38 342.629 47.48 349.469 47.48C356.129 47.48 361.169 42.62 361.169 35.42C361.169 29.36 357.629 25.88 351.449 23.06C345.869 20.54 342.929 18.8 342.629 14C342.629 10.88 345.029 8.24 348.689 8.24C351.869 8.24 354.209 9.86 355.649 13.04L358.889 11C357.029 6.92 354.029 4.52 348.689 4.52C343.109 4.52 338.669 8.54 338.669 14.3C338.669 19.76 342.149 23 347.909 25.7C352.169 27.68 354.389 28.94 355.889 31.28C356.669 32.42 357.029 33.86 357.029 35.6C357.029 40.88 353.849 43.76 349.469 43.76C344.489 43.76 341.249 40.52 339.749 34.1L336.329 36.14Z" fill="white"/>
<path d="M209.08 105H212.8V63H211.84L202.12 69.18V73.32L209.08 68.94V105ZM221.099 91.8C221.099 99.54 226.439 105.48 234.179 105.48C241.919 105.48 247.259 99.54 247.259 91.8C247.259 84.06 241.919 78.12 234.179 78.12C232.919 78.12 231.059 78.48 230.279 79.14L239.639 62.52H235.739L223.799 82.86C221.999 85.92 221.099 88.92 221.099 91.8ZM243.419 91.8C243.419 97.74 239.579 102.12 234.179 102.12C228.779 102.12 224.939 97.74 224.939 91.8C224.939 85.5 228.719 81.48 234.179 81.48C239.639 81.48 243.419 85.5 243.419 91.8ZM253.512 84C253.512 90.6 254.712 95.82 257.172 99.72C259.632 103.56 263.232 105.48 267.972 105.48C272.712 105.48 276.252 103.56 278.712 99.72C281.172 95.82 282.432 90.6 282.432 84C282.432 77.4 281.172 72.18 278.712 68.34C276.252 64.44 272.712 62.52 267.972 62.52C263.232 62.52 259.632 64.44 257.172 68.34C254.712 72.18 253.512 77.4 253.512 84ZM278.592 84C278.592 94.74 274.632 102.12 267.972 102.12C261.312 102.12 257.352 94.74 257.352 84C257.352 73.26 261.312 65.88 267.972 65.88C274.632 65.88 278.592 73.26 278.592 84ZM289.137 84C289.137 90.6 290.337 95.82 292.797 99.72C295.257 103.56 298.857 105.48 303.597 105.48C308.337 105.48 311.877 103.56 314.337 99.72C316.797 95.82 318.057 90.6 318.057 84C318.057 77.4 316.797 72.18 314.337 68.34C311.877 64.44 308.337 62.52 303.597 62.52C298.857 62.52 295.257 64.44 292.797 68.34C290.337 72.18 289.137 77.4 289.137 84ZM314.217 84C314.217 94.74 310.257 102.12 303.597 102.12C296.937 102.12 292.977 94.74 292.977 84C292.977 73.26 296.937 65.88 303.597 65.88C310.257 65.88 314.217 73.26 314.217 84ZM339.64 84C339.64 97.86 348.22 105.48 358.06 105.48C363.58 105.48 368.32 102.84 370.54 98.52L371.02 105H374.5V83.82H360.82V87.54H370.54C370.48 96.84 366.04 101.76 358.06 101.76C349.72 101.76 343.78 95.34 343.78 84C343.78 72.66 349.72 66.24 358.06 66.24C364.12 66.24 368.44 69.66 370.36 75.84L374.26 74.76C372.16 67.14 366.28 62.52 358.06 62.52C348.22 62.52 339.64 70.14 339.64 84ZM383.638 105H387.598V84.24H395.458L408.598 105H413.038L399.958 84.06C405.778 83.28 409.138 79.68 409.138 73.62C409.138 66.6 404.758 63 397.138 63H383.638V105ZM387.598 80.52V66.72H396.898C402.418 66.72 405.118 68.88 405.118 73.62C405.118 78.36 402.418 80.52 396.898 80.52H387.598ZM419.029 105H422.989V63H419.029V105ZM433.795 105H444.835C455.695 105 463.915 96.96 463.915 84C463.915 71.04 455.695 63 444.835 63H433.795V105ZM437.755 101.28V66.72H444.895C452.935 66.72 459.775 72.3 459.775 84C459.775 95.7 452.935 101.28 444.895 101.28H437.755Z" fill="white"/>
<path d="M1629.4 105H1640.44C1651.3 105 1659.52 96.96 1659.52 84C1659.52 71.04 1651.3 63 1640.44 63H1629.4V105ZM1633.36 101.28V66.72H1640.5C1648.54 66.72 1655.38 72.3 1655.38 84C1655.38 95.7 1648.54 101.28 1640.5 101.28H1633.36ZM1668.01 105H1692.31V101.28H1671.97V84.48H1688.11V80.76H1671.97V66.72H1691.71V63H1668.01V105ZM1697.54 94.14C1698.62 100.38 1703.84 105.48 1710.68 105.48C1717.34 105.48 1722.38 100.62 1722.38 93.42C1722.38 87.36 1718.84 83.88 1712.66 81.06C1707.08 78.54 1704.14 76.8 1703.84 72C1703.84 68.88 1706.24 66.24 1709.9 66.24C1713.08 66.24 1715.42 67.86 1716.86 71.04L1720.1 69C1718.24 64.92 1715.24 62.52 1709.9 62.52C1704.32 62.52 1699.88 66.54 1699.88 72.3C1699.88 77.76 1703.36 81 1709.12 83.7C1713.38 85.68 1715.6 86.94 1717.1 89.28C1717.88 90.42 1718.24 91.86 1718.24 93.6C1718.24 98.88 1715.06 101.76 1710.68 101.76C1705.7 101.76 1702.46 98.52 1700.96 92.1L1697.54 94.14ZM1730.77 105H1734.73V82.74L1752.79 105H1757.65L1738.93 81.84L1756.15 63H1751.11L1734.73 80.94V63H1730.77V105ZM1772.93 105H1776.89V66.72H1789.43V63H1760.39V66.72H1772.93V105ZM1791.48 84C1791.48 97.02 1799.94 105.48 1809.9 105.48C1819.86 105.48 1828.32 97.02 1828.32 84C1828.32 70.98 1819.86 62.52 1809.9 62.52C1799.94 62.52 1791.48 70.98 1791.48 84ZM1824.18 84C1824.18 95.46 1817.94 101.76 1809.9 101.76C1801.86 101.76 1795.62 95.46 1795.62 84C1795.62 72.54 1801.86 66.24 1809.9 66.24C1817.94 66.24 1824.18 72.54 1824.18 84ZM1836.82 105H1840.78V86.16H1851.1C1858.6 86.16 1863.22 81.78 1863.22 74.58C1863.22 67.38 1858.6 63 1851.1 63H1836.82V105ZM1840.78 82.44V66.72H1851.16C1856.62 66.72 1859.08 69.78 1859.08 74.58C1859.08 79.38 1856.62 82.44 1851.16 82.44H1840.78Z" fill="white"/>
<line y1="157.5" x2="1863" y2="157.5" stroke="#FF7200"/>
</svg>
