<svg xmlns="http://www.w3.org/2000/svg" viewBox="0 0 200.88 201.19"><defs><style>.cls-1{fill:#fff;}</style></defs><title>bitrix_2</title><g id="Слой_2" data-name="Слой 2"><g id="svg2"><g id="layer1"><path id="path821" class="cls-1" d="M81.05,200a102.09,102.09,0,0,1-46.83-23.19C1.17,147.49-9,101.39,8.42,60.37A98.18,98.18,0,0,1,28.31,31.19l7.61-7.83.54,45.83c.51,43.87.63,46.08,2.7,51.61,4.15,11.06,8.61,18.1,16.27,25.73,19.79,19.71,48.82,24.63,73.5,12.45,23.19-11.44,37.82-36.33,36.12-61.46-1.15-16.88-6.82-29.26-19.08-41.6-9.27-9.32-20.18-15.42-32-17.9-12.08-2.53-11.5-2.9-11.5,7.33v8.83L109,55.4c25.65,4.72,42.61,29.91,37.27,55.32a45.38,45.38,0,0,1-11.63,21.89,46.48,46.48,0,0,1-76-11.81A55,55,0,0,1,56,113.47C52.21,97,54.63,62.32,54.63,62.32l-.29-50.7,3-1.55a19.49,19.49,0,0,1,3.51-1.55c.28,0,.64,23.29.8,51.75,0,0-3.64,37.31.85,51.61.65,2.06,1.88,5.59,1.88,5.59,3.94,8,10.25,15.08,18.45,19,6.22,2.95,9.36,4.29,18.57,4.29,6,0,11.34-1.9,17.48-4.72,7.23-3.33,15.52-12.15,18.58-20.19,8.45-22.18-3.31-46-26-52.69-9.26-2.72-9.07-2.87-9.07,7.19v8.8l4.45,1.18c16,4.29,20.9,25.76,8.33,36.79-4.45,3.9-8.45,5.62-15.45,5.62A21.34,21.34,0,0,1,79,101.28c0-16.74-.36-46.86-.36-46.86l-.3-51.66,2.3-.57C81.89,1.88,87,1.1,92,.46c16.9-2.15,41.9,3.38,58.7,13,22.9,13.1,40.23,35.61,47.44,61.62,2.48,9,2.76,11.56,2.76,26s-.28,17-2.71,25.77c-9.81,35.36-34.77,60.64-70.46,71.36-7.52,2.25-11,2.68-24.29,3-10.69.23-17.63-.11-22.37-1.09Z"/></g></g></g></svg>