<svg width="9" height="9" viewBox="0 0 9 9" fill="none" xmlns="http://www.w3.org/2000/svg">
<g clip-path="url(#clip0)">
<path d="M0.792158 8.37635C0.747581 8.37605 0.704941 8.35809 0.673572 8.32642C0.65732 8.31124 0.644361 8.29288 0.635502 8.27248C0.626642 8.25208 0.62207 8.23008 0.62207 8.20784C0.62207 8.1856 0.626642 8.16359 0.635502 8.14319C0.644361 8.12279 0.65732 8.10443 0.673572 8.08925L8.11324 0.674549C8.12842 0.658296 8.14678 0.645338 8.16718 0.636478C8.18758 0.627619 8.20959 0.623047 8.23183 0.623047C8.25407 0.623047 8.27607 0.627619 8.29647 0.636478C8.31687 0.645338 8.33523 0.658296 8.35041 0.674549C8.37982 0.705805 8.39619 0.747101 8.39619 0.790013C8.39619 0.832926 8.37982 0.874222 8.35041 0.905478L0.904502 8.32642C0.874678 8.35662 0.834557 8.37445 0.792158 8.37635Z" fill="#EFC171"/>
<path d="M0.791999 9.00026C0.687736 9.00093 0.584381 8.98086 0.487947 8.94121C0.391513 8.90157 0.303925 8.84314 0.23028 8.76933C0.0827808 8.62084 0 8.42003 0 8.21073C0 8.00143 0.0827808 7.80063 0.23028 7.65213L7.65122 0.231192C7.72209 0.14762 7.80951 0.0796471 7.90796 0.0315653C8.00642 -0.0165165 8.11378 -0.0436629 8.22326 -0.0481602C8.33274 -0.0526574 8.44196 -0.0344077 8.54403 0.00543672C8.6461 0.0452811 8.7388 0.105855 8.81628 0.183333C8.89376 0.260812 8.95433 0.353513 8.99418 0.455583C9.03402 0.557653 9.05227 0.666875 9.04777 0.776354C9.04328 0.885833 9.01613 0.993191 8.96805 1.09165C8.91997 1.19011 8.85199 1.27753 8.76842 1.34839L1.34748 8.76933C1.19948 8.91574 1.00018 8.9986 0.791999 9.00026Z" fill="#EFC171"/>
<path d="M8.20698 6.86584C8.16394 6.86584 8.12266 6.84875 8.09223 6.81831C8.0618 6.78788 8.0447 6.74661 8.0447 6.70357V0.955302H2.32764C2.28927 0.947814 2.2547 0.92722 2.22985 0.897047C2.205 0.866874 2.19141 0.828998 2.19141 0.789907C2.19141 0.750816 2.205 0.71294 2.22985 0.682767C2.2547 0.652594 2.28927 0.632 2.32764 0.624512H8.20698C8.25167 0.624512 8.29453 0.642266 8.32614 0.673869C8.35774 0.705472 8.37549 0.748334 8.37549 0.793028V6.67236C8.37911 6.69649 8.37744 6.72112 8.37061 6.74454C8.36378 6.76796 8.35194 6.78962 8.33591 6.80802C8.31989 6.82641 8.30006 6.84111 8.2778 6.8511C8.25554 6.86108 8.23137 6.86611 8.20698 6.86584Z" fill="#EFC171"/>
<path d="M8.20719 7.4896C7.99862 7.4896 7.79859 7.40674 7.65111 7.25926C7.50363 7.11178 7.42078 6.91176 7.42078 6.70319V1.57906H2.32785C2.13057 1.5615 1.94701 1.47072 1.81331 1.3246C1.67962 1.17847 1.60547 0.987588 1.60547 0.789528C1.60547 0.591469 1.67962 0.400585 1.81331 0.25446C1.94701 0.108335 2.13057 0.0175576 2.32785 0L8.20719 0C8.40723 0.00549228 8.59737 0.0882588 8.7377 0.230929C8.81263 0.304055 8.87221 0.391409 8.91294 0.487868C8.95367 0.584326 8.97472 0.687945 8.97487 0.792649V6.67198C8.9782 6.77609 8.96098 6.87983 8.92419 6.97727C8.88741 7.07472 8.83178 7.16396 8.76048 7.23989C8.68918 7.31583 8.60362 7.37696 8.50868 7.41981C8.41375 7.46265 8.31129 7.48637 8.20719 7.4896Z" fill="#EFC171"/>
</g>
<defs>
<clipPath id="clip0">
<rect width="9" height="9" fill="white"/>
</clipPath>
</defs>
</svg>
