<svg width="223" height="250" viewBox="0 0 223 250" fill="none" xmlns="http://www.w3.org/2000/svg">
<path d="M55.9589 71.0505L83.6122 85.0735L111.265 71.0505L138.919 85.0735L166.572 71.0505L194.694 85.0735L222.347 71.0505V65.9087L194.694 79.4643L166.572 65.9087L138.919 79.4643L111.265 65.9087L83.6122 79.4643L55.9589 65.9087L28.3056 79.4643L0.652344 65.9087V71.0505L28.3056 85.0735L55.9589 71.0505Z" fill="#FF6F61"/>
<path d="M222.347 76.6602L194.694 90.2158L166.572 76.6602L138.919 90.2158L111.265 76.6602L83.6122 90.2158L55.9589 76.6602L28.3056 90.2158L0.652344 76.6602V82.2694L28.3056 95.825L55.9589 82.2694L83.6122 95.825L111.265 82.2694L138.919 95.825L166.572 82.2694L194.694 95.825L222.347 82.2694V76.6602Z" fill="#FF6F61"/>
<path d="M55.9589 49.5482L83.6122 63.1038L111.265 49.5482L138.919 63.1038L166.572 49.5482L194.694 63.1038L222.347 49.5482V43.939L194.694 57.4946L166.572 43.939L138.919 57.4946L111.265 43.939L83.6122 57.4946L55.9589 43.939L28.3056 57.4946L0.652344 43.939V49.5482L28.3056 63.1038L55.9589 49.5482Z" fill="#FF6F61"/>
<path d="M222.347 54.6899L194.694 68.713L166.572 54.6899L138.919 68.713L111.265 54.6899L83.6122 68.713L55.9589 54.6899L28.3056 68.713L0.652344 54.6899V60.2992L28.3056 73.8548L55.9589 60.2992L83.6122 73.8548L111.265 60.2992L138.919 73.8548L166.572 60.2992L194.694 73.8548L222.347 60.2992V54.6899Z" fill="#FF6F61"/>
<path d="M55.9589 27.5789L83.6122 41.1346L111.265 27.5789L138.919 41.1346L166.572 27.5789L194.694 41.1346L222.347 27.5789V21.9697L194.694 35.5253L166.572 21.9697L138.919 35.5253L111.265 21.9697L83.6122 35.5253L55.9589 21.9697L28.3056 35.5253L0.652344 21.9697V27.5789L28.3056 41.1346L55.9589 27.5789Z" fill="#FF6F61"/>
<path d="M222.347 33.1886L194.694 46.7442L166.572 32.7212L138.919 46.7442L111.265 32.7212L83.6122 46.7442L55.9589 32.7212L28.3056 46.7442L0.652344 32.7212V38.3304L28.3056 52.3535L55.9589 38.3304L83.6122 52.3535L111.265 38.3304L138.919 52.3535L166.572 38.3304L194.694 52.3535L222.347 38.3304V33.1886Z" fill="#FF6F61"/>
<path d="M55.9589 5.60922L83.6122 19.1648L111.265 5.60922L138.919 19.1648L166.572 5.60922L194.694 19.1648L222.347 5.60922V0L194.694 13.5556L166.572 0L138.919 13.5556L111.265 0L83.6122 13.5556L55.9589 0L28.3056 13.5556L0.652344 0V5.60922L28.3056 19.1648L55.9589 5.60922Z" fill="#FF6F61"/>
<path d="M222.347 11.2183L194.694 24.7739L166.572 11.2183L138.919 24.7739L111.265 11.2183L83.6122 24.7739L55.9589 11.2183L28.3056 24.7739L0.652344 11.2183V16.36L28.3056 30.3831L55.9589 16.36L83.6122 30.3831L111.265 16.36L138.919 30.3831L166.572 16.36L194.694 30.3831L222.347 16.36V11.2183Z" fill="#FF6F61"/>
<path d="M55.9589 158.928L83.6122 172.484L111.265 158.928L138.919 172.484L166.572 158.928L194.694 172.484L222.347 158.928V153.319L194.694 166.874L166.572 153.319L138.919 166.874L111.265 153.319L83.6122 166.874L55.9589 153.319L28.3056 166.874L0.652344 153.319V158.928L28.3056 172.484L55.9589 158.928Z" fill="#FF6F61"/>
<path d="M222.347 164.537L194.694 178.093L166.572 164.537L138.919 178.093L111.265 164.537L83.6122 178.093L55.9589 164.537L28.3056 178.093L0.652344 164.537V169.679L28.3056 183.702L55.9589 169.679L83.6122 183.702L111.265 169.679L138.919 183.702L166.572 169.679L194.694 183.702L222.347 170.146V164.537Z" fill="#FF6F61"/>
<path d="M55.9589 136.959L83.6122 150.514L111.265 136.959L138.919 150.514L166.572 136.959L194.694 150.514L222.347 136.959V131.35L194.694 144.905L166.572 131.35L138.919 144.905L111.265 131.35L83.6122 144.905L55.9589 131.35L28.3056 144.905L0.652344 131.35V136.959L28.3056 150.514L55.9589 136.959Z" fill="#FF6F61"/>
<path d="M222.347 142.568L194.694 156.123L166.572 142.568L138.919 156.123L111.265 142.568L83.6122 156.123L55.9589 142.568L28.3056 156.123L0.652344 142.568V148.177L28.3056 161.733L55.9589 148.177L83.6122 161.733L111.265 148.177L138.919 161.733L166.572 148.177L194.694 161.733L222.347 148.177V142.568Z" fill="#FF6F61"/>
<path d="M55.9589 114.989L83.6122 128.544L111.265 114.989L138.919 128.544L166.572 114.989L194.694 128.544L222.347 114.989V109.379L194.694 123.402L166.572 109.379L138.919 123.402L111.265 109.379L83.6122 123.402L55.9589 109.379L28.3056 123.402L0.652344 109.379V114.989L28.3056 128.544L55.9589 114.989Z" fill="#FF6F61"/>
<path d="M222.347 120.598L194.694 134.153L166.572 120.598L138.919 134.153L111.265 120.598L83.6122 134.153L55.9589 120.598L28.3056 134.153L0.652344 120.598V126.207L28.3056 139.762L55.9589 126.207L83.6122 139.762L111.265 126.207L138.919 139.762L166.572 126.207L194.694 139.762L222.347 126.207V120.598Z" fill="#FF6F61"/>
<path d="M55.9589 93.0194L83.6122 106.575L111.265 93.0194L138.919 106.575L166.572 93.0194L194.694 106.575L222.347 93.0194V87.4102L194.694 101.433L166.572 87.4102L138.919 101.433L111.265 87.4102L83.6122 101.433L55.9589 87.4102L28.3056 101.433L0.652344 87.4102V93.0194L28.3056 106.575L55.9589 93.0194Z" fill="#FF6F61"/>
<path d="M222.347 98.6284L194.694 112.184L166.572 98.6284L138.919 112.184L111.265 98.6284L83.6122 112.184L55.9589 98.6284L28.3056 112.184L0.652344 98.6284V104.238L28.3056 117.793L55.9589 104.238L83.6122 117.793L111.265 104.238L138.919 117.793L166.572 104.238L194.694 117.793L222.347 104.238V98.6284Z" fill="#FF6F61"/>
<path d="M55.9589 224.368L83.6122 238.391L111.265 224.368L138.919 238.391L166.572 224.368L194.694 238.391L222.347 224.368V219.227L194.694 232.782L166.572 219.227L138.919 232.782L111.265 219.227L83.6122 232.782L55.9589 219.227L28.3056 232.782L0.652344 219.227V224.368L28.3056 238.391L55.9589 224.368Z" fill="#FF6F61"/>
<path d="M222.347 229.978L194.694 243.534L166.572 229.978L138.919 243.534L111.265 229.978L83.6122 243.534L55.9589 229.978L28.3056 243.534L0.652344 229.978V235.587L28.3056 249.143L55.9589 235.587L83.6122 249.143L111.265 235.587L138.919 249.143L166.572 235.587L194.694 249.143L222.347 235.587V229.978Z" fill="#FF6F61"/>
<path d="M55.9589 202.867L83.6122 216.422L111.265 202.867L138.919 216.422L166.572 202.867L194.694 216.422L222.347 202.867V197.257L194.694 210.813L166.572 197.257L138.919 210.813L111.265 197.257L83.6122 210.813L55.9589 197.257L28.3056 210.813L0.652344 197.257V202.867L28.3056 216.422L55.9589 202.867Z" fill="#FF6F61"/>
<path d="M222.347 208.009L194.694 222.032L166.572 208.009L138.919 222.032L111.265 208.009L83.6122 222.032L55.9589 208.009L28.3056 222.032L0.652344 208.009V213.618L28.3056 227.174L55.9589 213.618L83.6122 227.174L111.265 213.618L138.919 227.174L166.572 213.618L194.694 227.174L222.347 213.618V208.009Z" fill="#FF6F61"/>
<path d="M55.9589 180.897L83.6122 194.453L111.265 180.897L138.919 194.453L166.572 180.897L194.694 194.453L222.347 180.897V175.288L194.694 188.844L166.572 175.288L138.919 188.844L111.265 175.288L83.6122 188.844L55.9589 175.288L28.3056 188.844L0.652344 175.288V180.897L28.3056 194.453L55.9589 180.897Z" fill="#FF6F61"/>
<path d="M222.347 186.506L194.694 200.062L166.572 186.506L138.919 200.062L111.265 186.506L83.6122 200.062L55.9589 186.506L28.3056 200.062L0.652344 186.506V191.648L28.3056 205.671L55.9589 191.648L83.6122 205.671L111.265 191.648L138.919 205.671L166.572 191.648L194.694 205.671L222.347 191.648V186.506Z" fill="#FF6F61"/>
</svg>
