<svg xmlns="http://www.w3.org/2000/svg" viewBox="0 0 108.31 126.56"><defs><style>.cls-1{fill:#fff;}</style></defs><title>gold site</title><g id="Слой_2" data-name="Слой 2"><g id="Слой_1-2" data-name="Слой 1"><path class="cls-1" d="M60.29,46.93a9.27,9.27,0,0,0,12.3-5.1,9.5,9.5,0,0,0-4.9-12.5,9.27,9.27,0,0,0-12.3,5.1A9.76,9.76,0,0,0,60.29,46.93Z"/><path class="cls-1" d="M3.39,94.53a2.32,2.32,0,0,0-3.2,1.4,2.43,2.43,0,0,0,1.4,3.3,2.45,2.45,0,0,0,3.3-1.4A3,3,0,0,0,3.39,94.53Z"/><path class="cls-1" d="M38.59,4.93a2.45,2.45,0,0,0,3.3-1.4,2.43,2.43,0,0,0-1.4-3.3,2.39,2.39,0,0,0-3.3,1.4A2.54,2.54,0,0,0,38.59,4.93Z"/><path class="cls-1" d="M64.59,121.63a2.53,2.53,0,1,0,1.4,3.3A2.9,2.9,0,0,0,64.59,121.63Z"/><path class="cls-1" d="M106.79,29.53a2.53,2.53,0,1,0,1.4,3.3A2.93,2.93,0,0,0,106.79,29.53Z"/><path class="cls-1" d="M100,31.23a4.08,4.08,0,0,0-5.6,2.3,4.44,4.44,0,0,0-.1,3.2,7.86,7.86,0,0,0-14.3.5,8.14,8.14,0,0,0-.5,4.6c-4.6,5.4-10,8.8-14.8,9.4a14,14,0,0,1-2.9,0,8.87,8.87,0,0,1-2.9-.8h0c-4.6-2.1-7.4-7.6-8-14.8a23.58,23.58,0,0,1-.1-4.6c0-.7.1-1.4.1-2a8.42,8.42,0,0,0,3.1-3.6,8.12,8.12,0,0,0-4.1-10.6,7.21,7.21,0,0,0-5.4-.3,3.85,3.85,0,0,0,2.2-2.3,4.19,4.19,0,0,0-2.3-5.7,4.08,4.08,0,0,0-5.6,2.3,4.19,4.19,0,0,0,2.3,5.7,4.54,4.54,0,0,0,2.8.3,7.88,7.88,0,0,0-4.3,4.3,8.29,8.29,0,0,0,2.5,9.7,10.28,10.28,0,0,0-.1,1.7,37,37,0,0,0,.1,5.8c.6,7.4,3.2,13.8,7.5,18.2-4.6.3-9.4,2.5-14,6.2-5.4,4.3-10.6,11-14.8,19.1a7.85,7.85,0,0,0-6.2,4.8,8.32,8.32,0,0,0-.1,6.2,5.54,5.54,0,0,0-2.1-1.9,4.08,4.08,0,0,0-5.6,2.3,4.19,4.19,0,0,0,2.3,5.7,4.08,4.08,0,0,0,5.6-2.3,4.44,4.44,0,0,0,.1-3.2,7.86,7.86,0,0,0,14.3-.5,8.47,8.47,0,0,0,.4-5.2c3.4-7.4,7.8-13.2,12.5-17,4-3.3,7.8-4.8,10.5-3.5h0a7.14,7.14,0,0,1,3.3,3.7c.4.9.7,2,1.1,3.2,1.4,6.3.3,15.1-3.3,24.2a8.2,8.2,0,0,0,.7,14.5,7.21,7.21,0,0,0,5.4.3,3.85,3.85,0,0,0-2.2,2.3,4.19,4.19,0,0,0,2.3,5.7,4.08,4.08,0,0,0,5.6-2.3,4.19,4.19,0,0,0-2.3-5.7,4.54,4.54,0,0,0-2.8-.3,7.88,7.88,0,0,0,4.3-4.3,8.44,8.44,0,0,0-.8-8c3.7-10.4,4.8-20.9,3.2-28.8a35.48,35.48,0,0,0-1.5-5.2,25.16,25.16,0,0,0-2.8-4.8,12.68,12.68,0,0,0,3.4-.3c7-.9,14.2-5.2,20.2-12a8,8,0,0,0,8.6-4.8,8.32,8.32,0,0,0,.1-6.2,4.89,4.89,0,0,0,2.1,1.9,4.08,4.08,0,0,0,5.6-2.3C103.09,34.93,102.09,32.23,100,31.23Z"/></g></g></svg>