<svg xmlns="http://www.w3.org/2000/svg" viewBox="0 0 66.5 92.6"><defs><style>.cls-1{fill:#fff;}</style></defs><title>runet</title><g id="Слой_2" data-name="Слой 2"><g id="Слой_1-2" data-name="Слой 1"><rect class="cls-1" x="16.8" y="4.3" width="4.3" height="54.9"/><rect class="cls-1" x="27.7" y="4.3" width="4.3" height="38.9"/><rect class="cls-1" x="39.2" y="26.1" width="4.3" height="17.1"/><rect class="cls-1" x="50.7" y="29.3" width="4.3" height="17.1"/><rect class="cls-1" x="58" y="67.8" width="4.3" height="12.4"/><rect class="cls-1" x="53.7" y="80.1" width="4.3" height="8.2"/><rect class="cls-1" x="21.4" y="80.1" width="4.3" height="8.2"/><rect class="cls-1" x="17.1" y="71.7" width="4.3" height="8.2"/><rect class="cls-1" x="12.8" y="63.5" width="4.3" height="8.2"/><rect class="cls-1" x="8.6" y="55.1" width="4.3" height="8.2"/><rect class="cls-1" x="4.3" y="50.8" width="4.3" height="4.3"/><rect class="cls-1" x="13.4" y="42.7" width="3.3" height="4.3"/><rect class="cls-1" y="38.5" width="4.3" height="12.3"/><rect class="cls-1" x="62.2" y="38.5" width="4.3" height="29.3"/><rect class="cls-1" x="43.5" y="26.1" width="7.2" height="4.3"/><rect class="cls-1" x="21.4" y="88.3" width="36.6" height="4.3"/><rect class="cls-1" x="55" y="29.3" width="3.6" height="4.3"/><rect class="cls-1" x="58.6" y="33.6" width="3.6" height="4.9"/><rect class="cls-1" x="32" y="21.8" width="7.2" height="4.3"/><rect class="cls-1" x="4.3" y="38.5" width="9.2" height="4.3"/><rect class="cls-1" x="21.1" width="6.7" height="4.3"/></g></g></svg>