<svg width="627" height="628" viewBox="0 0 627 628" fill="none" xmlns="http://www.w3.org/2000/svg">
<path d="M311.072 627.997C282.698 627.997 265.455 626.813 252.983 624.163C198.825 613.129 148.472 588.192 106.874 551.804C56.7823 507.732 21.9859 448.891 7.50264 383.768C-6.95543 318.213 -0.410158 249.77 26.2107 188.142C41.2808 154.24 62.378 123.354 88.4773 96.9845L112.829 72.0441V72.9793L114.388 215.763C115.947 353.434 116.259 359.451 122.775 376.504C135.965 411.296 149.715 432.994 173.505 456.47C202.973 486.135 240.955 505.881 282.168 512.96C323.042 519.891 365.062 513.715 402.211 495.314C437.823 477.736 467.464 450.052 487.426 415.723C507.506 382.048 516.93 343.087 514.459 303.959C511.154 251.459 493.382 212.77 455.217 174.58C426.064 145.462 392.577 126.695 355.628 118.87L350.359 117.779C334.769 114.661 326.818 112.884 323.326 115.721C319.833 118.558 320.208 124.918 320.208 136.952V168.345L340.475 172.024C359.541 175.606 377.705 182.937 393.916 193.592C410.126 204.247 424.059 218.015 434.907 234.096C445.755 250.176 453.301 268.251 457.109 287.27C460.917 306.29 460.91 325.876 457.088 344.892C451.596 370.674 439.04 394.421 420.826 413.479C404.63 430.84 384.432 443.976 361.993 451.741C339.554 459.506 315.556 461.664 292.092 458.027C268.627 454.39 246.409 445.068 227.375 430.875C208.341 416.681 193.069 398.047 182.891 376.598C179.537 369.154 176.764 361.462 174.597 353.59C162.873 302.681 170.169 195.25 170.231 194.159L169.296 35.8804L178.993 31.1729C182.479 29.0605 186.248 27.4544 190.187 26.4031C190.81 26.4031 191.247 26.4031 191.964 74.1952C192.369 102.503 192.775 141.94 193.086 188.266C193.086 189.482 182.018 305.019 195.861 349.039C197.732 355.492 201.755 366.341 201.786 366.466C214.819 393.183 235.117 414.133 258.97 425.481C278.769 434.834 288.716 438.855 316.778 438.855C335.143 438.855 351.076 433.244 371.187 424.234C394.167 413.697 419.547 386.138 428.995 361.478C435.323 345.477 438.229 328.329 437.526 311.137C436.823 293.945 432.527 277.091 424.913 261.66C417.299 246.23 406.538 232.565 393.321 221.545C380.104 210.526 364.726 202.397 348.176 197.681L346.056 197.089C333.178 193.317 326.724 191.446 323.544 193.972C320.363 196.497 320.426 203.605 320.426 217.977V246.908L333.615 250.555C345.18 253.719 355.649 260.012 363.868 268.741C372.087 277.47 377.737 288.297 380.198 300.031C383.077 311.851 382.686 324.232 379.066 335.847C375.447 347.462 368.735 357.874 359.65 365.967C345.214 378.749 332.118 383.519 311.352 383.519C293.862 383.079 277.239 375.806 265.047 363.26C252.854 350.714 246.061 333.891 246.124 316.398C246.124 264.927 244.877 171.151 244.877 170.185L243.941 8.72654L251.393 6.76248C255.228 5.88957 271.005 3.36435 287.001 1.46264C339.134 -5.33363 417.957 12.1247 470.277 41.9908C541.804 82.9243 595.746 153.007 618.258 234.282C626.084 262.34 626.988 270.508 626.988 315.12C626.988 359.732 626.115 367.931 618.539 395.677C588.107 505.665 509.938 584.819 398.47 618.52C375.303 625.628 364.639 626.937 322.608 627.873L311.072 627.997ZM112.049 73.8834L89.0074 97.5145C63.0502 123.84 42.0618 154.637 27.0525 188.422C0.491771 249.901 -6.05316 318.177 8.34451 383.581C22.8055 448.539 57.5251 507.226 107.497 551.181C148.95 587.51 199.14 612.435 253.139 623.508C267.139 626.626 287.437 627.561 322.577 627.249C364.546 626.283 375.147 624.973 398.251 617.896C509.439 584.258 587.421 505.322 617.79 395.584C625.336 367.931 626.209 359.67 626.209 315.244C626.209 270.819 625.305 262.433 617.478 234.624C595.029 153.568 541.243 83.6102 469.872 42.8014C417.801 12.8729 339.072 -4.55424 287.094 2.24203C271.255 4.14374 255.384 6.63778 251.58 7.51069L244.721 9.35005L245.656 170.216C245.656 171.151 246.903 264.958 246.903 316.429C246.857 333.711 253.572 350.326 265.616 362.723C277.659 375.12 294.074 382.315 311.352 382.771C332.181 382.771 344.653 378.219 359.12 365.406C368.169 357.462 374.851 347.176 378.432 335.681C382.013 324.186 382.355 311.926 379.419 300.249C376.996 288.649 371.417 277.944 363.296 269.313C355.175 260.682 344.829 254.46 333.397 251.335L319.397 247.531V217.821C319.397 203.2 319.397 195.998 322.951 193.192C326.506 190.386 333.023 192.506 346.149 196.31L348.27 196.902C364.911 201.651 380.374 209.829 393.663 220.912C406.953 231.995 417.776 245.736 425.435 261.252C433.094 276.768 437.421 293.715 438.136 311.003C438.851 328.292 435.939 345.538 429.587 361.634C420.077 386.574 394.51 414.227 371.405 424.826C351.325 433.867 335.143 439.51 316.653 439.51C288.591 439.51 278.426 435.364 258.502 426.073C234.494 414.663 214.071 393.557 200.944 366.653C200.944 366.497 196.859 355.617 194.988 349.132C181.113 304.988 192.057 189.264 192.182 188.111C191.527 92.9005 190.623 31.6717 189.813 27.0889C186.163 28.2005 182.657 29.7388 179.367 31.6717L170.2 36.2545L171.136 194.065C171.136 195.187 163.777 302.494 175.501 353.279C177.596 361.043 180.296 368.632 183.577 375.974C193.695 397.309 208.882 415.843 227.81 429.962C246.739 444.08 268.835 453.353 292.171 456.972C315.507 460.59 339.375 458.445 361.691 450.723C384.008 443 404.095 429.935 420.202 412.668C438.316 393.761 450.808 370.185 456.277 344.581C460.085 325.666 460.097 306.183 456.312 287.264C452.527 268.344 445.022 250.365 434.231 234.369C423.44 218.374 409.579 204.681 393.452 194.086C377.325 183.49 359.254 176.203 340.288 172.648L319.397 168.844V136.889C319.397 124.232 319.397 117.872 322.796 115.066C326.194 112.26 334.052 113.539 350.452 116.968L355.722 118.059C392.826 125.915 426.438 144.714 455.685 173.957C494.099 212.365 511.809 251.21 515.364 303.897C517.824 343.196 508.335 382.321 488.143 416.128C468.089 450.576 438.331 478.356 402.585 496C365.284 514.484 323.089 520.693 282.043 513.739C240.65 506.615 202.505 486.772 172.913 456.968C149.06 433.337 135.279 411.514 122.058 376.723C115.479 359.545 115.167 353.528 113.608 215.701L112.049 73.8834Z" fill="#D9D9D9"/>
</svg>
