<svg width="326" height="304" viewBox="0 0 326 304" fill="none" xmlns="http://www.w3.org/2000/svg">
<rect width="326" height="304" fill="#0815B7"/>
<path d="M69.5843 248.976H65.0483C64.8883 252.176 64.6723 254.84 64.4003 256.968C64.1443 259.08 63.7523 260.728 63.2243 261.912C62.8723 262.68 62.4563 263.24 61.9763 263.592C61.4963 263.944 60.9763 264.12 60.4163 264.12C60.1283 264.12 59.8803 264.096 59.6723 264.048C59.4643 264.016 59.2643 263.96 59.0723 263.88L59.3363 262.152C59.4963 262.2 59.6643 262.224 59.8403 262.224C60.1123 262.224 60.3763 262.136 60.6323 261.96C60.9043 261.784 61.1683 261.456 61.4243 260.976C61.6483 260.544 61.8563 259.968 62.0483 259.248C62.2563 258.528 62.4323 257.616 62.5763 256.512C62.7363 255.408 62.8643 254.096 62.9603 252.576C63.0563 251.04 63.1283 249.248 63.1763 247.2H71.5763V264H69.5843V248.976Z" fill="white"/>
<path d="M74.7589 258C74.7589 256.064 75.2629 254.536 76.2709 253.416C77.2789 252.28 78.7189 251.712 80.5909 251.712C81.5989 251.712 82.4629 251.88 83.1829 252.216C83.9189 252.536 84.5269 252.976 85.0069 253.536C85.4869 254.096 85.8389 254.76 86.0629 255.528C86.3029 256.296 86.4229 257.12 86.4229 258C86.4229 258.96 86.2949 259.832 86.0389 260.616C85.7829 261.384 85.4069 262.04 84.9109 262.584C84.4149 263.128 83.7989 263.552 83.0629 263.856C82.3429 264.144 81.5189 264.288 80.5909 264.288C79.5989 264.288 78.7349 264.128 77.9989 263.808C77.2629 263.472 76.6549 263.024 76.1749 262.464C75.6949 261.904 75.3349 261.24 75.0949 260.472C74.8709 259.704 74.7589 258.88 74.7589 258ZM76.7509 258C76.7509 258.56 76.8149 259.12 76.9429 259.68C77.0869 260.24 77.3109 260.744 77.6149 261.192C77.9189 261.64 78.3109 262 78.7909 262.272C79.2869 262.544 79.8869 262.68 80.5909 262.68C81.8709 262.68 82.8309 262.288 83.4709 261.504C84.1269 260.704 84.4549 259.536 84.4549 258C84.4549 257.424 84.3829 256.864 84.2389 256.32C84.1109 255.76 83.8869 255.256 83.5669 254.808C83.2629 254.36 82.8629 254 82.3669 253.728C81.8869 253.456 81.2949 253.32 80.5909 253.32C79.3109 253.32 78.3509 253.712 77.7109 254.496C77.0709 255.28 76.7509 256.448 76.7509 258Z" fill="white"/>
<path d="M90.2295 264V262.392H91.7655V253.632H90.2295V252H99.9255V256.488H98.2935V253.632H93.6375V262.392H97.2855V264H90.2295Z" fill="white"/>
<path d="M103.54 258C103.54 256.064 104.044 254.536 105.052 253.416C106.06 252.28 107.5 251.712 109.372 251.712C110.38 251.712 111.244 251.88 111.964 252.216C112.7 252.536 113.308 252.976 113.788 253.536C114.268 254.096 114.62 254.76 114.844 255.528C115.084 256.296 115.204 257.12 115.204 258C115.204 258.96 115.076 259.832 114.82 260.616C114.564 261.384 114.188 262.04 113.692 262.584C113.196 263.128 112.58 263.552 111.844 263.856C111.124 264.144 110.3 264.288 109.372 264.288C108.38 264.288 107.516 264.128 106.78 263.808C106.044 263.472 105.436 263.024 104.956 262.464C104.476 261.904 104.116 261.24 103.876 260.472C103.652 259.704 103.54 258.88 103.54 258ZM105.532 258C105.532 258.56 105.596 259.12 105.724 259.68C105.868 260.24 106.092 260.744 106.396 261.192C106.7 261.64 107.092 262 107.572 262.272C108.068 262.544 108.668 262.68 109.372 262.68C110.652 262.68 111.612 262.288 112.252 261.504C112.908 260.704 113.236 259.536 113.236 258C113.236 257.424 113.164 256.864 113.02 256.32C112.892 255.76 112.668 255.256 112.348 254.808C112.044 254.36 111.644 254 111.148 253.728C110.668 253.456 110.076 253.32 109.372 253.32C108.092 253.32 107.132 253.712 106.492 254.496C105.852 255.28 105.532 256.448 105.532 258Z" fill="white"/>
<path d="M117.811 252H129.715V256.488H128.083V253.632H124.699V262.392H127.603V264H119.827V262.392H122.827V253.632H119.443V256.488H117.811V252Z" fill="white"/>
<path d="M141.441 256.464L141.513 254.88H141.441L134.697 264H132.993V252H134.865V259.752L134.793 261.264H134.889L141.585 252H143.313V264H141.441V256.464Z" fill="white"/>
<path d="M155.664 253.632H149.4V264H147.552V252H157.536V264H155.664V253.632Z" fill="white"/>
<rect x="97" y="142" width="56" height="56" rx="9" fill="white"/>
<rect x="181.5" y="60.5" width="55" height="55" rx="27.5" stroke="white"/>
<line y1="86.5" x2="326" y2="86.5" stroke="white" stroke-opacity="0.15"/>
<line x1="118.5" y1="-2.63753e-08" x2="118.5" y2="176" stroke="white" stroke-opacity="0.15"/>
<line x1="137.5" y1="-2.63753e-08" x2="137.5" y2="176" stroke="white" stroke-opacity="0.15"/>
<line x1="151.5" y1="-2.63753e-08" x2="151.5" y2="176" stroke="white" stroke-opacity="0.15"/>
<line x1="174.5" y1="-2.63753e-08" x2="174.5" y2="176" stroke="white" stroke-opacity="0.15"/>
<line x1="189.5" y1="-2.63753e-08" x2="189.5" y2="176" stroke="white" stroke-opacity="0.15"/>
<line x1="208.5" y1="-2.63753e-08" x2="208.5" y2="176" stroke="white" stroke-opacity="0.15"/>
<line y1="138.5" x2="326" y2="138.5" stroke="white" stroke-opacity="0.15"/>
<line y1="141.5" x2="326" y2="141.5" stroke="white" stroke-opacity="0.15"/>
<line y1="175.5" x2="326" y2="175.5" stroke="white" stroke-opacity="0.15"/>
<line y1="160.5" x2="326" y2="160.5" stroke="white" stroke-opacity="0.15"/>
<line y1="157.5" x2="326" y2="157.5" stroke="white" stroke-opacity="0.15"/>
<line y1="120.5" x2="326" y2="120.5" stroke="white" stroke-opacity="0.15"/>
<line y1="104.5" x2="326" y2="104.5" stroke="white" stroke-opacity="0.15"/>
<line y1="101.5" x2="326" y2="101.5" stroke="white" stroke-opacity="0.15"/>
<g clip-path="url(#clip0)">
<path fill-rule="evenodd" clip-rule="evenodd" d="M173.601 86H190.277V138.72H173.601V86ZM192.56 86H208.608V101.178H199.075V105.117H208.608V120.179H199.075V124.118H208.608V138.72H192.56V133.619H201.464V129.68H192.56V114.617H201.464V110.679H192.56V95.6054H201.464V91.6774H192.56V86Z" fill="#FF6F61"/>
<path fill-rule="evenodd" clip-rule="evenodd" d="M171.328 121.007V104.331H118V121.007H171.328ZM171.328 102.047V86H156.149V95.5321H152.211V86H137.148V95.5321H133.209V86H118V102.047H123.709V93.1439H127.647V102.047H142.71V93.1439H146.649V102.047H161.722V93.1439H165.65V102.047H171.328Z" fill="#FF6F61"/>
<path fill-rule="evenodd" clip-rule="evenodd" d="M136.331 123.28V176H153.007V123.28H136.331ZM118 123.28V137.851H127.532V141.779H118V156.852H127.532V160.78H118V176H134.047V170.291H125.144V166.353H134.047V151.279H125.144V147.351H134.047V132.278H125.144V128.35H134.047V123.28H118Z" fill="#FF6F61"/>
<path fill-rule="evenodd" clip-rule="evenodd" d="M208.607 140.993V157.669H155.28V140.993H208.607ZM208.607 159.952V176H193.419V166.457H189.491V176H174.428V166.457H170.489V176H155.28V159.952H160.947V168.856H164.927V159.952H179.99V168.856H183.929V159.952H198.991V168.856H202.93V159.952H208.607Z" fill="#FF6F61"/>
</g>
<defs>
<clipPath id="clip0">
<rect width="90.6075" height="90" fill="white" transform="translate(118 86)"/>
</clipPath>
</defs>
</svg>
