<svg width="798" height="516" viewBox="0 0 798 516" fill="none" xmlns="http://www.w3.org/2000/svg">
<rect x="0.5" y="0.5" width="629" height="467" rx="42.5" stroke="#D9D9D9"/>
<rect x="50.5" y="50.5" width="376" height="123" rx="24.5" stroke="#0815B7"/>
<rect x="197.5" y="76.5" width="82" height="71" rx="11.5" fill="#0815B7" stroke="#0815B7"/>
<rect x="50.5" y="189.5" width="376" height="23" rx="11.5" stroke="#0815B7"/>
<rect x="50.5" y="228.5" width="182" height="23" rx="11.5" stroke="#FF6F61"/>
<rect x="248.5" y="410.5" width="104" height="23" rx="11.5" stroke="#FF6F61"/>
<rect x="248.5" y="228.5" width="178" height="23" rx="11.5" stroke="#0815B7"/>
<rect x="248.5" y="267.5" width="178" height="126" rx="24.5" stroke="#0815B7"/>
<rect x="50.5" y="267.5" width="182" height="166" rx="24.5" stroke="#0815B7"/>
<path d="M221.149 111.141C222.727 108.72 226.273 108.72 227.851 111.141L235.624 123.066C237.359 125.726 235.449 129.25 232.273 129.25H216.727C213.551 129.25 211.641 125.726 213.376 123.066L221.149 111.141Z" fill="white" stroke="#0815B7"/>
<path d="M236.474 96.7057C238.842 93.076 244.158 93.076 246.526 96.7057L261.863 120.222C264.466 124.213 261.602 129.5 256.837 129.5H226.163C221.398 129.5 218.534 124.213 221.137 120.222L236.474 96.7057Z" fill="#FF6F61"/>
<path d="M154.895 347.654C157.305 349.234 157.305 352.766 154.895 354.346L138.443 365.128C135.782 366.871 132.25 364.963 132.25 361.783L132.25 340.217C132.25 337.037 135.782 335.128 138.443 336.872L154.895 347.654Z" fill="#0815B7"/>
<path fill-rule="evenodd" clip-rule="evenodd" d="M338.086 515.954L338.11 515.454L338.134 514.955C338.752 514.985 339.374 515 340 515H342.015V515.5V516H340C339.358 516 338.72 515.984 338.086 515.954ZM756.986 516V515.5V515H759C759.626 515 760.248 514.985 760.866 514.955L760.89 515.454L760.914 515.954C760.28 515.984 759.642 516 759 516H756.986ZM764.725 515.583L764.652 515.088L764.579 514.593C765.819 514.411 767.04 514.169 768.237 513.87L768.358 514.355L768.48 514.84C767.25 515.147 765.997 515.396 764.725 515.583ZM772.143 513.73L771.974 513.259L771.806 512.789C772.982 512.368 774.131 511.891 775.25 511.36L775.464 511.812L775.678 512.264C774.53 512.808 773.35 513.298 772.143 513.73ZM779.053 510.457L778.795 510.028L778.538 509.6C779.606 508.958 780.64 508.265 781.637 507.525L781.935 507.926L782.233 508.327C781.21 509.087 780.149 509.798 779.053 510.457ZM785.191 505.897L784.855 505.527L784.519 505.157C785.441 504.321 786.321 503.441 787.157 502.519L787.527 502.855L787.897 503.191C787.04 504.136 786.136 505.04 785.191 505.897ZM790.327 500.233L789.926 499.935L789.525 499.637C790.265 498.64 790.958 497.606 791.599 496.538L792.028 496.795L792.457 497.053C791.798 498.149 791.087 499.21 790.327 500.233ZM794.264 493.678L793.812 493.464L793.36 493.25C793.891 492.131 794.368 490.982 794.789 489.806L795.259 489.974L795.73 490.143C795.298 491.35 794.808 492.53 794.264 493.678ZM796.84 486.48L796.355 486.358L795.87 486.237C796.169 485.04 796.411 483.819 796.593 482.579L797.088 482.652L797.583 482.725C797.396 483.997 797.147 485.25 796.84 486.48ZM798 370.929H797.5H797V369C797 368.374 796.985 367.752 796.955 367.134L797.454 367.11L797.954 367.086C797.984 367.72 798 368.358 798 369V370.929ZM797.583 363.275L797.088 363.348L796.593 363.421C796.411 362.181 796.169 360.96 795.87 359.763L796.355 359.642L796.84 359.52C797.147 360.75 797.396 362.003 797.583 363.275ZM795.73 355.857L795.259 356.026L794.789 356.194C794.368 355.018 793.891 353.869 793.36 352.75L793.812 352.536L794.264 352.322C794.808 353.47 795.298 354.65 795.73 355.857ZM792.457 348.947L792.028 349.205L791.599 349.462C790.958 348.394 790.265 347.36 789.525 346.363L789.926 346.065L790.327 345.767C791.087 346.79 791.798 347.851 792.457 348.947ZM787.897 342.809L787.527 343.145L787.157 343.481C786.321 342.559 785.441 341.679 784.519 340.843L784.855 340.473L785.191 340.103C786.136 340.96 787.04 341.864 787.897 342.809ZM782.233 337.673L781.935 338.074L781.637 338.475C780.64 337.735 779.606 337.042 778.538 336.4L778.795 335.972L779.053 335.543C780.149 336.202 781.21 336.913 782.233 337.673ZM775.678 333.736L775.464 334.188L775.25 334.64C774.131 334.109 772.982 333.632 771.806 333.211L771.974 332.741L772.143 332.27C773.35 332.702 774.53 333.192 775.678 333.736ZM768.48 331.16L768.358 331.645L768.237 332.13C767.04 331.831 765.819 331.589 764.579 331.407L764.652 330.912L764.725 330.417C765.997 330.604 767.25 330.853 768.48 331.16ZM301 475.071H301.5H302V477C302 477.626 302.015 478.248 302.045 478.866L301.546 478.89L301.046 478.914C301.016 478.28 301 477.642 301 477V475.071ZM301.417 482.725L301.912 482.652L302.407 482.579C302.589 483.819 302.831 485.04 303.13 486.237L302.645 486.358L302.16 486.48C301.853 485.25 301.604 483.997 301.417 482.725ZM303.27 490.143L303.741 489.974L304.211 489.806C304.632 490.982 305.109 492.131 305.64 493.25L305.188 493.464L304.736 493.678C304.192 492.53 303.702 491.35 303.27 490.143ZM306.543 497.053L306.972 496.795L307.4 496.538C308.042 497.606 308.735 498.64 309.475 499.637L309.074 499.935L308.673 500.233C307.913 499.21 307.202 498.149 306.543 497.053ZM311.103 503.191L311.473 502.855L311.843 502.519C312.679 503.441 313.559 504.321 314.481 505.157L314.145 505.527L313.809 505.897C312.864 505.04 311.96 504.136 311.103 503.191ZM316.767 508.327L317.065 507.926L317.363 507.525C318.36 508.265 319.394 508.958 320.462 509.6L320.205 510.028L319.947 510.457C318.851 509.798 317.79 509.087 316.767 508.327ZM323.322 512.264L323.536 511.812L323.75 511.36C324.869 511.891 326.018 512.368 327.194 512.789L327.026 513.259L326.857 513.73C325.65 513.298 324.47 512.808 323.322 512.264ZM334.275 515.583L334.348 515.088L334.421 514.593C333.181 514.411 331.96 514.169 330.763 513.87L330.642 514.355L330.52 514.84C331.75 515.147 333.003 515.396 334.275 515.583ZM301 471.214H301.5H302V467.357H301.5H301V471.214ZM301 463.5H301.5H302V459.643H301.5H301V463.5ZM301 455.786H301.5H302V451.929H301.5H301V455.786ZM756.985 330V330.5V331H759C759.626 331 760.248 331.015 760.866 331.045L760.89 330.546L760.914 330.046C760.28 330.016 759.642 330 759 330H756.985ZM798 374.786H797.5H797V378.643H797.5H798V374.786ZM798 382.5H797.5H797V386.357H797.5H798V382.5ZM798 390.214H797.5H797V394.071H797.5H798V390.214ZM798 397.929H797.5H797V401.786H797.5H798V397.929ZM798 405.643H797.5H797V409.5H797.5H798V405.643ZM798 413.357H797.5H797V417.214H797.5H798V413.357ZM798 421.071H797.5H797V424.929H797.5H798V421.071ZM798 428.786H797.5H797V432.643H797.5H798V428.786ZM798 436.5H797.5H797V440.357H797.5H798V436.5ZM798 444.214H797.5H797V448.071H797.5H798V444.214ZM798 451.929H797.5H797V455.786H797.5H798V451.929ZM798 459.643H797.5H797V463.5H797.5H798V459.643ZM798 467.357H797.5H797V471.214H797.5H798V467.357ZM798 475.071H797.5H797V477C797 477.626 796.985 478.248 796.955 478.866L797.454 478.89L797.954 478.914C797.984 478.28 798 477.642 798 477V475.071ZM752.957 516V515.5V515H748.928V515.5V516H752.957ZM744.899 516V515.5V515H740.87V515.5V516H744.899ZM736.841 516V515.5V515H732.812V515.5V516H736.841ZM728.784 516V515.5V515H724.755V515.5V516H728.784ZM720.726 516V515.5V515H716.697V515.5V516H720.726ZM712.668 516V515.5V515H708.639V515.5V516H712.668ZM704.611 516V515.5V515H700.582V515.5V516H704.611ZM696.553 516V515.5V515H692.524V515.5V516H696.553ZM688.495 516V515.5V515H684.466V515.5V516H688.495ZM680.438 516V515.5V515H676.409V515.5V516H680.438ZM672.38 516V515.5V515H668.351V515.5V516H672.38ZM664.322 516V515.5V515H660.293V515.5V516H664.322ZM656.264 516V515.5V515H652.236V515.5V516H656.264ZM648.207 516V515.5V515H644.178V515.5V516H648.207ZM640.149 516V515.5V515H636.12V515.5V516H640.149ZM632.091 516V515.5V515H628.062V515.5V516H632.091ZM624.034 516V515.5V515H620.005V515.5V516H624.034ZM615.976 516V515.5V515H611.947V515.5V516H615.976ZM607.918 516V515.5V515H603.889V515.5V516H607.918ZM599.861 516V515.5V515H595.832V515.5V516H599.861ZM591.803 516V515.5V515H587.774V515.5V516H591.803ZM583.745 516V515.5V515H579.716V515.5V516H583.745ZM575.688 516V515.5V515H571.659V515.5V516H575.688ZM567.63 516V515.5V515H563.601V515.5V516H567.63ZM559.572 516V515.5V515H555.543V515.5V516H559.572ZM551.515 516V515.5V515H547.486V515.5V516H551.515ZM543.457 516V515.5V515H539.428V515.5V516H543.457ZM535.399 516V515.5V515H531.37V515.5V516H535.399ZM527.342 516V515.5V515H523.313V515.5V516H527.342ZM519.284 516V515.5V515H515.255V515.5V516H519.284ZM511.226 516V515.5V515H507.197V515.5V516H511.226ZM503.168 516V515.5V515H499.14V515.5V516H503.168ZM495.111 516V515.5V515H491.082V515.5V516H495.111ZM487.053 516V515.5V515H483.024V515.5V516H487.053ZM478.995 516V515.5V515H474.967V515.5V516H478.995ZM470.938 516V515.5V515H466.909V515.5V516H470.938ZM462.88 516V515.5V515H458.851V515.5V516H462.88ZM454.822 516V515.5V515H450.794V515.5V516H454.822ZM446.765 516V515.5V515H442.736V515.5V516H446.765ZM438.707 516V515.5V515H434.678V515.5V516H438.707ZM430.649 516V515.5V515H426.621V515.5V516H430.649ZM422.592 516V515.5V515H418.563V515.5V516H422.592ZM414.534 516V515.5V515H410.505V515.5V516H414.534ZM406.476 516V515.5V515H402.447V515.5V516H406.476ZM398.419 516V515.5V515H394.39V515.5V516H398.419ZM390.361 516V515.5V515H386.332V515.5V516H390.361ZM382.303 516V515.5V515H378.274V515.5V516H382.303ZM374.246 516V515.5V515H370.217V515.5V516H374.246ZM366.188 516V515.5V515H362.159V515.5V516H366.188ZM358.13 516V515.5V515H354.101V515.5V516H358.13ZM350.073 516V515.5V515H346.044V515.5V516H350.073Z" fill="#FF6F61"/>
<rect x="738.037" y="300.5" width="92.607" height="164.537" rx="13.5" transform="rotate(90 738.037 300.5)" fill="white" stroke="#FF6F61"/>
<rect x="638.518" y="310.354" width="72.9003" height="55.1642" rx="7.5" transform="rotate(90 638.518 310.354)" fill="white" stroke="#FF6F61"/>
<rect x="728.183" y="310.354" width="46.2962" height="5.89736" rx="2.94868" transform="rotate(90 728.183 310.354)" fill="white" stroke="#FF6F61"/>
<rect x="716.359" y="310.354" width="46.2962" height="5.89736" rx="2.94868" transform="rotate(90 716.359 310.354)" fill="white" stroke="#FF6F61"/>
<rect x="704.535" y="310.354" width="46.2962" height="60.0909" rx="7.5" transform="rotate(90 704.535 310.354)" fill="white" stroke="#FF6F61"/>
<rect x="728.183" y="362.576" width="20.6774" height="5.89736" rx="2.94868" transform="rotate(90 728.183 362.576)" fill="white" stroke="#FF6F61"/>
<rect x="716.359" y="362.576" width="20.6774" height="5.89736" rx="2.94868" transform="rotate(90 716.359 362.576)" fill="white" stroke="#FF6F61"/>
<rect x="704.535" y="362.576" width="20.6774" height="60.0909" rx="7.5" transform="rotate(90 704.535 362.576)" fill="white" stroke="#FF6F61"/>
</svg>
