<svg width="55" height="56" viewBox="0 0 55 56" fill="none" xmlns="http://www.w3.org/2000/svg">
<path d="M40.1811 31.1409L40.2121 31.2961L40.3267 31.4052L43.5887 34.5097C44.1928 35.1177 44.488 36.0149 44.4996 36.8807L43.5333 41.2372C43.3276 42.0527 42.7161 42.731 41.9067 43.0034L37.6656 44.3107L37.4953 44.3631L37.3966 44.5115C36.9262 45.2183 36.4551 45.7699 35.8845 46.4232L35.7743 46.5494L35.7624 46.7165L35.4361 51.2925C35.4361 51.2934 35.436 51.2943 35.4359 51.2952C35.3695 52.0812 34.8382 52.8396 34.0705 53.2628L30.0788 55.2214L30.0597 55.2308L30.0415 55.2417C29.7252 55.4319 29.4098 55.4976 29.074 55.4976C28.5982 55.4976 28.1251 55.3617 27.7213 55.0929L24.0493 52.5588L23.8749 52.4384L23.6671 52.48C23.3152 52.5505 22.9563 52.5521 22.5402 52.5521C22.3652 52.5521 22.186 52.5346 21.9775 52.5137L21.9671 52.5126C21.7697 52.4929 21.5445 52.4703 21.3151 52.4703H21.1594L21.0311 52.5588L17.3591 55.0929C16.9553 55.3617 16.4822 55.4976 16.0065 55.4976C15.7164 55.4976 15.4057 55.3816 14.9848 55.2131L10.9997 53.2578L10.9861 53.2511L10.9721 53.2452C10.189 52.9184 9.71433 52.1991 9.64466 51.2969C9.64462 51.2965 9.64459 51.2961 9.64456 51.2956L9.31807 46.7165L9.30616 46.5494L9.19592 46.4232C8.63847 45.785 8.15923 45.1452 7.66783 44.4888L7.57033 44.3586L7.41485 44.3107L3.17373 43.0034C2.36435 42.731 1.75286 42.0527 1.54715 41.2371L0.568576 36.8256L0.568744 36.8256L0.565563 36.8129C0.36695 36.017 0.6282 35.1322 1.2467 34.5097L4.50874 31.4052L4.62338 31.2961L4.65436 31.1409C4.8184 30.3193 4.97753 29.524 5.21472 28.7319L5.26366 28.5685L5.20252 28.4093L3.56908 24.1547L3.56926 24.1546L3.56396 24.1419C3.22703 23.3318 3.35951 22.4608 3.90137 21.7823L3.90142 21.7823L3.90657 21.7757L6.68341 18.1757L6.69061 18.1663L6.69736 18.1567C7.1512 17.5072 8.01573 17.1658 8.81867 17.2998L8.81865 17.2999L8.82761 17.3012L13.2379 17.9558L13.406 17.9807L13.5544 17.8981C14.267 17.5015 14.982 17.1828 15.7198 16.8543L15.8712 16.7869L15.9524 16.6424L18.1576 12.7151L18.1576 12.7151L18.1607 12.7094C18.5638 11.9691 19.376 11.4976 20.1717 11.4976H24.6637C25.4594 11.4976 26.2717 11.9691 26.6747 12.7094L26.6747 12.7094L26.6779 12.7151L28.883 16.6424L28.9775 16.8107L29.1606 16.8718C29.8433 17.0998 30.5365 17.4838 31.281 17.8981L31.4295 17.9807L31.5975 17.9558L36.0078 17.3012L36.0078 17.3013L36.0168 17.2998C36.7994 17.1692 37.6031 17.4905 38.1546 18.1791L40.9289 21.7757L40.9288 21.7757L40.9341 21.7823C41.4759 22.4608 41.6084 23.3318 41.2715 24.1419L41.2713 24.1418L41.2663 24.1547L39.6329 28.4093L39.5718 28.5685L39.6207 28.7319C39.8579 29.524 40.017 30.3193 40.1811 31.1409ZM22.3769 21.2157C15.392 21.2157 9.78943 27.015 9.78943 34.0703C9.78943 41.1278 15.4758 46.9248 22.3769 46.9248C29.3618 46.9248 34.9643 41.1255 34.9643 34.0703C34.9643 27.0128 29.2779 21.2157 22.3769 21.2157Z" stroke="#0815B7"/>
<path d="M53.9383 24.1521L50.6714 21.043C50.508 20.2248 50.3447 19.4067 50.0997 18.5885L51.7331 14.3339C52.1415 13.3521 51.9781 12.2885 51.3248 11.4703L48.5479 7.87029C47.8945 7.0521 46.9145 6.64301 45.9344 6.80665L41.5241 7.46119C40.7891 7.0521 40.054 6.64301 39.319 6.39756L37.1138 2.47029C36.6238 1.57029 35.6438 0.997559 34.6637 0.997559H30.1717C29.1917 0.997559 28.2116 1.57029 27.7216 2.47029L25.5164 6.39756C24.7814 6.72483 24.0463 7.0521 23.3113 7.46119L18.901 6.80665C17.9209 6.64301 16.8592 7.0521 16.2875 7.87029L13.5107 11.4703C12.8573 12.2885 12.6939 13.3521 13.1023 14.3339L14.7357 18.5885C14.4907 19.4067 14.3274 20.2248 14.164 21.043L10.8972 24.1521C10.1621 24.8885 9.83543 25.9521 10.0804 26.9339L11.0605 31.3521C11.3055 32.3339 12.0406 33.1521 13.0206 33.4794L17.2676 34.7885C17.7576 35.443 18.2476 36.0976 18.8193 36.7521L19.146 41.3339C19.2277 42.3976 19.7994 43.2976 20.7795 43.7066L24.7814 45.6703C25.1897 45.8339 25.5981 45.9976 26.0065 45.9976C26.5782 45.9976 27.1499 45.8339 27.6399 45.5066L31.3151 42.9703C31.7235 42.9703 32.1319 43.0521 32.5402 43.0521C32.9486 43.0521 33.3569 43.0521 33.7653 42.9703L37.4405 45.5066C37.9306 45.8339 38.5023 45.9976 39.074 45.9976C39.4823 45.9976 39.8907 45.9157 40.2991 45.6703L44.301 43.7066C45.1994 43.2157 45.8527 42.3157 45.9344 41.3339L46.2611 36.7521C46.8328 36.0976 47.3228 35.5248 47.8129 34.7885L52.0598 33.4794C53.0399 33.1521 53.7749 32.3339 54.0199 31.3521L55 26.9339C55 25.9521 54.6733 24.8885 53.9383 24.1521ZM20.2894 24.0703C20.2894 17.2794 25.6798 11.7157 32.3769 11.7157C38.9923 11.7157 44.4643 17.2794 44.4643 24.0703C44.4643 30.8612 39.074 36.4248 32.3769 36.4248C25.7615 36.4248 20.2894 30.8612 20.2894 24.0703Z" fill="#FF6F61"/>
</svg>
