<svg width="326" height="304" viewBox="0 0 326 304" fill="none" xmlns="http://www.w3.org/2000/svg">
<rect width="326" height="304" fill="#0815B7"/>
<path d="M70.3438 259.344H63.8878L62.3518 264H60.3838L65.9998 247.2H68.3518L74.0158 264H71.9278L70.3438 259.344ZM64.5118 257.616H69.7918L67.3198 249.72H67.0318L64.5118 257.616Z" fill="white"/>
<path d="M84.8784 256.464L84.9504 254.88H84.8784L78.1344 264H76.4304V252H78.3024V259.752L78.2304 261.264H78.3264L85.0224 252H86.7504V264H84.8784V256.464ZM79.5504 247.152C79.7104 247.888 79.9824 248.4 80.3664 248.688C80.7664 248.976 81.2224 249.12 81.7344 249.12C82.2464 249.12 82.7024 248.968 83.1024 248.664C83.5024 248.36 83.7744 247.864 83.9184 247.176L85.3584 247.632C85.2144 248.56 84.7984 249.272 84.1104 249.768C83.4384 250.264 82.6304 250.512 81.6864 250.512C81.2544 250.512 80.8224 250.456 80.3904 250.344C79.9744 250.232 79.5984 250.064 79.2624 249.84C78.9264 249.616 78.6384 249.328 78.3984 248.976C78.1584 248.624 77.9984 248.208 77.9184 247.728L79.5504 247.152Z" fill="white"/>
<path d="M102.365 266.88H100.733V264H91.085V266.88H89.453V262.368H90.797C90.941 262.192 91.133 261.88 91.373 261.432C91.613 260.968 91.845 260.328 92.069 259.512C92.293 258.68 92.493 257.656 92.669 256.44C92.845 255.208 92.949 253.728 92.981 252H100.517V262.368H102.365V266.88ZM98.645 262.392V253.608H94.685C94.653 254.296 94.589 255.04 94.493 255.84C94.413 256.64 94.293 257.44 94.133 258.24C93.973 259.024 93.773 259.776 93.533 260.496C93.309 261.216 93.045 261.848 92.741 262.392H98.645Z" fill="white"/>
<path d="M115.868 262.488C115.58 262.744 115.236 262.984 114.836 263.208C114.452 263.432 114.028 263.624 113.564 263.784C113.1 263.944 112.612 264.064 112.1 264.144C111.604 264.24 111.1 264.288 110.588 264.288C109.628 264.288 108.78 264.144 108.044 263.856C107.308 263.552 106.692 263.128 106.196 262.584C105.7 262.024 105.324 261.36 105.068 260.592C104.812 259.824 104.684 258.96 104.684 258C104.684 256.992 104.82 256.096 105.092 255.312C105.38 254.528 105.788 253.872 106.316 253.344C106.844 252.816 107.484 252.416 108.236 252.144C108.988 251.856 109.828 251.712 110.756 251.712C111.428 251.712 112.092 251.8 112.748 251.976C113.404 252.152 113.98 252.488 114.476 252.984C114.988 253.464 115.38 254.136 115.652 255C115.924 255.848 116.02 256.952 115.94 258.312H106.652C106.652 259.752 107.036 260.832 107.804 261.552C108.588 262.256 109.628 262.608 110.924 262.608C111.356 262.608 111.78 262.56 112.196 262.464C112.628 262.352 113.036 262.224 113.42 262.08C113.804 261.936 114.14 261.776 114.428 261.6C114.732 261.424 114.964 261.264 115.124 261.12L115.868 262.488ZM110.804 253.296C110.276 253.296 109.772 253.352 109.292 253.464C108.828 253.576 108.412 253.768 108.044 254.04C107.692 254.296 107.396 254.64 107.156 255.072C106.932 255.488 106.788 256.008 106.724 256.632H114.188C114.108 255.576 113.764 254.76 113.156 254.184C112.564 253.592 111.78 253.296 110.804 253.296Z" fill="white"/>
<path d="M127.978 258.672H121.522V264H119.674V252H121.522V256.992H127.978V252H129.85V264H127.978V258.672Z" fill="white"/>
<path d="M133.201 252H145.105V256.488H143.473V253.632H140.089V262.392H142.993V264H135.217V262.392H138.217V253.632H134.833V256.488H133.201V252Z" fill="white"/>
<path d="M156.832 256.464L156.904 254.88H156.832L150.088 264H148.384V252H150.256V259.752L150.184 261.264H150.28L156.976 252H158.704V264H156.832V256.464Z" fill="white"/>
<path d="M166.518 258.576H165.198V264H163.35V252H165.198V257.136H166.518L171.246 252H173.502L168.198 257.688L172.566 262.392H174.126V264H171.654L166.518 258.576Z" fill="white"/>
<path d="M177.717 252.936C178.405 252.536 179.181 252.248 180.045 252.072C180.909 251.896 181.757 251.808 182.589 251.808C183.405 251.808 184.069 251.936 184.581 252.192C185.109 252.448 185.517 252.784 185.805 253.2C186.109 253.6 186.309 254.064 186.405 254.592C186.517 255.104 186.573 255.624 186.573 256.152C186.573 256.76 186.557 257.408 186.525 258.096C186.493 258.784 186.469 259.472 186.453 260.16C186.453 260.96 186.501 261.72 186.597 262.44H188.205V264H185.013L184.797 262.2H184.677C184.581 262.344 184.437 262.528 184.245 262.752C184.053 262.976 183.797 263.2 183.477 263.424C183.173 263.632 182.797 263.816 182.349 263.976C181.901 264.136 181.373 264.216 180.765 264.216C179.581 264.216 178.645 263.912 177.957 263.304C177.269 262.696 176.925 261.864 176.925 260.808C176.925 259.992 177.101 259.312 177.453 258.768C177.821 258.224 178.341 257.808 179.013 257.52C179.685 257.232 180.493 257.064 181.437 257.016C182.397 256.968 183.469 257.032 184.653 257.208C184.733 256.472 184.741 255.864 184.677 255.384C184.629 254.888 184.501 254.496 184.293 254.208C184.101 253.92 183.821 253.72 183.453 253.608C183.101 253.48 182.661 253.416 182.133 253.416C181.413 253.416 180.725 253.52 180.069 253.728C179.413 253.92 178.829 254.12 178.317 254.328L177.717 252.936ZM181.245 262.608C181.693 262.608 182.109 262.536 182.493 262.392C182.877 262.248 183.213 262.064 183.501 261.84C183.789 261.616 184.029 261.376 184.221 261.12C184.413 260.848 184.557 260.592 184.653 260.352V258.672C183.821 258.528 183.053 258.456 182.349 258.456C181.645 258.456 181.037 258.536 180.525 258.696C180.013 258.84 179.613 259.072 179.325 259.392C179.037 259.712 178.893 260.128 178.893 260.64C178.893 261.168 179.069 261.632 179.421 262.032C179.789 262.416 180.397 262.608 181.245 262.608Z" fill="white"/>
<path d="M92.3592 105.247C93.1575 104.141 94.8045 104.141 95.6027 105.247L98.1881 108.83C99.1427 110.152 98.1975 112 96.5663 112H91.3956C89.7644 112 88.8192 110.152 89.7738 108.83L92.3592 105.247Z" fill="#FF6F61"/>
<path d="M215.971 116.788C216.792 117.387 216.792 118.613 215.971 119.212L207.115 125.67C206.124 126.393 204.731 125.685 204.731 124.458L204.731 111.542C204.731 110.315 206.124 109.607 207.115 110.33L215.971 116.788Z" stroke="white"/>
<path d="M220.991 119.212C220.17 118.613 220.17 117.387 220.991 116.788L229.847 110.33C230.838 109.607 232.231 110.315 232.231 111.542L232.231 124.458C232.231 125.685 230.838 126.393 229.847 125.67L220.991 119.212Z" stroke="white"/>
<rect x="122.981" y="66.5" width="96" height="131" rx="8.5" stroke="white"/>
<rect x="89.981" y="115.5" width="9" height="69" rx="2.5" stroke="white"/>
<rect x="146.481" y="141" width="94" height="49" rx="9" fill="#FF6F61"/>
<rect x="131.981" y="86.5" width="49" height="6" rx="3" stroke="white"/>
<rect x="131.981" y="111.5" width="56" height="6" rx="3" stroke="white"/>
<rect x="131.981" y="98.5" width="63" height="6" rx="3" stroke="#FF6F61"/>
<path d="M157.873 153.848H159.409V152.256H160.345V153.848H161.889V154.744H160.345V156.352H159.409V154.744H157.873V153.848ZM163.094 157L165.398 152.344H162.79V151.4H166.438V152.184L164.11 157H163.094ZM172.304 153.152C172.304 152.88 172.349 152.629 172.44 152.4C172.536 152.171 172.666 151.976 172.832 151.816C173.002 151.651 173.205 151.523 173.44 151.432C173.68 151.336 173.946 151.288 174.24 151.288C174.538 151.288 174.81 151.333 175.056 151.424C175.301 151.515 175.512 151.651 175.688 151.832C175.864 152.008 176 152.229 176.096 152.496C176.192 152.757 176.24 153.059 176.24 153.4C176.24 154.019 176.16 154.552 176 155C175.84 155.448 175.624 155.821 175.352 156.12C175.085 156.419 174.773 156.648 174.416 156.808C174.058 156.968 173.685 157.069 173.296 157.112L173.072 156.296C173.365 156.259 173.629 156.187 173.864 156.08C174.104 155.973 174.312 155.843 174.488 155.688C174.664 155.528 174.808 155.349 174.92 155.152C175.032 154.949 175.104 154.733 175.136 154.504C175.024 154.616 174.88 154.707 174.704 154.776C174.528 154.84 174.317 154.872 174.072 154.872H174.056C173.853 154.872 173.648 154.837 173.44 154.768C173.232 154.699 173.042 154.592 172.872 154.448C172.706 154.304 172.57 154.125 172.464 153.912C172.357 153.693 172.304 153.44 172.304 153.152ZM173.312 153.096C173.312 153.245 173.338 153.379 173.392 153.496C173.45 153.608 173.525 153.704 173.616 153.784C173.706 153.859 173.81 153.917 173.928 153.96C174.05 153.997 174.176 154.016 174.304 154.016C174.522 154.016 174.712 153.981 174.872 153.912C175.032 153.843 175.149 153.757 175.224 153.656C175.24 153.544 175.248 153.437 175.248 153.336C175.248 153.187 175.226 153.04 175.184 152.896C175.141 152.752 175.077 152.624 174.992 152.512C174.906 152.4 174.8 152.312 174.672 152.248C174.544 152.179 174.397 152.144 174.232 152.144C173.97 152.144 173.752 152.229 173.576 152.4C173.4 152.565 173.312 152.797 173.312 153.096ZM177.1 153.152C177.1 152.88 177.146 152.629 177.236 152.4C177.332 152.171 177.463 151.976 177.628 151.816C177.799 151.651 178.002 151.523 178.236 151.432C178.476 151.336 178.743 151.288 179.036 151.288C179.335 151.288 179.607 151.333 179.852 151.424C180.098 151.515 180.308 151.651 180.484 151.832C180.66 152.008 180.796 152.229 180.892 152.496C180.988 152.757 181.036 153.059 181.036 153.4C181.036 154.019 180.956 154.552 180.796 155C180.636 155.448 180.42 155.821 180.148 156.12C179.882 156.419 179.57 156.648 179.212 156.808C178.855 156.968 178.482 157.069 178.092 157.112L177.868 156.296C178.162 156.259 178.426 156.187 178.66 156.08C178.9 155.973 179.108 155.843 179.284 155.688C179.46 155.528 179.604 155.349 179.716 155.152C179.828 154.949 179.9 154.733 179.932 154.504C179.82 154.616 179.676 154.707 179.5 154.776C179.324 154.84 179.114 154.872 178.868 154.872H178.852C178.65 154.872 178.444 154.837 178.236 154.768C178.028 154.699 177.839 154.592 177.668 154.448C177.503 154.304 177.367 154.125 177.26 153.912C177.154 153.693 177.1 153.44 177.1 153.152ZM178.108 153.096C178.108 153.245 178.135 153.379 178.188 153.496C178.247 153.608 178.322 153.704 178.412 153.784C178.503 153.859 178.607 153.917 178.724 153.96C178.847 153.997 178.972 154.016 179.1 154.016C179.319 154.016 179.508 153.981 179.668 153.912C179.828 153.843 179.946 153.757 180.02 153.656C180.036 153.544 180.044 153.437 180.044 153.336C180.044 153.187 180.023 153.04 179.98 152.896C179.938 152.752 179.874 152.624 179.788 152.512C179.703 152.4 179.596 152.312 179.468 152.248C179.34 152.179 179.194 152.144 179.028 152.144C178.767 152.144 178.548 152.229 178.372 152.4C178.196 152.565 178.108 152.797 178.108 153.096ZM181.897 153.152C181.897 152.88 181.943 152.629 182.033 152.4C182.129 152.171 182.26 151.976 182.425 151.816C182.596 151.651 182.799 151.523 183.033 151.432C183.273 151.336 183.54 151.288 183.833 151.288C184.132 151.288 184.404 151.333 184.649 151.424C184.895 151.515 185.105 151.651 185.281 151.832C185.457 152.008 185.593 152.229 185.689 152.496C185.785 152.757 185.833 153.059 185.833 153.4C185.833 154.019 185.753 154.552 185.593 155C185.433 155.448 185.217 155.821 184.945 156.12C184.679 156.419 184.367 156.648 184.009 156.808C183.652 156.968 183.279 157.069 182.889 157.112L182.665 156.296C182.959 156.259 183.223 156.187 183.457 156.08C183.697 155.973 183.905 155.843 184.081 155.688C184.257 155.528 184.401 155.349 184.513 155.152C184.625 154.949 184.697 154.733 184.729 154.504C184.617 154.616 184.473 154.707 184.297 154.776C184.121 154.84 183.911 154.872 183.665 154.872H183.649C183.447 154.872 183.241 154.837 183.033 154.768C182.825 154.699 182.636 154.592 182.465 154.448C182.3 154.304 182.164 154.125 182.057 153.912C181.951 153.693 181.897 153.44 181.897 153.152ZM182.905 153.096C182.905 153.245 182.932 153.379 182.985 153.496C183.044 153.608 183.119 153.704 183.209 153.784C183.3 153.859 183.404 153.917 183.521 153.96C183.644 153.997 183.769 154.016 183.897 154.016C184.116 154.016 184.305 153.981 184.465 153.912C184.625 153.843 184.743 153.757 184.817 153.656C184.833 153.544 184.841 153.437 184.841 153.336C184.841 153.187 184.82 153.04 184.777 152.896C184.735 152.752 184.671 152.624 184.585 152.512C184.5 152.4 184.393 152.312 184.265 152.248C184.137 152.179 183.991 152.144 183.825 152.144C183.564 152.144 183.345 152.229 183.169 152.4C182.993 152.565 182.905 152.797 182.905 153.096ZM191.907 156.12H193.131V152.624L192.075 153.432L191.595 152.792L193.419 151.4H194.123V156.12H195.323V157H191.907V156.12ZM200.04 157H196.472V156.224C196.536 156.171 196.616 156.101 196.712 156.016C196.808 155.925 196.915 155.824 197.032 155.712C197.155 155.6 197.283 155.477 197.416 155.344C197.549 155.211 197.68 155.072 197.808 154.928C197.989 154.725 198.147 154.541 198.28 154.376C198.419 154.211 198.531 154.056 198.616 153.912C198.707 153.763 198.773 153.619 198.816 153.48C198.859 153.336 198.88 153.189 198.88 153.04C198.88 152.933 198.856 152.829 198.808 152.728C198.76 152.627 198.693 152.539 198.608 152.464C198.523 152.384 198.419 152.323 198.296 152.28C198.179 152.232 198.048 152.208 197.904 152.208C197.712 152.208 197.536 152.237 197.376 152.296C197.221 152.355 197.059 152.453 196.888 152.592L196.472 151.856C196.696 151.696 196.944 151.563 197.216 151.456C197.493 151.344 197.811 151.288 198.168 151.288C198.397 151.288 198.616 151.32 198.824 151.384C199.037 151.448 199.224 151.544 199.384 151.672C199.549 151.795 199.68 151.949 199.776 152.136C199.872 152.323 199.92 152.539 199.92 152.784C199.92 152.955 199.904 153.115 199.872 153.264C199.845 153.408 199.8 153.555 199.736 153.704C199.677 153.848 199.597 153.997 199.496 154.152C199.4 154.307 199.283 154.475 199.144 154.656C199.037 154.795 198.92 154.936 198.792 155.08C198.669 155.219 198.547 155.352 198.424 155.48C198.301 155.608 198.179 155.728 198.056 155.84C197.939 155.952 197.832 156.045 197.736 156.12H200.04V157ZM202.637 156.232C202.813 156.232 202.973 156.211 203.117 156.168C203.266 156.12 203.391 156.056 203.493 155.976C203.599 155.891 203.682 155.795 203.741 155.688C203.799 155.576 203.829 155.456 203.829 155.328C203.829 155.168 203.794 155.035 203.725 154.928C203.661 154.816 203.57 154.728 203.453 154.664C203.335 154.6 203.194 154.555 203.029 154.528C202.863 154.501 202.685 154.488 202.493 154.488H202.045V153.92L203.389 152.28H201.365V151.4H204.629V152.128L203.221 153.736H203.405C203.591 153.736 203.773 153.768 203.949 153.832C204.125 153.896 204.279 153.992 204.413 154.12C204.551 154.248 204.661 154.408 204.741 154.6C204.826 154.792 204.869 155.013 204.869 155.264C204.869 155.568 204.805 155.835 204.677 156.064C204.554 156.293 204.389 156.488 204.181 156.648C203.978 156.803 203.743 156.92 203.477 157C203.21 157.075 202.935 157.112 202.653 157.112C202.413 157.112 202.173 157.091 201.933 157.048C201.693 157.005 201.461 156.939 201.237 156.848L201.517 155.984C201.565 156.011 201.629 156.037 201.709 156.064C201.794 156.091 201.887 156.117 201.989 156.144C202.095 156.171 202.202 156.192 202.309 156.208C202.421 156.224 202.53 156.232 202.637 156.232ZM212.231 156.232C212.407 156.232 212.567 156.211 212.711 156.168C212.86 156.12 212.985 156.056 213.087 155.976C213.193 155.891 213.276 155.795 213.335 155.688C213.393 155.576 213.423 155.456 213.423 155.328C213.423 155.168 213.388 155.035 213.319 154.928C213.255 154.816 213.164 154.728 213.047 154.664C212.929 154.6 212.788 154.555 212.623 154.528C212.457 154.501 212.279 154.488 212.087 154.488H211.639V153.92L212.983 152.28H210.959V151.4H214.223V152.128L212.815 153.736H212.999C213.185 153.736 213.367 153.768 213.543 153.832C213.719 153.896 213.873 153.992 214.007 154.12C214.145 154.248 214.255 154.408 214.335 154.6C214.42 154.792 214.463 155.013 214.463 155.264C214.463 155.568 214.399 155.835 214.271 156.064C214.148 156.293 213.983 156.488 213.775 156.648C213.572 156.803 213.337 156.92 213.071 157C212.804 157.075 212.529 157.112 212.247 157.112C212.007 157.112 211.767 157.091 211.527 157.048C211.287 157.005 211.055 156.939 210.831 156.848L211.111 155.984C211.159 156.011 211.223 156.037 211.303 156.064C211.388 156.091 211.481 156.117 211.583 156.144C211.689 156.171 211.796 156.192 211.903 156.208C212.015 156.224 212.124 156.232 212.231 156.232ZM219.659 155.44H218.699V157H217.731V155.44H215.307V154.728L217.843 151.36H218.699V154.608H219.659V155.44ZM217.731 152.832L216.339 154.608H217.731V152.832ZM226.533 156.192C226.709 156.192 226.872 156.171 227.021 156.128C227.171 156.085 227.299 156.024 227.405 155.944C227.517 155.864 227.603 155.765 227.661 155.648C227.725 155.531 227.757 155.397 227.757 155.248C227.757 154.955 227.64 154.725 227.405 154.56C227.176 154.389 226.829 154.304 226.365 154.304C226.307 154.304 226.237 154.307 226.157 154.312C226.083 154.312 226.011 154.315 225.941 154.32C225.861 154.325 225.779 154.328 225.693 154.328V151.4H228.589V152.36H226.589V153.456C226.632 153.456 226.675 153.453 226.717 153.448C226.755 153.448 226.789 153.448 226.821 153.448C226.859 153.443 226.891 153.44 226.917 153.44C227.184 153.44 227.432 153.48 227.661 153.56C227.891 153.635 228.091 153.749 228.261 153.904C228.432 154.059 228.563 154.248 228.653 154.472C228.749 154.691 228.797 154.933 228.797 155.2C228.797 155.515 228.739 155.792 228.621 156.032C228.504 156.267 228.344 156.464 228.141 156.624C227.939 156.784 227.704 156.907 227.437 156.992C227.171 157.072 226.885 157.112 226.581 157.112C226.464 157.112 226.339 157.099 226.205 157.072C226.072 157.051 225.941 157.024 225.813 156.992C225.685 156.955 225.565 156.915 225.453 156.872C225.347 156.829 225.256 156.789 225.181 156.752L225.517 155.92C225.608 155.973 225.747 156.032 225.933 156.096C226.125 156.16 226.325 156.192 226.533 156.192ZM233.802 155.264C233.802 155.525 233.751 155.768 233.65 155.992C233.554 156.216 233.421 156.411 233.25 156.576C233.079 156.741 232.874 156.872 232.634 156.968C232.399 157.064 232.146 157.112 231.874 157.112C231.597 157.112 231.335 157.069 231.09 156.984C230.85 156.893 230.639 156.76 230.458 156.584C230.277 156.408 230.133 156.187 230.026 155.92C229.919 155.653 229.866 155.344 229.866 154.992C229.866 154.464 229.957 153.984 230.138 153.552C230.325 153.12 230.562 152.747 230.85 152.432C231.138 152.112 231.461 151.856 231.818 151.664C232.175 151.467 232.53 151.341 232.882 151.288L233.114 152.112C232.831 152.165 232.567 152.253 232.322 152.376C232.077 152.493 231.858 152.637 231.666 152.808C231.474 152.979 231.311 153.168 231.178 153.376C231.05 153.584 230.962 153.8 230.914 154.024C231.021 153.891 231.181 153.779 231.394 153.688C231.607 153.592 231.842 153.544 232.098 153.544C232.338 153.544 232.562 153.584 232.77 153.664C232.978 153.739 233.157 153.851 233.306 154C233.461 154.144 233.581 154.323 233.666 154.536C233.757 154.749 233.802 154.992 233.802 155.264ZM232.794 155.304C232.794 155.016 232.706 154.797 232.53 154.648C232.359 154.499 232.127 154.424 231.834 154.424C231.621 154.424 231.429 154.472 231.258 154.568C231.087 154.664 230.962 154.776 230.882 154.904C230.871 154.963 230.863 155.029 230.858 155.104C230.858 155.173 230.858 155.229 230.858 155.272C230.858 155.4 230.879 155.523 230.922 155.64C230.965 155.757 231.026 155.861 231.106 155.952C231.191 156.037 231.293 156.107 231.41 156.16C231.527 156.208 231.663 156.232 231.818 156.232C231.941 156.232 232.061 156.211 232.178 156.168C232.295 156.12 232.399 156.056 232.49 155.976C232.581 155.896 232.653 155.8 232.706 155.688C232.765 155.571 232.794 155.443 232.794 155.304Z" fill="white"/>
<path d="M159.169 162.936L157.777 161H159.017L159.921 162.336L160.865 161H161.993L160.625 162.92L162.073 165H160.865L159.849 163.528L158.817 165H157.681L159.169 162.936ZM163.966 162.936L162.574 161H163.814L164.718 162.336L165.662 161H166.79L165.422 162.92L166.87 165H165.662L164.646 163.528L163.614 165H162.478L163.966 162.936ZM168.763 162.936L167.371 161H168.611L169.515 162.336L170.459 161H171.587L170.219 162.92L171.667 165H170.459L169.443 163.528L168.411 165H167.275L168.763 162.936ZM174.656 160.28C174.981 160.28 175.25 160.325 175.464 160.416C175.677 160.507 175.842 160.627 175.96 160.776C176.082 160.92 176.168 161.088 176.216 161.28C176.264 161.472 176.288 161.669 176.288 161.872C176.288 162.117 176.285 162.328 176.28 162.504C176.274 162.68 176.266 162.832 176.256 162.96C176.25 163.088 176.245 163.197 176.24 163.288C176.234 163.373 176.232 163.453 176.232 163.528C176.232 163.64 176.237 163.765 176.248 163.904C176.258 163.979 176.266 164.051 176.272 164.12H176.632V165H175.544L175.44 164.456H175.4C175.346 164.536 175.29 164.613 175.232 164.688C175.178 164.763 175.112 164.829 175.032 164.888C174.957 164.941 174.869 164.984 174.768 165.016C174.666 165.048 174.544 165.064 174.4 165.064C174.208 165.064 174.034 165.029 173.88 164.96C173.725 164.891 173.594 164.797 173.488 164.68C173.381 164.563 173.298 164.427 173.24 164.272C173.186 164.117 173.16 163.952 173.16 163.776C173.16 163.323 173.29 162.976 173.552 162.736C173.813 162.491 174.173 162.368 174.632 162.368C174.728 162.368 174.829 162.373 174.936 162.384C175.042 162.395 175.173 162.405 175.328 162.416C175.338 162.363 175.344 162.309 175.344 162.256V162.104C175.344 162.003 175.338 161.896 175.328 161.784C175.322 161.672 175.296 161.568 175.248 161.472C175.2 161.376 175.125 161.296 175.024 161.232C174.922 161.168 174.778 161.136 174.592 161.136C174.362 161.136 174.141 161.181 173.928 161.272C173.714 161.363 173.525 161.504 173.36 161.696C173.2 161.883 173.069 162.123 172.968 162.416C172.872 162.704 172.824 163.048 172.824 163.448C172.824 163.768 172.869 164.069 172.96 164.352C173.05 164.635 173.181 164.88 173.352 165.088C173.528 165.301 173.741 165.467 173.992 165.584C174.248 165.707 174.541 165.768 174.872 165.768C175.026 165.768 175.202 165.749 175.4 165.712C175.597 165.675 175.776 165.619 175.936 165.544L176.184 166.312C175.965 166.419 175.741 166.493 175.512 166.536C175.288 166.579 175.029 166.6 174.736 166.6C174.277 166.6 173.872 166.515 173.52 166.344C173.173 166.179 172.882 165.952 172.648 165.664C172.413 165.376 172.234 165.043 172.112 164.664C171.989 164.285 171.928 163.883 171.928 163.456C171.928 162.912 172.008 162.443 172.168 162.048C172.328 161.648 172.538 161.317 172.8 161.056C173.061 160.795 173.352 160.6 173.672 160.472C173.997 160.344 174.325 160.28 174.656 160.28ZM174.64 164.208C174.826 164.208 174.973 164.163 175.08 164.072C175.192 163.976 175.277 163.875 175.336 163.768V163.128C175.282 163.117 175.202 163.107 175.096 163.096C174.989 163.08 174.874 163.072 174.752 163.072C174.597 163.072 174.458 163.117 174.336 163.208C174.213 163.293 174.152 163.429 174.152 163.616C174.152 163.765 174.192 163.901 174.272 164.024C174.352 164.147 174.474 164.208 174.64 164.208ZM179.116 159.4H180.788V162.856C180.788 163.256 180.81 163.651 180.852 164.04C180.852 164.067 180.855 164.093 180.86 164.12H181.372V165H180.084L179.98 164.488H179.948C179.895 164.584 179.823 164.669 179.732 164.744C179.642 164.819 179.54 164.885 179.428 164.944C179.316 164.997 179.194 165.037 179.06 165.064C178.927 165.096 178.794 165.112 178.66 165.112C178.41 165.112 178.172 165.072 177.948 164.992C177.73 164.912 177.538 164.789 177.372 164.624C177.207 164.453 177.076 164.24 176.98 163.984C176.884 163.723 176.836 163.416 176.836 163.064C176.836 162.723 176.887 162.419 176.988 162.152C177.095 161.885 177.239 161.661 177.42 161.48C177.607 161.293 177.826 161.152 178.076 161.056C178.327 160.955 178.602 160.904 178.9 160.904C179.066 160.904 179.22 160.915 179.364 160.936C179.514 160.952 179.642 160.981 179.748 161.024V160.28H179.116V159.4ZM178.9 164.232C179.103 164.232 179.282 164.184 179.436 164.088C179.596 163.987 179.7 163.843 179.748 163.656V161.96C179.674 161.901 179.57 161.859 179.436 161.832C179.308 161.8 179.172 161.784 179.028 161.784C178.884 161.784 178.743 161.808 178.604 161.856C178.471 161.904 178.351 161.981 178.244 162.088C178.143 162.189 178.06 162.323 177.996 162.488C177.938 162.653 177.908 162.856 177.908 163.096C177.908 163.437 177.994 163.712 178.164 163.92C178.335 164.128 178.58 164.232 178.9 164.232ZM181.745 163C181.745 162.664 181.796 162.365 181.897 162.104C181.999 161.843 182.143 161.621 182.329 161.44C182.516 161.259 182.737 161.123 182.993 161.032C183.255 160.936 183.545 160.888 183.865 160.888C184.201 160.888 184.5 160.939 184.761 161.04C185.028 161.141 185.252 161.285 185.433 161.472C185.615 161.653 185.751 161.875 185.841 162.136C185.937 162.397 185.985 162.685 185.985 163C185.985 163.336 185.935 163.635 185.833 163.896C185.732 164.157 185.588 164.379 185.401 164.56C185.215 164.741 184.991 164.88 184.729 164.976C184.473 165.067 184.185 165.112 183.865 165.112C183.529 165.112 183.228 165.061 182.961 164.96C182.7 164.859 182.479 164.717 182.297 164.536C182.116 164.349 181.977 164.125 181.881 163.864C181.791 163.603 181.745 163.315 181.745 163ZM182.817 163C182.817 163.176 182.841 163.339 182.889 163.488C182.937 163.637 183.007 163.768 183.097 163.88C183.188 163.992 183.297 164.08 183.425 164.144C183.553 164.203 183.7 164.232 183.865 164.232C184.175 164.232 184.425 164.133 184.617 163.936C184.815 163.739 184.913 163.427 184.913 163C184.913 162.632 184.823 162.336 184.641 162.112C184.46 161.883 184.201 161.768 183.865 161.768C183.716 161.768 183.577 161.792 183.449 161.84C183.321 161.883 183.209 161.955 183.113 162.056C183.023 162.157 182.951 162.285 182.897 162.44C182.844 162.595 182.817 162.781 182.817 163ZM190.534 164.576C190.465 164.64 190.374 164.704 190.262 164.768C190.156 164.827 190.028 164.883 189.878 164.936C189.734 164.989 189.574 165.032 189.398 165.064C189.222 165.096 189.036 165.112 188.838 165.112C188.497 165.112 188.19 165.064 187.918 164.968C187.652 164.872 187.425 164.733 187.238 164.552C187.052 164.365 186.908 164.144 186.806 163.888C186.71 163.627 186.662 163.331 186.662 163C186.662 162.648 186.718 162.341 186.83 162.08C186.942 161.813 187.094 161.592 187.286 161.416C187.484 161.24 187.713 161.109 187.974 161.024C188.236 160.933 188.518 160.888 188.822 160.888C189.025 160.888 189.233 160.915 189.446 160.968C189.665 161.021 189.865 161.115 190.046 161.248C190.228 161.376 190.374 161.549 190.486 161.768C190.604 161.987 190.662 162.264 190.662 162.6C190.662 162.829 190.636 163.077 190.582 163.344H187.702C187.708 163.515 187.742 163.659 187.806 163.776C187.876 163.893 187.964 163.989 188.07 164.064C188.182 164.139 188.308 164.195 188.446 164.232C188.59 164.264 188.742 164.28 188.902 164.28C189.222 164.28 189.484 164.243 189.686 164.168C189.894 164.093 190.062 164.003 190.19 163.896L190.534 164.576ZM188.806 161.72C188.668 161.72 188.537 161.739 188.414 161.776C188.292 161.813 188.18 161.869 188.078 161.944C187.982 162.013 187.902 162.101 187.838 162.208C187.774 162.315 187.737 162.435 187.726 162.568H189.694C189.694 162.307 189.62 162.101 189.47 161.952C189.326 161.797 189.105 161.72 188.806 161.72ZM192.811 164.472C192.811 164.285 192.87 164.139 192.987 164.032C193.104 163.92 193.259 163.864 193.451 163.864C193.654 163.864 193.814 163.92 193.931 164.032C194.048 164.139 194.107 164.285 194.107 164.472C194.107 164.659 194.048 164.808 193.931 164.92C193.814 165.032 193.654 165.088 193.451 165.088C193.259 165.088 193.104 165.032 192.987 164.92C192.87 164.808 192.811 164.659 192.811 164.472ZM196.168 164.12H197.16V161.88H196.168V161H197.968L198.088 161.528H198.12C198.269 161.352 198.44 161.205 198.632 161.088C198.824 160.971 199.048 160.912 199.304 160.912C199.624 160.912 199.875 161.029 200.056 161.264C200.243 161.499 200.336 161.891 200.336 162.44H199.4C199.4 162.248 199.371 162.109 199.312 162.024C199.259 161.933 199.171 161.888 199.048 161.888C198.835 161.888 198.661 161.941 198.528 162.048C198.4 162.155 198.291 162.277 198.2 162.416V164.12H199.936V165H196.168V164.12ZM203.293 161H204.781V163.784C204.781 163.896 204.781 164.008 204.781 164.12H205.389V165H204.125L203.941 164.408H203.909C203.786 164.611 203.602 164.779 203.357 164.912C203.111 165.045 202.839 165.112 202.541 165.112C202.338 165.112 202.151 165.085 201.981 165.032C201.815 164.979 201.674 164.891 201.557 164.768C201.439 164.645 201.349 164.48 201.285 164.272C201.221 164.064 201.189 163.803 201.189 163.488V161.88H200.733V161H202.229V163.272C202.229 163.597 202.279 163.832 202.381 163.976C202.487 164.12 202.653 164.192 202.877 164.192C203.074 164.192 203.25 164.133 203.405 164.016C203.565 163.899 203.677 163.755 203.741 163.584V161.88H203.293V161Z" fill="white"/>
<rect x="150.981" y="137.5" width="94" height="47" rx="8.5" stroke="white"/>
<circle cx="218.481" cy="118" r="3.5" fill="#FF6F61" stroke="#FF6F61"/>
<path d="M94.4811 96.4999C94.4811 96.4999 79.728 83.4164 82.481 67.9999C84.9812 53.9998 100.806 52.4211 106.981 59.4997C111.343 64.4998 113.481 69.9998 108.481 76.9999C100.875 87.6485 90.4814 87.8586 77.9812 84.4999C71.4809 82.7533 62.8635 71.4488 65.481 59.4997C68.3885 46.2268 78.4809 38.6446 90.981 37C112.981 34.1054 119.559 36.1988 130.481 44C137.481 49.0001 139.026 52.2025 140.481 59.4997C142.805 71.1568 134.991 79.7885 134.991 79.7885" stroke="white" stroke-dasharray="4 4"/>
<rect x="131.481" y="74" width="79" height="7" rx="3.5" fill="#FF6F61"/>
</svg>
