<svg width="327" height="304" viewBox="0 0 327 304" fill="none" xmlns="http://www.w3.org/2000/svg">
<rect width="327" height="304" fill="#0815B7"/>
<path d="M69.9679 256.296H62.4319V264H60.4399V247.2H62.4319V254.52H69.9679V247.2H71.9599V264H69.9679V256.296Z" fill="white"/>
<path d="M86.0866 262.488C85.7986 262.744 85.4546 262.984 85.0546 263.208C84.6706 263.432 84.2466 263.624 83.7826 263.784C83.3186 263.944 82.8306 264.064 82.3186 264.144C81.8226 264.24 81.3186 264.288 80.8066 264.288C79.8466 264.288 78.9986 264.144 78.2626 263.856C77.5266 263.552 76.9106 263.128 76.4146 262.584C75.9186 262.024 75.5426 261.36 75.2866 260.592C75.0306 259.824 74.9026 258.96 74.9026 258C74.9026 256.992 75.0386 256.096 75.3106 255.312C75.5986 254.528 76.0066 253.872 76.5346 253.344C77.0626 252.816 77.7026 252.416 78.4546 252.144C79.2066 251.856 80.0466 251.712 80.9746 251.712C81.6466 251.712 82.3106 251.8 82.9666 251.976C83.6226 252.152 84.1986 252.488 84.6946 252.984C85.2066 253.464 85.5986 254.136 85.8706 255C86.1426 255.848 86.2386 256.952 86.1586 258.312H76.8706C76.8706 259.752 77.2546 260.832 78.0226 261.552C78.8066 262.256 79.8466 262.608 81.1426 262.608C81.5746 262.608 81.9986 262.56 82.4146 262.464C82.8466 262.352 83.2546 262.224 83.6386 262.08C84.0226 261.936 84.3586 261.776 84.6466 261.6C84.9506 261.424 85.1826 261.264 85.3426 261.12L86.0866 262.488ZM81.0226 253.296C80.4946 253.296 79.9906 253.352 79.5106 253.464C79.0466 253.576 78.6306 253.768 78.2626 254.04C77.9106 254.296 77.6146 254.64 77.3746 255.072C77.1506 255.488 77.0066 256.008 76.9426 256.632H84.4066C84.3266 255.576 83.9826 254.76 83.3746 254.184C82.7826 253.592 81.9986 253.296 81.0226 253.296Z" fill="white"/>
<path d="M98.2692 256.464L98.3412 254.88H98.2692L91.5252 264H89.8212V252H91.6932V259.752L91.6212 261.264H91.7172L98.4132 252H100.141V264H98.2692V256.464ZM92.9412 247.152C93.1012 247.888 93.3732 248.4 93.7572 248.688C94.1572 248.976 94.6132 249.12 95.1252 249.12C95.6372 249.12 96.0932 248.968 96.4932 248.664C96.8932 248.36 97.1652 247.864 97.3092 247.176L98.7492 247.632C98.6052 248.56 98.1892 249.272 97.5012 249.768C96.8292 250.264 96.0212 250.512 95.0772 250.512C94.6452 250.512 94.2132 250.456 93.7812 250.344C93.3652 250.232 92.9892 250.064 92.6532 249.84C92.3172 249.616 92.0292 249.328 91.7892 248.976C91.5492 248.624 91.3892 248.208 91.3092 247.728L92.9412 247.152Z" fill="white"/>
<path d="M113.164 256.872L113.212 255.168H113.092L109.636 260.664H108.964L105.46 255.168H105.364L105.484 256.848V264H103.708V252H105.604L109.42 258.024H109.468L113.116 252H115.036V264H113.164V256.872Z" fill="white"/>
<path d="M127.05 256.464L127.122 254.88H127.05L120.306 264H118.602V252H120.474V259.752L120.402 261.264H120.498L127.194 252H128.922V264H127.05V256.464Z" fill="white"/>
<path d="M141.369 258.672H134.913V264H133.065V252H134.913V256.992H141.369V252H143.241V264H141.369V258.672Z" fill="white"/>
<path d="M147.792 264V262.392H149.328V253.632H147.792V252H157.488V256.488H155.856V253.632H151.2V262.392H154.848V264H147.792Z" fill="white"/>
<rect x="188" y="68" width="97" height="97" rx="48.5" stroke="white" stroke-dasharray="4 4"/>
<g clip-path="url(#clip0)">
<path fill-rule="evenodd" clip-rule="evenodd" d="M102.5 98H114.648V136.661H102.5V98ZM116.311 98H128V109.131H121.057V112.019H128V123.065H121.057V125.953H128V136.661H116.311V132.92H122.796V130.032H116.311V118.986H122.796V116.098H116.311V105.044H122.796V102.163H116.311V98Z" fill="#1524D6"/>
<path fill-rule="evenodd" clip-rule="evenodd" d="M100.845 123.672V111.443H62V123.672H100.845ZM100.845 109.768V98H89.7887V104.99H86.9198V98H75.9477V104.99H73.0788V98H62V109.768H66.1584V103.239H69.0273V109.768H79.9993V103.239H82.8682V109.768H93.8479V103.239H96.7091V109.768H100.845Z" fill="#1524D6"/>
<path fill-rule="evenodd" clip-rule="evenodd" d="M75.3526 125.339V164H87.4996V125.339H75.3526ZM62 125.339V136.024H68.9434V138.905H62V149.958H68.9434V152.839H62V164H73.6892V159.814H67.2037V156.925H73.6892V145.872H67.2037V142.991H73.6892V131.937H67.2037V129.057H73.6892V125.339H62Z" fill="#1524D6"/>
<path fill-rule="evenodd" clip-rule="evenodd" d="M128 138.328V150.557H89.155V138.328H128ZM128 152.232V164H116.936V157.002H114.075V164H103.103V157.002H100.234V164H89.155V152.232H93.2829V158.761H96.1823V152.232H107.154V158.761H110.023V152.232H120.995V158.761H123.864V152.232H128Z" fill="#1524D6"/>
</g>
<rect x="68.4292" y="104.706" width="2.32019" height="12.4292" transform="rotate(90 68.4292 104.706)" fill="white"/>
<rect width="2.16818" height="7.668" transform="matrix(-0.653796 0.756671 -0.653796 -0.756671 70.0486 105.85)" fill="white"/>
<rect width="2.16818" height="7.668" transform="matrix(-0.653796 -0.756671 0.653796 -0.756671 65.0354 111.667)" fill="white"/>
<rect x="85.4292" y="104.706" width="2.32019" height="12.4292" transform="rotate(90 85.4292 104.706)" fill="white"/>
<rect width="2.16818" height="7.668" transform="matrix(-0.653796 0.756671 -0.653796 -0.756671 87.0486 105.85)" fill="white"/>
<rect width="2.16818" height="7.668" transform="matrix(-0.653796 -0.756671 0.653796 -0.756671 82.0354 111.667)" fill="white"/>
<rect x="102.429" y="104.706" width="2.32019" height="12.4292" transform="rotate(90 102.429 104.706)" fill="white"/>
<rect width="2.16818" height="7.668" transform="matrix(-0.653796 0.756671 -0.653796 -0.756671 104.049 105.85)" fill="white"/>
<rect width="2.16818" height="7.668" transform="matrix(-0.653796 -0.756671 0.653796 -0.756671 99.0354 111.667)" fill="white"/>
<rect x="119.429" y="104.706" width="2.32019" height="12.4292" transform="rotate(90 119.429 104.706)" fill="white"/>
<rect width="2.16818" height="7.668" transform="matrix(-0.653796 0.756671 -0.653796 -0.756671 121.049 105.85)" fill="white"/>
<rect width="2.16818" height="7.668" transform="matrix(-0.653796 -0.756671 0.653796 -0.756671 116.035 111.667)" fill="white"/>
<rect x="136.429" y="104.706" width="2.32019" height="12.4292" transform="rotate(90 136.429 104.706)" fill="white"/>
<rect width="2.16818" height="7.668" transform="matrix(-0.653796 0.756671 -0.653796 -0.756671 138.049 105.85)" fill="white"/>
<rect width="2.16818" height="7.668" transform="matrix(-0.653796 -0.756671 0.653796 -0.756671 133.035 111.667)" fill="white"/>
<path fill-rule="evenodd" clip-rule="evenodd" d="M187.693 149.505V152.228H185.094L183.509 153.787V159.674L185.072 161.234H187.671V164H189.589V161.219H192.188L193.751 159.659V153.773L192.211 152.228H189.611V149.505H187.693ZM154.916 149.505H147.755L146.155 159.328H145V161.219H147.91L149.488 151.205H152.998V161.219H154.916V149.505ZM159.315 157.43V152.279H157.397V161.219H159.263L162.514 156.068L162.825 155.561V161.248H164.743V152.228H162.877L159.315 157.915V157.393V157.43ZM168.698 153.986H173.089V152.228H166.772V161.219H168.698V153.986ZM181.687 159.63V153.817L180.11 152.228H175.829L174.252 153.817V159.63L175.829 161.219H180.11L181.695 159.63H181.687ZM176.674 159.482L176.155 158.967V154.479L176.674 153.971H179.258L179.769 154.479V158.967L179.258 159.482H176.674ZM189.604 154.744V153.971H191.826V159.482H189.604V154.744ZM187.686 153.971V159.482H185.464V153.971H187.686Z" fill="#FF6F61"/>
<path fill-rule="evenodd" clip-rule="evenodd" d="M199.898 106.359H200.172L202.867 102.415L203.415 101.613H206.652L202.571 107.565L206.681 113.452H203.415L200.172 108.838H199.898V113.51H197.328V108.838H197.061L193.81 113.51H190.544L194.662 107.624L190.581 101.598H193.818L194.358 102.415L197.061 106.373H197.328V101.598H199.898V106.359ZM155.886 107.565V110.95L153.309 113.51H147.577L145 110.95V100.561L147.577 98H153.309L155.886 100.561V104.078H153.146V101.532L152.109 100.48H147.814V111.031H152.109L153.146 109.979V107.565H155.886ZM256.084 113.341L258.846 109.419C257.728 109.419 258.424 109.714 256.202 107.551V103.474L258.15 101.598H266V113.51H263.29V109.419H261.653L259.046 113.51H255.973L256.091 113.341H256.084ZM258.913 106.425L259.431 106.94H263.29V104.078H259.431L258.913 104.593V106.425ZM250.626 104.078H245.168V101.598H251.833L253.944 103.68V113.51H246.242L244.124 111.435V108.492L246.346 106.381H251.263V104.173L250.626 104.078ZM249.419 111.038H251.27V108.831H247.479L246.871 109.434V110.464L247.479 111.075L249.419 111.038ZM240.806 107.418L242.339 108.522V111.421L240.236 113.51H232.579V101.598H240.214L241.969 103.342V106.587L240.806 107.418ZM235.289 106.189H238.592L239.258 105.726V104.313L239.051 104.078H235.348V106.189H235.289ZM239.629 110.427V109.368L238.659 108.632H235.289V111.009H238.992L239.606 110.398L239.629 110.427ZM208.347 105.821V101.598H211.058V106.359H215.435V101.598H218.145V113.51H215.435V108.838H211.058V113.51H208.347V105.821ZM181.687 101.598H187.545L189.663 103.68V111.406L187.441 113.51H182.569V116.954H179.858V101.598H181.687ZM185.39 104.078H182.569V111.038H186.345L186.953 110.427V104.681C186.212 103.945 186.568 104.078 185.39 104.078ZM171.127 111.038H176.844V113.51H169.935L167.809 111.406V103.71L169.994 101.598H175.496L177.585 103.71V107.094L175.615 108.985H170.52V111.038H171.127ZM174.289 104.078H170.52V106.513H174.393L174.896 106.013V104.681L174.289 104.078ZM156.953 103.967V101.598H166.513V104.078H163.092V113.51H160.381V104.078H156.953V103.967ZM223.892 111.038H230.105V113.51H222.699L220.559 111.406V103.71L222.781 101.598H228.276L230.386 103.68V107.065L228.417 108.956H223.299V111.009L223.892 111.038ZM227.054 104.078H223.285V106.513H227.202L227.698 106.013V104.681L227.091 104.078H227.054Z" fill="#FF6F61"/>
<path fill-rule="evenodd" clip-rule="evenodd" d="M221.655 130.279V132.023L226.099 124.945V124.893H228.698V136.805H226.017V129.676L221.574 136.754V136.805H218.945V124.893H221.655V130.279ZM161.292 124.893H167.143L169.224 126.939V126.975V134.694V134.731L167.172 136.776H162.196V140.219H159.485V124.893H161.292ZM164.995 127.373H162.196V134.326H165.973L166.58 133.722V127.976L165.973 127.373H164.995ZM191.655 130.706L193.136 131.787H193.181V134.716L191.159 136.776H183.509V124.893H191.137L192.825 126.571V126.607V129.852H192.781L191.67 130.647L191.655 130.706ZM186.138 129.477H189.441L190.1 129.013V127.608L189.863 127.373H186.16V129.477H186.138ZM190.47 133.722V132.656L189.508 131.92H186.183V134.289H189.885L190.493 133.686L190.47 133.722ZM174.919 134.326H181.132V136.805H173.726L171.66 134.731V134.694V127.005V126.968L173.741 124.922H179.288H179.325L181.406 126.968V127.005V130.375L179.54 132.207H174.356V133.678L174.963 134.282L174.919 134.326ZM178.081 127.373H174.956L174.348 127.976V129.801H178.221L178.725 129.308V127.976L178.118 127.373H178.081ZM198.565 134.326H204.785V136.805H197.38L195.358 134.731V134.694V127.005V126.968L197.439 124.922H202.949L205.03 126.968V127.005V130.375L203.171 132.207H197.987V133.678L198.594 134.282L198.565 134.326ZM201.734 127.373H198.602L197.994 127.976V129.801H201.875L202.379 129.308V127.976L201.771 127.373H201.734ZM249.53 127.373H244.072V124.893H250.7H250.737L252.818 126.939V126.975V136.805H245.205L243.124 134.76V134.723V131.78L245.175 129.639H250.159V127.432L249.53 127.373ZM248.278 134.326H250.159V132.118H246.383L245.775 132.722V133.752L246.383 134.355L248.278 134.326ZM231.246 129.116V124.893H233.956V129.639H238.333V124.893H241.043V136.805H238.333V132.133H233.956V136.805H231.246V129.116ZM154.672 140.153V136.805H147.71V140.249H145V134.326H146.318L147.962 124.981V124.893H156.108V134.326H157.434V140.249H154.738V140.139L154.672 140.153ZM153.413 127.373H150.451L149.273 134.326H153.413V127.373ZM209.784 130.08V134.326H213.339L213.953 133.722V132.001H216.664V134.694V134.731L214.546 136.776H209.162L207.081 134.731V134.694V127.005V126.968L209.162 124.922H214.516L216.597 126.968V127.005V129.698H213.953V127.976L213.346 127.373H209.784V130.08Z" fill="#FF6F61"/>
<defs>
<clipPath id="clip0">
<rect width="66" height="66" fill="white" transform="translate(62 98)"/>
</clipPath>
</defs>
</svg>
