<svg width="326" height="304" viewBox="0 0 326 304" fill="none" xmlns="http://www.w3.org/2000/svg">
<rect width="326" height="304" fill="#0815B7"/>
<path d="M60.6802 247.2H72.2002V251.592H70.4242V248.976H64.9762V262.224H68.7442V264H60.6802V262.224H62.9842V248.976H60.6802V247.2Z" fill="white"/>
<path d="M75.9828 252.936C76.6708 252.536 77.4468 252.248 78.3108 252.072C79.1748 251.896 80.0228 251.808 80.8548 251.808C81.6708 251.808 82.3348 251.936 82.8468 252.192C83.3748 252.448 83.7828 252.784 84.0708 253.2C84.3748 253.6 84.5748 254.064 84.6708 254.592C84.7828 255.104 84.8388 255.624 84.8388 256.152C84.8388 256.76 84.8228 257.408 84.7908 258.096C84.7588 258.784 84.7348 259.472 84.7188 260.16C84.7188 260.96 84.7668 261.72 84.8628 262.44H86.4708V264H83.2788L83.0628 262.2H82.9428C82.8468 262.344 82.7028 262.528 82.5108 262.752C82.3188 262.976 82.0628 263.2 81.7428 263.424C81.4388 263.632 81.0628 263.816 80.6148 263.976C80.1668 264.136 79.6388 264.216 79.0308 264.216C77.8468 264.216 76.9108 263.912 76.2228 263.304C75.5348 262.696 75.1908 261.864 75.1908 260.808C75.1908 259.992 75.3668 259.312 75.7188 258.768C76.0868 258.224 76.6068 257.808 77.2788 257.52C77.9508 257.232 78.7588 257.064 79.7028 257.016C80.6628 256.968 81.7348 257.032 82.9188 257.208C82.9988 256.472 83.0068 255.864 82.9428 255.384C82.8948 254.888 82.7668 254.496 82.5588 254.208C82.3668 253.92 82.0868 253.72 81.7188 253.608C81.3668 253.48 80.9268 253.416 80.3988 253.416C79.6788 253.416 78.9908 253.52 78.3348 253.728C77.6788 253.92 77.0948 254.12 76.5828 254.328L75.9828 252.936ZM79.5108 262.608C79.9588 262.608 80.3748 262.536 80.7588 262.392C81.1428 262.248 81.4788 262.064 81.7668 261.84C82.0548 261.616 82.2948 261.376 82.4868 261.12C82.6788 260.848 82.8228 260.592 82.9188 260.352V258.672C82.0868 258.528 81.3188 258.456 80.6148 258.456C79.9108 258.456 79.3028 258.536 78.7908 258.696C78.2788 258.84 77.8788 259.072 77.5908 259.392C77.3028 259.712 77.1588 260.128 77.1588 260.64C77.1588 261.168 77.3348 261.632 77.6868 262.032C78.0548 262.416 78.6628 262.608 79.5108 262.608Z" fill="white"/>
<path d="M98.2694 256.464L98.3414 254.88H98.2694L91.5254 264H89.8214V252H91.6934V259.752L91.6214 261.264H91.7174L98.4134 252H100.141V264H98.2694V256.464ZM92.9414 247.152C93.1014 247.888 93.3734 248.4 93.7574 248.688C94.1574 248.976 94.6134 249.12 95.1254 249.12C95.6374 249.12 96.0934 248.968 96.4934 248.664C96.8934 248.36 97.1654 247.864 97.3094 247.176L98.7494 247.632C98.6054 248.56 98.1894 249.272 97.5014 249.768C96.8294 250.264 96.0214 250.512 95.0774 250.512C94.6454 250.512 94.2134 250.456 93.7814 250.344C93.3654 250.232 92.9894 250.064 92.6534 249.84C92.3174 249.616 92.0294 249.328 91.7894 248.976C91.5494 248.624 91.3894 248.208 91.3094 247.728L92.9414 247.152Z" fill="white"/>
<path d="M115.756 266.88H114.124V264H104.476V266.88H102.844V262.368H104.188C104.332 262.192 104.524 261.88 104.764 261.432C105.004 260.968 105.236 260.328 105.46 259.512C105.684 258.68 105.884 257.656 106.06 256.44C106.236 255.208 106.34 253.728 106.372 252H113.908V262.368H115.756V266.88ZM112.036 262.392V253.608H108.076C108.044 254.296 107.98 255.04 107.884 255.84C107.804 256.64 107.684 257.44 107.524 258.24C107.364 259.024 107.164 259.776 106.924 260.496C106.7 261.216 106.436 261.848 106.132 262.392H112.036Z" fill="white"/>
<path d="M126.787 253.632H122.635C122.571 255.088 122.491 256.456 122.395 257.736C122.299 259 122.115 260.104 121.843 261.048C121.587 261.992 121.211 262.736 120.715 263.28C120.235 263.824 119.579 264.096 118.747 264.096C118.427 264.096 118.195 264.08 118.051 264.048C117.907 264.016 117.731 263.96 117.523 263.88L117.835 262.104C118.139 262.184 118.419 262.224 118.675 262.224C118.947 262.224 119.187 262.128 119.395 261.936C119.603 261.744 119.787 261.44 119.947 261.024C120.123 260.592 120.267 259.992 120.379 259.224C120.507 258.44 120.611 257.464 120.691 256.296C120.771 255.112 120.835 253.68 120.883 252H128.659V264H126.787V253.632Z" fill="white"/>
<path d="M133.545 252.936C134.233 252.536 135.009 252.248 135.873 252.072C136.737 251.896 137.585 251.808 138.417 251.808C139.233 251.808 139.897 251.936 140.409 252.192C140.937 252.448 141.345 252.784 141.633 253.2C141.937 253.6 142.137 254.064 142.233 254.592C142.345 255.104 142.401 255.624 142.401 256.152C142.401 256.76 142.385 257.408 142.353 258.096C142.321 258.784 142.297 259.472 142.281 260.16C142.281 260.96 142.329 261.72 142.425 262.44H144.033V264H140.841L140.625 262.2H140.505C140.409 262.344 140.265 262.528 140.073 262.752C139.881 262.976 139.625 263.2 139.305 263.424C139.001 263.632 138.625 263.816 138.177 263.976C137.729 264.136 137.201 264.216 136.593 264.216C135.409 264.216 134.473 263.912 133.785 263.304C133.097 262.696 132.753 261.864 132.753 260.808C132.753 259.992 132.929 259.312 133.281 258.768C133.649 258.224 134.169 257.808 134.841 257.52C135.513 257.232 136.321 257.064 137.265 257.016C138.225 256.968 139.297 257.032 140.481 257.208C140.561 256.472 140.569 255.864 140.505 255.384C140.457 254.888 140.329 254.496 140.121 254.208C139.929 253.92 139.649 253.72 139.281 253.608C138.929 253.48 138.489 253.416 137.961 253.416C137.241 253.416 136.553 253.52 135.897 253.728C135.241 253.92 134.657 254.12 134.145 254.328L133.545 252.936ZM137.073 262.608C137.521 262.608 137.937 262.536 138.321 262.392C138.705 262.248 139.041 262.064 139.329 261.84C139.617 261.616 139.857 261.376 140.049 261.12C140.241 260.848 140.385 260.592 140.481 260.352V258.672C139.649 258.528 138.881 258.456 138.177 258.456C137.473 258.456 136.865 258.536 136.353 258.696C135.841 258.84 135.441 259.072 135.153 259.392C134.865 259.712 134.721 260.128 134.721 260.64C134.721 261.168 134.897 261.632 135.249 262.032C135.617 262.416 136.225 262.608 137.073 262.608Z" fill="white"/>
<path d="M155.832 256.464L155.904 254.88H155.832L149.088 264H147.384V252H149.256V259.752L149.184 261.264H149.28L155.976 252H157.704V264H155.832V256.464ZM150.504 247.152C150.664 247.888 150.936 248.4 151.32 248.688C151.72 248.976 152.176 249.12 152.688 249.12C153.2 249.12 153.656 248.968 154.056 248.664C154.456 248.36 154.728 247.864 154.872 247.176L156.312 247.632C156.168 248.56 155.752 249.272 155.064 249.768C154.392 250.264 153.584 250.512 152.64 250.512C152.208 250.512 151.776 250.456 151.344 250.344C150.928 250.232 150.552 250.064 150.216 249.84C149.88 249.616 149.592 249.328 149.352 248.976C149.112 248.624 148.952 248.208 148.872 247.728L150.504 247.152Z" fill="white"/>
<path d="M170.151 258.672H163.695V264H161.847V252H163.695V256.992H170.151V252H172.023V264H170.151V258.672Z" fill="white"/>
<line y1="183.5" x2="326" y2="183.5" stroke="white" stroke-opacity="0.15"/>
<line y1="130.5" x2="326" y2="130.5" stroke="white" stroke-opacity="0.15"/>
<line x1="182.5" y1="31" x2="182.5" y2="222" stroke="white" stroke-opacity="0.15"/>
<path fill-rule="evenodd" clip-rule="evenodd" d="M186.183 119.475C186.168 119.845 186.161 120.217 186.161 120.591C186.161 136.004 198.649 148.499 214.058 148.511C214.073 148.141 214.08 147.768 214.08 147.394C214.08 131.982 201.592 119.486 186.183 119.475Z" fill="#FF6F61"/>
<rect x="158" y="119" width="56" height="56" rx="28" stroke="white" stroke-dasharray="4 4"/>
<rect x="186" y="93" width="56" height="56" rx="28" stroke="#FF6F61" stroke-dasharray="4 4"/>
<rect x="85" y="130" width="47" height="36" rx="9" fill="#FF6F61"/>
<rect x="139.5" y="57.5" width="43" height="32" rx="8.5" stroke="white"/>
<path d="M87.48 179.36H86.768L86.48 180.592H85.624L85.912 179.36H85.32L85.496 178.584H86.096L86.296 177.736H85.72L85.896 176.96H86.48L86.76 175.808H87.608L87.336 176.96H88.048L88.328 175.808H89.176L88.904 176.96H89.48L89.28 177.736H88.72L88.52 178.584H89.072L88.88 179.36H88.336L88.048 180.592H87.192L87.48 179.36ZM86.952 178.584H87.664L87.864 177.736H87.152L86.952 178.584ZM93.9809 181H90.4129V180.224C90.4769 180.171 90.5569 180.101 90.6529 180.016C90.7489 179.925 90.8555 179.824 90.9729 179.712C91.0955 179.6 91.2235 179.477 91.3569 179.344C91.4902 179.211 91.6209 179.072 91.7489 178.928C91.9302 178.725 92.0875 178.541 92.2209 178.376C92.3595 178.211 92.4715 178.056 92.5569 177.912C92.6475 177.763 92.7142 177.619 92.7569 177.48C92.7995 177.336 92.8209 177.189 92.8209 177.04C92.8209 176.933 92.7969 176.829 92.7489 176.728C92.7009 176.627 92.6342 176.539 92.5489 176.464C92.4635 176.384 92.3595 176.323 92.2369 176.28C92.1195 176.232 91.9889 176.208 91.8449 176.208C91.6529 176.208 91.4769 176.237 91.3169 176.296C91.1622 176.355 90.9995 176.453 90.8289 176.592L90.4129 175.856C90.6369 175.696 90.8849 175.563 91.1569 175.456C91.4342 175.344 91.7515 175.288 92.1089 175.288C92.3382 175.288 92.5569 175.32 92.7649 175.384C92.9782 175.448 93.1649 175.544 93.3249 175.672C93.4902 175.795 93.6209 175.949 93.7169 176.136C93.8129 176.323 93.8609 176.539 93.8609 176.784C93.8609 176.955 93.8449 177.115 93.8129 177.264C93.7862 177.408 93.7409 177.555 93.6769 177.704C93.6182 177.848 93.5382 177.997 93.4369 178.152C93.3409 178.307 93.2235 178.475 93.0849 178.656C92.9782 178.795 92.8609 178.936 92.7329 179.08C92.6102 179.219 92.4875 179.352 92.3649 179.48C92.2422 179.608 92.1195 179.728 91.9969 179.84C91.8795 179.952 91.7729 180.045 91.6769 180.12H93.9809V181ZM96.5778 180.232C96.7538 180.232 96.9138 180.211 97.0578 180.168C97.2071 180.12 97.3324 180.056 97.4338 179.976C97.5404 179.891 97.6231 179.795 97.6818 179.688C97.7404 179.576 97.7698 179.456 97.7698 179.328C97.7698 179.168 97.7351 179.035 97.6658 178.928C97.6018 178.816 97.5111 178.728 97.3938 178.664C97.2764 178.6 97.1351 178.555 96.9698 178.528C96.8044 178.501 96.6258 178.488 96.4338 178.488H95.9858V177.92L97.3298 176.28H95.3058V175.4H98.5698V176.128L97.1618 177.736H97.3458C97.5324 177.736 97.7138 177.768 97.8898 177.832C98.0658 177.896 98.2204 177.992 98.3538 178.12C98.4924 178.248 98.6018 178.408 98.6818 178.6C98.7671 178.792 98.8098 179.013 98.8098 179.264C98.8098 179.568 98.7458 179.835 98.6178 180.064C98.4951 180.293 98.3298 180.488 98.1218 180.648C97.9191 180.803 97.6844 180.92 97.4178 181C97.1511 181.075 96.8764 181.112 96.5938 181.112C96.3538 181.112 96.1138 181.091 95.8738 181.048C95.6338 181.005 95.4018 180.939 95.1778 180.848L95.4578 179.984C95.5058 180.011 95.5698 180.037 95.6497 180.064C95.7351 180.091 95.8284 180.117 95.9298 180.144C96.0364 180.171 96.1431 180.192 96.2498 180.208C96.3618 180.224 96.4711 180.232 96.5778 180.232ZM103.759 180.616C103.54 180.781 103.284 180.907 102.991 180.992C102.697 181.072 102.391 181.112 102.071 181.112C101.724 181.112 101.415 181.061 101.143 180.96C100.876 180.859 100.649 180.717 100.463 180.536C100.281 180.349 100.143 180.125 100.047 179.864C99.9506 179.603 99.9026 179.315 99.9026 179C99.9026 178.664 99.9586 178.365 100.071 178.104C100.183 177.843 100.337 177.621 100.535 177.44C100.737 177.259 100.975 177.123 101.247 177.032C101.519 176.936 101.815 176.888 102.135 176.888C102.433 176.888 102.713 176.923 102.975 176.992C103.236 177.061 103.436 177.128 103.575 177.192V178.6H102.695V177.864C102.529 177.827 102.364 177.808 102.199 177.808C102.049 177.808 101.9 177.832 101.751 177.88C101.607 177.923 101.476 177.995 101.359 178.096C101.247 178.192 101.153 178.315 101.079 178.464C101.009 178.613 100.975 178.792 100.975 179C100.975 179.171 101.004 179.328 101.063 179.472C101.121 179.616 101.204 179.741 101.311 179.848C101.417 179.955 101.548 180.04 101.703 180.104C101.863 180.163 102.039 180.192 102.231 180.192C102.535 180.192 102.783 180.149 102.975 180.064C103.172 179.979 103.319 179.904 103.415 179.84L103.759 180.616ZM108.804 179.44H107.844V181H106.876V179.44H104.451V178.728L106.988 175.36H107.844V178.608H108.804V179.44ZM106.876 176.832L105.484 178.608H106.876V176.832ZM113.6 179.44H112.64V181H111.672V179.44H109.248V178.728L111.784 175.36H112.64V178.608H113.6V179.44ZM111.672 176.832L110.28 178.608H111.672V176.832ZM114.093 180.12H115.085V177.88H114.093V177H115.893L116.013 177.528H116.045C116.195 177.352 116.365 177.205 116.557 177.088C116.749 176.971 116.973 176.912 117.229 176.912C117.549 176.912 117.8 177.029 117.981 177.264C118.168 177.499 118.261 177.891 118.261 178.44H117.325C117.325 178.248 117.296 178.109 117.237 178.024C117.184 177.933 117.096 177.888 116.973 177.888C116.76 177.888 116.587 177.941 116.453 178.048C116.325 178.155 116.216 178.277 116.125 178.416V180.12H117.861V181H114.093V180.12Z" fill="#FF6F61"/>
<path d="M86.26 56.2H87.422V64.964H91.384V62.528H92.42V66H86.26V56.2ZM94.8645 66V65.062H97.3005V59.938H94.8645V59H98.4205V65.062H100.801V66H94.8645ZM96.9225 57.012C96.9225 56.76 97.0065 56.5453 97.1745 56.368C97.3425 56.1813 97.5572 56.088 97.8185 56.088C98.0892 56.088 98.3132 56.1813 98.4905 56.368C98.6772 56.5453 98.7705 56.76 98.7705 57.012C98.7705 57.2547 98.6772 57.46 98.4905 57.628C98.3132 57.796 98.0892 57.88 97.8185 57.88C97.5572 57.88 97.3425 57.796 97.1745 57.628C97.0065 57.46 96.9225 57.2547 96.9225 57.012ZM109.125 66.35C109.125 66.7887 109.041 67.1713 108.873 67.498C108.705 67.834 108.472 68.1093 108.173 68.324C107.884 68.5387 107.543 68.6973 107.151 68.8C106.759 68.912 106.334 68.968 105.877 68.968C105.326 68.968 104.846 68.912 104.435 68.8C104.024 68.688 103.67 68.5433 103.371 68.366L103.903 67.372C103.987 67.4467 104.094 67.5167 104.225 67.582C104.365 67.6567 104.524 67.722 104.701 67.778C104.878 67.8433 105.065 67.8947 105.261 67.932C105.466 67.9693 105.667 67.988 105.863 67.988C106.274 67.988 106.614 67.9507 106.885 67.876C107.165 67.8013 107.389 67.6847 107.557 67.526C107.725 67.3673 107.846 67.162 107.921 66.91C107.996 66.658 108.033 66.35 108.033 65.986V65.202H107.977C107.762 65.51 107.487 65.748 107.151 65.916C106.815 66.084 106.381 66.168 105.849 66.168C104.785 66.168 104.001 65.874 103.497 65.286C103.002 64.6887 102.755 63.7647 102.755 62.514C102.755 61.3193 103.072 60.4187 103.707 59.812C104.342 59.196 105.284 58.888 106.535 58.888C107.114 58.888 107.604 58.93 108.005 59.014C108.416 59.0887 108.789 59.1867 109.125 59.308V66.35ZM106.003 65.23C106.572 65.23 107.02 65.0853 107.347 64.796C107.674 64.4973 107.902 64.0447 108.033 63.438V60.12C107.622 59.924 107.048 59.826 106.311 59.826C105.564 59.826 104.976 60.0453 104.547 60.484C104.118 60.9227 103.903 61.5947 103.903 62.5C103.903 62.9013 103.94 63.27 104.015 63.606C104.09 63.9327 104.206 64.2173 104.365 64.46C104.533 64.7027 104.748 64.894 105.009 65.034C105.28 65.1647 105.611 65.23 106.003 65.23ZM110.24 56.2H112.424V59.868H112.494C112.783 59.5413 113.119 59.2893 113.502 59.112C113.884 58.9253 114.36 58.832 114.93 58.832C115.378 58.832 115.765 58.8787 116.092 58.972C116.428 59.0653 116.698 59.2287 116.904 59.462C117.118 59.6953 117.277 60.0173 117.38 60.428C117.482 60.8293 117.534 61.3427 117.534 61.968V66H116.442V62.178C116.442 61.7767 116.418 61.4267 116.372 61.128C116.325 60.8293 116.232 60.582 116.092 60.386C115.961 60.1807 115.779 60.0267 115.546 59.924C115.312 59.8213 115.014 59.77 114.65 59.77C114.398 59.77 114.15 59.8167 113.908 59.91C113.665 59.994 113.441 60.1153 113.236 60.274C113.04 60.4233 112.867 60.61 112.718 60.834C112.578 61.0487 112.48 61.2867 112.424 61.548V66H111.346V57.138H110.24V56.2ZM119.012 59H120.678V57.614L121.77 57.306V59H125.508V59.938H121.77V63.242C121.77 63.9233 121.933 64.4273 122.26 64.754C122.596 65.0807 123.072 65.244 123.688 65.244C124.108 65.244 124.472 65.1647 124.78 65.006C125.097 64.8473 125.382 64.6747 125.634 64.488L125.998 65.314C125.671 65.5753 125.279 65.7853 124.822 65.944C124.374 66.1027 123.912 66.182 123.436 66.182C123.063 66.182 122.708 66.126 122.372 66.014C122.045 65.9113 121.756 65.748 121.504 65.524C121.252 65.3 121.051 65.0153 120.902 64.67C120.753 64.3153 120.678 63.8953 120.678 63.41V59.938H119.012V59Z" fill="#FF6F61"/>
<path d="M92.462 82.482C92.462 82.7247 92.4293 82.9673 92.364 83.21C92.308 83.4527 92.21 83.6767 92.07 83.882C91.93 84.078 91.748 84.2553 91.524 84.414C91.3 84.5633 91.0293 84.6753 90.712 84.75V84.834C90.992 84.8807 91.258 84.96 91.51 85.072C91.762 85.184 91.9813 85.338 92.168 85.534C92.3547 85.73 92.4993 85.968 92.602 86.248C92.714 86.528 92.77 86.8593 92.77 87.242C92.77 87.746 92.6627 88.1847 92.448 88.558C92.2333 88.922 91.944 89.2207 91.58 89.454C91.2253 89.6873 90.8193 89.86 90.362 89.972C89.9047 90.084 89.4333 90.14 88.948 90.14C88.7893 90.14 88.584 90.14 88.332 90.14C88.0893 90.14 87.8233 90.1307 87.534 90.112C87.254 90.1027 86.9647 90.084 86.666 90.056C86.3767 90.028 86.1107 89.986 85.868 89.93V80.27C86.0453 80.242 86.246 80.214 86.47 80.186C86.7033 80.158 86.9507 80.1347 87.212 80.116C87.4733 80.0973 87.7393 80.0833 88.01 80.074C88.29 80.0647 88.5653 80.06 88.836 80.06C89.2933 80.06 89.7367 80.0973 90.166 80.172C90.6047 80.2373 90.992 80.3587 91.328 80.536C91.6733 80.7133 91.9487 80.9607 92.154 81.278C92.3593 81.5953 92.462 81.9967 92.462 82.482ZM88.962 88.558C89.1953 88.558 89.4193 88.53 89.634 88.474C89.858 88.418 90.054 88.334 90.222 88.222C90.39 88.1007 90.5253 87.9513 90.628 87.774C90.7307 87.5967 90.782 87.3867 90.782 87.144C90.782 86.836 90.7213 86.5933 90.6 86.416C90.4787 86.2387 90.32 86.1033 90.124 86.01C89.928 85.9073 89.7087 85.842 89.466 85.814C89.2233 85.786 88.9807 85.772 88.738 85.772H87.716V88.474C87.7627 88.4927 87.8373 88.5067 87.94 88.516C88.0427 88.5253 88.15 88.5347 88.262 88.544C88.3833 88.544 88.5047 88.5487 88.626 88.558C88.7567 88.558 88.8687 88.558 88.962 88.558ZM88.332 84.316C88.4627 84.316 88.612 84.3113 88.78 84.302C88.9573 84.2927 89.102 84.2787 89.214 84.26C89.5687 84.148 89.872 83.98 90.124 83.756C90.3853 83.532 90.516 83.238 90.516 82.874C90.516 82.6313 90.4693 82.4307 90.376 82.272C90.2827 82.1133 90.1567 81.9873 89.998 81.894C89.8487 81.8007 89.676 81.7353 89.48 81.698C89.284 81.6607 89.0787 81.642 88.864 81.642C88.6213 81.642 88.3973 81.6467 88.192 81.656C87.9867 81.6653 87.828 81.6793 87.716 81.698V84.316H88.332ZM93.8845 86.5C93.8845 85.912 93.9732 85.3893 94.1505 84.932C94.3279 84.4747 94.5799 84.0873 94.9065 83.77C95.2332 83.4527 95.6205 83.2147 96.0685 83.056C96.5259 82.888 97.0345 82.804 97.5945 82.804C98.1825 82.804 98.7052 82.8927 99.1625 83.07C99.6292 83.2473 100.021 83.4993 100.339 83.826C100.656 84.1433 100.894 84.5307 101.053 84.988C101.221 85.4453 101.305 85.9493 101.305 86.5C101.305 87.088 101.216 87.6107 101.039 88.068C100.861 88.5253 100.609 88.9127 100.283 89.23C99.9559 89.5473 99.5639 89.79 99.1065 89.958C98.6585 90.1167 98.1545 90.196 97.5945 90.196C97.0065 90.196 96.4792 90.1073 96.0125 89.93C95.5552 89.7527 95.1679 89.5053 94.8505 89.188C94.5332 88.8613 94.2905 88.4693 94.1225 88.012C93.9639 87.5547 93.8845 87.0507 93.8845 86.5ZM95.7605 86.5C95.7605 86.808 95.8025 87.0927 95.8865 87.354C95.9705 87.6153 96.0919 87.844 96.2505 88.04C96.4092 88.236 96.6005 88.39 96.8245 88.502C97.0485 88.6047 97.3052 88.656 97.5945 88.656C98.1359 88.656 98.5745 88.4833 98.9105 88.138C99.2559 87.7927 99.4285 87.2467 99.4285 86.5C99.4285 85.856 99.2699 85.338 98.9525 84.946C98.6352 84.5447 98.1825 84.344 97.5945 84.344C97.3332 84.344 97.0905 84.386 96.8665 84.47C96.6425 84.5447 96.4465 84.6707 96.2785 84.848C96.1199 85.0253 95.9939 85.2493 95.9005 85.52C95.8072 85.7907 95.7605 86.1173 95.7605 86.5ZM103.007 80.2H105.989V86.668C105.989 87.3867 106.078 87.886 106.255 88.166C106.432 88.446 106.717 88.586 107.109 88.586C107.398 88.586 107.636 88.558 107.823 88.502C108.01 88.4367 108.196 88.348 108.383 88.236L109.069 89.496C108.91 89.5987 108.752 89.6967 108.593 89.79C108.434 89.874 108.266 89.944 108.089 90C107.912 90.0653 107.716 90.112 107.501 90.14C107.296 90.1773 107.062 90.196 106.801 90.196C105.924 90.196 105.266 89.972 104.827 89.524C104.388 89.076 104.169 88.4413 104.169 87.62V81.74H103.007V80.2ZM114.468 80.2H117.394V86.248C117.394 86.948 117.431 87.6387 117.506 88.32C117.506 88.3667 117.51 88.4133 117.52 88.46H118.416V90H116.162L115.98 89.104H115.924C115.83 89.272 115.704 89.4213 115.546 89.552C115.387 89.6827 115.21 89.7993 115.014 89.902C114.818 89.9953 114.603 90.0653 114.37 90.112C114.136 90.168 113.903 90.196 113.67 90.196C113.231 90.196 112.816 90.126 112.424 89.986C112.041 89.846 111.705 89.6313 111.416 89.342C111.126 89.0433 110.898 88.67 110.73 88.222C110.562 87.7647 110.478 87.228 110.478 86.612C110.478 86.0147 110.566 85.4827 110.744 85.016C110.93 84.5493 111.182 84.1573 111.5 83.84C111.826 83.5133 112.209 83.266 112.648 83.098C113.086 82.9207 113.567 82.832 114.09 82.832C114.379 82.832 114.65 82.8507 114.902 82.888C115.163 82.916 115.387 82.9673 115.574 83.042V81.74H114.468V80.2ZM114.09 88.656C114.444 88.656 114.757 88.572 115.028 88.404C115.308 88.2267 115.49 87.9747 115.574 87.648V84.68C115.443 84.5773 115.261 84.5027 115.028 84.456C114.804 84.4 114.566 84.372 114.314 84.372C114.062 84.372 113.814 84.414 113.572 84.498C113.338 84.582 113.128 84.7173 112.942 84.904C112.764 85.0813 112.62 85.3147 112.508 85.604C112.405 85.8933 112.354 86.248 112.354 86.668C112.354 87.2653 112.503 87.746 112.802 88.11C113.1 88.474 113.53 88.656 114.09 88.656Z" fill="#FF6F61"/>
<path d="M138.48 197.36H137.768L137.48 198.592H136.624L136.912 197.36H136.32L136.496 196.584H137.096L137.296 195.736H136.72L136.896 194.96H137.48L137.76 193.808H138.608L138.336 194.96H139.048L139.328 193.808H140.176L139.904 194.96H140.48L140.28 195.736H139.72L139.52 196.584H140.072L139.88 197.36H139.336L139.048 198.592H138.192L138.48 197.36ZM137.952 196.584H138.664L138.864 195.736H138.152L137.952 196.584ZM141.365 199V198.12H142.309V195.88H141.357V195H142.309V194.776C142.309 194.525 142.352 194.309 142.437 194.128C142.528 193.947 142.645 193.797 142.789 193.68C142.933 193.563 143.098 193.477 143.285 193.424C143.477 193.365 143.674 193.336 143.877 193.336C144.245 193.336 144.546 193.368 144.781 193.432C145.021 193.491 145.218 193.565 145.373 193.656L145.069 194.448C144.946 194.389 144.813 194.336 144.669 194.288C144.53 194.24 144.349 194.216 144.125 194.216C143.837 194.216 143.634 194.283 143.517 194.416C143.405 194.544 143.349 194.739 143.349 195H145.029V195.88H143.349V198.12H145.037V199H141.365ZM146.162 199V198.12H147.106V195.88H146.154V195H147.106V194.776C147.106 194.525 147.148 194.309 147.234 194.128C147.324 193.947 147.442 193.797 147.586 193.68C147.73 193.563 147.895 193.477 148.082 193.424C148.274 193.365 148.471 193.336 148.674 193.336C149.042 193.336 149.343 193.368 149.578 193.432C149.818 193.491 150.015 193.565 150.17 193.656L149.866 194.448C149.743 194.389 149.61 194.336 149.466 194.288C149.327 194.24 149.146 194.216 148.922 194.216C148.634 194.216 148.431 194.283 148.314 194.416C148.202 194.544 148.146 194.739 148.146 195H149.826V195.88H148.146V198.12H149.834V199H146.162ZM150.959 199V198.12H151.903V195.88H150.951V195H151.903V194.776C151.903 194.525 151.945 194.309 152.031 194.128C152.121 193.947 152.239 193.797 152.383 193.68C152.527 193.563 152.692 193.477 152.879 193.424C153.071 193.365 153.268 193.336 153.471 193.336C153.839 193.336 154.14 193.368 154.375 193.432C154.615 193.491 154.812 193.565 154.967 193.656L154.663 194.448C154.54 194.389 154.407 194.336 154.263 194.288C154.124 194.24 153.943 194.216 153.719 194.216C153.431 194.216 153.228 194.283 153.111 194.416C152.999 194.544 152.943 194.739 152.943 195H154.623V195.88H152.943V198.12H154.631V199H150.959ZM155.756 199V198.12H156.7V195.88H155.748V195H156.7V194.776C156.7 194.525 156.742 194.309 156.828 194.128C156.918 193.947 157.036 193.797 157.18 193.68C157.324 193.563 157.489 193.477 157.676 193.424C157.868 193.365 158.065 193.336 158.268 193.336C158.636 193.336 158.937 193.368 159.172 193.432C159.412 193.491 159.609 193.565 159.764 193.656L159.46 194.448C159.337 194.389 159.204 194.336 159.06 194.288C158.921 194.24 158.74 194.216 158.516 194.216C158.228 194.216 158.025 194.283 157.908 194.416C157.796 194.544 157.74 194.739 157.74 195H159.42V195.88H157.74V198.12H159.428V199H155.756ZM160.552 199V198.12H161.496V195.88H160.544V195H161.496V194.776C161.496 194.525 161.539 194.309 161.624 194.128C161.715 193.947 161.832 193.797 161.976 193.68C162.12 193.563 162.286 193.477 162.472 193.424C162.664 193.365 162.862 193.336 163.064 193.336C163.432 193.336 163.734 193.368 163.968 193.432C164.208 193.491 164.406 193.565 164.56 193.656L164.256 194.448C164.134 194.389 164 194.336 163.856 194.288C163.718 194.24 163.536 194.216 163.312 194.216C163.024 194.216 162.822 194.283 162.704 194.416C162.592 194.544 162.536 194.739 162.536 195H164.216V195.88H162.536V198.12H164.224V199H160.552ZM165.349 199V198.12H166.293V195.88H165.341V195H166.293V194.776C166.293 194.525 166.336 194.309 166.421 194.128C166.512 193.947 166.629 193.797 166.773 193.68C166.917 193.563 167.083 193.477 167.269 193.424C167.461 193.365 167.659 193.336 167.861 193.336C168.229 193.336 168.531 193.368 168.765 193.432C169.005 193.491 169.203 193.565 169.357 193.656L169.053 194.448C168.931 194.389 168.797 194.336 168.653 194.288C168.515 194.24 168.333 194.216 168.109 194.216C167.821 194.216 167.619 194.283 167.501 194.416C167.389 194.544 167.333 194.739 167.333 195H169.013V195.88H167.333V198.12H169.021V199H165.349Z" fill="white"/>
<rect x="136" y="148" width="47" height="36" rx="9" fill="white"/>
<line x1="141.73" y1="86.5791" x2="180.73" y2="61.5791" stroke="white"/>
<line y1="-0.5" x2="46.3249" y2="-0.5" transform="matrix(-0.841879 -0.539666 -0.539666 0.841879 180 87)" stroke="white"/>
</svg>
