<svg width="326" height="304" viewBox="0 0 326 304" fill="none" xmlns="http://www.w3.org/2000/svg">
<rect width="326" height="304" fill="#0815B7"/>
<path d="M67.176 257.184H68.712L71.64 247.2H73.68L70.272 258.12C69.952 259.224 69.632 260.16 69.312 260.928C69.008 261.696 68.672 262.32 68.304 262.8C67.952 263.264 67.56 263.6 67.128 263.808C66.696 264.016 66.2 264.12 65.64 264.12C65.112 264.12 64.688 264.08 64.368 264C64.064 263.904 63.776 263.768 63.504 263.592L64.104 261.936C64.424 262.112 64.72 262.224 64.992 262.272C65.264 262.32 65.512 262.344 65.736 262.344C66.184 262.344 66.616 262.08 67.032 261.552C67.448 261.024 67.792 260.16 68.064 258.96L65.904 258.936L60.72 247.2H63.024L67.176 257.184ZM84.7106 253.632H78.4466V264H76.5986V252H86.5826V264H84.7106V253.632ZM91.3733 252.936C92.0613 252.536 92.8373 252.248 93.7013 252.072C94.5653 251.896 95.4133 251.808 96.2453 251.808C97.0613 251.808 97.7253 251.936 98.2373 252.192C98.7653 252.448 99.1733 252.784 99.4613 253.2C99.7653 253.6 99.9653 254.064 100.061 254.592C100.173 255.104 100.229 255.624 100.229 256.152C100.229 256.76 100.213 257.408 100.181 258.096C100.149 258.784 100.125 259.472 100.109 260.16C100.109 260.96 100.157 261.72 100.253 262.44H101.861V264H98.6693L98.4533 262.2H98.3333C98.2373 262.344 98.0933 262.528 97.9013 262.752C97.7093 262.976 97.4533 263.2 97.1333 263.424C96.8293 263.632 96.4533 263.816 96.0053 263.976C95.5573 264.136 95.0293 264.216 94.4213 264.216C93.2373 264.216 92.3013 263.912 91.6133 263.304C90.9253 262.696 90.5813 261.864 90.5813 260.808C90.5813 259.992 90.7573 259.312 91.1093 258.768C91.4773 258.224 91.9973 257.808 92.6693 257.52C93.3413 257.232 94.1493 257.064 95.0933 257.016C96.0533 256.968 97.1253 257.032 98.3093 257.208C98.3893 256.472 98.3973 255.864 98.3333 255.384C98.2853 254.888 98.1573 254.496 97.9493 254.208C97.7573 253.92 97.4773 253.72 97.1093 253.608C96.7573 253.48 96.3173 253.416 95.7893 253.416C95.0693 253.416 94.3813 253.52 93.7253 253.728C93.0693 253.92 92.4853 254.12 91.9733 254.328L91.3733 252.936ZM94.9013 262.608C95.3493 262.608 95.7653 262.536 96.1493 262.392C96.5333 262.248 96.8693 262.064 97.1573 261.84C97.4453 261.616 97.6853 261.376 97.8773 261.12C98.0693 260.848 98.2133 260.592 98.3093 260.352V258.672C97.4773 258.528 96.7093 258.456 96.0053 258.456C95.3013 258.456 94.6933 258.536 94.1813 258.696C93.6693 258.84 93.2693 259.072 92.9813 259.392C92.6933 259.712 92.5493 260.128 92.5493 260.64C92.5493 261.168 92.7253 261.632 93.0773 262.032C93.4453 262.416 94.0533 262.608 94.9013 262.608ZM108.956 258.576H107.636V264H105.788V252H107.636V257.136H108.956L113.684 252H115.94L110.636 257.688L115.004 262.392H116.564V264H114.092L108.956 258.576ZM118.931 258C118.931 256.064 119.435 254.536 120.443 253.416C121.451 252.28 122.891 251.712 124.763 251.712C125.771 251.712 126.635 251.88 127.355 252.216C128.091 252.536 128.699 252.976 129.179 253.536C129.659 254.096 130.01 254.76 130.234 255.528C130.475 256.296 130.595 257.12 130.595 258C130.595 258.96 130.467 259.832 130.211 260.616C129.955 261.384 129.579 262.04 129.083 262.584C128.587 263.128 127.971 263.552 127.235 263.856C126.515 264.144 125.691 264.288 124.763 264.288C123.771 264.288 122.907 264.128 122.171 263.808C121.435 263.472 120.827 263.024 120.347 262.464C119.867 261.904 119.507 261.24 119.267 260.472C119.043 259.704 118.931 258.88 118.931 258ZM120.923 258C120.923 258.56 120.987 259.12 121.115 259.68C121.259 260.24 121.483 260.744 121.787 261.192C122.091 261.64 122.483 262 122.963 262.272C123.459 262.544 124.059 262.68 124.763 262.68C126.043 262.68 127.003 262.288 127.643 261.504C128.299 260.704 128.627 259.536 128.627 258C128.627 257.424 128.555 256.864 128.411 256.32C128.283 255.76 128.059 255.256 127.739 254.808C127.435 254.36 127.035 254 126.539 253.728C126.059 253.456 125.467 253.32 124.763 253.32C123.483 253.32 122.523 253.712 121.883 254.496C121.243 255.28 120.923 256.448 120.923 258ZM134.833 252.024C135.137 252.008 135.441 251.992 135.745 251.976C136.049 251.944 136.377 251.92 136.729 251.904C137.081 251.888 137.457 251.872 137.857 251.856C138.273 251.84 138.737 251.832 139.249 251.832C140.977 251.832 142.225 252.08 142.993 252.576C143.761 253.056 144.145 253.784 144.145 254.76C144.145 255.32 143.961 255.88 143.593 256.44C143.225 256.984 142.625 257.376 141.793 257.616V257.712C142.849 257.888 143.593 258.216 144.025 258.696C144.457 259.16 144.673 259.8 144.673 260.616C144.673 261.864 144.161 262.768 143.137 263.328C142.129 263.888 140.657 264.168 138.721 264.168C137.953 264.168 137.265 264.144 136.657 264.096C136.049 264.064 135.441 264.024 134.833 263.976V252.024ZM136.681 262.488C137.049 262.52 137.417 262.544 137.785 262.56C138.153 262.576 138.569 262.584 139.033 262.584C140.281 262.584 141.209 262.432 141.817 262.128C142.441 261.808 142.753 261.264 142.753 260.496C142.753 260.192 142.689 259.92 142.561 259.68C142.449 259.44 142.249 259.232 141.961 259.056C141.689 258.88 141.329 258.744 140.881 258.648C140.433 258.552 139.873 258.504 139.201 258.504H136.681V262.488ZM139.537 257.064C139.857 257.064 140.177 257.016 140.497 256.92C140.817 256.808 141.105 256.672 141.361 256.512C141.633 256.336 141.849 256.136 142.009 255.912C142.169 255.672 142.249 255.424 142.249 255.168C142.249 254.512 142.009 254.056 141.529 253.8C141.065 253.544 140.281 253.416 139.177 253.416C138.569 253.416 138.081 253.424 137.713 253.44C137.361 253.456 137.017 253.472 136.681 253.488V257.064H139.537ZM152.128 258.576H150.808V264H148.96V252H150.808V257.136H152.128L156.856 252H159.112L153.808 257.688L158.176 262.392H159.736V264H157.264L152.128 258.576ZM163.326 252.936C164.014 252.536 164.79 252.248 165.654 252.072C166.518 251.896 167.366 251.808 168.198 251.808C169.014 251.808 169.678 251.936 170.19 252.192C170.718 252.448 171.126 252.784 171.414 253.2C171.718 253.6 171.918 254.064 172.014 254.592C172.126 255.104 172.182 255.624 172.182 256.152C172.182 256.76 172.166 257.408 172.134 258.096C172.102 258.784 172.078 259.472 172.062 260.16C172.062 260.96 172.11 261.72 172.206 262.44H173.814V264H170.622L170.406 262.2H170.286C170.19 262.344 170.046 262.528 169.854 262.752C169.662 262.976 169.406 263.2 169.086 263.424C168.782 263.632 168.406 263.816 167.958 263.976C167.51 264.136 166.982 264.216 166.374 264.216C165.19 264.216 164.254 263.912 163.566 263.304C162.878 262.696 162.534 261.864 162.534 260.808C162.534 259.992 162.71 259.312 163.062 258.768C163.43 258.224 163.95 257.808 164.622 257.52C165.294 257.232 166.102 257.064 167.046 257.016C168.006 256.968 169.078 257.032 170.262 257.208C170.342 256.472 170.35 255.864 170.286 255.384C170.238 254.888 170.11 254.496 169.902 254.208C169.71 253.92 169.43 253.72 169.062 253.608C168.71 253.48 168.27 253.416 167.742 253.416C167.022 253.416 166.334 253.52 165.678 253.728C165.022 253.92 164.438 254.12 163.926 254.328L163.326 252.936ZM166.854 262.608C167.302 262.608 167.718 262.536 168.102 262.392C168.486 262.248 168.822 262.064 169.11 261.84C169.398 261.616 169.638 261.376 169.83 261.12C170.022 260.848 170.166 260.592 170.262 260.352V258.672C169.43 258.528 168.662 258.456 167.958 258.456C167.254 258.456 166.646 258.536 166.134 258.696C165.622 258.84 165.222 259.072 164.934 259.392C164.646 259.712 164.502 260.128 164.502 260.64C164.502 261.168 164.678 261.632 165.03 262.032C165.398 262.416 166.006 262.608 166.854 262.608Z" fill="white"/>
<mask id="path-3-inside-1" fill="white">
<path fill-rule="evenodd" clip-rule="evenodd" d="M162.911 145.512C166.962 145.905 170.129 149.32 170.129 153.475V192C170.129 196.418 166.547 200 162.129 200H139.036C134.617 200 131.036 196.418 131.036 192V153.475C131.036 149.32 134.202 145.905 138.254 145.512C138.498 142.042 141.391 139.302 144.924 139.302H156.241C159.774 139.302 162.667 142.042 162.911 145.512Z"/>
</mask>
<path d="M162.911 145.512L161.913 145.583L161.973 146.426L162.814 146.508L162.911 145.512ZM138.254 145.512L138.35 146.508L139.192 146.426L139.251 145.583L138.254 145.512ZM162.814 146.508C166.358 146.851 169.129 149.84 169.129 153.475H171.129C171.129 148.8 167.566 144.959 163.008 144.517L162.814 146.508ZM169.129 153.475V192H171.129V153.475H169.129ZM169.129 192C169.129 195.866 165.995 199 162.129 199V201C167.1 201 171.129 196.97 171.129 192H169.129ZM162.129 199H139.036V201H162.129V199ZM139.036 199C135.17 199 132.036 195.866 132.036 192H130.036C130.036 196.97 134.065 201 139.036 201V199ZM132.036 192V153.475H130.036V192H132.036ZM132.036 153.475C132.036 149.84 134.806 146.851 138.35 146.508L138.157 144.517C133.598 144.959 130.036 148.8 130.036 153.475H132.036ZM139.251 145.583C139.459 142.632 141.92 140.302 144.924 140.302V138.302C140.863 138.302 137.537 141.451 137.256 145.442L139.251 145.583ZM144.924 140.302H156.241V138.302H144.924V140.302ZM156.241 140.302C159.245 140.302 161.706 142.632 161.913 145.583L163.909 145.442C163.627 141.451 160.302 138.302 156.241 138.302V140.302Z" fill="white" mask="url(#path-3-inside-1)"/>
<rect x="135.651" y="155.234" width="27.8058" height="7.23022" rx="3.5" stroke="#FF6F61"/>
<rect x="133.094" y="166.05" width="28.8058" height="8.23022" rx="4" fill="#FF6F61"/>
<rect x="135.651" y="168.608" width="27.8058" height="7.23022" rx="3.5" stroke="white"/>
<mask id="path-8-inside-2" fill="white">
<path fill-rule="evenodd" clip-rule="evenodd" d="M113.432 70.374C111.223 70.374 109.432 72.1649 109.432 74.374V105.352H104C98.4772 105.352 94 109.83 94 115.352V190C94 195.523 98.4771 200 104 200H129.266C134.789 200 139.266 195.523 139.266 190V115.352C139.266 109.83 134.789 105.352 129.266 105.352H124.863V74.374C124.863 72.1649 123.072 70.374 120.863 70.374H113.432Z"/>
</mask>
<path fill-rule="evenodd" clip-rule="evenodd" d="M113.432 70.374C111.223 70.374 109.432 72.1649 109.432 74.374V105.352H104C98.4772 105.352 94 109.83 94 115.352V190C94 195.523 98.4771 200 104 200H129.266C134.789 200 139.266 195.523 139.266 190V115.352C139.266 109.83 134.789 105.352 129.266 105.352H124.863V74.374C124.863 72.1649 123.072 70.374 120.863 70.374H113.432Z" fill="#0815B7"/>
<path d="M109.432 105.352V106.352H110.432V105.352H109.432ZM124.863 105.352H123.863V106.352H124.863V105.352ZM110.432 74.374C110.432 72.7172 111.775 71.374 113.432 71.374V69.374C110.67 69.374 108.432 71.6126 108.432 74.374H110.432ZM110.432 105.352V74.374H108.432V105.352H110.432ZM104 106.352H109.432V104.352H104V106.352ZM95 115.352C95 110.382 99.0294 106.352 104 106.352V104.352C97.9249 104.352 93 109.277 93 115.352H95ZM95 190V115.352H93V190H95ZM104 199C99.0294 199 95 194.97 95 190H93C93 196.075 97.9249 201 104 201V199ZM129.266 199H104V201H129.266V199ZM138.266 190C138.266 194.97 134.237 199 129.266 199V201C135.341 201 140.266 196.075 140.266 190H138.266ZM138.266 115.352V190H140.266V115.352H138.266ZM129.266 106.352C134.237 106.352 138.266 110.382 138.266 115.352H140.266C140.266 109.277 135.341 104.352 129.266 104.352V106.352ZM124.863 106.352H129.266V104.352H124.863V106.352ZM123.863 74.374V105.352H125.863V74.374H123.863ZM120.863 71.374C122.52 71.374 123.863 72.7172 123.863 74.374H125.863C125.863 71.6126 123.625 69.374 120.863 69.374V71.374ZM113.432 71.374H120.863V69.374H113.432V71.374Z" fill="white" mask="url(#path-8-inside-2)"/>
<rect x="109.432" y="57" width="15.4317" height="11.3165" rx="4" fill="white"/>
<rect x="102.23" y="113.583" width="28.8058" height="22.6331" rx="4" fill="#FF6F61"/>
<rect x="102.73" y="140.831" width="27.8058" height="21.6331" rx="3.5" stroke="#FF6F61"/>
<path d="M185.038 199.5L179.934 140.831H216.903L211.232 199.5H185.038Z" stroke="white"/>
<rect x="207.166" y="145.475" width="24.6906" height="24.6906" rx="12.3453" fill="#FF6F61"/>
<rect x="195.849" y="147.532" width="32.9209" height="32.9209" rx="16.4604" stroke="white" stroke-dasharray="4 4"/>
<rect x="166.014" y="93.0071" width="20.5755" height="20.5755" rx="10.2878" fill="#FF6F61"/>
<rect x="171.158" y="88.8921" width="20.5755" height="20.5755" rx="10.2878" stroke="white" stroke-dasharray="4 4"/>
</svg>
