<svg width="806" height="535" viewBox="0 0 806 535" fill="none" xmlns="http://www.w3.org/2000/svg">
<g clip-path="url(#clip0)">
<path d="M806 395.055L605.318 494.378L401.88 393.678L198.27 494.378L0 396.26V436.884L198.27 535.002L401.88 434.302L605.318 535.002L806 435.851V395.055Z" fill="white"/>
<path d="M806 313.29L605.318 412.441L401.88 311.913L198.27 412.441L0 314.495V355.119L198.27 453.065L401.88 352.537L605.318 453.065L806 353.914V313.29Z" fill="white"/>
<path d="M806 239.27L605.318 338.421L401.88 237.721L198.27 338.421L0 240.303V280.927L198.27 379.045L401.88 278.345L605.318 379.045L806 279.895V239.27Z" fill="white"/>
<path d="M806 157.334L605.318 256.484L401.88 155.957L198.27 256.484L0 158.539V199.163L198.27 297.281L401.88 196.581L605.318 297.281L806 198.13V157.334Z" fill="white"/>
<path d="M806 83.3141L605.318 182.465L401.88 81.7649L198.27 182.465L0 84.3469V124.971L198.27 223.089L401.88 122.561L605.318 223.089L806 123.938V83.3141Z" fill="white"/>
<path d="M806 1.54923L605.318 100.7L401.88 0L198.27 100.7L0 2.58205V43.2062L198.27 141.324L401.88 40.6242L605.318 141.324L806 42.1734V1.54923Z" fill="white"/>
</g>
<defs>
<clipPath id="clip0">
<rect width="806" height="535" fill="white"/>
</clipPath>
</defs>
</svg>
