<svg width="462" height="662" viewBox="0 0 462 662" fill="none" xmlns="http://www.w3.org/2000/svg">
<g clip-path="url(#clip0)">
<path d="M155.903 238.674C128 196.52 112.012 141.754 113.452 81.6266C125.837 70.7336 139.014 60.776 152.875 51.8359C142.498 111.417 150.293 167.772 171.692 213.649C219.353 219.604 263.425 242.054 296.266 277.104C293.577 278.885 291.022 280.86 288.62 283.012C250.893 253.23 203.955 237.549 155.903 238.674ZM224.62 497.555C227.268 449.587 246.585 404.05 279.236 368.809C277.2 365.979 274.022 360.468 274.271 360.766C236.794 390.747 211.004 432.91 201.383 479.929C149.017 498.556 92.2026 500.704 38.5787 486.086C46.211 500.536 54.89 514.41 64.546 527.594C124.574 533.751 180.381 522.033 224.62 497.555ZM304.607 272.635C307.473 271.378 310.427 270.333 313.445 269.507C292.475 226.347 256.963 191.96 213.151 172.389C206.05 122.241 215.286 65.6886 242.941 11.9163C226.965 16.3002 211.346 21.8938 196.22 28.6487C177.748 81.0674 175.789 137.889 190.609 191.455C236.96 204.294 277.315 233.032 304.607 272.635ZM395.369 528.438L358.925 461.757L340.703 428.391L331.617 411.658L330.475 409.573C330.239 408.88 330.073 408.164 329.979 407.438L329.135 403.168C328.638 400.388 328.191 397.607 327.794 394.827C324.594 394.733 321.406 394.384 318.261 393.784C318.142 405.193 319.022 416.59 320.893 427.845C322.932 439.371 325.904 450.712 329.78 461.757C341.349 484.1 353.91 506.443 365.926 528.587C353.662 550.831 341.945 573.273 329.184 595.318C320.714 606.56 311.543 617.256 301.727 627.343C291.239 637.668 280.094 647.304 268.362 656.191C284.56 658.847 300.883 660.67 317.268 661.652L325.014 653.609L328.737 649.587C329.284 648.892 329.979 648.247 330.475 647.551L331.617 645.466L340.703 628.783L358.925 595.368L395.369 528.438ZM134.057 352.524C173.066 324.468 220.684 310.99 268.61 314.441C269.554 311.065 271.788 305.256 271.589 305.554C224.818 294.921 175.794 301.146 133.163 323.13C89.8678 297.51 51.5871 255.108 26.9107 200.144C20.4132 215.248 15.0526 230.815 10.8735 246.717C40.198 293.711 83.1765 330.627 134.057 352.524ZM424.812 267.124L454.254 267.124L381.417 133.562L454.254 -7.94244e-05L424.811 -7.42764e-05L351.974 133.562L424.812 267.124ZM68.0216 456.791C104.849 465.726 143.191 466.455 180.331 458.926C192.233 426.946 211.705 398.325 237.082 375.512C242.237 371.061 247.624 366.884 253.219 363C258.79 359.084 264.557 355.455 270.497 352.127L268.015 343.09C237.297 354.825 210.016 374.082 188.673 399.097C183.708 404.558 179.239 410.467 175.019 416.475C170.799 422.482 166.975 428.738 163.252 435.342C155.754 435.789 148.059 435.888 140.164 435.69C132.27 435.491 124.822 434.647 116.927 433.604C77.489 428.127 39.6548 414.371 5.9085 393.238C8.98927 409.374 13.2711 425.256 18.7184 440.754C26.8611 444.064 34.9376 447.159 42.9479 450.039C51.19 452.819 59.5809 455.054 68.0216 456.791ZM68.0215 204.811C83.98 239.255 107.382 269.728 136.54 294.035C168.93 283.338 203.436 280.679 237.082 286.289C243.777 287.425 250.406 288.917 256.942 290.758C263.596 292.694 270.001 294.928 276.207 297.411C277.89 294.699 279.765 292.11 281.817 289.665C253.433 273.277 221.433 264.168 188.673 263.152C181.313 262.78 173.938 262.78 166.578 263.152C159.379 263.648 151.981 264.542 144.484 265.733C139.519 260.123 134.553 254.214 129.837 247.909C125.12 241.603 120.85 235.248 116.679 228.396C96.4174 194.202 83.5302 156.149 78.8453 116.68C68.2213 129.194 58.5299 142.47 49.8493 156.401C52.2657 164.941 54.9137 173.217 57.7935 181.227C60.8222 189.271 64.546 197.364 68.0215 205.01L68.0215 204.811ZM306.345 573.919C317.948 559.779 328.048 544.47 336.483 528.24C327.782 513.173 320.74 497.208 315.481 480.624C313.079 472.465 311.14 464.176 309.672 455.798C308.191 447.929 307.262 439.965 306.891 431.966C306.171 418.383 306.953 404.762 309.225 391.351C306.231 390.211 303.327 388.851 300.536 387.28C295.609 402.553 292.607 418.382 291.599 434.399C291.104 442.667 291.104 450.956 291.599 459.224C292.174 467.552 293.218 475.84 294.727 484.05C295.907 491.252 297.566 498.368 299.692 505.35C301.777 512.401 304.21 519.451 306.99 526.601C302.869 533.006 297.904 539.014 292.939 544.922C287.905 550.931 282.499 556.619 276.753 561.953C270.05 568.308 262.801 574.515 255.105 580.572C247.334 586.447 239.263 591.916 230.926 596.957C213.421 607.6 194.87 616.418 175.565 623.272C190.075 631.009 205.145 637.648 220.648 643.133C236.118 634.948 250.824 625.393 264.589 614.583C272.445 608.562 279.908 602.044 286.932 595.07C293.753 588.419 300.233 581.426 306.345 574.117L306.345 573.919ZM278.044 521.338C266.379 474.748 271.458 425.54 292.393 382.315C289.215 379.981 284.598 375.562 284.995 376.108C257.983 415.792 245.689 463.669 250.24 511.457C210.172 542.291 156.598 562.052 96.3225 564.882C108.08 576.488 120.694 587.193 134.057 596.907C192.992 585.339 243.289 557.782 278.044 521.338ZM440.104 662.099L461.801 622.378L461.801 568.258L410.661 662L440.104 662.099ZM462 39.7209L410.86 133.562L462 227.353L462 173.382L440.303 133.661L462 93.9401L462 39.7209ZM410.86 394.876L462 488.667L462 434.647L440.303 394.926L410.86 394.876ZM266.873 333.607C266.873 332.713 266.873 331.869 266.873 331.025C266.873 328.244 267.319 323.527 267.27 323.825C219.342 327.697 174.251 348.11 139.717 381.57C90.6623 369.554 41.806 340.26 1.93643 295.425C0.661858 307.249 0.0154929 319.132 5.78782e-05 331.025H5.78782e-05C5.86509e-05 335.444 5.94235e-05 339.863 0.347615 344.282C46.2249 382.861 98.9043 404.956 149.3 409.374C178.391 371.18 219.935 344.374 266.724 333.607L266.873 333.607ZM381.566 394.876L351.974 394.876L424.812 528.438L351.974 662L381.417 662L454.254 528.438L381.566 394.876ZM308.132 101.288C302.292 112.872 297.313 124.871 293.237 137.186C301.086 146.817 308.174 157.043 314.438 167.772C320.353 178.243 325.466 189.148 329.73 200.392C341.299 222.586 353.861 245.078 365.876 267.124L395.319 267.124L322.73 134.058C347.009 88.7267 371.288 44.6861 395.567 -6.91632e-05L365.926 -6.39805e-05C353.662 22.2933 341.944 44.6861 329.184 66.8305C321.433 77.8516 314.401 89.3615 308.132 101.288ZM277.696 190.164C283.405 196.213 288.728 202.614 293.634 209.33C298.426 216.036 302.852 222.998 306.891 230.183C310.235 236.173 313.22 242.358 315.828 248.703C318.457 254.901 320.76 261.232 322.73 267.67C325.299 267.336 327.885 267.154 330.475 267.124L336.533 267.124C334.497 263.251 332.114 259.328 330.326 255.456C329.482 251.632 328.539 247.809 327.446 243.986C325.203 236.112 322.518 228.371 319.403 220.799C316.212 213.188 312.564 205.777 308.48 198.605C304.385 191.232 299.79 184.148 294.727 177.404C285.934 165.528 275.952 154.581 264.936 144.733C267.391 129.485 271.349 114.516 276.753 100.047C279.928 91.1257 283.676 82.4186 287.974 73.9803C292.244 65.4403 297.06 56.7513 302.373 48.261C307.685 39.7706 313.594 31.9257 319.9 23.8325C323.077 19.8108 326.404 15.7394 329.83 11.7176C332.66 7.79519 334.249 3.92239 336.483 -5.88325e-05L331.021 -5.78776e-05C317.745 0.0218986 304.481 0.834309 291.301 2.43286C286.17 9.81435 281.371 17.2786 276.902 24.8256C272.36 32.1606 268.249 39.7535 264.589 47.5658C260.269 56.6024 256.396 65.6886 253.219 74.4768C249.981 83.5376 247.246 92.7703 245.026 102.133C240.672 119.902 238.34 138.108 238.075 156.401C252.57 166.05 265.87 177.383 277.696 190.164Z" fill="#010EA7"/>
</g>
<defs>
<clipPath id="clip0">
<rect width="462" height="662" fill="white"/>
</clipPath>
</defs>
</svg>
