<svg width="1228" height="604" viewBox="0 0 1228 604" fill="none" xmlns="http://www.w3.org/2000/svg">
<path fill-rule="evenodd" clip-rule="evenodd" d="M1159.11 280.928C1183.98 252.191 1195.24 223.673 1190.38 196.929C1185.53 170.185 1164.96 147.449 1131.57 129.292C1098.2 111.141 1052.17 97.6522 996.712 89.3553C885.816 72.763 737.476 76.9677 577.994 105.935C418.513 134.902 278.17 183.133 180.192 237.664C131.198 264.932 92.8486 293.747 67.9902 322.475C43.1242 351.212 31.8629 379.73 36.7206 406.474C41.5782 433.218 62.1489 455.954 95.5324 474.111C128.906 492.262 174.939 505.751 230.393 514.048C341.289 530.64 489.629 526.435 649.11 497.468C808.592 468.501 948.935 420.271 1046.91 365.74C1095.91 338.472 1134.26 309.656 1159.11 280.928ZM649.289 498.452C968.408 440.489 1211.1 305.413 1191.37 196.75C1171.63 88.0881 896.934 46.9882 577.816 104.951C258.697 162.914 15.9998 297.991 35.7367 406.653C55.4735 515.315 330.17 556.415 649.289 498.452Z" fill="#FF570F"/>
<path d="M215.188 135.632H235.538V152H230.412V139.592H220.314V152H215.188V135.632Z" fill="#292929"/>
<path d="M243.111 146.544V152H237.985V135.632H250.261C251.727 135.632 252.952 135.771 253.935 136.05C254.917 136.314 255.702 136.688 256.289 137.172C256.875 137.656 257.286 138.221 257.521 138.866C257.77 139.511 257.895 140.208 257.895 140.956V141.176C257.895 141.909 257.77 142.606 257.521 143.266C257.271 143.911 256.853 144.476 256.267 144.96C255.68 145.444 254.895 145.833 253.913 146.126C252.945 146.405 251.727 146.544 250.261 146.544H243.111ZM243.111 142.87H250.173C250.979 142.87 251.573 142.723 251.955 142.43C252.351 142.137 252.549 141.711 252.549 141.154V141.088C252.549 140.531 252.358 140.105 251.977 139.812C251.595 139.504 250.994 139.35 250.173 139.35H243.111V142.87Z" fill="#292929"/>
<path d="M266.749 139.174L263.713 145.312H269.917L266.749 139.174ZM271.809 149.008H261.887L260.413 152H255.199L263.471 135.632H270.115L278.871 152H273.349L271.809 149.008Z" fill="#292929"/>
<path d="M295.681 141.198L284.703 152H279.577V135.632H284.703V146.478L295.681 135.632H300.807V152H295.681V141.198ZM289.983 134.686C288.985 134.686 288.171 134.554 287.541 134.29C286.925 134.011 286.441 133.689 286.089 133.322C285.751 132.941 285.517 132.552 285.385 132.156C285.267 131.745 285.209 131.401 285.209 131.122V131.078H288.993C288.993 131.151 289.007 131.247 289.037 131.364C289.081 131.481 289.147 131.599 289.235 131.716C289.337 131.833 289.477 131.936 289.653 132.024C289.829 132.097 290.071 132.134 290.379 132.134C290.672 132.134 290.907 132.097 291.083 132.024C291.259 131.936 291.391 131.833 291.479 131.716C291.581 131.599 291.647 131.481 291.677 131.364C291.721 131.247 291.743 131.151 291.743 131.078H295.439V131.122C295.439 131.401 295.365 131.745 295.219 132.156C295.072 132.552 294.815 132.941 294.449 133.322C294.097 133.689 293.613 134.011 292.997 134.29C292.395 134.554 291.64 134.686 290.731 134.686H289.983Z" fill="#292929"/>
<path d="M304.2 148.04C304.405 147.615 304.567 147.065 304.684 146.39C304.816 145.701 304.911 144.857 304.97 143.86C305.043 142.848 305.087 141.667 305.102 140.318C305.131 138.954 305.146 137.392 305.146 135.632H322.834V148.04H325.474V154.75H320.568V152H307.016V154.75H302.11V148.04H304.2ZM317.708 148.04V139.592H309.678C309.678 140.428 309.663 141.264 309.634 142.1C309.619 142.936 309.575 143.728 309.502 144.476C309.443 145.224 309.355 145.906 309.238 146.522C309.135 147.138 308.996 147.644 308.82 148.04H317.708Z" fill="#292929"/>
<path d="M225.264 181.242C223.797 181.242 222.529 181.103 221.458 180.824C220.387 180.531 219.471 180.149 218.708 179.68C217.96 179.211 217.344 178.675 216.86 178.074C216.391 177.458 216.017 176.835 215.738 176.204C215.474 175.559 215.291 174.921 215.188 174.29C215.1 173.659 215.056 173.087 215.056 172.574V164.632H220.204V172.266C220.204 172.794 220.277 173.337 220.424 173.894C220.571 174.451 220.842 174.965 221.238 175.434C221.634 175.889 222.184 176.263 222.888 176.556C223.592 176.849 224.501 176.996 225.616 176.996C226.716 176.996 227.611 176.849 228.3 176.556C229.004 176.263 229.554 175.889 229.95 175.434C230.346 174.965 230.617 174.451 230.764 173.894C230.911 173.337 230.984 172.794 230.984 172.266V164.632H236.11V172.574C236.11 173.087 236.051 173.659 235.934 174.29C235.831 174.921 235.641 175.559 235.362 176.204C235.083 176.835 234.702 177.458 234.218 178.074C233.749 178.675 233.14 179.211 232.392 179.68C231.644 180.149 230.749 180.531 229.708 180.824C228.667 181.103 227.449 181.242 226.056 181.242H225.264Z" fill="#292929"/>
<path d="M236.725 181L244.865 172.728L236.901 164.632H243.765L248.385 169.428L253.005 164.632H259.297L251.443 172.618L259.473 181H253.027L248.011 175.918L243.039 181H236.725Z" fill="#292929"/>
<path d="M262.258 183.882H258.54L266.174 163.224H269.914L262.258 183.882Z" fill="#292929"/>
<path d="M280.952 181.242C279.485 181.242 278.216 181.103 277.146 180.824C276.075 180.531 275.158 180.149 274.396 179.68C273.648 179.211 273.032 178.675 272.548 178.074C272.078 177.458 271.704 176.835 271.426 176.204C271.162 175.559 270.978 174.921 270.876 174.29C270.788 173.659 270.744 173.087 270.744 172.574V164.632H275.892V172.266C275.892 172.794 275.965 173.337 276.112 173.894C276.258 174.451 276.53 174.965 276.926 175.434C277.322 175.889 277.872 176.263 278.576 176.556C279.28 176.849 280.189 176.996 281.304 176.996C282.404 176.996 283.298 176.849 283.988 176.556C284.692 176.263 285.242 175.889 285.638 175.434C286.034 174.965 286.305 174.451 286.452 173.894C286.598 173.337 286.672 172.794 286.672 172.266V164.632H291.798V172.574C291.798 173.087 291.739 173.659 291.622 174.29C291.519 174.921 291.328 175.559 291.05 176.204C290.771 176.835 290.39 177.458 289.906 178.074C289.436 178.675 288.828 179.211 288.08 179.68C287.332 180.149 286.437 180.531 285.396 180.824C284.354 181.103 283.137 181.242 281.744 181.242H280.952Z" fill="#292929"/>
<path d="M299.228 181H294.102V164.632H299.228V181Z" fill="#292929"/>
<path d="M308.496 164.632H319.342C320.926 164.632 322.305 164.742 323.478 164.962C324.666 165.167 325.686 165.453 326.536 165.82C327.402 166.187 328.113 166.619 328.67 167.118C329.228 167.617 329.668 168.159 329.99 168.746C330.328 169.318 330.562 169.912 330.694 170.528C330.826 171.144 330.892 171.76 330.892 172.376V173.036C330.892 173.623 330.826 174.231 330.694 174.862C330.577 175.478 330.357 176.079 330.034 176.666C329.712 177.253 329.272 177.81 328.714 178.338C328.157 178.866 327.453 179.328 326.602 179.724C325.752 180.12 324.732 180.435 323.544 180.67C322.356 180.89 320.963 181 319.364 181H308.496V164.632ZM313.622 177.062H318.946C320.398 177.062 321.557 176.923 322.422 176.644C323.288 176.351 323.948 175.999 324.402 175.588C324.872 175.163 325.172 174.708 325.304 174.224C325.451 173.725 325.524 173.263 325.524 172.838V172.706C325.524 172.295 325.458 171.848 325.326 171.364C325.194 170.865 324.901 170.403 324.446 169.978C323.992 169.553 323.324 169.201 322.444 168.922C321.579 168.643 320.413 168.504 318.946 168.504H313.622V177.062Z" fill="#292929"/>
<path d="M349.893 164.632V168.35H337.705V170.77H349.607V174.51H337.705V177.194H350.113V181H332.645V164.632H349.893Z" fill="#292929"/>
<path d="M360.973 181.286C359.55 181.286 358.318 181.191 357.277 181C356.25 180.809 355.385 180.56 354.681 180.252C353.977 179.929 353.405 179.57 352.965 179.174C352.539 178.763 352.209 178.345 351.975 177.92C351.74 177.48 351.586 177.047 351.513 176.622C351.439 176.197 351.403 175.801 351.403 175.434V175.192H356.749C356.763 175.441 356.822 175.72 356.925 176.028C357.042 176.321 357.269 176.6 357.607 176.864C357.959 177.128 358.45 177.348 359.081 177.524C359.711 177.7 360.555 177.788 361.611 177.788H361.919C362.989 177.788 363.84 177.744 364.471 177.656C365.116 177.553 365.6 177.421 365.923 177.26C366.26 177.084 366.473 176.893 366.561 176.688C366.663 176.483 366.715 176.27 366.715 176.05C366.715 175.815 366.663 175.603 366.561 175.412C366.473 175.221 366.282 175.053 365.989 174.906C365.695 174.759 365.263 174.649 364.691 174.576C364.119 174.488 363.363 174.429 362.425 174.4L359.609 174.334C358.083 174.29 356.807 174.136 355.781 173.872C354.754 173.608 353.933 173.263 353.317 172.838C352.701 172.398 352.261 171.899 351.997 171.342C351.747 170.785 351.623 170.183 351.623 169.538V169.34C351.623 168.724 351.733 168.123 351.953 167.536C352.187 166.935 352.627 166.399 353.273 165.93C353.933 165.461 354.842 165.079 356.001 164.786C357.159 164.493 358.67 164.346 360.533 164.346H362.051C363.987 164.346 365.571 164.5 366.803 164.808C368.035 165.116 369.003 165.519 369.707 166.018C370.411 166.502 370.895 167.052 371.159 167.668C371.423 168.284 371.555 168.9 371.555 169.516V169.736H366.231C366.201 169.575 366.135 169.384 366.033 169.164C365.945 168.944 365.739 168.731 365.417 168.526C365.109 168.321 364.647 168.145 364.031 167.998C363.415 167.851 362.571 167.778 361.501 167.778H361.149C360.151 167.778 359.367 167.822 358.795 167.91C358.237 167.983 357.819 168.086 357.541 168.218C357.262 168.35 357.086 168.504 357.013 168.68C356.939 168.841 356.903 169.01 356.903 169.186C356.903 169.362 356.939 169.531 357.013 169.692C357.101 169.853 357.277 170 357.541 170.132C357.805 170.264 358.186 170.374 358.685 170.462C359.183 170.535 359.851 170.579 360.687 170.594L363.437 170.638C364.977 170.667 366.289 170.785 367.375 170.99C368.475 171.195 369.369 171.496 370.059 171.892C370.763 172.288 371.276 172.787 371.599 173.388C371.921 173.989 372.083 174.693 372.083 175.5V175.808C372.083 176.483 371.965 177.15 371.731 177.81C371.511 178.455 371.056 179.042 370.367 179.57C369.692 180.083 368.724 180.501 367.463 180.824C366.201 181.132 364.544 181.286 362.491 181.286H360.973Z" fill="#292929"/>
<path d="M378.956 181H373.83V164.632H378.956V181Z" fill="#292929"/>
<path d="M391.709 181.286C390.228 181.286 388.93 181.161 387.815 180.912C386.701 180.648 385.74 180.303 384.933 179.878C384.127 179.453 383.459 178.961 382.931 178.404C382.403 177.847 381.978 177.267 381.655 176.666C381.347 176.05 381.127 175.434 380.995 174.818C380.863 174.187 380.797 173.601 380.797 173.058V172.442C380.797 171.914 380.849 171.349 380.951 170.748C381.069 170.132 381.274 169.523 381.567 168.922C381.875 168.321 382.286 167.749 382.799 167.206C383.327 166.649 384.002 166.157 384.823 165.732C385.645 165.307 386.635 164.969 387.793 164.72C388.952 164.471 390.316 164.346 391.885 164.346H392.831C394.357 164.346 395.684 164.449 396.813 164.654C397.943 164.859 398.903 165.131 399.695 165.468C400.487 165.805 401.14 166.194 401.653 166.634C402.167 167.059 402.57 167.499 402.863 167.954C403.157 168.409 403.362 168.863 403.479 169.318C403.597 169.773 403.663 170.183 403.677 170.55V170.572H398.221C398.192 170.484 398.111 170.315 397.979 170.066C397.847 169.802 397.576 169.538 397.165 169.274C396.769 168.995 396.19 168.753 395.427 168.548C394.679 168.343 393.667 168.24 392.391 168.24C391.145 168.24 390.118 168.365 389.311 168.614C388.505 168.863 387.867 169.193 387.397 169.604C386.943 170.015 386.62 170.484 386.429 171.012C386.253 171.54 386.165 172.09 386.165 172.662V172.904C386.165 173.432 386.275 173.96 386.495 174.488C386.715 175.016 387.067 175.493 387.551 175.918C388.05 176.329 388.688 176.666 389.465 176.93C390.257 177.179 391.218 177.304 392.347 177.304C393.565 177.304 394.577 177.209 395.383 177.018C396.205 176.813 396.857 176.578 397.341 176.314C397.825 176.05 398.17 175.793 398.375 175.544C398.581 175.28 398.683 175.089 398.683 174.972V174.928H392.259V171.826H403.787V181H400.707C400.693 180.853 400.663 180.67 400.619 180.45C400.575 180.23 400.524 180.003 400.465 179.768C400.407 179.519 400.341 179.284 400.267 179.064C400.194 178.829 400.121 178.624 400.047 178.448C399.871 178.653 399.6 178.917 399.233 179.24C398.867 179.563 398.368 179.878 397.737 180.186C397.121 180.479 396.351 180.736 395.427 180.956C394.518 181.176 393.433 181.286 392.171 181.286H391.709Z" fill="#292929"/>
<path d="M411.841 164.632L422.291 174.928V164.632H427.351V181H422.291L411.181 170.154V181H406.121V164.632H411.841Z" fill="#292929"/>
<path d="M802.922 356.634H823.272V373.002H818.146V360.594H808.048V373.002H802.922V356.634Z" fill="#292929"/>
<path d="M837.533 356.348C839.249 356.348 840.723 356.48 841.955 356.744C843.187 357.008 844.228 357.36 845.079 357.8C845.944 358.24 846.634 358.746 847.147 359.318C847.66 359.875 848.056 360.454 848.335 361.056C848.628 361.642 848.819 362.236 848.907 362.838C848.995 363.424 849.039 363.96 849.039 364.444V365.104C849.039 365.588 848.995 366.123 848.907 366.71C848.819 367.296 848.636 367.898 848.357 368.514C848.078 369.115 847.675 369.702 847.147 370.274C846.634 370.846 845.951 371.359 845.101 371.814C844.25 372.254 843.202 372.613 841.955 372.892C840.723 373.156 839.249 373.288 837.533 373.288H836.587C834.856 373.288 833.368 373.156 832.121 372.892C830.889 372.613 829.848 372.254 828.997 371.814C828.146 371.359 827.457 370.846 826.929 370.274C826.415 369.702 826.02 369.115 825.741 368.514C825.462 367.898 825.279 367.296 825.191 366.71C825.103 366.123 825.059 365.588 825.059 365.104V364.444C825.059 363.96 825.103 363.424 825.191 362.838C825.279 362.236 825.462 361.642 825.741 361.056C826.02 360.454 826.415 359.875 826.929 359.318C827.457 358.746 828.146 358.24 828.997 357.8C829.848 357.36 830.889 357.008 832.121 356.744C833.368 356.48 834.856 356.348 836.587 356.348H837.533ZM843.671 364.598C843.671 364.128 843.583 363.644 843.407 363.146C843.246 362.632 842.923 362.17 842.439 361.76C841.955 361.334 841.28 360.99 840.415 360.726C839.55 360.447 838.428 360.308 837.049 360.308C835.641 360.308 834.504 360.447 833.639 360.726C832.774 360.99 832.099 361.334 831.615 361.76C831.146 362.17 830.83 362.632 830.669 363.146C830.508 363.644 830.427 364.128 830.427 364.598V364.862C830.427 365.331 830.508 365.83 830.669 366.358C830.845 366.871 831.175 367.348 831.659 367.788C832.143 368.228 832.817 368.594 833.683 368.888C834.548 369.166 835.67 369.306 837.049 369.306C838.428 369.306 839.542 369.166 840.393 368.888C841.258 368.609 841.933 368.257 842.417 367.832C842.901 367.392 843.231 366.915 843.407 366.402C843.583 365.874 843.671 365.375 843.671 364.906V364.598Z" fill="#292929"/>
<path d="M861.044 373.288C859.46 373.288 858.089 373.156 856.93 372.892C855.786 372.613 854.803 372.254 853.982 371.814C853.175 371.359 852.515 370.846 852.002 370.274C851.503 369.702 851.107 369.115 850.814 368.514C850.535 367.898 850.345 367.296 850.242 366.71C850.139 366.108 850.088 365.566 850.088 365.082V364.444C850.088 363.945 850.132 363.402 850.22 362.816C850.323 362.214 850.506 361.62 850.77 361.034C851.049 360.432 851.437 359.853 851.936 359.296C852.435 358.724 853.087 358.225 853.894 357.8C854.715 357.36 855.705 357.008 856.864 356.744C858.037 356.48 859.431 356.348 861.044 356.348H861.946C863.53 356.348 864.901 356.465 866.06 356.7C867.219 356.92 868.201 357.22 869.008 357.602C869.815 357.968 870.467 358.386 870.966 358.856C871.479 359.325 871.875 359.802 872.154 360.286C872.447 360.755 872.645 361.21 872.748 361.65C872.851 362.09 872.902 362.471 872.902 362.794V363.036H867.468C867.439 362.933 867.351 362.735 867.204 362.442C867.072 362.134 866.793 361.826 866.368 361.518C865.957 361.195 865.363 360.916 864.586 360.682C863.823 360.432 862.789 360.308 861.484 360.308C860.252 360.308 859.247 360.432 858.47 360.682C857.693 360.931 857.077 361.261 856.622 361.672C856.182 362.068 855.874 362.522 855.698 363.036C855.537 363.534 855.456 364.04 855.456 364.554V364.818C855.456 365.302 855.544 365.808 855.72 366.336C855.911 366.864 856.233 367.348 856.688 367.788C857.157 368.228 857.781 368.594 858.558 368.888C859.35 369.166 860.34 369.306 861.528 369.306C862.848 369.306 863.897 369.174 864.674 368.91C865.451 368.646 866.045 368.345 866.456 368.008C866.867 367.656 867.131 367.326 867.248 367.018C867.38 366.695 867.461 366.49 867.49 366.402H872.924V366.644C872.924 366.981 872.865 367.384 872.748 367.854C872.645 368.323 872.447 368.807 872.154 369.306C871.861 369.79 871.457 370.274 870.944 370.758C870.431 371.227 869.763 371.652 868.942 372.034C868.135 372.4 867.153 372.701 865.994 372.936C864.85 373.17 863.501 373.288 861.946 373.288H861.044Z" fill="#292929"/>
<path d="M880.611 360.506H873.571V356.634H892.843V360.506H885.781V373.002H880.611V360.506Z" fill="#292929"/>
<path d="M901.384 360.176L898.348 366.314H904.552L901.384 360.176ZM906.444 370.01H896.522L895.048 373.002H889.834L898.106 356.634H904.75L913.506 373.002H907.984L906.444 370.01Z" fill="#292929"/>
<path d="M914.277 356.634H928.291C929.465 356.634 930.433 356.736 931.195 356.942C931.973 357.147 932.589 357.426 933.043 357.778C933.498 358.13 933.813 358.533 933.989 358.988C934.18 359.428 934.275 359.89 934.275 360.374V360.682C934.275 361.21 934.173 361.664 933.967 362.046C933.777 362.427 933.542 362.742 933.263 362.992C932.999 363.241 932.713 363.439 932.405 363.586C932.112 363.718 931.87 363.813 931.679 363.872C931.958 363.945 932.295 364.07 932.691 364.246C933.102 364.407 933.491 364.649 933.857 364.972C934.224 365.28 934.539 365.683 934.803 366.182C935.067 366.666 935.199 367.267 935.199 367.986V368.294C935.199 368.939 935.097 369.548 934.891 370.12C934.686 370.692 934.319 371.19 933.791 371.616C933.278 372.041 932.581 372.378 931.701 372.628C930.836 372.877 929.743 373.002 928.423 373.002H914.277V356.634ZM919.403 360.088V362.75H927.411C927.763 362.75 928.057 362.713 928.291 362.64C928.526 362.566 928.709 362.471 928.841 362.354C928.973 362.222 929.061 362.075 929.105 361.914C929.164 361.752 929.193 361.591 929.193 361.43V361.386C929.193 361.21 929.164 361.048 929.105 360.902C929.061 360.74 928.973 360.601 928.841 360.484C928.709 360.366 928.526 360.271 928.291 360.198C928.057 360.124 927.763 360.088 927.411 360.088H919.403ZM919.403 366.226V369.438H927.851C928.277 369.438 928.621 369.386 928.885 369.284C929.149 369.181 929.355 369.049 929.501 368.888C929.648 368.726 929.743 368.55 929.787 368.36C929.846 368.169 929.875 367.993 929.875 367.832V367.744C929.875 367.568 929.846 367.392 929.787 367.216C929.743 367.025 929.648 366.864 929.501 366.732C929.355 366.585 929.149 366.468 928.885 366.38C928.621 366.277 928.277 366.226 927.851 366.226H919.403Z" fill="#292929"/>
<path d="M936.62 356.634H941.966V369.042H948.874V356.634H954.22V369.042H961.128V356.634H966.474V369.042H969.114V375.752H964.208V373.002H936.62V356.634Z" fill="#292929"/>
<path d="M986.519 362.2L975.541 373.002H970.415V356.634H975.541V367.48L986.519 356.634H991.645V373.002H986.519V362.2Z" fill="#292929"/>
<path d="M999.152 365.28V373.002H994.026V356.634H999.152V363.454L1007.53 356.634H1014.05L1004.63 364.114L1014.49 373.002H1007.8L999.152 365.28Z" fill="#292929"/>
<path d="M618.479 388.634H638.829V405.002H633.703V392.594H623.605V405.002H618.479V388.634Z" fill="#292929"/>
<path d="M646.401 399.546V405.002H641.275V388.634H653.551C655.018 388.634 656.243 388.773 657.225 389.052C658.208 389.316 658.993 389.69 659.579 390.174C660.166 390.658 660.577 391.222 660.811 391.868C661.061 392.513 661.185 393.21 661.185 393.958V394.178C661.185 394.911 661.061 395.608 660.811 396.268C660.562 396.913 660.144 397.478 659.557 397.962C658.971 398.446 658.186 398.834 657.203 399.128C656.235 399.406 655.018 399.546 653.551 399.546H646.401ZM646.401 395.872H653.463C654.27 395.872 654.864 395.725 655.245 395.432C655.641 395.138 655.839 394.713 655.839 394.156V394.09C655.839 393.532 655.649 393.107 655.267 392.814C654.886 392.506 654.285 392.352 653.463 392.352H646.401V395.872Z" fill="#292929"/>
<path d="M674.552 388.348C676.268 388.348 677.742 388.48 678.974 388.744C680.206 389.008 681.248 389.36 682.098 389.8C682.964 390.24 683.653 390.746 684.166 391.318C684.68 391.875 685.076 392.454 685.354 393.056C685.648 393.642 685.838 394.236 685.926 394.838C686.014 395.424 686.058 395.96 686.058 396.444V397.104C686.058 397.588 686.014 398.123 685.926 398.71C685.838 399.296 685.655 399.898 685.376 400.514C685.098 401.115 684.694 401.702 684.166 402.274C683.653 402.846 682.971 403.359 682.12 403.814C681.27 404.254 680.221 404.613 678.974 404.892C677.742 405.156 676.268 405.288 674.552 405.288H673.606C671.876 405.288 670.387 405.156 669.14 404.892C667.908 404.613 666.867 404.254 666.016 403.814C665.166 403.359 664.476 402.846 663.948 402.274C663.435 401.702 663.039 401.115 662.76 400.514C662.482 399.898 662.298 399.296 662.21 398.71C662.122 398.123 662.078 397.588 662.078 397.104V396.444C662.078 395.96 662.122 395.424 662.21 394.838C662.298 394.236 662.482 393.642 662.76 393.056C663.039 392.454 663.435 391.875 663.948 391.318C664.476 390.746 665.166 390.24 666.016 389.8C666.867 389.36 667.908 389.008 669.14 388.744C670.387 388.48 671.876 388.348 673.606 388.348H674.552ZM680.69 396.598C680.69 396.128 680.602 395.644 680.426 395.146C680.265 394.632 679.942 394.17 679.458 393.76C678.974 393.334 678.3 392.99 677.434 392.726C676.569 392.447 675.447 392.308 674.068 392.308C672.66 392.308 671.524 392.447 670.658 392.726C669.793 392.99 669.118 393.334 668.634 393.76C668.165 394.17 667.85 394.632 667.688 395.146C667.527 395.644 667.446 396.128 667.446 396.598V396.862C667.446 397.331 667.527 397.83 667.688 398.358C667.864 398.871 668.194 399.348 668.678 399.788C669.162 400.228 669.837 400.594 670.702 400.888C671.568 401.166 672.69 401.306 674.068 401.306C675.447 401.306 676.562 401.166 677.412 400.888C678.278 400.609 678.952 400.257 679.436 399.832C679.92 399.392 680.25 398.915 680.426 398.402C680.602 397.874 680.69 397.375 680.69 396.906V396.598Z" fill="#292929"/>
<path d="M698.9 388.414H704.026V389.888H708.228C709.196 389.888 710.149 390.012 711.088 390.262C712.026 390.496 712.862 390.87 713.596 391.384C714.344 391.897 714.945 392.564 715.4 393.386C715.854 394.207 716.082 395.197 716.082 396.356V396.598C716.082 397.771 715.854 398.768 715.4 399.59C714.945 400.411 714.351 401.086 713.618 401.614C712.884 402.127 712.048 402.508 711.11 402.758C710.171 402.992 709.218 403.11 708.25 403.11H704.026V405.222H698.9V403.11H694.676C693.708 403.11 692.754 402.992 691.816 402.758C690.877 402.508 690.041 402.127 689.308 401.614C688.574 401.086 687.98 400.411 687.526 399.59C687.071 398.768 686.844 397.771 686.844 396.598V396.378C686.844 395.219 687.071 394.229 687.526 393.408C687.98 392.586 688.574 391.919 689.308 391.406C690.056 390.878 690.899 390.496 691.838 390.262C692.776 390.012 693.73 389.888 694.698 389.888H698.9V388.414ZM704.026 399.37H707.084C708.301 399.37 709.24 399.12 709.9 398.622C710.574 398.123 710.912 397.434 710.912 396.554V396.378C710.912 395.498 710.574 394.823 709.9 394.354C709.225 393.87 708.286 393.628 707.084 393.628H704.026V399.37ZM695.842 393.628C694.624 393.628 693.678 393.87 693.004 394.354C692.344 394.823 692.014 395.498 692.014 396.378V396.554C692.014 397.434 692.344 398.123 693.004 398.622C693.678 399.12 694.624 399.37 695.842 399.37H698.9V393.628H695.842Z" fill="#292929"/>
<path d="M734.922 388.634V392.352H722.734V394.772H734.636V398.512H722.734V401.196H735.142V405.002H717.674V388.634H734.922Z" fill="#292929"/>
<path d="M747.392 405.288C745.808 405.288 744.436 405.156 743.278 404.892C742.134 404.613 741.151 404.254 740.33 403.814C739.523 403.359 738.863 402.846 738.35 402.274C737.851 401.702 737.455 401.115 737.162 400.514C736.883 399.898 736.692 399.296 736.59 398.71C736.487 398.108 736.436 397.566 736.436 397.082V396.444C736.436 395.945 736.48 395.402 736.568 394.816C736.67 394.214 736.854 393.62 737.118 393.034C737.396 392.432 737.785 391.853 738.284 391.296C738.782 390.724 739.435 390.225 740.242 389.8C741.063 389.36 742.053 389.008 743.212 388.744C744.385 388.48 745.778 388.348 747.392 388.348H748.294C749.878 388.348 751.249 388.465 752.408 388.7C753.566 388.92 754.549 389.22 755.356 389.602C756.162 389.968 756.815 390.386 757.314 390.856C757.827 391.325 758.223 391.802 758.502 392.286C758.795 392.755 758.993 393.21 759.096 393.65C759.198 394.09 759.25 394.471 759.25 394.794V395.036H753.816C753.786 394.933 753.698 394.735 753.552 394.442C753.42 394.134 753.141 393.826 752.716 393.518C752.305 393.195 751.711 392.916 750.934 392.682C750.171 392.432 749.137 392.308 747.832 392.308C746.6 392.308 745.595 392.432 744.818 392.682C744.04 392.931 743.424 393.261 742.97 393.672C742.53 394.068 742.222 394.522 742.046 395.036C741.884 395.534 741.804 396.04 741.804 396.554V396.818C741.804 397.302 741.892 397.808 742.068 398.336C742.258 398.864 742.581 399.348 743.036 399.788C743.505 400.228 744.128 400.594 744.906 400.888C745.698 401.166 746.688 401.306 747.876 401.306C749.196 401.306 750.244 401.174 751.022 400.91C751.799 400.646 752.393 400.345 752.804 400.008C753.214 399.656 753.478 399.326 753.596 399.018C753.728 398.695 753.808 398.49 753.838 398.402H759.272V398.644C759.272 398.981 759.213 399.384 759.096 399.854C758.993 400.323 758.795 400.807 758.502 401.306C758.208 401.79 757.805 402.274 757.292 402.758C756.778 403.227 756.111 403.652 755.29 404.034C754.483 404.4 753.5 404.701 752.342 404.936C751.198 405.17 749.848 405.288 748.294 405.288H747.392Z" fill="#292929"/>
<path d="M771.218 405.288C769.634 405.288 768.263 405.156 767.104 404.892C765.96 404.613 764.977 404.254 764.156 403.814C763.349 403.359 762.689 402.846 762.176 402.274C761.677 401.702 761.281 401.115 760.988 400.514C760.709 399.898 760.519 399.296 760.416 398.71C760.313 398.108 760.262 397.566 760.262 397.082V396.444C760.262 395.945 760.306 395.402 760.394 394.816C760.497 394.214 760.68 393.62 760.944 393.034C761.223 392.432 761.611 391.853 762.11 391.296C762.609 390.724 763.261 390.225 764.068 389.8C764.889 389.36 765.879 389.008 767.038 388.744C768.211 388.48 769.605 388.348 771.218 388.348H772.12C773.704 388.348 775.075 388.465 776.234 388.7C777.393 388.92 778.375 389.22 779.182 389.602C779.989 389.968 780.641 390.386 781.14 390.856C781.653 391.325 782.049 391.802 782.328 392.286C782.621 392.755 782.819 393.21 782.922 393.65C783.025 394.09 783.076 394.471 783.076 394.794V395.036H777.642C777.613 394.933 777.525 394.735 777.378 394.442C777.246 394.134 776.967 393.826 776.542 393.518C776.131 393.195 775.537 392.916 774.76 392.682C773.997 392.432 772.963 392.308 771.658 392.308C770.426 392.308 769.421 392.432 768.644 392.682C767.867 392.931 767.251 393.261 766.796 393.672C766.356 394.068 766.048 394.522 765.872 395.036C765.711 395.534 765.63 396.04 765.63 396.554V396.818C765.63 397.302 765.718 397.808 765.894 398.336C766.085 398.864 766.407 399.348 766.862 399.788C767.331 400.228 767.955 400.594 768.732 400.888C769.524 401.166 770.514 401.306 771.702 401.306C773.022 401.306 774.071 401.174 774.848 400.91C775.625 400.646 776.219 400.345 776.63 400.008C777.041 399.656 777.305 399.326 777.422 399.018C777.554 398.695 777.635 398.49 777.664 398.402H783.098V398.644C783.098 398.981 783.039 399.384 782.922 399.854C782.819 400.323 782.621 400.807 782.328 401.306C782.035 401.79 781.631 402.274 781.118 402.758C780.605 403.227 779.937 403.652 779.116 404.034C778.309 404.4 777.327 404.701 776.168 404.936C775.024 405.17 773.675 405.288 772.12 405.288H771.218Z" fill="#292929"/>
<path d="M800.786 394.2L789.808 405.002H784.682V388.634H789.808V399.48L800.786 388.634H805.912V405.002H800.786V394.2Z" fill="#292929"/>
<path d="M820.173 388.348C821.889 388.348 823.363 388.48 824.595 388.744C825.827 389.008 826.869 389.36 827.719 389.8C828.585 390.24 829.274 390.746 829.787 391.318C830.301 391.875 830.697 392.454 830.975 393.056C831.269 393.642 831.459 394.236 831.547 394.838C831.635 395.424 831.679 395.96 831.679 396.444V397.104C831.679 397.588 831.635 398.123 831.547 398.71C831.459 399.296 831.276 399.898 830.997 400.514C830.719 401.115 830.315 401.702 829.787 402.274C829.274 402.846 828.592 403.359 827.741 403.814C826.891 404.254 825.842 404.613 824.595 404.892C823.363 405.156 821.889 405.288 820.173 405.288H819.227C817.497 405.288 816.008 405.156 814.761 404.892C813.529 404.613 812.488 404.254 811.637 403.814C810.787 403.359 810.097 402.846 809.569 402.274C809.056 401.702 808.66 401.115 808.381 400.514C808.103 399.898 807.919 399.296 807.831 398.71C807.743 398.123 807.699 397.588 807.699 397.104V396.444C807.699 395.96 807.743 395.424 807.831 394.838C807.919 394.236 808.103 393.642 808.381 393.056C808.66 392.454 809.056 391.875 809.569 391.318C810.097 390.746 810.787 390.24 811.637 389.8C812.488 389.36 813.529 389.008 814.761 388.744C816.008 388.48 817.497 388.348 819.227 388.348H820.173ZM826.311 396.598C826.311 396.128 826.223 395.644 826.047 395.146C825.886 394.632 825.563 394.17 825.079 393.76C824.595 393.334 823.921 392.99 823.055 392.726C822.19 392.447 821.068 392.308 819.689 392.308C818.281 392.308 817.145 392.447 816.279 392.726C815.414 392.99 814.739 393.334 814.255 393.76C813.786 394.17 813.471 394.632 813.309 395.146C813.148 395.644 813.067 396.128 813.067 396.598V396.862C813.067 397.331 813.148 397.83 813.309 398.358C813.485 398.871 813.815 399.348 814.299 399.788C814.783 400.228 815.458 400.594 816.323 400.888C817.189 401.166 818.311 401.306 819.689 401.306C821.068 401.306 822.183 401.166 823.033 400.888C823.899 400.609 824.573 400.257 825.057 399.832C825.541 399.392 825.871 398.915 826.047 398.402C826.223 397.874 826.311 397.375 826.311 396.906V396.598Z" fill="#292929"/>
<path d="M833.323 388.634H838.449V394.596H849.449V388.634H854.575V405.002H849.449V398.556H838.449V405.002H833.323V388.634Z" fill="#292929"/>
<path d="M866.966 392.176L863.93 398.314H870.134L866.966 392.176ZM872.026 402.01H862.104L860.63 405.002H855.416L863.688 388.634H870.332L879.088 405.002H873.566L872.026 402.01Z" fill="#292929"/>
<path d="M894.379 392.374H886.591C886.591 393.708 886.577 394.874 886.547 395.872C886.518 396.854 886.467 397.712 886.393 398.446C886.335 399.164 886.261 399.773 886.173 400.272C886.1 400.756 886.005 401.174 885.887 401.526C885.785 401.863 885.667 402.156 885.535 402.406C885.418 402.64 885.293 402.86 885.161 403.066C884.956 403.374 884.721 403.652 884.457 403.902C884.208 404.136 883.907 404.342 883.555 404.518C883.203 404.679 882.785 404.804 882.301 404.892C881.817 404.965 881.245 405.002 880.585 405.002H879.155V400.932H879.485C879.881 400.932 880.204 400.895 880.453 400.822C880.717 400.748 880.945 400.594 881.135 400.36C881.297 400.154 881.436 399.832 881.553 399.392C881.671 398.952 881.759 398.292 881.817 397.412C881.891 396.532 881.942 395.388 881.971 393.98C882.001 392.572 882.015 390.79 882.015 388.634H899.505V405.002H894.379V392.374Z" fill="#292929"/>
<path d="M913.385 393.65C915.072 393.65 916.458 393.796 917.543 394.09C918.629 394.383 919.479 394.786 920.095 395.3C920.726 395.798 921.159 396.385 921.393 397.06C921.643 397.72 921.767 398.431 921.767 399.194V399.414C921.767 400.176 921.65 400.902 921.415 401.592C921.181 402.266 920.748 402.86 920.117 403.374C919.501 403.872 918.643 404.268 917.543 404.562C916.458 404.855 915.065 405.002 913.363 405.002H901.879V388.634H907.005V393.65H913.385ZM913.231 401.306C913.862 401.306 914.383 401.254 914.793 401.152C915.204 401.049 915.527 400.91 915.761 400.734C916.011 400.543 916.179 400.33 916.267 400.096C916.37 399.846 916.421 399.59 916.421 399.326V399.26C916.421 398.981 916.37 398.724 916.267 398.49C916.179 398.255 916.011 398.05 915.761 397.874C915.527 397.698 915.204 397.566 914.793 397.478C914.383 397.375 913.862 397.324 913.231 397.324H907.005V401.306H913.231Z" fill="#292929"/>
<path d="M923.321 388.634H928.447V394.596H939.447V388.634H944.573V405.002H939.447V398.556H928.447V405.002H923.321V388.634Z" fill="#292929"/>
<path d="M958.834 388.348C960.55 388.348 962.024 388.48 963.256 388.744C964.488 389.008 965.529 389.36 966.38 389.8C967.245 390.24 967.934 390.746 968.448 391.318C968.961 391.875 969.357 392.454 969.636 393.056C969.929 393.642 970.12 394.236 970.208 394.838C970.296 395.424 970.34 395.96 970.34 396.444V397.104C970.34 397.588 970.296 398.123 970.208 398.71C970.12 399.296 969.936 399.898 969.658 400.514C969.379 401.115 968.976 401.702 968.448 402.274C967.934 402.846 967.252 403.359 966.402 403.814C965.551 404.254 964.502 404.613 963.256 404.892C962.024 405.156 960.55 405.288 958.834 405.288H957.888C956.157 405.288 954.668 405.156 953.422 404.892C952.19 404.613 951.148 404.254 950.298 403.814C949.447 403.359 948.758 402.846 948.23 402.274C947.716 401.702 947.32 401.115 947.042 400.514C946.763 399.898 946.58 399.296 946.492 398.71C946.404 398.123 946.36 397.588 946.36 397.104V396.444C946.36 395.96 946.404 395.424 946.492 394.838C946.58 394.236 946.763 393.642 947.042 393.056C947.32 392.454 947.716 391.875 948.23 391.318C948.758 390.746 949.447 390.24 950.298 389.8C951.148 389.36 952.19 389.008 953.422 388.744C954.668 388.48 956.157 388.348 957.888 388.348H958.834ZM964.972 396.598C964.972 396.128 964.884 395.644 964.708 395.146C964.546 394.632 964.224 394.17 963.74 393.76C963.256 393.334 962.581 392.99 961.716 392.726C960.85 392.447 959.728 392.308 958.35 392.308C956.942 392.308 955.805 392.447 954.94 392.726C954.074 392.99 953.4 393.334 952.916 393.76C952.446 394.17 952.131 394.632 951.97 395.146C951.808 395.644 951.728 396.128 951.728 396.598V396.862C951.728 397.331 951.808 397.83 951.97 398.358C952.146 398.871 952.476 399.348 952.96 399.788C953.444 400.228 954.118 400.594 954.984 400.888C955.849 401.166 956.971 401.306 958.35 401.306C959.728 401.306 960.843 401.166 961.694 400.888C962.559 400.609 963.234 400.257 963.718 399.832C964.202 399.392 964.532 398.915 964.708 398.402C964.884 397.874 964.972 397.375 964.972 396.906V396.598Z" fill="#292929"/>
<path d="M971.983 388.634H988.417V392.594H977.109V405.002H971.983V388.634Z" fill="#292929"/>
<path d="M1002.04 388.348C1003.75 388.348 1005.23 388.48 1006.46 388.744C1007.69 389.008 1008.73 389.36 1009.58 389.8C1010.45 390.24 1011.14 390.746 1011.65 391.318C1012.17 391.875 1012.56 392.454 1012.84 393.056C1013.13 393.642 1013.32 394.236 1013.41 394.838C1013.5 395.424 1013.54 395.96 1013.54 396.444V397.104C1013.54 397.588 1013.5 398.123 1013.41 398.71C1013.32 399.296 1013.14 399.898 1012.86 400.514C1012.58 401.115 1012.18 401.702 1011.65 402.274C1011.14 402.846 1010.46 403.359 1009.61 403.814C1008.76 404.254 1007.71 404.613 1006.46 404.892C1005.23 405.156 1003.75 405.288 1002.04 405.288H1001.09C999.362 405.288 997.873 405.156 996.627 404.892C995.395 404.613 994.353 404.254 993.503 403.814C992.652 403.359 991.963 402.846 991.435 402.274C990.921 401.702 990.525 401.115 990.247 400.514C989.968 399.898 989.785 399.296 989.697 398.71C989.609 398.123 989.565 397.588 989.565 397.104V396.444C989.565 395.96 989.609 395.424 989.697 394.838C989.785 394.236 989.968 393.642 990.247 393.056C990.525 392.454 990.921 391.875 991.435 391.318C991.963 390.746 992.652 390.24 993.503 389.8C994.353 389.36 995.395 389.008 996.627 388.744C997.873 388.48 999.362 388.348 1001.09 388.348H1002.04ZM1008.18 396.598C1008.18 396.128 1008.09 395.644 1007.91 395.146C1007.75 394.632 1007.43 394.17 1006.94 393.76C1006.46 393.334 1005.79 392.99 1004.92 392.726C1004.06 392.447 1002.93 392.308 1001.55 392.308C1000.15 392.308 999.01 392.447 998.145 392.726C997.279 392.99 996.605 393.334 996.121 393.76C995.651 394.17 995.336 394.632 995.175 395.146C995.013 395.644 994.933 396.128 994.933 396.598V396.862C994.933 397.331 995.013 397.83 995.175 398.358C995.351 398.871 995.681 399.348 996.165 399.788C996.649 400.228 997.323 400.594 998.189 400.888C999.054 401.166 1000.18 401.306 1001.55 401.306C1002.93 401.306 1004.05 401.166 1004.9 400.888C1005.76 400.609 1006.44 400.257 1006.92 399.832C1007.41 399.392 1007.74 398.915 1007.91 398.402C1008.09 397.874 1008.18 397.375 1008.18 396.906V396.598Z" fill="#292929"/>
<path d="M566.155 426.2L555.177 437.002H550.051V420.634H555.177V431.48L566.155 420.634H571.281V437.002H566.155V426.2Z" fill="#292929"/>
<path d="M573.663 420.634H578.789V426.596H589.789V420.634H594.915V437.002H589.789V430.556H578.789V437.002H573.663V420.634Z" fill="#292929"/>
<path d="M607.657 437.288C606.073 437.288 604.702 437.156 603.543 436.892C602.399 436.613 601.417 436.254 600.595 435.814C599.789 435.359 599.129 434.846 598.615 434.274C598.117 433.702 597.721 433.115 597.427 432.514C597.149 431.898 596.958 431.296 596.855 430.71C596.753 430.108 596.701 429.566 596.701 429.082V428.444C596.701 427.945 596.745 427.402 596.833 426.816C596.936 426.214 597.119 425.62 597.383 425.034C597.662 424.432 598.051 423.853 598.549 423.296C599.048 422.724 599.701 422.225 600.507 421.8C601.329 421.36 602.319 421.008 603.477 420.744C604.651 420.48 606.044 420.348 607.657 420.348H608.559C610.143 420.348 611.515 420.465 612.673 420.7C613.832 420.92 614.815 421.22 615.621 421.602C616.428 421.968 617.081 422.386 617.579 422.856C618.093 423.325 618.489 423.802 618.767 424.286C619.061 424.755 619.259 425.21 619.361 425.65C619.464 426.09 619.515 426.471 619.515 426.794V427.036H614.081C614.052 426.933 613.964 426.735 613.817 426.442C613.685 426.134 613.407 425.826 612.981 425.518C612.571 425.195 611.977 424.916 611.199 424.682C610.437 424.432 609.403 424.308 608.097 424.308C606.865 424.308 605.861 424.432 605.083 424.682C604.306 424.931 603.69 425.261 603.235 425.672C602.795 426.068 602.487 426.522 602.311 427.036C602.15 427.534 602.069 428.04 602.069 428.554V428.818C602.069 429.302 602.157 429.808 602.333 430.336C602.524 430.864 602.847 431.348 603.301 431.788C603.771 432.228 604.394 432.594 605.171 432.888C605.963 433.166 606.953 433.306 608.141 433.306C609.461 433.306 610.51 433.174 611.287 432.91C612.065 432.646 612.659 432.345 613.069 432.008C613.48 431.656 613.744 431.326 613.861 431.018C613.993 430.695 614.074 430.49 614.103 430.402H619.537V430.644C619.537 430.981 619.479 431.384 619.361 431.854C619.259 432.323 619.061 432.807 618.767 433.306C618.474 433.79 618.071 434.274 617.557 434.758C617.044 435.227 616.377 435.652 615.555 436.034C614.749 436.4 613.766 436.701 612.607 436.936C611.463 437.17 610.114 437.288 608.559 437.288H607.657Z" fill="#292929"/>
<path d="M627.224 424.506H620.184V420.634H639.456V424.506H632.394V437.002H627.224V424.506Z" fill="#292929"/>
<path d="M646.316 431.546V437.002H641.19V420.634H653.466C654.932 420.634 656.157 420.773 657.14 421.052C658.122 421.316 658.907 421.69 659.494 422.174C660.08 422.658 660.491 423.222 660.726 423.868C660.975 424.513 661.1 425.21 661.1 425.958V426.178C661.1 426.911 660.975 427.608 660.726 428.268C660.476 428.913 660.058 429.478 659.472 429.962C658.885 430.446 658.1 430.834 657.118 431.128C656.15 431.406 654.932 431.546 653.466 431.546H646.316ZM646.316 427.872H653.378C654.184 427.872 654.778 427.725 655.16 427.432C655.556 427.138 655.754 426.713 655.754 426.156V426.09C655.754 425.532 655.563 425.107 655.182 424.814C654.8 424.506 654.199 424.352 653.378 424.352H646.316V427.872Z" fill="#292929"/>
<path d="M673.278 433.218C672.867 433.907 672.5 434.494 672.178 434.978C671.855 435.447 671.503 435.836 671.122 436.144C670.74 436.437 670.293 436.657 669.78 436.804C669.281 436.936 668.636 437.002 667.844 437.002H664.632V433.042H667.514C667.748 433.042 667.902 433.012 667.976 432.954C668.049 432.88 668.086 432.792 668.086 432.69V432.668C668.086 432.536 668.049 432.411 667.976 432.294C667.917 432.176 667.836 432.044 667.734 431.898L660.012 420.634H665.952L671.034 428.576L675.654 420.634H680.802L673.278 433.218Z" fill="#292929"/>
<path d="M681.559 420.634H688.841L694.495 430.82L700.171 420.634H707.189V437.002H702.129V425.672L695.683 437.002H692.933L686.487 425.672V437.002H681.559V420.634Z" fill="#292929"/>
<path d="M726.822 420.634V424.352H714.634V426.772H726.536V430.512H714.634V433.196H727.042V437.002H709.574V420.634H726.822Z" fill="#292929"/>
<path d="M728.973 420.634H734.099V426.596H745.099V420.634H750.225V437.002H745.099V430.556H734.099V437.002H728.973V420.634Z" fill="#292929"/>
<path d="M759.074 424.506H752.034V420.634H771.306V424.506H764.244V437.002H759.074V424.506Z" fill="#292929"/>
<path d="M779.846 424.176L776.81 430.314H783.014L779.846 424.176ZM784.906 434.01H774.984L773.51 437.002H768.296L776.568 420.634H783.212L791.968 437.002H786.446L784.906 434.01Z" fill="#292929"/>
<path d="M793.945 439.158C794.136 438.791 794.304 438.424 794.451 438.058C794.598 437.691 794.7 437.339 794.759 437.002H792.471V433.152H797.773V436.342C797.773 436.562 797.736 436.796 797.663 437.046C797.604 437.31 797.524 437.566 797.421 437.816C797.333 438.065 797.223 438.307 797.091 438.542C796.974 438.776 796.856 438.982 796.739 439.158H793.945Z" fill="#292929"/>
<path d="M816.499 424.176L813.463 430.314H819.667L816.499 424.176ZM821.559 434.01H811.637L810.163 437.002H804.949L813.221 420.634H819.865L828.621 437.002H823.099L821.559 434.01Z" fill="#292929"/>
<path d="M829.393 420.634H843.407C844.58 420.634 845.548 420.736 846.311 420.942C847.088 421.147 847.704 421.426 848.159 421.778C848.613 422.13 848.929 422.533 849.105 422.988C849.295 423.428 849.391 423.89 849.391 424.374V424.682C849.391 425.21 849.288 425.664 849.083 426.046C848.892 426.427 848.657 426.742 848.379 426.992C848.115 427.241 847.829 427.439 847.521 427.586C847.227 427.718 846.985 427.813 846.795 427.872C847.073 427.945 847.411 428.07 847.807 428.246C848.217 428.407 848.606 428.649 848.973 428.972C849.339 429.28 849.655 429.683 849.919 430.182C850.183 430.666 850.315 431.267 850.315 431.986V432.294C850.315 432.939 850.212 433.548 850.007 434.12C849.801 434.692 849.435 435.19 848.907 435.616C848.393 436.041 847.697 436.378 846.817 436.628C845.951 436.877 844.859 437.002 843.539 437.002H829.393V420.634ZM834.519 424.088V426.75H842.527C842.879 426.75 843.172 426.713 843.407 426.64C843.641 426.566 843.825 426.471 843.957 426.354C844.089 426.222 844.177 426.075 844.221 425.914C844.279 425.752 844.309 425.591 844.309 425.43V425.386C844.309 425.21 844.279 425.048 844.221 424.902C844.177 424.74 844.089 424.601 843.957 424.484C843.825 424.366 843.641 424.271 843.407 424.198C843.172 424.124 842.879 424.088 842.527 424.088H834.519ZM834.519 430.226V433.438H842.967C843.392 433.438 843.737 433.386 844.001 433.284C844.265 433.181 844.47 433.049 844.617 432.888C844.763 432.726 844.859 432.55 844.903 432.36C844.961 432.169 844.991 431.993 844.991 431.832V431.744C844.991 431.568 844.961 431.392 844.903 431.216C844.859 431.025 844.763 430.864 844.617 430.732C844.47 430.585 844.265 430.468 844.001 430.38C843.737 430.277 843.392 430.226 842.967 430.226H834.519Z" fill="#292929"/>
<path d="M857.773 424.506H850.733V420.634H870.005V424.506H862.943V437.002H857.773V424.506Z" fill="#292929"/>
<path d="M882.886 420.348C884.602 420.348 886.076 420.48 887.308 420.744C888.54 421.008 889.582 421.36 890.432 421.8C891.298 422.24 891.987 422.746 892.5 423.318C893.014 423.875 893.41 424.454 893.688 425.056C893.982 425.642 894.172 426.236 894.26 426.838C894.348 427.424 894.392 427.96 894.392 428.444V429.104C894.392 429.588 894.348 430.123 894.26 430.71C894.172 431.296 893.989 431.898 893.71 432.514C893.432 433.115 893.028 433.702 892.5 434.274C891.987 434.846 891.305 435.359 890.454 435.814C889.604 436.254 888.555 436.613 887.308 436.892C886.076 437.156 884.602 437.288 882.886 437.288H881.94C880.21 437.288 878.721 437.156 877.474 436.892C876.242 436.613 875.201 436.254 874.35 435.814C873.5 435.359 872.81 434.846 872.282 434.274C871.769 433.702 871.373 433.115 871.094 432.514C870.816 431.898 870.632 431.296 870.544 430.71C870.456 430.123 870.412 429.588 870.412 429.104V428.444C870.412 427.96 870.456 427.424 870.544 426.838C870.632 426.236 870.816 425.642 871.094 425.056C871.373 424.454 871.769 423.875 872.282 423.318C872.81 422.746 873.5 422.24 874.35 421.8C875.201 421.36 876.242 421.008 877.474 420.744C878.721 420.48 880.21 420.348 881.94 420.348H882.886ZM889.024 428.598C889.024 428.128 888.936 427.644 888.76 427.146C888.599 426.632 888.276 426.17 887.792 425.76C887.308 425.334 886.634 424.99 885.768 424.726C884.903 424.447 883.781 424.308 882.402 424.308C880.994 424.308 879.858 424.447 878.992 424.726C878.127 424.99 877.452 425.334 876.968 425.76C876.499 426.17 876.184 426.632 876.022 427.146C875.861 427.644 875.78 428.128 875.78 428.598V428.862C875.78 429.331 875.861 429.83 876.022 430.358C876.198 430.871 876.528 431.348 877.012 431.788C877.496 432.228 878.171 432.594 879.036 432.888C879.902 433.166 881.024 433.306 882.402 433.306C883.781 433.306 884.896 433.166 885.746 432.888C886.612 432.609 887.286 432.257 887.77 431.832C888.254 431.392 888.584 430.915 888.76 430.402C888.936 429.874 889.024 429.375 889.024 428.906V428.598Z" fill="#292929"/>
<path d="M892.759 437.002L900.899 428.73L892.935 420.634H899.799L904.419 425.43L909.039 420.634H915.331L907.477 428.62L915.507 437.002H909.061L904.045 431.92L899.073 437.002H892.759Z" fill="#292929"/>
<path d="M932.442 426.2L921.464 437.002H916.338V420.634H921.464V431.48L932.442 420.634H937.568V437.002H932.442V426.2Z" fill="#292929"/>
<path d="M940.016 420.634H947.298L952.952 430.82L958.628 420.634H965.646V437.002H960.586V425.672L954.14 437.002H951.39L944.944 425.672V437.002H940.016V420.634Z" fill="#292929"/>
<path d="M984.069 426.2L973.091 437.002H967.965V420.634H973.091V431.48L984.069 420.634H989.195V437.002H984.069V426.2Z" fill="#292929"/>
<path d="M1007.68 426.2L996.703 437.002H991.577V420.634H996.703V431.48L1007.68 420.634H1012.81V437.002H1007.68V426.2Z" fill="#292929"/>
<path d="M672.718 458.2L661.74 469.002H656.614V452.634H661.74V463.48L672.718 452.634H677.844V469.002H672.718V458.2Z" fill="#292929"/>
<path d="M697.003 456.176L693.967 462.314H700.171L697.003 456.176ZM702.063 466.01H692.141L690.667 469.002H685.453L693.725 452.634H700.369L709.125 469.002H703.603L702.063 466.01Z" fill="#292929"/>
<path d="M709.897 452.634H723.911C725.084 452.634 726.052 452.736 726.815 452.942C727.592 453.147 728.208 453.426 728.663 453.778C729.117 454.13 729.433 454.533 729.609 454.988C729.799 455.428 729.895 455.89 729.895 456.374V456.682C729.895 457.21 729.792 457.664 729.587 458.046C729.396 458.427 729.161 458.742 728.883 458.992C728.619 459.241 728.333 459.439 728.025 459.586C727.731 459.718 727.489 459.813 727.299 459.872C727.577 459.945 727.915 460.07 728.311 460.246C728.721 460.407 729.11 460.649 729.477 460.972C729.843 461.28 730.159 461.683 730.423 462.182C730.687 462.666 730.819 463.267 730.819 463.986V464.294C730.819 464.939 730.716 465.548 730.511 466.12C730.305 466.692 729.939 467.19 729.411 467.616C728.897 468.041 728.201 468.378 727.321 468.628C726.455 468.877 725.363 469.002 724.043 469.002H709.897V452.634ZM715.023 456.088V458.75H723.031C723.383 458.75 723.676 458.713 723.911 458.64C724.145 458.566 724.329 458.471 724.461 458.354C724.593 458.222 724.681 458.075 724.725 457.914C724.783 457.752 724.813 457.591 724.813 457.43V457.386C724.813 457.21 724.783 457.048 724.725 456.902C724.681 456.74 724.593 456.601 724.461 456.484C724.329 456.366 724.145 456.271 723.911 456.198C723.676 456.124 723.383 456.088 723.031 456.088H715.023ZM715.023 462.226V465.438H723.471C723.896 465.438 724.241 465.386 724.505 465.284C724.769 465.181 724.974 465.049 725.121 464.888C725.267 464.726 725.363 464.55 725.407 464.36C725.465 464.169 725.495 463.993 725.495 463.832V463.744C725.495 463.568 725.465 463.392 725.407 463.216C725.363 463.025 725.267 462.864 725.121 462.732C724.974 462.585 724.769 462.468 724.505 462.38C724.241 462.277 723.896 462.226 723.471 462.226H715.023Z" fill="#292929"/>
<path d="M738.277 456.506H731.237V452.634H750.509V456.506H743.447V469.002H738.277V456.506Z" fill="#292929"/>
<path d="M763.39 452.348C765.106 452.348 766.58 452.48 767.812 452.744C769.044 453.008 770.086 453.36 770.936 453.8C771.802 454.24 772.491 454.746 773.004 455.318C773.518 455.875 773.914 456.454 774.192 457.056C774.486 457.642 774.676 458.236 774.764 458.838C774.852 459.424 774.896 459.96 774.896 460.444V461.104C774.896 461.588 774.852 462.123 774.764 462.71C774.676 463.296 774.493 463.898 774.214 464.514C773.936 465.115 773.532 465.702 773.004 466.274C772.491 466.846 771.809 467.359 770.958 467.814C770.108 468.254 769.059 468.613 767.812 468.892C766.58 469.156 765.106 469.288 763.39 469.288H762.444C760.714 469.288 759.225 469.156 757.978 468.892C756.746 468.613 755.705 468.254 754.854 467.814C754.004 467.359 753.314 466.846 752.786 466.274C752.273 465.702 751.877 465.115 751.598 464.514C751.32 463.898 751.136 463.296 751.048 462.71C750.96 462.123 750.916 461.588 750.916 461.104V460.444C750.916 459.96 750.96 459.424 751.048 458.838C751.136 458.236 751.32 457.642 751.598 457.056C751.877 456.454 752.273 455.875 752.786 455.318C753.314 454.746 754.004 454.24 754.854 453.8C755.705 453.36 756.746 453.008 757.978 452.744C759.225 452.48 760.714 452.348 762.444 452.348H763.39ZM769.528 460.598C769.528 460.128 769.44 459.644 769.264 459.146C769.103 458.632 768.78 458.17 768.296 457.76C767.812 457.334 767.138 456.99 766.272 456.726C765.407 456.447 764.285 456.308 762.906 456.308C761.498 456.308 760.362 456.447 759.496 456.726C758.631 456.99 757.956 457.334 757.472 457.76C757.003 458.17 756.688 458.632 756.526 459.146C756.365 459.644 756.284 460.128 756.284 460.598V460.862C756.284 461.331 756.365 461.83 756.526 462.358C756.702 462.871 757.032 463.348 757.516 463.788C758 464.228 758.675 464.594 759.54 464.888C760.406 465.166 761.528 465.306 762.906 465.306C764.285 465.306 765.4 465.166 766.25 464.888C767.116 464.609 767.79 464.257 768.274 463.832C768.758 463.392 769.088 462.915 769.264 462.402C769.44 461.874 769.528 461.375 769.528 460.906V460.598Z" fill="#292929"/>
<path d="M785.239 456.176L782.203 462.314H788.407L785.239 456.176ZM790.299 466.01H780.377L778.903 469.002H773.689L781.961 452.634H788.605L797.361 469.002H791.839L790.299 466.01Z" fill="#292929"/>
<path d="M803.193 461.28V469.002H798.067V452.634H803.193V459.454L811.575 452.634H818.087L808.671 460.114L818.527 469.002H811.839L803.193 461.28Z" fill="#292929"/>
<path d="M827.507 469.288C825.923 469.288 824.552 469.156 823.393 468.892C822.249 468.613 821.266 468.254 820.445 467.814C819.638 467.359 818.978 466.846 818.465 466.274C817.966 465.702 817.57 465.115 817.277 464.514C816.998 463.898 816.808 463.296 816.705 462.71C816.602 462.108 816.551 461.566 816.551 461.082V460.444C816.551 459.945 816.595 459.402 816.683 458.816C816.786 458.214 816.969 457.62 817.233 457.034C817.512 456.432 817.9 455.853 818.399 455.296C818.898 454.724 819.55 454.225 820.357 453.8C821.178 453.36 822.168 453.008 823.327 452.744C824.5 452.48 825.894 452.348 827.507 452.348H828.409C829.993 452.348 831.364 452.465 832.523 452.7C833.682 452.92 834.664 453.22 835.471 453.602C836.278 453.968 836.93 454.386 837.429 454.856C837.942 455.325 838.338 455.802 838.617 456.286C838.91 456.755 839.108 457.21 839.211 457.65C839.314 458.09 839.365 458.471 839.365 458.794V459.036H833.931C833.902 458.933 833.814 458.735 833.667 458.442C833.535 458.134 833.256 457.826 832.831 457.518C832.42 457.195 831.826 456.916 831.049 456.682C830.286 456.432 829.252 456.308 827.947 456.308C826.715 456.308 825.71 456.432 824.933 456.682C824.156 456.931 823.54 457.261 823.085 457.672C822.645 458.068 822.337 458.522 822.161 459.036C822 459.534 821.919 460.04 821.919 460.554V460.818C821.919 461.302 822.007 461.808 822.183 462.336C822.374 462.864 822.696 463.348 823.151 463.788C823.62 464.228 824.244 464.594 825.021 464.888C825.813 465.166 826.803 465.306 827.991 465.306C829.311 465.306 830.36 465.174 831.137 464.91C831.914 464.646 832.508 464.345 832.919 464.008C833.33 463.656 833.594 463.326 833.711 463.018C833.843 462.695 833.924 462.49 833.953 462.402H839.387V462.644C839.387 462.981 839.328 463.384 839.211 463.854C839.108 464.323 838.91 464.807 838.617 465.306C838.324 465.79 837.92 466.274 837.407 466.758C836.894 467.227 836.226 467.652 835.405 468.034C834.598 468.4 833.616 468.701 832.457 468.936C831.313 469.17 829.964 469.288 828.409 469.288H827.507Z" fill="#292929"/>
<path d="M858.285 452.634V456.352H846.097V458.772H857.999V462.512H846.097V465.196H858.505V469.002H841.037V452.634H858.285Z" fill="#292929"/>
<path d="M870.755 469.288C869.171 469.288 867.8 469.156 866.641 468.892C865.497 468.613 864.514 468.254 863.693 467.814C862.886 467.359 862.226 466.846 861.713 466.274C861.214 465.702 860.818 465.115 860.525 464.514C860.246 463.898 860.056 463.296 859.953 462.71C859.85 462.108 859.799 461.566 859.799 461.082V460.444C859.799 459.945 859.843 459.402 859.931 458.816C860.034 458.214 860.217 457.62 860.481 457.034C860.76 456.432 861.148 455.853 861.647 455.296C862.146 454.724 862.798 454.225 863.605 453.8C864.426 453.36 865.416 453.008 866.575 452.744C867.748 452.48 869.142 452.348 870.755 452.348H871.657C873.241 452.348 874.612 452.465 875.771 452.7C876.93 452.92 877.912 453.22 878.719 453.602C879.526 453.968 880.178 454.386 880.677 454.856C881.19 455.325 881.586 455.802 881.865 456.286C882.158 456.755 882.356 457.21 882.459 457.65C882.562 458.09 882.613 458.471 882.613 458.794V459.036H877.179C877.15 458.933 877.062 458.735 876.915 458.442C876.783 458.134 876.504 457.826 876.079 457.518C875.668 457.195 875.074 456.916 874.297 456.682C873.534 456.432 872.5 456.308 871.195 456.308C869.963 456.308 868.958 456.432 868.181 456.682C867.404 456.931 866.788 457.261 866.333 457.672C865.893 458.068 865.585 458.522 865.409 459.036C865.248 459.534 865.167 460.04 865.167 460.554V460.818C865.167 461.302 865.255 461.808 865.431 462.336C865.622 462.864 865.944 463.348 866.399 463.788C866.868 464.228 867.492 464.594 868.269 464.888C869.061 465.166 870.051 465.306 871.239 465.306C872.559 465.306 873.608 465.174 874.385 464.91C875.162 464.646 875.756 464.345 876.167 464.008C876.578 463.656 876.842 463.326 876.959 463.018C877.091 462.695 877.172 462.49 877.201 462.402H882.635V462.644C882.635 462.981 882.576 463.384 882.459 463.854C882.356 464.323 882.158 464.807 881.865 465.306C881.572 465.79 881.168 466.274 880.655 466.758C880.142 467.227 879.474 467.652 878.653 468.034C877.846 468.4 876.864 468.701 875.705 468.936C874.561 469.17 873.212 469.288 871.657 469.288H870.755Z" fill="#292929"/>
<path d="M894.581 469.288C892.997 469.288 891.626 469.156 890.467 468.892C889.323 468.613 888.341 468.254 887.519 467.814C886.713 467.359 886.053 466.846 885.539 466.274C885.041 465.702 884.645 465.115 884.351 464.514C884.073 463.898 883.882 463.296 883.779 462.71C883.677 462.108 883.625 461.566 883.625 461.082V460.444C883.625 459.945 883.669 459.402 883.757 458.816C883.86 458.214 884.043 457.62 884.307 457.034C884.586 456.432 884.975 455.853 885.473 455.296C885.972 454.724 886.625 454.225 887.431 453.8C888.253 453.36 889.243 453.008 890.401 452.744C891.575 452.48 892.968 452.348 894.581 452.348H895.483C897.067 452.348 898.439 452.465 899.597 452.7C900.756 452.92 901.739 453.22 902.545 453.602C903.352 453.968 904.005 454.386 904.503 454.856C905.017 455.325 905.413 455.802 905.691 456.286C905.985 456.755 906.183 457.21 906.285 457.65C906.388 458.09 906.439 458.471 906.439 458.794V459.036H901.005C900.976 458.933 900.888 458.735 900.741 458.442C900.609 458.134 900.331 457.826 899.905 457.518C899.495 457.195 898.901 456.916 898.123 456.682C897.361 456.432 896.327 456.308 895.021 456.308C893.789 456.308 892.785 456.432 892.007 456.682C891.23 456.931 890.614 457.261 890.159 457.672C889.719 458.068 889.411 458.522 889.235 459.036C889.074 459.534 888.993 460.04 888.993 460.554V460.818C888.993 461.302 889.081 461.808 889.257 462.336C889.448 462.864 889.771 463.348 890.225 463.788C890.695 464.228 891.318 464.594 892.095 464.888C892.887 465.166 893.877 465.306 895.065 465.306C896.385 465.306 897.434 465.174 898.211 464.91C898.989 464.646 899.583 464.345 899.993 464.008C900.404 463.656 900.668 463.326 900.785 463.018C900.917 462.695 900.998 462.49 901.027 462.402H906.461V462.644C906.461 462.981 906.403 463.384 906.285 463.854C906.183 464.323 905.985 464.807 905.691 465.306C905.398 465.79 904.995 466.274 904.481 466.758C903.968 467.227 903.301 467.652 902.479 468.034C901.673 468.4 900.69 468.701 899.531 468.936C898.387 469.17 897.038 469.288 895.483 469.288H894.581Z" fill="#292929"/>
<path d="M918.307 465.218C917.896 465.907 917.53 466.494 917.207 466.978C916.884 467.447 916.532 467.836 916.151 468.144C915.77 468.437 915.322 468.657 914.809 468.804C914.31 468.936 913.665 469.002 912.873 469.002H909.661V465.042H912.543C912.778 465.042 912.932 465.012 913.005 464.954C913.078 464.88 913.115 464.792 913.115 464.69V464.668C913.115 464.536 913.078 464.411 913.005 464.294C912.946 464.176 912.866 464.044 912.763 463.898L905.041 452.634H910.981L916.063 460.576L920.683 452.634H925.831L918.307 465.218Z" fill="#292929"/>
<path d="M933.46 456.176L930.424 462.314H936.628L933.46 456.176ZM938.52 466.01H928.598L927.124 469.002H921.91L930.182 452.634H936.826L945.582 469.002H940.06L938.52 466.01Z" fill="#292929"/>
<path d="M951.48 463.546V469.002H946.354V452.634H958.63C960.096 452.634 961.321 452.773 962.304 453.052C963.286 453.316 964.071 453.69 964.658 454.174C965.244 454.658 965.655 455.222 965.89 455.868C966.139 456.513 966.264 457.21 966.264 457.958V458.178C966.264 458.911 966.139 459.608 965.89 460.268C965.64 460.913 965.222 461.478 964.636 461.962C964.049 462.446 963.264 462.834 962.282 463.128C961.314 463.406 960.096 463.546 958.63 463.546H951.48ZM951.48 459.872H958.542C959.348 459.872 959.942 459.725 960.324 459.432C960.72 459.138 960.918 458.713 960.918 458.156V458.09C960.918 457.532 960.727 457.107 960.346 456.814C959.964 456.506 959.363 456.352 958.542 456.352H951.48V459.872Z" fill="#292929"/>
<path d="M979.63 452.348C981.346 452.348 982.82 452.48 984.052 452.744C985.284 453.008 986.326 453.36 987.177 453.8C988.042 454.24 988.731 454.746 989.245 455.318C989.758 455.875 990.154 456.454 990.432 457.056C990.726 457.642 990.917 458.236 991.005 458.838C991.093 459.424 991.137 459.96 991.137 460.444V461.104C991.137 461.588 991.093 462.123 991.005 462.71C990.917 463.296 990.733 463.898 990.454 464.514C990.176 465.115 989.773 465.702 989.245 466.274C988.731 466.846 988.049 467.359 987.198 467.814C986.348 468.254 985.299 468.613 984.052 468.892C982.82 469.156 981.346 469.288 979.63 469.288H978.685C976.954 469.288 975.465 469.156 974.219 468.892C972.987 468.613 971.945 468.254 971.095 467.814C970.244 467.359 969.554 466.846 969.026 466.274C968.513 465.702 968.117 465.115 967.839 464.514C967.56 463.898 967.377 463.296 967.289 462.71C967.201 462.123 967.156 461.588 967.156 461.104V460.444C967.156 459.96 967.201 459.424 967.289 458.838C967.377 458.236 967.56 457.642 967.839 457.056C968.117 456.454 968.513 455.875 969.026 455.318C969.554 454.746 970.244 454.24 971.095 453.8C971.945 453.36 972.987 453.008 974.219 452.744C975.465 452.48 976.954 452.348 978.685 452.348H979.63ZM985.768 460.598C985.768 460.128 985.681 459.644 985.505 459.146C985.343 458.632 985.02 458.17 984.536 457.76C984.052 457.334 983.378 456.99 982.513 456.726C981.647 456.447 980.525 456.308 979.147 456.308C977.739 456.308 976.602 456.447 975.737 456.726C974.871 456.99 974.196 457.334 973.712 457.76C973.243 458.17 972.928 458.632 972.767 459.146C972.605 459.644 972.525 460.128 972.525 460.598V460.862C972.525 461.331 972.605 461.83 972.767 462.358C972.943 462.871 973.272 463.348 973.757 463.788C974.241 464.228 974.915 464.594 975.78 464.888C976.646 465.166 977.768 465.306 979.147 465.306C980.525 465.306 981.64 465.166 982.491 464.888C983.356 464.609 984.03 464.257 984.514 463.832C984.998 463.392 985.329 462.915 985.505 462.402C985.681 461.874 985.768 461.375 985.768 460.906V460.598Z" fill="#292929"/>
<path d="M992.846 452.634H1006.86C1008.03 452.634 1009 452.736 1009.76 452.942C1010.54 453.147 1011.16 453.426 1011.61 453.778C1012.07 454.13 1012.38 454.533 1012.56 454.988C1012.75 455.428 1012.84 455.89 1012.84 456.374V456.682C1012.84 457.21 1012.74 457.664 1012.54 458.046C1012.35 458.427 1012.11 458.742 1011.83 458.992C1011.57 459.241 1011.28 459.439 1010.97 459.586C1010.68 459.718 1010.44 459.813 1010.25 459.872C1010.53 459.945 1010.86 460.07 1011.26 460.246C1011.67 460.407 1012.06 460.649 1012.43 460.972C1012.79 461.28 1013.11 461.683 1013.37 462.182C1013.64 462.666 1013.77 463.267 1013.77 463.986V464.294C1013.77 464.939 1013.67 465.548 1013.46 466.12C1013.25 466.692 1012.89 467.19 1012.36 467.616C1011.85 468.041 1011.15 468.378 1010.27 468.628C1009.4 468.877 1008.31 469.002 1006.99 469.002H992.846V452.634ZM997.972 456.088V458.75H1005.98C1006.33 458.75 1006.63 458.713 1006.86 458.64C1007.09 458.566 1007.28 458.471 1007.41 458.354C1007.54 458.222 1007.63 458.075 1007.67 457.914C1007.73 457.752 1007.76 457.591 1007.76 457.43V457.386C1007.76 457.21 1007.73 457.048 1007.67 456.902C1007.63 456.74 1007.54 456.601 1007.41 456.484C1007.28 456.366 1007.09 456.271 1006.86 456.198C1006.63 456.124 1006.33 456.088 1005.98 456.088H997.972ZM997.972 462.226V465.438H1006.42C1006.85 465.438 1007.19 465.386 1007.45 465.284C1007.72 465.181 1007.92 465.049 1008.07 464.888C1008.22 464.726 1008.31 464.55 1008.36 464.36C1008.41 464.169 1008.44 463.993 1008.44 463.832V463.744C1008.44 463.568 1008.41 463.392 1008.36 463.216C1008.31 463.025 1008.22 462.864 1008.07 462.732C1007.92 462.585 1007.72 462.468 1007.45 462.38C1007.19 462.277 1006.85 462.226 1006.42 462.226H997.972Z" fill="#292929"/>
</svg>
