<svg width="1228" height="604" viewBox="0 0 1228 604" fill="none" xmlns="http://www.w3.org/2000/svg">
<path fill-rule="evenodd" clip-rule="evenodd" d="M1159.11 280.928C1183.98 252.191 1195.24 223.673 1190.38 196.929C1185.53 170.185 1164.96 147.449 1131.57 129.292C1098.2 111.141 1052.17 97.6522 996.712 89.3553C885.816 72.763 737.476 76.9677 577.994 105.935C418.513 134.902 278.17 183.133 180.192 237.664C131.198 264.932 92.8486 293.747 67.9902 322.475C43.1242 351.212 31.8629 379.73 36.7206 406.474C41.5782 433.218 62.1489 455.954 95.5324 474.111C128.906 492.262 174.939 505.751 230.393 514.048C341.289 530.64 489.629 526.435 649.11 497.468C808.592 468.501 948.935 420.271 1046.91 365.74C1095.91 338.472 1134.26 309.656 1159.11 280.928ZM649.289 498.452C968.408 440.489 1211.1 305.413 1191.37 196.75C1171.63 88.0881 896.934 46.9882 577.816 104.951C258.697 162.914 15.9998 297.991 35.7367 406.653C55.4735 515.315 330.17 556.415 649.289 498.452Z" fill="#FF570F"/>
<path d="M220.38 162.447V167.903H215.254V151.535H227.53C228.997 151.535 230.221 151.674 231.204 151.953C232.187 152.217 232.971 152.591 233.558 153.075C234.145 153.559 234.555 154.124 234.79 154.769C235.039 155.414 235.164 156.111 235.164 156.859V157.079C235.164 157.812 235.039 158.509 234.79 159.169C234.541 159.814 234.123 160.379 233.536 160.863C232.949 161.347 232.165 161.736 231.182 162.029C230.214 162.308 228.997 162.447 227.53 162.447H220.38ZM220.38 158.773H227.442C228.249 158.773 228.843 158.626 229.224 158.333C229.62 158.04 229.818 157.614 229.818 157.057V156.991C229.818 156.434 229.627 156.008 229.246 155.715C228.865 155.407 228.263 155.253 227.442 155.253H220.38V158.773Z" fill="#292929"/>
<path d="M241.993 158.465H249.759C250.493 158.465 251.021 158.311 251.343 158.003C251.666 157.695 251.827 157.314 251.827 156.859V156.837C251.827 156.412 251.666 156.045 251.343 155.737C251.035 155.414 250.507 155.253 249.759 155.253H241.993V158.465ZM241.993 167.903H236.867V151.535H250.067C251.431 151.535 252.568 151.645 253.477 151.865C254.387 152.085 255.113 152.393 255.655 152.789C256.213 153.17 256.601 153.618 256.821 154.131C257.056 154.644 257.173 155.194 257.173 155.781V156.045C257.173 156.632 257.063 157.13 256.843 157.541C256.638 157.952 256.374 158.304 256.051 158.597C255.743 158.876 255.413 159.096 255.061 159.257C254.709 159.418 254.401 159.543 254.137 159.631C254.548 159.748 254.944 159.91 255.325 160.115C255.707 160.32 256.037 160.584 256.315 160.907C256.594 161.215 256.814 161.574 256.975 161.985C257.151 162.396 257.239 162.865 257.239 163.393V165.791C257.239 166.451 257.269 166.92 257.327 167.199C257.401 167.463 257.474 167.661 257.547 167.793V167.903H252.333C252.26 167.8 252.201 167.676 252.157 167.529C252.113 167.382 252.091 167.162 252.091 166.869V164.977C252.091 163.98 251.835 163.254 251.321 162.799C250.823 162.33 249.943 162.095 248.681 162.095H241.993V167.903Z" fill="#292929"/>
<path d="M264.38 167.903H259.254V151.535H264.38V167.903Z" fill="#292929"/>
<path d="M266.881 151.535H277.727C279.311 151.535 280.69 151.645 281.863 151.865C283.051 152.07 284.07 152.356 284.921 152.723C285.786 153.09 286.498 153.522 287.055 154.021C287.612 154.52 288.052 155.062 288.375 155.649C288.712 156.221 288.947 156.815 289.079 157.431C289.211 158.047 289.277 158.663 289.277 159.279V159.939C289.277 160.526 289.211 161.134 289.079 161.765C288.962 162.381 288.742 162.982 288.419 163.569C288.096 164.156 287.656 164.713 287.099 165.241C286.542 165.769 285.838 166.231 284.987 166.627C284.136 167.023 283.117 167.338 281.929 167.573C280.741 167.793 279.348 167.903 277.749 167.903H266.881V151.535ZM272.007 163.965H277.331C278.783 163.965 279.942 163.826 280.807 163.547C281.672 163.254 282.332 162.902 282.787 162.491C283.256 162.066 283.557 161.611 283.689 161.127C283.836 160.628 283.909 160.166 283.909 159.741V159.609C283.909 159.198 283.843 158.751 283.711 158.267C283.579 157.768 283.286 157.306 282.831 156.881C282.376 156.456 281.709 156.104 280.829 155.825C279.964 155.546 278.798 155.407 277.331 155.407H272.007V163.965Z" fill="#292929"/>
<path d="M308.278 151.535V155.253H296.09V157.673H307.992V161.413H296.09V164.097H308.498V167.903H291.03V151.535H308.278Z" fill="#292929"/>
<path d="M225.264 197.145C223.797 197.145 222.529 197.006 221.458 196.727C220.387 196.434 219.471 196.052 218.708 195.583C217.96 195.114 217.344 194.578 216.86 193.977C216.391 193.361 216.017 192.738 215.738 192.107C215.474 191.462 215.291 190.824 215.188 190.193C215.1 189.562 215.056 188.99 215.056 188.477V180.535H220.204V188.169C220.204 188.697 220.277 189.24 220.424 189.797C220.571 190.354 220.842 190.868 221.238 191.337C221.634 191.792 222.184 192.166 222.888 192.459C223.592 192.752 224.501 192.899 225.616 192.899C226.716 192.899 227.611 192.752 228.3 192.459C229.004 192.166 229.554 191.792 229.95 191.337C230.346 190.868 230.617 190.354 230.764 189.797C230.911 189.24 230.984 188.697 230.984 188.169V180.535H236.11V188.477C236.11 188.99 236.051 189.562 235.934 190.193C235.831 190.824 235.641 191.462 235.362 192.107C235.083 192.738 234.702 193.361 234.218 193.977C233.749 194.578 233.14 195.114 232.392 195.583C231.644 196.052 230.749 196.434 229.708 196.727C228.667 197.006 227.449 197.145 226.056 197.145H225.264Z" fill="#292929"/>
<path d="M236.725 196.903L244.865 188.631L236.901 180.535H243.765L248.385 185.331L253.005 180.535H259.297L251.443 188.521L259.473 196.903H253.027L248.011 191.821L243.039 196.903H236.725Z" fill="#292929"/>
<path d="M262.258 199.785H258.54L266.174 179.127H269.914L262.258 199.785Z" fill="#292929"/>
<path d="M280.952 197.145C279.485 197.145 278.216 197.006 277.146 196.727C276.075 196.434 275.158 196.052 274.396 195.583C273.648 195.114 273.032 194.578 272.548 193.977C272.078 193.361 271.704 192.738 271.426 192.107C271.162 191.462 270.978 190.824 270.876 190.193C270.788 189.562 270.744 188.99 270.744 188.477V180.535H275.892V188.169C275.892 188.697 275.965 189.24 276.112 189.797C276.258 190.354 276.53 190.868 276.926 191.337C277.322 191.792 277.872 192.166 278.576 192.459C279.28 192.752 280.189 192.899 281.304 192.899C282.404 192.899 283.298 192.752 283.988 192.459C284.692 192.166 285.242 191.792 285.638 191.337C286.034 190.868 286.305 190.354 286.452 189.797C286.598 189.24 286.672 188.697 286.672 188.169V180.535H291.798V188.477C291.798 188.99 291.739 189.562 291.622 190.193C291.519 190.824 291.328 191.462 291.05 192.107C290.771 192.738 290.39 193.361 289.906 193.977C289.436 194.578 288.828 195.114 288.08 195.583C287.332 196.052 286.437 196.434 285.396 196.727C284.354 197.006 283.137 197.145 281.744 197.145H280.952Z" fill="#292929"/>
<path d="M299.228 196.903H294.102V180.535H299.228V196.903Z" fill="#292929"/>
<path d="M308.496 180.535H319.342C320.926 180.535 322.305 180.645 323.478 180.865C324.666 181.07 325.686 181.356 326.536 181.723C327.402 182.09 328.113 182.522 328.67 183.021C329.228 183.52 329.668 184.062 329.99 184.649C330.328 185.221 330.562 185.815 330.694 186.431C330.826 187.047 330.892 187.663 330.892 188.279V188.939C330.892 189.526 330.826 190.134 330.694 190.765C330.577 191.381 330.357 191.982 330.034 192.569C329.712 193.156 329.272 193.713 328.714 194.241C328.157 194.769 327.453 195.231 326.602 195.627C325.752 196.023 324.732 196.338 323.544 196.573C322.356 196.793 320.963 196.903 319.364 196.903H308.496V180.535ZM313.622 192.965H318.946C320.398 192.965 321.557 192.826 322.422 192.547C323.288 192.254 323.948 191.902 324.402 191.491C324.872 191.066 325.172 190.611 325.304 190.127C325.451 189.628 325.524 189.166 325.524 188.741V188.609C325.524 188.198 325.458 187.751 325.326 187.267C325.194 186.768 324.901 186.306 324.446 185.881C323.992 185.456 323.324 185.104 322.444 184.825C321.579 184.546 320.413 184.407 318.946 184.407H313.622V192.965Z" fill="#292929"/>
<path d="M349.893 180.535V184.253H337.705V186.673H349.607V190.413H337.705V193.097H350.113V196.903H332.645V180.535H349.893Z" fill="#292929"/>
<path d="M360.973 197.189C359.55 197.189 358.318 197.094 357.277 196.903C356.25 196.712 355.385 196.463 354.681 196.155C353.977 195.832 353.405 195.473 352.965 195.077C352.539 194.666 352.209 194.248 351.975 193.823C351.74 193.383 351.586 192.95 351.513 192.525C351.439 192.1 351.403 191.704 351.403 191.337V191.095H356.749C356.763 191.344 356.822 191.623 356.925 191.931C357.042 192.224 357.269 192.503 357.607 192.767C357.959 193.031 358.45 193.251 359.081 193.427C359.711 193.603 360.555 193.691 361.611 193.691H361.919C362.989 193.691 363.84 193.647 364.471 193.559C365.116 193.456 365.6 193.324 365.923 193.163C366.26 192.987 366.473 192.796 366.561 192.591C366.663 192.386 366.715 192.173 366.715 191.953C366.715 191.718 366.663 191.506 366.561 191.315C366.473 191.124 366.282 190.956 365.989 190.809C365.695 190.662 365.263 190.552 364.691 190.479C364.119 190.391 363.363 190.332 362.425 190.303L359.609 190.237C358.083 190.193 356.807 190.039 355.781 189.775C354.754 189.511 353.933 189.166 353.317 188.741C352.701 188.301 352.261 187.802 351.997 187.245C351.747 186.688 351.623 186.086 351.623 185.441V185.243C351.623 184.627 351.733 184.026 351.953 183.439C352.187 182.838 352.627 182.302 353.273 181.833C353.933 181.364 354.842 180.982 356.001 180.689C357.159 180.396 358.67 180.249 360.533 180.249H362.051C363.987 180.249 365.571 180.403 366.803 180.711C368.035 181.019 369.003 181.422 369.707 181.921C370.411 182.405 370.895 182.955 371.159 183.571C371.423 184.187 371.555 184.803 371.555 185.419V185.639H366.231C366.201 185.478 366.135 185.287 366.033 185.067C365.945 184.847 365.739 184.634 365.417 184.429C365.109 184.224 364.647 184.048 364.031 183.901C363.415 183.754 362.571 183.681 361.501 183.681H361.149C360.151 183.681 359.367 183.725 358.795 183.813C358.237 183.886 357.819 183.989 357.541 184.121C357.262 184.253 357.086 184.407 357.013 184.583C356.939 184.744 356.903 184.913 356.903 185.089C356.903 185.265 356.939 185.434 357.013 185.595C357.101 185.756 357.277 185.903 357.541 186.035C357.805 186.167 358.186 186.277 358.685 186.365C359.183 186.438 359.851 186.482 360.687 186.497L363.437 186.541C364.977 186.57 366.289 186.688 367.375 186.893C368.475 187.098 369.369 187.399 370.059 187.795C370.763 188.191 371.276 188.69 371.599 189.291C371.921 189.892 372.083 190.596 372.083 191.403V191.711C372.083 192.386 371.965 193.053 371.731 193.713C371.511 194.358 371.056 194.945 370.367 195.473C369.692 195.986 368.724 196.404 367.463 196.727C366.201 197.035 364.544 197.189 362.491 197.189H360.973Z" fill="#292929"/>
<path d="M378.956 196.903H373.83V180.535H378.956V196.903Z" fill="#292929"/>
<path d="M391.709 197.189C390.228 197.189 388.93 197.064 387.815 196.815C386.701 196.551 385.74 196.206 384.933 195.781C384.127 195.356 383.459 194.864 382.931 194.307C382.403 193.75 381.978 193.17 381.655 192.569C381.347 191.953 381.127 191.337 380.995 190.721C380.863 190.09 380.797 189.504 380.797 188.961V188.345C380.797 187.817 380.849 187.252 380.951 186.651C381.069 186.035 381.274 185.426 381.567 184.825C381.875 184.224 382.286 183.652 382.799 183.109C383.327 182.552 384.002 182.06 384.823 181.635C385.645 181.21 386.635 180.872 387.793 180.623C388.952 180.374 390.316 180.249 391.885 180.249H392.831C394.357 180.249 395.684 180.352 396.813 180.557C397.943 180.762 398.903 181.034 399.695 181.371C400.487 181.708 401.14 182.097 401.653 182.537C402.167 182.962 402.57 183.402 402.863 183.857C403.157 184.312 403.362 184.766 403.479 185.221C403.597 185.676 403.663 186.086 403.677 186.453V186.475H398.221C398.192 186.387 398.111 186.218 397.979 185.969C397.847 185.705 397.576 185.441 397.165 185.177C396.769 184.898 396.19 184.656 395.427 184.451C394.679 184.246 393.667 184.143 392.391 184.143C391.145 184.143 390.118 184.268 389.311 184.517C388.505 184.766 387.867 185.096 387.397 185.507C386.943 185.918 386.62 186.387 386.429 186.915C386.253 187.443 386.165 187.993 386.165 188.565V188.807C386.165 189.335 386.275 189.863 386.495 190.391C386.715 190.919 387.067 191.396 387.551 191.821C388.05 192.232 388.688 192.569 389.465 192.833C390.257 193.082 391.218 193.207 392.347 193.207C393.565 193.207 394.577 193.112 395.383 192.921C396.205 192.716 396.857 192.481 397.341 192.217C397.825 191.953 398.17 191.696 398.375 191.447C398.581 191.183 398.683 190.992 398.683 190.875V190.831H392.259V187.729H403.787V196.903H400.707C400.693 196.756 400.663 196.573 400.619 196.353C400.575 196.133 400.524 195.906 400.465 195.671C400.407 195.422 400.341 195.187 400.267 194.967C400.194 194.732 400.121 194.527 400.047 194.351C399.871 194.556 399.6 194.82 399.233 195.143C398.867 195.466 398.368 195.781 397.737 196.089C397.121 196.382 396.351 196.639 395.427 196.859C394.518 197.079 393.433 197.189 392.171 197.189H391.709Z" fill="#292929"/>
<path d="M411.841 180.535L422.291 190.831V180.535H427.351V196.903H422.291L411.181 186.057V196.903H406.121V180.535H411.841Z" fill="#292929"/>
<path d="M654.694 383.448V388.904H649.568V372.536H661.844C663.311 372.536 664.536 372.675 665.518 372.954C666.501 373.218 667.286 373.592 667.872 374.076C668.459 374.56 668.87 375.125 669.104 375.77C669.354 376.415 669.478 377.112 669.478 377.86V378.08C669.478 378.813 669.354 379.51 669.104 380.17C668.855 380.815 668.437 381.38 667.85 381.864C667.264 382.348 666.479 382.737 665.496 383.03C664.528 383.309 663.311 383.448 661.844 383.448H654.694ZM654.694 379.774H661.756C662.563 379.774 663.157 379.627 663.538 379.334C663.934 379.041 664.132 378.615 664.132 378.058V377.992C664.132 377.435 663.942 377.009 663.56 376.716C663.179 376.408 662.578 376.254 661.756 376.254H654.694V379.774Z" fill="#292929"/>
<path d="M676.308 379.466H684.074C684.807 379.466 685.335 379.312 685.658 379.004C685.98 378.696 686.142 378.315 686.142 377.86V377.838C686.142 377.413 685.98 377.046 685.658 376.738C685.35 376.415 684.822 376.254 684.074 376.254H676.308V379.466ZM676.308 388.904H671.182V372.536H684.382C685.746 372.536 686.882 372.646 687.792 372.866C688.701 373.086 689.427 373.394 689.97 373.79C690.527 374.171 690.916 374.619 691.136 375.132C691.37 375.645 691.488 376.195 691.488 376.782V377.046C691.488 377.633 691.378 378.131 691.158 378.542C690.952 378.953 690.688 379.305 690.366 379.598C690.058 379.877 689.728 380.097 689.376 380.258C689.024 380.419 688.716 380.544 688.452 380.632C688.862 380.749 689.258 380.911 689.64 381.116C690.021 381.321 690.351 381.585 690.63 381.908C690.908 382.216 691.128 382.575 691.29 382.986C691.466 383.397 691.554 383.866 691.554 384.394V386.792C691.554 387.452 691.583 387.921 691.642 388.2C691.715 388.464 691.788 388.662 691.862 388.794V388.904H686.648C686.574 388.801 686.516 388.677 686.472 388.53C686.428 388.383 686.406 388.163 686.406 387.87V385.978C686.406 384.981 686.149 384.255 685.636 383.8C685.137 383.331 684.257 383.096 682.996 383.096H676.308V388.904Z" fill="#292929"/>
<path d="M705.382 372.25C707.098 372.25 708.572 372.382 709.804 372.646C711.036 372.91 712.078 373.262 712.928 373.702C713.794 374.142 714.483 374.648 714.996 375.22C715.51 375.777 715.906 376.357 716.184 376.958C716.478 377.545 716.668 378.139 716.756 378.74C716.844 379.327 716.888 379.862 716.888 380.346V381.006C716.888 381.49 716.844 382.025 716.756 382.612C716.668 383.199 716.485 383.8 716.206 384.416C715.928 385.017 715.524 385.604 714.996 386.176C714.483 386.748 713.801 387.261 712.95 387.716C712.1 388.156 711.051 388.515 709.804 388.794C708.572 389.058 707.098 389.19 705.382 389.19H704.436C702.706 389.19 701.217 389.058 699.97 388.794C698.738 388.515 697.697 388.156 696.846 387.716C695.996 387.261 695.306 386.748 694.778 386.176C694.265 385.604 693.869 385.017 693.59 384.416C693.312 383.8 693.128 383.199 693.04 382.612C692.952 382.025 692.908 381.49 692.908 381.006V380.346C692.908 379.862 692.952 379.327 693.04 378.74C693.128 378.139 693.312 377.545 693.59 376.958C693.869 376.357 694.265 375.777 694.778 375.22C695.306 374.648 695.996 374.142 696.846 373.702C697.697 373.262 698.738 372.91 699.97 372.646C701.217 372.382 702.706 372.25 704.436 372.25H705.382ZM711.52 380.5C711.52 380.031 711.432 379.547 711.256 379.048C711.095 378.535 710.772 378.073 710.288 377.662C709.804 377.237 709.13 376.892 708.264 376.628C707.399 376.349 706.277 376.21 704.898 376.21C703.49 376.21 702.354 376.349 701.488 376.628C700.623 376.892 699.948 377.237 699.464 377.662C698.995 378.073 698.68 378.535 698.518 379.048C698.357 379.547 698.276 380.031 698.276 380.5V380.764C698.276 381.233 698.357 381.732 698.518 382.26C698.694 382.773 699.024 383.25 699.508 383.69C699.992 384.13 700.667 384.497 701.532 384.79C702.398 385.069 703.52 385.208 704.898 385.208C706.277 385.208 707.392 385.069 708.242 384.79C709.108 384.511 709.782 384.159 710.266 383.734C710.75 383.294 711.08 382.817 711.256 382.304C711.432 381.776 711.52 381.277 711.52 380.808V380.5Z" fill="#292929"/>
<path d="M735.645 372.536V376.254H723.831V378.674H735.359V382.414H723.831V388.904H718.727V372.536H735.645Z" fill="#292929"/>
<path d="M755.053 372.536V376.254H742.865V378.674H754.767V382.414H742.865V385.098H755.273V388.904H737.805V372.536H755.053Z" fill="#292929"/>
<path d="M766.132 389.19C764.71 389.19 763.478 389.095 762.436 388.904C761.41 388.713 760.544 388.464 759.84 388.156C759.136 387.833 758.564 387.474 758.124 387.078C757.699 386.667 757.369 386.249 757.134 385.824C756.9 385.384 756.746 384.951 756.672 384.526C756.599 384.101 756.562 383.705 756.562 383.338V383.096H761.908C761.923 383.345 761.982 383.624 762.084 383.932C762.202 384.225 762.429 384.504 762.766 384.768C763.118 385.032 763.61 385.252 764.24 385.428C764.871 385.604 765.714 385.692 766.77 385.692H767.078C768.149 385.692 769 385.648 769.63 385.56C770.276 385.457 770.76 385.325 771.082 385.164C771.42 384.988 771.632 384.797 771.72 384.592C771.823 384.387 771.874 384.174 771.874 383.954C771.874 383.719 771.823 383.507 771.72 383.316C771.632 383.125 771.442 382.957 771.148 382.81C770.855 382.663 770.422 382.553 769.85 382.48C769.278 382.392 768.523 382.333 767.584 382.304L764.768 382.238C763.243 382.194 761.967 382.04 760.94 381.776C759.914 381.512 759.092 381.167 758.476 380.742C757.86 380.302 757.42 379.803 757.156 379.246C756.907 378.689 756.782 378.087 756.782 377.442V377.244C756.782 376.628 756.892 376.027 757.112 375.44C757.347 374.839 757.787 374.303 758.432 373.834C759.092 373.365 760.002 372.983 761.16 372.69C762.319 372.397 763.83 372.25 765.692 372.25H767.21C769.146 372.25 770.73 372.404 771.962 372.712C773.194 373.02 774.162 373.423 774.866 373.922C775.57 374.406 776.054 374.956 776.318 375.572C776.582 376.188 776.714 376.804 776.714 377.42V377.64H771.39C771.361 377.479 771.295 377.288 771.192 377.068C771.104 376.848 770.899 376.635 770.576 376.43C770.268 376.225 769.806 376.049 769.19 375.902C768.574 375.755 767.731 375.682 766.66 375.682H766.308C765.311 375.682 764.526 375.726 763.954 375.814C763.397 375.887 762.979 375.99 762.7 376.122C762.422 376.254 762.246 376.408 762.172 376.584C762.099 376.745 762.062 376.914 762.062 377.09C762.062 377.266 762.099 377.435 762.172 377.596C762.26 377.757 762.436 377.904 762.7 378.036C762.964 378.168 763.346 378.278 763.844 378.366C764.343 378.439 765.01 378.483 765.846 378.498L768.596 378.542C770.136 378.571 771.449 378.689 772.534 378.894C773.634 379.099 774.529 379.4 775.218 379.796C775.922 380.192 776.436 380.691 776.758 381.292C777.081 381.893 777.242 382.597 777.242 383.404V383.712C777.242 384.387 777.125 385.054 776.89 385.714C776.67 386.359 776.216 386.946 775.526 387.474C774.852 387.987 773.884 388.405 772.622 388.728C771.361 389.036 769.704 389.19 767.65 389.19H766.132Z" fill="#292929"/>
<path d="M787.724 389.19C786.302 389.19 785.07 389.095 784.028 388.904C783.002 388.713 782.136 388.464 781.432 388.156C780.728 387.833 780.156 387.474 779.716 387.078C779.291 386.667 778.961 386.249 778.726 385.824C778.492 385.384 778.338 384.951 778.264 384.526C778.191 384.101 778.154 383.705 778.154 383.338V383.096H783.5C783.515 383.345 783.574 383.624 783.676 383.932C783.794 384.225 784.021 384.504 784.358 384.768C784.71 385.032 785.202 385.252 785.832 385.428C786.463 385.604 787.306 385.692 788.362 385.692H788.67C789.741 385.692 790.592 385.648 791.222 385.56C791.868 385.457 792.352 385.325 792.674 385.164C793.012 384.988 793.224 384.797 793.312 384.592C793.415 384.387 793.466 384.174 793.466 383.954C793.466 383.719 793.415 383.507 793.312 383.316C793.224 383.125 793.034 382.957 792.74 382.81C792.447 382.663 792.014 382.553 791.442 382.48C790.87 382.392 790.115 382.333 789.176 382.304L786.36 382.238C784.835 382.194 783.559 382.04 782.532 381.776C781.506 381.512 780.684 381.167 780.068 380.742C779.452 380.302 779.012 379.803 778.748 379.246C778.499 378.689 778.374 378.087 778.374 377.442V377.244C778.374 376.628 778.484 376.027 778.704 375.44C778.939 374.839 779.379 374.303 780.024 373.834C780.684 373.365 781.594 372.983 782.752 372.69C783.911 372.397 785.422 372.25 787.284 372.25H788.802C790.738 372.25 792.322 372.404 793.554 372.712C794.786 373.02 795.754 373.423 796.458 373.922C797.162 374.406 797.646 374.956 797.91 375.572C798.174 376.188 798.306 376.804 798.306 377.42V377.64H792.982C792.953 377.479 792.887 377.288 792.784 377.068C792.696 376.848 792.491 376.635 792.168 376.43C791.86 376.225 791.398 376.049 790.782 375.902C790.166 375.755 789.323 375.682 788.252 375.682H787.9C786.903 375.682 786.118 375.726 785.546 375.814C784.989 375.887 784.571 375.99 784.292 376.122C784.014 376.254 783.838 376.408 783.764 376.584C783.691 376.745 783.654 376.914 783.654 377.09C783.654 377.266 783.691 377.435 783.764 377.596C783.852 377.757 784.028 377.904 784.292 378.036C784.556 378.168 784.938 378.278 785.436 378.366C785.935 378.439 786.602 378.483 787.438 378.498L790.188 378.542C791.728 378.571 793.041 378.689 794.126 378.894C795.226 379.099 796.121 379.4 796.81 379.796C797.514 380.192 798.028 380.691 798.35 381.292C798.673 381.893 798.834 382.597 798.834 383.404V383.712C798.834 384.387 798.717 385.054 798.482 385.714C798.262 386.359 797.808 386.946 797.118 387.474C796.444 387.987 795.476 388.405 794.214 388.728C792.953 389.036 791.296 389.19 789.242 389.19H787.724Z" fill="#292929"/>
<path d="M805.708 388.904H800.582V372.536H805.708V388.904Z" fill="#292929"/>
<path d="M820.023 372.25C821.739 372.25 823.213 372.382 824.445 372.646C825.677 372.91 826.718 373.262 827.569 373.702C828.434 374.142 829.124 374.648 829.637 375.22C830.15 375.777 830.546 376.357 830.825 376.958C831.118 377.545 831.309 378.139 831.397 378.74C831.485 379.327 831.529 379.862 831.529 380.346V381.006C831.529 381.49 831.485 382.025 831.397 382.612C831.309 383.199 831.126 383.8 830.847 384.416C830.568 385.017 830.165 385.604 829.637 386.176C829.124 386.748 828.442 387.261 827.591 387.716C826.74 388.156 825.692 388.515 824.445 388.794C823.213 389.058 821.739 389.19 820.023 389.19H819.077C817.346 389.19 815.858 389.058 814.611 388.794C813.379 388.515 812.338 388.156 811.487 387.716C810.636 387.261 809.947 386.748 809.419 386.176C808.906 385.604 808.51 385.017 808.231 384.416C807.952 383.8 807.769 383.199 807.681 382.612C807.593 382.025 807.549 381.49 807.549 381.006V380.346C807.549 379.862 807.593 379.327 807.681 378.74C807.769 378.139 807.952 377.545 808.231 376.958C808.51 376.357 808.906 375.777 809.419 375.22C809.947 374.648 810.636 374.142 811.487 373.702C812.338 373.262 813.379 372.91 814.611 372.646C815.858 372.382 817.346 372.25 819.077 372.25H820.023ZM826.161 380.5C826.161 380.031 826.073 379.547 825.897 379.048C825.736 378.535 825.413 378.073 824.929 377.662C824.445 377.237 823.77 376.892 822.905 376.628C822.04 376.349 820.918 376.21 819.539 376.21C818.131 376.21 816.994 376.349 816.129 376.628C815.264 376.892 814.589 377.237 814.105 377.662C813.636 378.073 813.32 378.535 813.159 379.048C812.998 379.547 812.917 380.031 812.917 380.5V380.764C812.917 381.233 812.998 381.732 813.159 382.26C813.335 382.773 813.665 383.25 814.149 383.69C814.633 384.13 815.308 384.497 816.173 384.79C817.038 385.069 818.16 385.208 819.539 385.208C820.918 385.208 822.032 385.069 822.883 384.79C823.748 384.511 824.423 384.159 824.907 383.734C825.391 383.294 825.721 382.817 825.897 382.304C826.073 381.776 826.161 381.277 826.161 380.808V380.5Z" fill="#292929"/>
<path d="M839.087 372.536L849.537 382.832V372.536H854.597V388.904H849.537L838.427 378.058V388.904H833.367V372.536H839.087Z" fill="#292929"/>
<path d="M867.051 376.078L864.015 382.216H870.219L867.051 376.078ZM872.111 385.912H862.189L860.715 388.904H855.501L863.773 372.536H870.417L879.173 388.904H873.651L872.111 385.912Z" fill="#292929"/>
<path d="M885.2 372.536V384.834H896.574V388.904H880.074V372.536H885.2Z" fill="#292929"/>
<path d="M911.634 376.408H904.594V372.536H923.866V376.408H916.804V388.904H911.634V376.408Z" fill="#292929"/>
<path d="M936.877 372.25C938.593 372.25 940.067 372.382 941.299 372.646C942.531 372.91 943.572 373.262 944.423 373.702C945.288 374.142 945.977 374.648 946.491 375.22C947.004 375.777 947.4 376.357 947.679 376.958C947.972 377.545 948.163 378.139 948.251 378.74C948.339 379.327 948.383 379.862 948.383 380.346V381.006C948.383 381.49 948.339 382.025 948.251 382.612C948.163 383.199 947.979 383.8 947.701 384.416C947.422 385.017 947.019 385.604 946.491 386.176C945.977 386.748 945.295 387.261 944.445 387.716C943.594 388.156 942.545 388.515 941.299 388.794C940.067 389.058 938.593 389.19 936.877 389.19H935.931C934.2 389.19 932.711 389.058 931.465 388.794C930.233 388.515 929.191 388.156 928.341 387.716C927.49 387.261 926.801 386.748 926.273 386.176C925.759 385.604 925.363 385.017 925.085 384.416C924.806 383.8 924.623 383.199 924.535 382.612C924.447 382.025 924.403 381.49 924.403 381.006V380.346C924.403 379.862 924.447 379.327 924.535 378.74C924.623 378.139 924.806 377.545 925.085 376.958C925.363 376.357 925.759 375.777 926.273 375.22C926.801 374.648 927.49 374.142 928.341 373.702C929.191 373.262 930.233 372.91 931.465 372.646C932.711 372.382 934.2 372.25 935.931 372.25H936.877ZM943.015 380.5C943.015 380.031 942.927 379.547 942.751 379.048C942.589 378.535 942.267 378.073 941.783 377.662C941.299 377.237 940.624 376.892 939.759 376.628C938.893 376.349 937.771 376.21 936.393 376.21C934.985 376.21 933.848 376.349 932.983 376.628C932.117 376.892 931.443 377.237 930.959 377.662C930.489 378.073 930.174 378.535 930.013 379.048C929.851 379.547 929.771 380.031 929.771 380.5V380.764C929.771 381.233 929.851 381.732 930.013 382.26C930.189 382.773 930.519 383.25 931.003 383.69C931.487 384.13 932.161 384.497 933.027 384.79C933.892 385.069 935.014 385.208 936.393 385.208C937.771 385.208 938.886 385.069 939.737 384.79C940.602 384.511 941.277 384.159 941.761 383.734C942.245 383.294 942.575 382.817 942.751 382.304C942.927 381.776 943.015 381.277 943.015 380.808V380.5Z" fill="#292929"/>
<path d="M962.035 372.25C963.751 372.25 965.225 372.382 966.457 372.646C967.689 372.91 968.73 373.262 969.581 373.702C970.446 374.142 971.135 374.648 971.649 375.22C972.162 375.777 972.558 376.357 972.837 376.958C973.13 377.545 973.321 378.139 973.409 378.74C973.497 379.327 973.541 379.862 973.541 380.346V381.006C973.541 381.49 973.497 382.025 973.409 382.612C973.321 383.199 973.137 383.8 972.859 384.416C972.58 385.017 972.177 385.604 971.649 386.176C971.135 386.748 970.453 387.261 969.603 387.716C968.752 388.156 967.703 388.515 966.457 388.794C965.225 389.058 963.751 389.19 962.035 389.19H961.089C959.358 389.19 957.869 389.058 956.623 388.794C955.391 388.515 954.349 388.156 953.499 387.716C952.648 387.261 951.959 386.748 951.431 386.176C950.917 385.604 950.521 385.017 950.243 384.416C949.964 383.8 949.781 383.199 949.693 382.612C949.605 382.025 949.561 381.49 949.561 381.006V380.346C949.561 379.862 949.605 379.327 949.693 378.74C949.781 378.139 949.964 377.545 950.243 376.958C950.521 376.357 950.917 375.777 951.431 375.22C951.959 374.648 952.648 374.142 953.499 373.702C954.349 373.262 955.391 372.91 956.623 372.646C957.869 372.382 959.358 372.25 961.089 372.25H962.035ZM968.173 380.5C968.173 380.031 968.085 379.547 967.909 379.048C967.747 378.535 967.425 378.073 966.941 377.662C966.457 377.237 965.782 376.892 964.917 376.628C964.051 376.349 962.929 376.21 961.551 376.21C960.143 376.21 959.006 376.349 958.141 376.628C957.275 376.892 956.601 377.237 956.117 377.662C955.647 378.073 955.332 378.535 955.171 379.048C955.009 379.547 954.929 380.031 954.929 380.5V380.764C954.929 381.233 955.009 381.732 955.171 382.26C955.347 382.773 955.677 383.25 956.161 383.69C956.645 384.13 957.319 384.497 958.185 384.79C959.05 385.069 960.172 385.208 961.551 385.208C962.929 385.208 964.044 385.069 964.895 384.79C965.76 384.511 966.435 384.159 966.919 383.734C967.403 383.294 967.733 382.817 967.909 382.304C968.085 381.776 968.173 381.277 968.173 380.808V380.5Z" fill="#292929"/>
<path d="M980.505 372.536V384.834H991.879V388.904H975.379V372.536H980.505Z" fill="#292929"/>
<path d="M1002.4 389.19C1000.97 389.19 999.741 389.095 998.7 388.904C997.673 388.713 996.808 388.464 996.104 388.156C995.4 387.833 994.828 387.474 994.388 387.078C993.963 386.667 993.633 386.249 993.398 385.824C993.163 385.384 993.009 384.951 992.936 384.526C992.863 384.101 992.826 383.705 992.826 383.338V383.096H998.172C998.187 383.345 998.245 383.624 998.348 383.932C998.465 384.225 998.693 384.504 999.03 384.768C999.382 385.032 999.873 385.252 1000.5 385.428C1001.13 385.604 1001.98 385.692 1003.03 385.692H1003.34C1004.41 385.692 1005.26 385.648 1005.89 385.56C1006.54 385.457 1007.02 385.325 1007.35 385.164C1007.68 384.988 1007.9 384.797 1007.98 384.592C1008.09 384.387 1008.14 384.174 1008.14 383.954C1008.14 383.719 1008.09 383.507 1007.98 383.316C1007.9 383.125 1007.71 382.957 1007.41 382.81C1007.12 382.663 1006.69 382.553 1006.11 382.48C1005.54 382.392 1004.79 382.333 1003.85 382.304L1001.03 382.238C999.507 382.194 998.231 382.04 997.204 381.776C996.177 381.512 995.356 381.167 994.74 380.742C994.124 380.302 993.684 379.803 993.42 379.246C993.171 378.689 993.046 378.087 993.046 377.442V377.244C993.046 376.628 993.156 376.027 993.376 375.44C993.611 374.839 994.051 374.303 994.696 373.834C995.356 373.365 996.265 372.983 997.424 372.69C998.583 372.397 1000.09 372.25 1001.96 372.25H1003.47C1005.41 372.25 1006.99 372.404 1008.23 372.712C1009.46 373.02 1010.43 373.423 1011.13 373.922C1011.83 374.406 1012.32 374.956 1012.58 375.572C1012.85 376.188 1012.98 376.804 1012.98 377.42V377.64H1007.65C1007.62 377.479 1007.56 377.288 1007.46 377.068C1007.37 376.848 1007.16 376.635 1006.84 376.43C1006.53 376.225 1006.07 376.049 1005.45 375.902C1004.84 375.755 1003.99 375.682 1002.92 375.682H1002.57C1001.57 375.682 1000.79 375.726 1000.22 375.814C999.661 375.887 999.243 375.99 998.964 376.122C998.685 376.254 998.509 376.408 998.436 376.584C998.363 376.745 998.326 376.914 998.326 377.09C998.326 377.266 998.363 377.435 998.436 377.596C998.524 377.757 998.7 377.904 998.964 378.036C999.228 378.168 999.609 378.278 1000.11 378.366C1000.61 378.439 1001.27 378.483 1002.11 378.498L1004.86 378.542C1006.4 378.571 1007.71 378.689 1008.8 378.894C1009.9 379.099 1010.79 379.4 1011.48 379.796C1012.19 380.192 1012.7 380.691 1013.02 381.292C1013.34 381.893 1013.51 382.597 1013.51 383.404V383.712C1013.51 384.387 1013.39 385.054 1013.15 385.714C1012.93 386.359 1012.48 386.946 1011.79 387.474C1011.12 387.987 1010.15 388.405 1008.89 388.728C1007.62 389.036 1005.97 389.19 1003.91 389.19H1002.4Z" fill="#292929"/>
<path d="M617.403 408.078L614.367 414.216H620.571L617.403 408.078ZM622.463 417.912H612.541L611.067 420.904H605.853L614.125 404.536H620.769L629.525 420.904H624.003L622.463 417.912Z" fill="#292929"/>
<path d="M638.889 421.146C637.422 421.146 636.154 421.007 635.083 420.728C634.012 420.435 633.096 420.053 632.333 419.584C631.585 419.115 630.969 418.579 630.485 417.978C630.016 417.362 629.642 416.739 629.363 416.108C629.099 415.463 628.916 414.825 628.813 414.194C628.725 413.563 628.681 412.991 628.681 412.478V404.536H633.829V412.17C633.829 412.698 633.902 413.241 634.049 413.798C634.196 414.355 634.467 414.869 634.863 415.338C635.259 415.793 635.809 416.167 636.513 416.46C637.217 416.753 638.126 416.9 639.241 416.9C640.341 416.9 641.236 416.753 641.925 416.46C642.629 416.167 643.179 415.793 643.575 415.338C643.971 414.869 644.242 414.355 644.389 413.798C644.536 413.241 644.609 412.698 644.609 412.17V404.536H649.735V412.478C649.735 412.991 649.676 413.563 649.559 414.194C649.456 414.825 649.266 415.463 648.987 416.108C648.708 416.739 648.327 417.362 647.843 417.978C647.374 418.579 646.765 419.115 646.017 419.584C645.269 420.053 644.374 420.435 643.333 420.728C642.292 421.007 641.074 421.146 639.681 421.146H638.889Z" fill="#292929"/>
<path d="M658.441 408.408H651.401V404.536H670.673V408.408H663.611V420.904H658.441V408.408Z" fill="#292929"/>
<path d="M683.683 404.25C685.399 404.25 686.873 404.382 688.105 404.646C689.337 404.91 690.379 405.262 691.229 405.702C692.095 406.142 692.784 406.648 693.297 407.22C693.811 407.777 694.207 408.357 694.485 408.958C694.779 409.545 694.969 410.139 695.057 410.74C695.145 411.327 695.189 411.862 695.189 412.346V413.006C695.189 413.49 695.145 414.025 695.057 414.612C694.969 415.199 694.786 415.8 694.507 416.416C694.229 417.017 693.825 417.604 693.297 418.176C692.784 418.748 692.102 419.261 691.251 419.716C690.401 420.156 689.352 420.515 688.105 420.794C686.873 421.058 685.399 421.19 683.683 421.19H682.737C681.007 421.19 679.518 421.058 678.271 420.794C677.039 420.515 675.998 420.156 675.147 419.716C674.297 419.261 673.607 418.748 673.079 418.176C672.566 417.604 672.17 417.017 671.891 416.416C671.613 415.8 671.429 415.199 671.341 414.612C671.253 414.025 671.209 413.49 671.209 413.006V412.346C671.209 411.862 671.253 411.327 671.341 410.74C671.429 410.139 671.613 409.545 671.891 408.958C672.17 408.357 672.566 407.777 673.079 407.22C673.607 406.648 674.297 406.142 675.147 405.702C675.998 405.262 677.039 404.91 678.271 404.646C679.518 404.382 681.007 404.25 682.737 404.25H683.683ZM689.821 412.5C689.821 412.031 689.733 411.547 689.557 411.048C689.396 410.535 689.073 410.073 688.589 409.662C688.105 409.237 687.431 408.892 686.565 408.628C685.7 408.349 684.578 408.21 683.199 408.21C681.791 408.21 680.655 408.349 679.789 408.628C678.924 408.892 678.249 409.237 677.765 409.662C677.296 410.073 676.981 410.535 676.819 411.048C676.658 411.547 676.577 412.031 676.577 412.5V412.764C676.577 413.233 676.658 413.732 676.819 414.26C676.995 414.773 677.325 415.25 677.809 415.69C678.293 416.13 678.968 416.497 679.833 416.79C680.699 417.069 681.821 417.208 683.199 417.208C684.578 417.208 685.693 417.069 686.543 416.79C687.409 416.511 688.083 416.159 688.567 415.734C689.051 415.294 689.381 414.817 689.557 414.304C689.733 413.776 689.821 413.277 689.821 412.808V412.5Z" fill="#292929"/>
<path d="M697.027 404.536H704.309L709.963 414.722L715.639 404.536H722.657V420.904H717.597V409.574L711.151 420.904H708.401L701.955 409.574V420.904H697.027V404.536Z" fill="#292929"/>
<path d="M736.986 404.25C738.702 404.25 740.176 404.382 741.408 404.646C742.64 404.91 743.681 405.262 744.532 405.702C745.397 406.142 746.087 406.648 746.6 407.22C747.113 407.777 747.509 408.357 747.788 408.958C748.081 409.545 748.272 410.139 748.36 410.74C748.448 411.327 748.492 411.862 748.492 412.346V413.006C748.492 413.49 748.448 414.025 748.36 414.612C748.272 415.199 748.089 415.8 747.81 416.416C747.531 417.017 747.128 417.604 746.6 418.176C746.087 418.748 745.405 419.261 744.554 419.716C743.703 420.156 742.655 420.515 741.408 420.794C740.176 421.058 738.702 421.19 736.986 421.19H736.04C734.309 421.19 732.821 421.058 731.574 420.794C730.342 420.515 729.301 420.156 728.45 419.716C727.599 419.261 726.91 418.748 726.382 418.176C725.869 417.604 725.473 417.017 725.194 416.416C724.915 415.8 724.732 415.199 724.644 414.612C724.556 414.025 724.512 413.49 724.512 413.006V412.346C724.512 411.862 724.556 411.327 724.644 410.74C724.732 410.139 724.915 409.545 725.194 408.958C725.473 408.357 725.869 407.777 726.382 407.22C726.91 406.648 727.599 406.142 728.45 405.702C729.301 405.262 730.342 404.91 731.574 404.646C732.821 404.382 734.309 404.25 736.04 404.25H736.986ZM743.124 412.5C743.124 412.031 743.036 411.547 742.86 411.048C742.699 410.535 742.376 410.073 741.892 409.662C741.408 409.237 740.733 408.892 739.868 408.628C739.003 408.349 737.881 408.21 736.502 408.21C735.094 408.21 733.957 408.349 733.092 408.628C732.227 408.892 731.552 409.237 731.068 409.662C730.599 410.073 730.283 410.535 730.122 411.048C729.961 411.547 729.88 412.031 729.88 412.5V412.764C729.88 413.233 729.961 413.732 730.122 414.26C730.298 414.773 730.628 415.25 731.112 415.69C731.596 416.13 732.271 416.497 733.136 416.79C734.001 417.069 735.123 417.208 736.502 417.208C737.881 417.208 738.995 417.069 739.846 416.79C740.711 416.511 741.386 416.159 741.87 415.734C742.354 415.294 742.684 414.817 742.86 414.304C743.036 413.776 743.124 413.277 743.124 412.808V412.5Z" fill="#292929"/>
<path d="M756.066 408.408H749.026V404.536H768.298V408.408H761.236V420.904H756.066V408.408Z" fill="#292929"/>
<path d="M775.286 420.904H770.16V404.536H775.286V420.904Z" fill="#292929"/>
<path d="M784.783 420.904L776.269 404.536H782.077L788.105 416.57L793.759 404.536H799.083L791.163 420.904H784.783Z" fill="#292929"/>
<path d="M817.314 404.536V408.254H805.126V410.674H817.028V414.414H805.126V417.098H817.534V420.904H800.066V404.536H817.314Z" fill="#292929"/>
<path d="M836.724 421.19C835.14 421.19 833.768 421.058 832.61 420.794C831.466 420.515 830.483 420.156 829.662 419.716C828.855 419.261 828.195 418.748 827.682 418.176C827.183 417.604 826.787 417.017 826.494 416.416C826.215 415.8 826.024 415.199 825.922 414.612C825.819 414.011 825.768 413.468 825.768 412.984V412.346C825.768 411.847 825.812 411.305 825.9 410.718C826.002 410.117 826.186 409.523 826.45 408.936C826.728 408.335 827.117 407.755 827.616 407.198C828.114 406.626 828.767 406.127 829.574 405.702C830.395 405.262 831.385 404.91 832.544 404.646C833.717 404.382 835.11 404.25 836.724 404.25H837.626C839.21 404.25 840.581 404.367 841.74 404.602C842.898 404.822 843.881 405.123 844.688 405.504C845.494 405.871 846.147 406.289 846.646 406.758C847.159 407.227 847.555 407.704 847.834 408.188C848.127 408.657 848.325 409.112 848.428 409.552C848.53 409.992 848.582 410.373 848.582 410.696V410.938H843.148C843.118 410.835 843.03 410.637 842.884 410.344C842.752 410.036 842.473 409.728 842.048 409.42C841.637 409.097 841.043 408.819 840.266 408.584C839.503 408.335 838.469 408.21 837.164 408.21C835.932 408.21 834.927 408.335 834.15 408.584C833.372 408.833 832.756 409.163 832.302 409.574C831.862 409.97 831.554 410.425 831.378 410.938C831.216 411.437 831.136 411.943 831.136 412.456V412.72C831.136 413.204 831.224 413.71 831.4 414.238C831.59 414.766 831.913 415.25 832.368 415.69C832.837 416.13 833.46 416.497 834.238 416.79C835.03 417.069 836.02 417.208 837.208 417.208C838.528 417.208 839.576 417.076 840.354 416.812C841.131 416.548 841.725 416.247 842.136 415.91C842.546 415.558 842.81 415.228 842.928 414.92C843.06 414.597 843.14 414.392 843.17 414.304H848.604V414.546C848.604 414.883 848.545 415.287 848.428 415.756C848.325 416.225 848.127 416.709 847.834 417.208C847.54 417.692 847.137 418.176 846.624 418.66C846.11 419.129 845.443 419.555 844.622 419.936C843.815 420.303 842.832 420.603 841.674 420.838C840.53 421.073 839.18 421.19 837.626 421.19H836.724Z" fill="#292929"/>
<path d="M850.383 404.536H855.509V410.498H866.509V404.536H871.635V420.904H866.509V414.458H855.509V420.904H850.383V404.536Z" fill="#292929"/>
<path d="M891.393 404.536V408.254H879.205V410.674H891.107V414.414H879.205V417.098H891.613V420.904H874.145V404.536H891.393Z" fill="#292929"/>
<path d="M893.738 404.536H901.02L906.674 414.722L912.35 404.536H919.368V420.904H914.308V409.574L907.862 420.904H905.112L898.666 409.574V420.904H893.738V404.536Z" fill="#292929"/>
<path d="M927.009 420.904H921.883V404.536H927.009V420.904Z" fill="#292929"/>
<path d="M939.806 421.19C938.222 421.19 936.85 421.058 935.692 420.794C934.548 420.515 933.565 420.156 932.744 419.716C931.937 419.261 931.277 418.748 930.764 418.176C930.265 417.604 929.869 417.017 929.576 416.416C929.297 415.8 929.106 415.199 929.004 414.612C928.901 414.011 928.85 413.468 928.85 412.984V412.346C928.85 411.847 928.894 411.305 928.982 410.718C929.084 410.117 929.268 409.523 929.532 408.936C929.81 408.335 930.199 407.755 930.698 407.198C931.196 406.626 931.849 406.127 932.656 405.702C933.477 405.262 934.467 404.91 935.626 404.646C936.799 404.382 938.192 404.25 939.806 404.25H940.708C942.292 404.25 943.663 404.367 944.822 404.602C945.98 404.822 946.963 405.123 947.77 405.504C948.576 405.871 949.229 406.289 949.728 406.758C950.241 407.227 950.637 407.704 950.916 408.188C951.209 408.657 951.407 409.112 951.51 409.552C951.612 409.992 951.664 410.373 951.664 410.696V410.938H946.23C946.2 410.835 946.112 410.637 945.966 410.344C945.834 410.036 945.555 409.728 945.13 409.42C944.719 409.097 944.125 408.819 943.348 408.584C942.585 408.335 941.551 408.21 940.246 408.21C939.014 408.21 938.009 408.335 937.232 408.584C936.454 408.833 935.838 409.163 935.384 409.574C934.944 409.97 934.636 410.425 934.46 410.938C934.298 411.437 934.218 411.943 934.218 412.456V412.72C934.218 413.204 934.306 413.71 934.482 414.238C934.672 414.766 934.995 415.25 935.45 415.69C935.919 416.13 936.542 416.497 937.32 416.79C938.112 417.069 939.102 417.208 940.29 417.208C941.61 417.208 942.658 417.076 943.436 416.812C944.213 416.548 944.807 416.247 945.218 415.91C945.628 415.558 945.892 415.228 946.01 414.92C946.142 414.597 946.222 414.392 946.252 414.304H951.686V414.546C951.686 414.883 951.627 415.287 951.51 415.756C951.407 416.225 951.209 416.709 950.916 417.208C950.622 417.692 950.219 418.176 949.706 418.66C949.192 419.129 948.525 419.555 947.704 419.936C946.897 420.303 945.914 420.603 944.756 420.838C943.612 421.073 942.262 421.19 940.708 421.19H939.806Z" fill="#292929"/>
<path d="M962.356 408.078L959.32 414.216H965.524L962.356 408.078ZM967.416 417.912H957.494L956.02 420.904H950.806L959.078 404.536H965.722L974.478 420.904H968.956L967.416 417.912Z" fill="#292929"/>
<path d="M980.505 404.536V416.834H991.879V420.904H975.379V404.536H980.505Z" fill="#292929"/>
<path d="M1002.4 421.19C1000.97 421.19 999.741 421.095 998.7 420.904C997.673 420.713 996.808 420.464 996.104 420.156C995.4 419.833 994.828 419.474 994.388 419.078C993.963 418.667 993.633 418.249 993.398 417.824C993.163 417.384 993.009 416.951 992.936 416.526C992.863 416.101 992.826 415.705 992.826 415.338V415.096H998.172C998.187 415.345 998.245 415.624 998.348 415.932C998.465 416.225 998.693 416.504 999.03 416.768C999.382 417.032 999.873 417.252 1000.5 417.428C1001.13 417.604 1001.98 417.692 1003.03 417.692H1003.34C1004.41 417.692 1005.26 417.648 1005.89 417.56C1006.54 417.457 1007.02 417.325 1007.35 417.164C1007.68 416.988 1007.9 416.797 1007.98 416.592C1008.09 416.387 1008.14 416.174 1008.14 415.954C1008.14 415.719 1008.09 415.507 1007.98 415.316C1007.9 415.125 1007.71 414.957 1007.41 414.81C1007.12 414.663 1006.69 414.553 1006.11 414.48C1005.54 414.392 1004.79 414.333 1003.85 414.304L1001.03 414.238C999.507 414.194 998.231 414.04 997.204 413.776C996.177 413.512 995.356 413.167 994.74 412.742C994.124 412.302 993.684 411.803 993.42 411.246C993.171 410.689 993.046 410.087 993.046 409.442V409.244C993.046 408.628 993.156 408.027 993.376 407.44C993.611 406.839 994.051 406.303 994.696 405.834C995.356 405.365 996.265 404.983 997.424 404.69C998.583 404.397 1000.09 404.25 1001.96 404.25H1003.47C1005.41 404.25 1006.99 404.404 1008.23 404.712C1009.46 405.02 1010.43 405.423 1011.13 405.922C1011.83 406.406 1012.32 406.956 1012.58 407.572C1012.85 408.188 1012.98 408.804 1012.98 409.42V409.64H1007.65C1007.62 409.479 1007.56 409.288 1007.46 409.068C1007.37 408.848 1007.16 408.635 1006.84 408.43C1006.53 408.225 1006.07 408.049 1005.45 407.902C1004.84 407.755 1003.99 407.682 1002.92 407.682H1002.57C1001.57 407.682 1000.79 407.726 1000.22 407.814C999.661 407.887 999.243 407.99 998.964 408.122C998.685 408.254 998.509 408.408 998.436 408.584C998.363 408.745 998.326 408.914 998.326 409.09C998.326 409.266 998.363 409.435 998.436 409.596C998.524 409.757 998.7 409.904 998.964 410.036C999.228 410.168 999.609 410.278 1000.11 410.366C1000.61 410.439 1001.27 410.483 1002.11 410.498L1004.86 410.542C1006.4 410.571 1007.71 410.689 1008.8 410.894C1009.9 411.099 1010.79 411.4 1011.48 411.796C1012.19 412.192 1012.7 412.691 1013.02 413.292C1013.34 413.893 1013.51 414.597 1013.51 415.404V415.712C1013.51 416.387 1013.39 417.054 1013.15 417.714C1012.93 418.359 1012.48 418.946 1011.79 419.474C1011.12 419.987 1010.15 420.405 1008.89 420.728C1007.62 421.036 1005.97 421.19 1003.91 421.19H1002.4Z" fill="#292929"/>
<path d="M700.161 440.078L697.125 446.216H703.329L700.161 440.078ZM705.221 449.912H695.299L693.825 452.904H688.611L696.883 436.536H703.527L712.283 452.904H706.761L705.221 449.912Z" fill="#292929"/>
<path d="M721.647 453.146C720.18 453.146 718.911 453.007 717.841 452.728C716.77 452.435 715.853 452.053 715.091 451.584C714.343 451.115 713.727 450.579 713.243 449.978C712.773 449.362 712.399 448.739 712.121 448.108C711.857 447.463 711.673 446.825 711.571 446.194C711.483 445.563 711.439 444.991 711.439 444.478V436.536H716.587V444.17C716.587 444.698 716.66 445.241 716.807 445.798C716.953 446.355 717.225 446.869 717.621 447.338C718.017 447.793 718.567 448.167 719.271 448.46C719.975 448.753 720.884 448.9 721.999 448.9C723.099 448.9 723.993 448.753 724.683 448.46C725.387 448.167 725.937 447.793 726.333 447.338C726.729 446.869 727 446.355 727.147 445.798C727.293 445.241 727.367 444.698 727.367 444.17V436.536H732.493V444.478C732.493 444.991 732.434 445.563 732.317 446.194C732.214 446.825 732.023 447.463 731.745 448.108C731.466 448.739 731.085 449.362 730.601 449.978C730.131 450.579 729.523 451.115 728.775 451.584C728.027 452.053 727.132 452.435 726.091 452.728C725.049 453.007 723.832 453.146 722.439 453.146H721.647Z" fill="#292929"/>
<path d="M741.199 440.408H734.159V436.536H753.431V440.408H746.369V452.904H741.199V440.408Z" fill="#292929"/>
<path d="M766.441 436.25C768.157 436.25 769.631 436.382 770.863 436.646C772.095 436.91 773.136 437.262 773.987 437.702C774.852 438.142 775.542 438.648 776.055 439.22C776.568 439.777 776.964 440.357 777.243 440.958C777.536 441.545 777.727 442.139 777.815 442.74C777.903 443.327 777.947 443.862 777.947 444.346V445.006C777.947 445.49 777.903 446.025 777.815 446.612C777.727 447.199 777.544 447.8 777.265 448.416C776.986 449.017 776.583 449.604 776.055 450.176C775.542 450.748 774.86 451.261 774.009 451.716C773.158 452.156 772.11 452.515 770.863 452.794C769.631 453.058 768.157 453.19 766.441 453.19H765.495C763.764 453.19 762.276 453.058 761.029 452.794C759.797 452.515 758.756 452.156 757.905 451.716C757.054 451.261 756.365 450.748 755.837 450.176C755.324 449.604 754.928 449.017 754.649 448.416C754.37 447.8 754.187 447.199 754.099 446.612C754.011 446.025 753.967 445.49 753.967 445.006V444.346C753.967 443.862 754.011 443.327 754.099 442.74C754.187 442.139 754.37 441.545 754.649 440.958C754.928 440.357 755.324 439.777 755.837 439.22C756.365 438.648 757.054 438.142 757.905 437.702C758.756 437.262 759.797 436.91 761.029 436.646C762.276 436.382 763.764 436.25 765.495 436.25H766.441ZM772.579 444.5C772.579 444.031 772.491 443.547 772.315 443.048C772.154 442.535 771.831 442.073 771.347 441.662C770.863 441.237 770.188 440.892 769.323 440.628C768.458 440.349 767.336 440.21 765.957 440.21C764.549 440.21 763.412 440.349 762.547 440.628C761.682 440.892 761.007 441.237 760.523 441.662C760.054 442.073 759.738 442.535 759.577 443.048C759.416 443.547 759.335 444.031 759.335 444.5V444.764C759.335 445.233 759.416 445.732 759.577 446.26C759.753 446.773 760.083 447.25 760.567 447.69C761.051 448.13 761.726 448.497 762.591 448.79C763.456 449.069 764.578 449.208 765.957 449.208C767.336 449.208 768.45 449.069 769.301 448.79C770.166 448.511 770.841 448.159 771.325 447.734C771.809 447.294 772.139 446.817 772.315 446.304C772.491 445.776 772.579 445.277 772.579 444.808V444.5Z" fill="#292929"/>
<path d="M796.497 440.078L793.461 446.216H799.665L796.497 440.078ZM801.557 449.912H791.635L790.161 452.904H784.947L793.219 436.536H799.863L808.619 452.904H803.097L801.557 449.912Z" fill="#292929"/>
<path d="M818.505 453.19C816.921 453.19 815.55 453.058 814.391 452.794C813.247 452.515 812.264 452.156 811.443 451.716C810.636 451.261 809.976 450.748 809.463 450.176C808.964 449.604 808.568 449.017 808.275 448.416C807.996 447.8 807.806 447.199 807.703 446.612C807.6 446.011 807.549 445.468 807.549 444.984V444.346C807.549 443.847 807.593 443.305 807.681 442.718C807.784 442.117 807.967 441.523 808.231 440.936C808.51 440.335 808.898 439.755 809.397 439.198C809.896 438.626 810.548 438.127 811.355 437.702C812.176 437.262 813.166 436.91 814.325 436.646C815.498 436.382 816.892 436.25 818.505 436.25H819.407C820.991 436.25 822.362 436.367 823.521 436.602C824.68 436.822 825.662 437.123 826.469 437.504C827.276 437.871 827.928 438.289 828.427 438.758C828.94 439.227 829.336 439.704 829.615 440.188C829.908 440.657 830.106 441.112 830.209 441.552C830.312 441.992 830.363 442.373 830.363 442.696V442.938H824.929C824.9 442.835 824.812 442.637 824.665 442.344C824.533 442.036 824.254 441.728 823.829 441.42C823.418 441.097 822.824 440.819 822.047 440.584C821.284 440.335 820.25 440.21 818.945 440.21C817.713 440.21 816.708 440.335 815.931 440.584C815.154 440.833 814.538 441.163 814.083 441.574C813.643 441.97 813.335 442.425 813.159 442.938C812.998 443.437 812.917 443.943 812.917 444.456V444.72C812.917 445.204 813.005 445.71 813.181 446.238C813.372 446.766 813.694 447.25 814.149 447.69C814.618 448.13 815.242 448.497 816.019 448.79C816.811 449.069 817.801 449.208 818.989 449.208C820.309 449.208 821.358 449.076 822.135 448.812C822.912 448.548 823.506 448.247 823.917 447.91C824.328 447.558 824.592 447.228 824.709 446.92C824.841 446.597 824.922 446.392 824.951 446.304H830.385V446.546C830.385 446.883 830.326 447.287 830.209 447.756C830.106 448.225 829.908 448.709 829.615 449.208C829.322 449.692 828.918 450.176 828.405 450.66C827.892 451.129 827.224 451.555 826.403 451.936C825.596 452.303 824.614 452.603 823.455 452.838C822.311 453.073 820.962 453.19 819.407 453.19H818.505Z" fill="#292929"/>
<path d="M842.46 453.19C840.876 453.19 839.505 453.058 838.346 452.794C837.202 452.515 836.219 452.156 835.398 451.716C834.591 451.261 833.931 450.748 833.418 450.176C832.919 449.604 832.523 449.017 832.23 448.416C831.951 447.8 831.761 447.199 831.658 446.612C831.555 446.011 831.504 445.468 831.504 444.984V444.346C831.504 443.847 831.548 443.305 831.636 442.718C831.739 442.117 831.922 441.523 832.186 440.936C832.465 440.335 832.853 439.755 833.352 439.198C833.851 438.626 834.503 438.127 835.31 437.702C836.131 437.262 837.121 436.91 838.28 436.646C839.453 436.382 840.847 436.25 842.46 436.25H843.362C844.946 436.25 846.317 436.367 847.476 436.602C848.635 436.822 849.617 437.123 850.424 437.504C851.231 437.871 851.883 438.289 852.382 438.758C852.895 439.227 853.291 439.704 853.57 440.188C853.863 440.657 854.061 441.112 854.164 441.552C854.267 441.992 854.318 442.373 854.318 442.696V442.938H848.884C848.855 442.835 848.767 442.637 848.62 442.344C848.488 442.036 848.209 441.728 847.784 441.42C847.373 441.097 846.779 440.819 846.002 440.584C845.239 440.335 844.205 440.21 842.9 440.21C841.668 440.21 840.663 440.335 839.886 440.584C839.109 440.833 838.493 441.163 838.038 441.574C837.598 441.97 837.29 442.425 837.114 442.938C836.953 443.437 836.872 443.943 836.872 444.456V444.72C836.872 445.204 836.96 445.71 837.136 446.238C837.327 446.766 837.649 447.25 838.104 447.69C838.573 448.13 839.197 448.497 839.974 448.79C840.766 449.069 841.756 449.208 842.944 449.208C844.264 449.208 845.313 449.076 846.09 448.812C846.867 448.548 847.461 448.247 847.872 447.91C848.283 447.558 848.547 447.228 848.664 446.92C848.796 446.597 848.877 446.392 848.906 446.304H854.34V446.546C854.34 446.883 854.281 447.287 854.164 447.756C854.061 448.225 853.863 448.709 853.57 449.208C853.277 449.692 852.873 450.176 852.36 450.66C851.847 451.129 851.179 451.555 850.358 451.936C849.551 452.303 848.569 452.603 847.41 452.838C846.266 453.073 844.917 453.19 843.362 453.19H842.46Z" fill="#292929"/>
<path d="M873.367 436.536V440.254H861.179V442.674H873.081V446.414H861.179V449.098H873.587V452.904H856.119V436.536H873.367Z" fill="#292929"/>
<path d="M884.447 453.19C883.024 453.19 881.792 453.095 880.751 452.904C879.724 452.713 878.859 452.464 878.155 452.156C877.451 451.833 876.879 451.474 876.439 451.078C876.014 450.667 875.684 450.249 875.449 449.824C875.214 449.384 875.06 448.951 874.987 448.526C874.914 448.101 874.877 447.705 874.877 447.338V447.096H880.223C880.238 447.345 880.296 447.624 880.399 447.932C880.516 448.225 880.744 448.504 881.081 448.768C881.433 449.032 881.924 449.252 882.555 449.428C883.186 449.604 884.029 449.692 885.085 449.692H885.393C886.464 449.692 887.314 449.648 887.945 449.56C888.59 449.457 889.074 449.325 889.397 449.164C889.734 448.988 889.947 448.797 890.035 448.592C890.138 448.387 890.189 448.174 890.189 447.954C890.189 447.719 890.138 447.507 890.035 447.316C889.947 447.125 889.756 446.957 889.463 446.81C889.17 446.663 888.737 446.553 888.165 446.48C887.593 446.392 886.838 446.333 885.899 446.304L883.083 446.238C881.558 446.194 880.282 446.04 879.255 445.776C878.228 445.512 877.407 445.167 876.791 444.742C876.175 444.302 875.735 443.803 875.471 443.246C875.222 442.689 875.097 442.087 875.097 441.442V441.244C875.097 440.628 875.207 440.027 875.427 439.44C875.662 438.839 876.102 438.303 876.747 437.834C877.407 437.365 878.316 436.983 879.475 436.69C880.634 436.397 882.144 436.25 884.007 436.25H885.525C887.461 436.25 889.045 436.404 890.277 436.712C891.509 437.02 892.477 437.423 893.181 437.922C893.885 438.406 894.369 438.956 894.633 439.572C894.897 440.188 895.029 440.804 895.029 441.42V441.64H889.705C889.676 441.479 889.61 441.288 889.507 441.068C889.419 440.848 889.214 440.635 888.891 440.43C888.583 440.225 888.121 440.049 887.505 439.902C886.889 439.755 886.046 439.682 884.975 439.682H884.623C883.626 439.682 882.841 439.726 882.269 439.814C881.712 439.887 881.294 439.99 881.015 440.122C880.736 440.254 880.56 440.408 880.487 440.584C880.414 440.745 880.377 440.914 880.377 441.09C880.377 441.266 880.414 441.435 880.487 441.596C880.575 441.757 880.751 441.904 881.015 442.036C881.279 442.168 881.66 442.278 882.159 442.366C882.658 442.439 883.325 442.483 884.161 442.498L886.911 442.542C888.451 442.571 889.764 442.689 890.849 442.894C891.949 443.099 892.844 443.4 893.533 443.796C894.237 444.192 894.75 444.691 895.073 445.292C895.396 445.893 895.557 446.597 895.557 447.404V447.712C895.557 448.387 895.44 449.054 895.205 449.714C894.985 450.359 894.53 450.946 893.841 451.474C893.166 451.987 892.198 452.405 890.937 452.728C889.676 453.036 888.018 453.19 885.965 453.19H884.447Z" fill="#292929"/>
<path d="M906.039 453.19C904.616 453.19 903.384 453.095 902.343 452.904C901.316 452.713 900.451 452.464 899.747 452.156C899.043 451.833 898.471 451.474 898.031 451.078C897.605 450.667 897.275 450.249 897.041 449.824C896.806 449.384 896.652 448.951 896.579 448.526C896.505 448.101 896.469 447.705 896.469 447.338V447.096H901.815C901.829 447.345 901.888 447.624 901.991 447.932C902.108 448.225 902.335 448.504 902.673 448.768C903.025 449.032 903.516 449.252 904.147 449.428C904.777 449.604 905.621 449.692 906.677 449.692H906.985C908.055 449.692 908.906 449.648 909.537 449.56C910.182 449.457 910.666 449.325 910.989 449.164C911.326 448.988 911.539 448.797 911.627 448.592C911.729 448.387 911.781 448.174 911.781 447.954C911.781 447.719 911.729 447.507 911.627 447.316C911.539 447.125 911.348 446.957 911.055 446.81C910.761 446.663 910.329 446.553 909.757 446.48C909.185 446.392 908.429 446.333 907.491 446.304L904.675 446.238C903.149 446.194 901.873 446.04 900.847 445.776C899.82 445.512 898.999 445.167 898.383 444.742C897.767 444.302 897.327 443.803 897.063 443.246C896.813 442.689 896.689 442.087 896.689 441.442V441.244C896.689 440.628 896.799 440.027 897.019 439.44C897.253 438.839 897.693 438.303 898.339 437.834C898.999 437.365 899.908 436.983 901.067 436.69C902.225 436.397 903.736 436.25 905.599 436.25H907.117C909.053 436.25 910.637 436.404 911.869 436.712C913.101 437.02 914.069 437.423 914.773 437.922C915.477 438.406 915.961 438.956 916.225 439.572C916.489 440.188 916.621 440.804 916.621 441.42V441.64H911.297C911.267 441.479 911.201 441.288 911.099 441.068C911.011 440.848 910.805 440.635 910.483 440.43C910.175 440.225 909.713 440.049 909.097 439.902C908.481 439.755 907.637 439.682 906.567 439.682H906.215C905.217 439.682 904.433 439.726 903.861 439.814C903.303 439.887 902.885 439.99 902.607 440.122C902.328 440.254 902.152 440.408 902.079 440.584C902.005 440.745 901.969 440.914 901.969 441.09C901.969 441.266 902.005 441.435 902.079 441.596C902.167 441.757 902.343 441.904 902.607 442.036C902.871 442.168 903.252 442.278 903.751 442.366C904.249 442.439 904.917 442.483 905.753 442.498L908.503 442.542C910.043 442.571 911.355 442.689 912.441 442.894C913.541 443.099 914.435 443.4 915.125 443.796C915.829 444.192 916.342 444.691 916.665 445.292C916.987 445.893 917.149 446.597 917.149 447.404V447.712C917.149 448.387 917.031 449.054 916.797 449.714C916.577 450.359 916.122 450.946 915.433 451.474C914.758 451.987 913.79 452.405 912.529 452.728C911.267 453.036 909.61 453.19 907.557 453.19H906.039Z" fill="#292929"/>
<path d="M930.711 436.25C932.427 436.25 933.901 436.382 935.133 436.646C936.365 436.91 937.406 437.262 938.257 437.702C939.122 438.142 939.811 438.648 940.325 439.22C940.838 439.777 941.234 440.357 941.513 440.958C941.806 441.545 941.997 442.139 942.085 442.74C942.173 443.327 942.217 443.862 942.217 444.346V445.006C942.217 445.49 942.173 446.025 942.085 446.612C941.997 447.199 941.813 447.8 941.535 448.416C941.256 449.017 940.853 449.604 940.325 450.176C939.811 450.748 939.129 451.261 938.279 451.716C937.428 452.156 936.379 452.515 935.133 452.794C933.901 453.058 932.427 453.19 930.711 453.19H929.765C928.034 453.19 926.545 453.058 925.299 452.794C924.067 452.515 923.025 452.156 922.175 451.716C921.324 451.261 920.635 450.748 920.107 450.176C919.593 449.604 919.197 449.017 918.919 448.416C918.64 447.8 918.457 447.199 918.369 446.612C918.281 446.025 918.237 445.49 918.237 445.006V444.346C918.237 443.862 918.281 443.327 918.369 442.74C918.457 442.139 918.64 441.545 918.919 440.958C919.197 440.357 919.593 439.777 920.107 439.22C920.635 438.648 921.324 438.142 922.175 437.702C923.025 437.262 924.067 436.91 925.299 436.646C926.545 436.382 928.034 436.25 929.765 436.25H930.711ZM936.849 444.5C936.849 444.031 936.761 443.547 936.585 443.048C936.423 442.535 936.101 442.073 935.617 441.662C935.133 441.237 934.458 440.892 933.593 440.628C932.727 440.349 931.605 440.21 930.227 440.21C928.819 440.21 927.682 440.349 926.817 440.628C925.951 440.892 925.277 441.237 924.793 441.662C924.323 442.073 924.008 442.535 923.847 443.048C923.685 443.547 923.605 444.031 923.605 444.5V444.764C923.605 445.233 923.685 445.732 923.847 446.26C924.023 446.773 924.353 447.25 924.837 447.69C925.321 448.13 925.995 448.497 926.861 448.79C927.726 449.069 928.848 449.208 930.227 449.208C931.605 449.208 932.72 449.069 933.571 448.79C934.436 448.511 935.111 448.159 935.595 447.734C936.079 447.294 936.409 446.817 936.585 446.304C936.761 445.776 936.849 445.277 936.849 444.808V444.5Z" fill="#292929"/>
<path d="M949.181 443.466H956.947C957.68 443.466 958.208 443.312 958.531 443.004C958.853 442.696 959.015 442.315 959.015 441.86V441.838C959.015 441.413 958.853 441.046 958.531 440.738C958.223 440.415 957.695 440.254 956.947 440.254H949.181V443.466ZM949.181 452.904H944.055V436.536H957.255C958.619 436.536 959.755 436.646 960.665 436.866C961.574 437.086 962.3 437.394 962.843 437.79C963.4 438.171 963.789 438.619 964.009 439.132C964.243 439.645 964.361 440.195 964.361 440.782V441.046C964.361 441.633 964.251 442.131 964.031 442.542C963.825 442.953 963.561 443.305 963.239 443.598C962.931 443.877 962.601 444.097 962.249 444.258C961.897 444.419 961.589 444.544 961.325 444.632C961.735 444.749 962.131 444.911 962.513 445.116C962.894 445.321 963.224 445.585 963.503 445.908C963.781 446.216 964.001 446.575 964.163 446.986C964.339 447.397 964.427 447.866 964.427 448.394V450.792C964.427 451.452 964.456 451.921 964.515 452.2C964.588 452.464 964.661 452.662 964.735 452.794V452.904H959.521C959.447 452.801 959.389 452.677 959.345 452.53C959.301 452.383 959.279 452.163 959.279 451.87V449.978C959.279 448.981 959.022 448.255 958.509 447.8C958.01 447.331 957.13 447.096 955.869 447.096H949.181V452.904Z" fill="#292929"/>
<path d="M971.567 452.904H966.441V436.536H971.567V452.904Z" fill="#292929"/>
<path d="M991.316 436.536V440.254H979.128V442.674H991.03V446.414H979.128V449.098H991.536V452.904H974.068V436.536H991.316Z" fill="#292929"/>
<path d="M1002.4 453.19C1000.97 453.19 999.741 453.095 998.7 452.904C997.673 452.713 996.808 452.464 996.104 452.156C995.4 451.833 994.828 451.474 994.388 451.078C993.963 450.667 993.633 450.249 993.398 449.824C993.163 449.384 993.009 448.951 992.936 448.526C992.863 448.101 992.826 447.705 992.826 447.338V447.096H998.172C998.187 447.345 998.245 447.624 998.348 447.932C998.465 448.225 998.693 448.504 999.03 448.768C999.382 449.032 999.873 449.252 1000.5 449.428C1001.13 449.604 1001.98 449.692 1003.03 449.692H1003.34C1004.41 449.692 1005.26 449.648 1005.89 449.56C1006.54 449.457 1007.02 449.325 1007.35 449.164C1007.68 448.988 1007.9 448.797 1007.98 448.592C1008.09 448.387 1008.14 448.174 1008.14 447.954C1008.14 447.719 1008.09 447.507 1007.98 447.316C1007.9 447.125 1007.71 446.957 1007.41 446.81C1007.12 446.663 1006.69 446.553 1006.11 446.48C1005.54 446.392 1004.79 446.333 1003.85 446.304L1001.03 446.238C999.507 446.194 998.231 446.04 997.204 445.776C996.177 445.512 995.356 445.167 994.74 444.742C994.124 444.302 993.684 443.803 993.42 443.246C993.171 442.689 993.046 442.087 993.046 441.442V441.244C993.046 440.628 993.156 440.027 993.376 439.44C993.611 438.839 994.051 438.303 994.696 437.834C995.356 437.365 996.265 436.983 997.424 436.69C998.583 436.397 1000.09 436.25 1001.96 436.25H1003.47C1005.41 436.25 1006.99 436.404 1008.23 436.712C1009.46 437.02 1010.43 437.423 1011.13 437.922C1011.83 438.406 1012.32 438.956 1012.58 439.572C1012.85 440.188 1012.98 440.804 1012.98 441.42V441.64H1007.65C1007.62 441.479 1007.56 441.288 1007.46 441.068C1007.37 440.848 1007.16 440.635 1006.84 440.43C1006.53 440.225 1006.07 440.049 1005.45 439.902C1004.84 439.755 1003.99 439.682 1002.92 439.682H1002.57C1001.57 439.682 1000.79 439.726 1000.22 439.814C999.661 439.887 999.243 439.99 998.964 440.122C998.685 440.254 998.509 440.408 998.436 440.584C998.363 440.745 998.326 440.914 998.326 441.09C998.326 441.266 998.363 441.435 998.436 441.596C998.524 441.757 998.7 441.904 998.964 442.036C999.228 442.168 999.609 442.278 1000.11 442.366C1000.61 442.439 1001.27 442.483 1002.11 442.498L1004.86 442.542C1006.4 442.571 1007.71 442.689 1008.8 442.894C1009.9 443.099 1010.79 443.4 1011.48 443.796C1012.19 444.192 1012.7 444.691 1013.02 445.292C1013.34 445.893 1013.51 446.597 1013.51 447.404V447.712C1013.51 448.387 1013.39 449.054 1013.15 449.714C1012.93 450.359 1012.48 450.946 1011.79 451.474C1011.12 451.987 1010.15 452.405 1008.89 452.728C1007.62 453.036 1005.97 453.19 1003.91 453.19H1002.4Z" fill="#292929"/>
</svg>
