<svg width="1600" height="904" viewBox="0 0 1600 904" fill="none" xmlns="http://www.w3.org/2000/svg">
<path d="M18.001 9.946C7.99 9.946 2.115 17.607 2.115 26.725C2.115 35.843 7.708 42.47 17.86 42.47C22.184 42.47 25.38 41.483 28.012 40.59L29.61 42.846H30.08C30.221 38.569 30.362 34.292 30.55 29.968H30.315C29.657 29.968 29.563 31.378 28.952 33.305C27.401 38.381 24.91 41.812 18.048 41.812C10.575 41.812 7.05 35.044 7.05 26.819C7.05 18.735 10.011 10.651 18.001 10.651C27.683 10.651 27.73 20.38 28.999 20.38H29.281L28.858 9.194H28.435L26.884 11.403C24.816 10.792 21.667 9.946 18.001 9.946ZM42.4766 20.944C36.6956 20.944 34.8156 24.469 34.8156 26.255C34.8156 27.43 35.5676 28.417 36.7896 28.417C38.4816 28.417 39.1866 27.242 39.1866 25.926C39.1866 24.751 38.6226 23.529 37.7296 22.965C38.6696 22.213 40.1266 21.602 42.0066 21.602C45.8136 21.602 46.3776 24.704 46.3776 27.242V30.297C45.5786 30.203 44.7326 30.156 43.8396 30.156C38.9046 30.156 33.2176 31.801 33.2176 37.441C33.2176 40.825 35.9436 42.517 38.8576 42.517C41.5366 42.517 43.8866 41.953 46.2836 39.368H46.4716C46.5656 41.906 47.9286 42.47 49.8086 42.47C51.1716 42.47 52.3936 42.047 53.0516 41.765L53.0046 41.295C50.5136 41.248 50.2786 40.684 50.2786 38.334V28.135C50.2786 24.563 48.5866 20.944 42.4766 20.944ZM40.7376 41.436C38.5756 41.436 37.3536 39.885 37.3536 36.971C37.3536 33.493 39.3746 30.814 44.6386 30.814C45.2026 30.814 45.9546 30.861 46.3776 30.908V38.381C45.2026 40.12 42.8996 41.436 40.7376 41.436ZM62.9536 31.425H71.6016V37.911C71.6016 42.047 68.4056 40.684 68.4056 41.718V42H79.2626V41.718C79.2626 40.637 75.5026 41.953 75.5026 38.193V25.315C75.5026 21.555 79.2626 22.871 79.2626 21.79V21.508H68.4056V21.79C68.4056 22.824 71.6016 21.461 71.6016 25.597V30.673H62.9536V25.315C62.9536 21.555 66.2436 22.871 66.2436 21.79V21.508H55.3866V21.79C55.3866 22.824 59.0526 21.367 59.0526 25.597V37.911C59.0526 42.141 55.3866 40.684 55.3866 41.718V42H66.2436V41.718C66.2436 40.637 62.9536 41.953 62.9536 38.193V31.425ZM85.7655 38.005C85.7655 41.812 82.0995 40.825 82.0995 41.671V42H93.1915V41.718C93.1915 41.013 89.6195 41.624 89.6195 38.193V31.237H91.2645C95.2595 31.237 95.2595 33.916 97.2805 38.757C98.1735 40.919 99.0665 42.329 101.651 42.47C102.732 42.47 104.048 42.376 105.176 42L105.035 41.389C103.296 41.577 102.638 40.731 101.933 39.556C101.322 38.475 100.711 37.065 100.053 35.42C98.6905 32.036 97.2805 30.814 93.5675 30.814V30.626C96.9045 29.075 97.4215 24.986 98.4085 23.294C98.8315 24.657 100.053 25.221 101.181 25.221C102.544 25.221 103.578 24.375 103.578 23.153C103.578 22.166 102.685 20.991 100.852 20.991C98.4555 20.991 97.7035 22.73 97.0455 24.469L96.4815 25.973C95.3065 28.652 93.8495 30.579 90.8415 30.579H89.6195V26.255C89.6195 23.623 90.0425 23.012 91.6405 22.495C92.3925 22.26 93.1445 22.26 93.1445 21.884V21.508H82.1465V21.837C82.1465 22.73 85.7655 21.743 85.7655 25.503V38.005ZM118.678 22.213C121.404 22.213 123.425 23.529 124.976 28.182C125.117 28.605 125.258 28.793 125.54 28.746L125.775 28.699C125.446 26.114 125.164 23.529 124.882 20.944C122.532 21.273 119.618 21.508 115.811 21.508C112.427 21.508 108.996 21.32 106.787 20.944L105.894 28.699C105.988 28.699 106.082 28.746 106.223 28.746C106.411 28.746 106.505 28.605 106.693 28.182C108.479 23.67 110.03 22.213 112.991 22.213H113.931V38.005C113.931 41.812 110.171 40.966 110.171 41.671V42H121.263V41.718C121.263 41.013 117.738 41.624 117.738 38.193V22.213H118.678ZM138.632 30.72V29.921H127.493V30.72H138.632ZM162.314 41.765V42H177.025V41.765C177.025 40.496 171.761 42.235 171.761 36.783V14.834C171.761 10.322 177.025 11.685 177.025 10.604V10.322H141.775V10.604C141.775 11.685 146.804 10.322 146.804 14.881V36.736C146.804 42.235 141.775 40.59 141.775 41.765V42H156.439V41.765C156.439 40.543 151.175 42.235 151.175 36.783V11.074H167.343V36.736C167.343 42.141 162.314 40.59 162.314 41.765ZM198.177 30.626V30.062C198.177 25.315 195.216 20.944 189.059 20.944C182.902 20.944 178.813 25.597 178.813 31.707C178.813 38.005 182.761 42.517 189.623 42.517C192.725 42.517 195.498 41.342 197.566 39.227L197.19 38.851C195.31 40.59 192.772 41.718 190.187 41.718C184.782 41.718 182.949 37.723 183.09 31.002H197.754L198.177 30.626ZM188.918 21.555C192.725 21.555 193.9 26.114 193.9 29.075V30.015L183.137 30.391C183.513 25.221 185.581 21.555 188.918 21.555ZM212.632 22.213C215.358 22.213 217.379 23.529 218.93 28.182C219.071 28.605 219.212 28.793 219.494 28.746L219.729 28.699C219.4 26.114 219.118 23.529 218.836 20.944C216.486 21.273 213.572 21.508 209.765 21.508C206.381 21.508 202.95 21.32 200.741 20.944L199.848 28.699C199.942 28.699 200.036 28.746 200.177 28.746C200.365 28.746 200.459 28.605 200.647 28.182C202.433 23.67 203.984 22.213 206.945 22.213H207.885V38.005C207.885 41.812 204.125 40.966 204.125 41.671V42H215.217V41.718C215.217 41.013 211.692 41.624 211.692 38.193V22.213H212.632ZM241.046 30.626V30.062C241.046 25.315 238.085 20.944 231.928 20.944C225.771 20.944 221.682 25.597 221.682 31.707C221.682 38.005 225.63 42.517 232.492 42.517C235.594 42.517 238.367 41.342 240.435 39.227L240.059 38.851C238.179 40.59 235.641 41.718 233.056 41.718C227.651 41.718 225.818 37.723 225.959 31.002H240.623L241.046 30.626ZM231.787 21.555C235.594 21.555 236.769 26.114 236.769 29.075V30.015L226.006 30.391C226.382 25.221 228.45 21.555 231.787 21.555ZM255.972 41.812C254.233 41.812 252.353 41.342 250.473 40.073V24.704C251.836 22.777 254.327 21.837 256.348 21.837C260.437 21.837 262.834 25.644 262.834 31.472C262.834 36.689 261.095 41.812 255.972 41.812ZM267.017 31.237C267.017 24.704 262.881 20.944 257.147 20.944C254.468 20.944 251.883 21.931 249.956 24.375L249.768 24.328L250.05 21.179L249.862 20.991L243.047 21.79V22.072C243.047 23.106 246.572 21.602 246.572 25.55V48.251C246.572 52.481 242.906 50.836 242.906 51.87V52.152H253.951V51.87C253.951 50.789 250.426 52.293 250.426 48.533V40.966L250.661 40.919C252.447 42.188 255.032 42.517 256.395 42.517C262.693 42.517 267.017 38.757 267.017 31.237ZM270.289 30.156C270.289 36.313 272.733 42.517 281.099 42.517C288.055 42.517 291.439 36.83 291.439 32.083C291.439 25.315 286.692 21.837 281.334 21.837C278.749 21.837 273.297 23.106 271.229 27.947H270.994C271.088 24.939 272.122 20.286 274.895 18.124C280.629 13.659 290.593 16.808 290.593 9.711C290.593 9.1 290.499 8.536 290.452 7.925C290.358 7.925 289.794 7.878 289.747 7.878C288.854 14.787 270.289 7.784 270.289 30.156ZM280.958 22.542C285.987 22.542 287.303 28.088 287.303 32.318C287.303 36.36 285.846 41.906 281.005 41.906C275.929 41.906 274.519 36.219 274.519 32.13C274.519 28.041 276.211 22.542 280.958 22.542ZM296.681 52.575C300.911 52.575 303.496 48.533 305.047 44.256L311.533 26.349C313.366 21.226 316.985 22.73 316.985 21.79V21.508H307.773V21.79C307.773 22.589 311.157 21.837 311.157 24.375C311.157 24.892 311.063 25.55 310.734 26.443L306.598 38.099H306.457L301.428 25.597C301.193 24.939 301.099 24.516 301.099 24.14C301.099 21.884 304.436 22.683 304.436 21.837V21.508H293.203V21.837C293.203 22.824 295.694 21.696 297.292 25.503L304.342 42.564H304.906L304.342 44.209C302.979 48.11 300.958 50.601 299.219 51.259C298.89 49.567 297.668 48.157 295.835 48.157C294.707 48.157 293.626 48.909 293.626 50.272C293.626 51.729 294.942 52.575 296.681 52.575ZM330.74 41.812C329.001 41.812 327.121 41.342 325.241 40.073V24.704C326.604 22.777 329.095 21.837 331.116 21.837C335.205 21.837 337.602 25.644 337.602 31.472C337.602 36.689 335.863 41.812 330.74 41.812ZM341.785 31.237C341.785 24.704 337.649 20.944 331.915 20.944C329.236 20.944 326.651 21.931 324.724 24.375L324.536 24.328L324.818 21.179L324.63 20.991L317.815 21.79V22.072C317.815 23.106 321.34 21.602 321.34 25.55V48.251C321.34 52.481 317.674 50.836 317.674 51.87V52.152H328.719V51.87C328.719 50.789 325.194 52.293 325.194 48.533V40.966L325.429 40.919C327.215 42.188 329.8 42.517 331.163 42.517C337.461 42.517 341.785 38.757 341.785 31.237ZM348.582 38.24C348.582 42.188 345.01 40.731 345.01 41.718V42H356.149V41.718C356.149 40.637 352.483 42.094 352.483 38.475L352.436 22.26H355.162C358.264 22.26 360.755 23.2 362.306 27.9C362.447 28.276 362.541 28.511 362.87 28.464L363.105 28.417L362.212 20.803C360.144 21.414 357.606 21.508 353.846 21.508H344.775V21.79C344.775 22.73 348.582 21.602 348.582 25.409V38.24ZM382.971 39.603C380.386 41.295 378.13 41.577 376.391 41.577C372.208 41.577 369.529 38.616 369.529 32.13C369.529 25.033 372.631 21.696 376.673 21.696C377.754 21.696 378.835 21.884 379.822 22.307C379.258 23.106 378.882 24.234 378.882 25.221C378.882 26.537 379.493 27.665 380.997 27.665C382.219 27.665 382.971 26.584 382.971 25.362C382.971 23.764 381.796 20.944 376.297 20.944C369.67 20.944 365.252 25.503 365.252 32.036C365.252 38.522 369.247 42.517 375.733 42.517C378.882 42.517 381.326 41.53 383.3 40.073L382.971 39.603ZM389.062 38.005C389.062 41.812 385.396 40.825 385.396 41.671V42H396.488V41.718C396.488 41.013 392.916 41.624 392.916 38.193V31.237H394.561C398.556 31.237 398.556 33.916 400.577 38.757C401.47 40.919 402.363 42.329 404.948 42.47C406.029 42.47 407.345 42.376 408.473 42L408.332 41.389C406.593 41.577 405.935 40.731 405.23 39.556C404.619 38.475 404.008 37.065 403.35 35.42C401.987 32.036 400.577 30.814 396.864 30.814V30.626C400.201 29.075 400.718 24.986 401.705 23.294C402.128 24.657 403.35 25.221 404.478 25.221C405.841 25.221 406.875 24.375 406.875 23.153C406.875 22.166 405.982 20.991 404.149 20.991C401.752 20.991 401 22.73 400.342 24.469L399.778 25.973C398.603 28.652 397.146 30.579 394.138 30.579H392.916V26.255C392.916 23.623 393.339 23.012 394.937 22.495C395.689 22.26 396.441 22.26 396.441 21.884V21.508H385.443V21.837C385.443 22.73 389.062 21.743 389.062 25.503V38.005ZM426.863 23.388V37.911C426.863 42.047 423.667 40.684 423.667 41.718V42H434.524V41.718C434.524 40.637 430.764 41.953 430.764 38.193V25.315C430.764 21.555 434.524 22.871 434.524 21.79V21.508H426.863L418.027 40.12H417.886V25.315C417.886 21.555 421.176 22.871 421.176 21.79V21.508H410.319V21.79C410.319 22.824 413.985 21.367 413.985 25.597V37.911C413.985 42.141 410.319 40.684 410.319 41.718V42H417.886L426.722 23.388H426.863ZM453.897 23.388V37.911C453.897 42.047 450.701 40.684 450.701 41.718V42H461.558V41.718C461.558 40.637 457.798 41.953 457.798 38.193V25.315C457.798 21.555 461.558 22.871 461.558 21.79V21.508H453.897L445.061 40.12H444.92V25.315C444.92 21.555 448.21 22.871 448.21 21.79V21.508H437.353V21.79C437.353 22.824 441.019 21.367 441.019 25.597V37.911C441.019 42.141 437.353 40.684 437.353 41.718V42H444.92L453.756 23.388H453.897ZM447.881 15.821C449.808 15.821 454.085 14.975 457.187 11.168L456.858 10.839C454.555 13.565 450.654 15.257 447.693 14.74C448.163 14.317 448.398 13.471 448.398 12.766C448.398 11.638 447.787 10.322 446.33 10.322C445.155 10.322 444.121 11.309 444.121 12.625C444.121 14.223 445.249 15.821 447.881 15.821ZM13.066 82.213C15.792 82.213 17.813 83.529 19.364 88.182C19.505 88.605 19.646 88.793 19.928 88.746L20.163 88.699C19.834 86.114 19.552 83.529 19.27 80.944C16.92 81.273 14.006 81.508 10.199 81.508C6.815 81.508 3.384 81.32 1.175 80.944L0.282 88.699C0.376 88.699 0.47 88.746 0.611 88.746C0.799 88.746 0.893 88.605 1.081 88.182C2.867 83.67 4.418 82.213 7.379 82.213H8.319V98.005C8.319 101.812 4.559 100.966 4.559 101.671V102H15.651V101.718C15.651 101.013 12.126 101.624 12.126 98.193V82.213H13.066ZM41.4797 90.626V90.062C41.4797 85.315 38.5187 80.944 32.3617 80.944C26.2047 80.944 22.1157 85.597 22.1157 91.707C22.1157 98.005 26.0637 102.517 32.9257 102.517C36.0277 102.517 38.8007 101.342 40.8687 99.227L40.4927 98.851C38.6127 100.59 36.0747 101.718 33.4897 101.718C28.0847 101.718 26.2517 97.723 26.3927 91.002H41.0567L41.4797 90.626ZM32.2207 81.555C36.0277 81.555 37.2027 86.114 37.2027 89.075V90.015L26.4397 90.391C26.8157 85.221 28.8837 81.555 32.2207 81.555ZM53.5381 80.944C47.7571 80.944 45.8771 84.469 45.8771 86.255C45.8771 87.43 46.6291 88.417 47.8511 88.417C49.5431 88.417 50.2481 87.242 50.2481 85.926C50.2481 84.751 49.6841 83.529 48.7911 82.965C49.7311 82.213 51.1881 81.602 53.0681 81.602C56.8751 81.602 57.4391 84.704 57.4391 87.242V90.297C56.6401 90.203 55.7941 90.156 54.9011 90.156C49.9661 90.156 44.2791 91.801 44.2791 97.441C44.2791 100.825 47.0051 102.517 49.9191 102.517C52.5981 102.517 54.9481 101.953 57.3451 99.368H57.5331C57.6271 101.906 58.9901 102.47 60.8701 102.47C62.2331 102.47 63.4551 102.047 64.1131 101.765L64.0661 101.295C61.5751 101.248 61.3401 100.684 61.3401 98.334V88.135C61.3401 84.563 59.6481 80.944 53.5381 80.944ZM51.7991 101.436C49.6371 101.436 48.4151 99.885 48.4151 96.971C48.4151 93.493 50.4361 90.814 55.7001 90.814C56.2641 90.814 57.0161 90.861 57.4391 90.908V98.381C56.2641 100.12 53.9611 101.436 51.7991 101.436ZM78.1041 82.213C80.8301 82.213 82.8511 83.529 84.4021 88.182C84.5431 88.605 84.6841 88.793 84.9661 88.746L85.2011 88.699C84.8721 86.114 84.5901 83.529 84.3081 80.944C81.9581 81.273 79.0441 81.508 75.2371 81.508C71.8531 81.508 68.4221 81.32 66.2131 80.944L65.3201 88.699C65.4141 88.699 65.5081 88.746 65.6491 88.746C65.8371 88.746 65.9311 88.605 66.1191 88.182C67.9051 83.67 69.4561 82.213 72.4171 82.213H73.3571V98.005C73.3571 101.812 69.5971 100.966 69.5971 101.671V102H80.6891V101.718C80.6891 101.013 77.1641 101.624 77.1641 98.193V82.213H78.1041ZM99.0448 101.812C97.3058 101.812 95.4258 101.342 93.5458 100.073V84.704C94.9088 82.777 97.3998 81.837 99.4208 81.837C103.51 81.837 105.907 85.644 105.907 91.472C105.907 96.689 104.168 101.812 99.0448 101.812ZM110.09 91.237C110.09 84.704 105.954 80.944 100.22 80.944C97.5408 80.944 94.9558 81.931 93.0288 84.375L92.8408 84.328L93.1228 81.179L92.9348 80.991L86.1198 81.79V82.072C86.1198 83.106 89.6448 81.602 89.6448 85.55V108.251C89.6448 112.481 85.9788 110.836 85.9788 111.87V112.152H97.0238V111.87C97.0238 110.789 93.4988 112.293 93.4988 108.533V100.966L93.7338 100.919C95.5198 102.188 98.1048 102.517 99.4678 102.517C105.766 102.517 110.09 98.757 110.09 91.237ZM124.653 90.156C124.653 96.313 127.097 102.517 135.463 102.517C142.419 102.517 145.803 96.83 145.803 92.083C145.803 85.315 141.056 81.837 135.698 81.837C133.113 81.837 127.661 83.106 125.593 87.947H125.358C125.452 84.939 126.486 80.286 129.259 78.124C134.993 73.659 144.957 76.808 144.957 69.711C144.957 69.1 144.863 68.536 144.816 67.925C144.722 67.925 144.158 67.878 144.111 67.878C143.218 74.787 124.653 67.784 124.653 90.156ZM135.322 82.542C140.351 82.542 141.667 88.088 141.667 92.318C141.667 96.36 140.21 101.906 135.369 101.906C130.293 101.906 128.883 96.219 128.883 92.13C128.883 88.041 130.575 82.542 135.322 82.542ZM158.095 80.944C152.314 80.944 150.434 84.469 150.434 86.255C150.434 87.43 151.186 88.417 152.408 88.417C154.1 88.417 154.805 87.242 154.805 85.926C154.805 84.751 154.241 83.529 153.348 82.965C154.288 82.213 155.745 81.602 157.625 81.602C161.432 81.602 161.996 84.704 161.996 87.242V90.297C161.197 90.203 160.351 90.156 159.458 90.156C154.523 90.156 148.836 91.801 148.836 97.441C148.836 100.825 151.562 102.517 154.476 102.517C157.155 102.517 159.505 101.953 161.902 99.368H162.09C162.184 101.906 163.547 102.47 165.427 102.47C166.79 102.47 168.012 102.047 168.67 101.765L168.623 101.295C166.132 101.248 165.897 100.684 165.897 98.334V88.135C165.897 84.563 164.205 80.944 158.095 80.944ZM156.356 101.436C154.194 101.436 152.972 99.885 152.972 96.971C152.972 93.493 154.993 90.814 160.257 90.814C160.821 90.814 161.573 90.861 161.996 90.908V98.381C160.821 100.12 158.518 101.436 156.356 101.436ZM178.572 96.595C179.747 92.224 179.559 85.644 179.7 82.166H186.092V97.911C186.092 102.141 182.567 100.684 182.567 101.718V102H193.33V101.718C193.33 100.637 189.993 101.953 189.993 98.193V85.315C189.993 81.555 193.753 82.871 193.753 81.79V81.508H174.53V81.79C174.53 82.824 178.807 81.461 178.807 85.785C178.807 95.514 177.679 99.227 174.718 101.248C174.295 99.368 173.214 98.616 171.851 98.616C170.77 98.616 169.924 99.415 169.924 100.355C169.924 101.906 171.381 102.517 172.697 102.517C175.94 102.517 177.867 99.274 178.572 96.595ZM216.169 90.626V90.062C216.169 85.315 213.208 80.944 207.051 80.944C200.894 80.944 196.805 85.597 196.805 91.707C196.805 98.005 200.753 102.517 207.615 102.517C210.717 102.517 213.49 101.342 215.558 99.227L215.182 98.851C213.302 100.59 210.764 101.718 208.179 101.718C202.774 101.718 200.941 97.723 201.082 91.002H215.746L216.169 90.626ZM206.91 81.555C210.717 81.555 211.892 86.114 211.892 89.075V90.015L201.129 90.391C201.505 85.221 203.573 81.555 206.91 81.555ZM230.625 82.213C233.351 82.213 235.372 83.529 236.923 88.182C237.064 88.605 237.205 88.793 237.487 88.746L237.722 88.699C237.393 86.114 237.111 83.529 236.829 80.944C234.479 81.273 231.565 81.508 227.758 81.508C224.374 81.508 220.943 81.32 218.734 80.944L217.841 88.699C217.935 88.699 218.029 88.746 218.17 88.746C218.358 88.746 218.452 88.605 218.64 88.182C220.426 83.67 221.977 82.213 224.938 82.213H225.878V98.005C225.878 101.812 222.118 100.966 222.118 101.671V102H233.21V101.718C233.21 101.013 229.685 101.624 229.685 98.193V82.213H230.625ZM248.698 80.944C242.917 80.944 241.037 84.469 241.037 86.255C241.037 87.43 241.789 88.417 243.011 88.417C244.703 88.417 245.408 87.242 245.408 85.926C245.408 84.751 244.844 83.529 243.951 82.965C244.891 82.213 246.348 81.602 248.228 81.602C252.035 81.602 252.599 84.704 252.599 87.242V90.297C251.8 90.203 250.954 90.156 250.061 90.156C245.126 90.156 239.439 91.801 239.439 97.441C239.439 100.825 242.165 102.517 245.079 102.517C247.758 102.517 250.108 101.953 252.505 99.368H252.693C252.787 101.906 254.15 102.47 256.03 102.47C257.393 102.47 258.615 102.047 259.273 101.765L259.226 101.295C256.735 101.248 256.5 100.684 256.5 98.334V88.135C256.5 84.563 254.808 80.944 248.698 80.944ZM246.959 101.436C244.797 101.436 243.575 99.885 243.575 96.971C243.575 93.493 245.596 90.814 250.86 90.814C251.424 90.814 252.176 90.861 252.599 90.908V98.381C251.424 100.12 249.121 101.436 246.959 101.436ZM6.627 155.937C6.627 162.47 1.551 160.496 1.551 161.765V162H17.766C26.508 162 29.516 156.595 29.516 152.882C29.516 145.691 22.56 143.623 16.873 143.623C14.852 143.623 12.737 143.905 11.045 144.234V131.074H16.779C21.667 131.074 23.782 132.625 25.897 137.231C26.367 138.265 26.649 139.44 27.26 139.44C27.354 139.44 27.401 139.44 27.495 139.393L26.226 129.053C23.923 130.04 20.868 130.322 17.578 130.322H1.41V130.651C1.41 131.779 6.627 130.181 6.627 135.163V155.937ZM11.045 144.939C12.408 144.704 13.959 144.563 15.369 144.563C20.398 144.563 24.581 146.772 24.581 152.412C24.581 157.911 20.68 161.295 15.98 161.295H14.758C11.421 161.295 11.045 159.932 11.045 156.83V144.939ZM43.797 140.944C37.217 140.944 33.269 145.738 33.269 151.66C33.269 157.629 36.888 162.517 43.797 162.517C50.377 162.517 54.419 157.535 54.419 151.566C54.419 145.644 50.659 140.944 43.797 140.944ZM43.797 141.555C48.732 141.555 50.236 147.195 50.236 151.801C50.236 156.266 48.591 161.953 43.891 161.953C38.909 161.953 37.452 156.219 37.452 151.566C37.452 147.101 39.191 141.555 43.797 141.555ZM69.578 161.812C67.839 161.812 65.959 161.342 64.079 160.073V144.704C65.442 142.777 67.933 141.837 69.954 141.837C74.043 141.837 76.44 145.644 76.44 151.472C76.44 156.689 74.701 161.812 69.578 161.812ZM80.623 151.237C80.623 144.704 76.487 140.944 70.753 140.944C68.074 140.944 65.489 141.931 63.562 144.375L63.374 144.328L63.656 141.179L63.468 140.991L56.653 141.79V142.072C56.653 143.106 60.178 141.602 60.178 145.55V168.251C60.178 172.481 56.512 170.836 56.512 171.87V172.152H67.557V171.87C67.557 170.789 64.032 172.293 64.032 168.533V160.966L64.267 160.919C66.053 162.188 68.638 162.517 70.001 162.517C76.299 162.517 80.623 158.757 80.623 151.237ZM100.204 143.388V157.911C100.204 162.047 97.008 160.684 97.008 161.718V162H107.865V161.718C107.865 160.637 104.105 161.953 104.105 158.193V145.315C104.105 141.555 107.865 142.871 107.865 141.79V141.508H100.204L91.368 160.12H91.227V145.315C91.227 141.555 94.517 142.871 94.517 141.79V141.508H83.66V141.79C83.66 142.824 87.326 141.367 87.326 145.597V157.911C87.326 162.141 83.66 160.684 83.66 161.718V162H91.227L100.063 143.388H100.204ZM128.648 159.603C126.063 161.295 123.807 161.577 122.068 161.577C117.885 161.577 115.206 158.616 115.206 152.13C115.206 145.033 118.308 141.696 122.35 141.696C123.431 141.696 124.512 141.884 125.499 142.307C124.935 143.106 124.559 144.234 124.559 145.221C124.559 146.537 125.17 147.665 126.674 147.665C127.896 147.665 128.648 146.584 128.648 145.362C128.648 143.764 127.473 140.944 121.974 140.944C115.347 140.944 110.929 145.503 110.929 152.036C110.929 158.522 114.924 162.517 121.41 162.517C124.559 162.517 127.003 161.53 128.977 160.073L128.648 159.603ZM140.332 140.944C134.551 140.944 132.671 144.469 132.671 146.255C132.671 147.43 133.423 148.417 134.645 148.417C136.337 148.417 137.042 147.242 137.042 145.926C137.042 144.751 136.478 143.529 135.585 142.965C136.525 142.213 137.982 141.602 139.862 141.602C143.669 141.602 144.233 144.704 144.233 147.242V150.297C143.434 150.203 142.588 150.156 141.695 150.156C136.76 150.156 131.073 151.801 131.073 157.441C131.073 160.825 133.799 162.517 136.713 162.517C139.392 162.517 141.742 161.953 144.139 159.368H144.327C144.421 161.906 145.784 162.47 147.664 162.47C149.027 162.47 150.249 162.047 150.907 161.765L150.86 161.295C148.369 161.248 148.134 160.684 148.134 158.334V148.135C148.134 144.563 146.442 140.944 140.332 140.944ZM138.593 161.436C136.431 161.436 135.209 159.885 135.209 156.971C135.209 153.493 137.23 150.814 142.494 150.814C143.058 150.814 143.81 150.861 144.233 150.908V158.381C143.058 160.12 140.755 161.436 138.593 161.436ZM177.458 162.47C187.469 162.47 193.156 154.997 193.156 145.832C193.156 136.385 187.704 129.899 177.505 129.899C171.019 129.899 165.943 133.518 165.943 136.808C165.943 137.936 166.648 138.97 168.058 138.97C169.515 138.97 170.455 137.842 170.455 136.479C170.455 135.727 170.22 134.364 168.904 133.424C171.63 131.168 174.779 130.651 177.505 130.651C184.837 130.651 187.657 136.291 188.08 143.905C187.704 144.422 187.187 144.657 185.871 144.657C184.367 144.657 182.158 143.858 179.996 143.858C177.364 143.858 175.39 145.174 173.98 147.336L174.45 147.618C175.155 146.537 176.048 146.114 177.364 146.114C179.385 146.114 181.406 147.007 183.709 147.007C185.542 147.007 187.093 146.067 188.08 144.657C188.127 145.08 188.127 145.503 188.127 145.926C188.127 153.916 184.79 161.859 177.317 161.859C170.737 161.859 168.293 158.381 166.742 153.305C166.131 151.378 166.037 149.968 165.379 149.968H165.144C165.332 154.292 165.473 158.569 165.614 162.846H166.084L167.682 160.59C170.314 161.483 173.134 162.47 177.458 162.47ZM213.206 143.388V157.911C213.206 162.047 210.01 160.684 210.01 161.718V162H220.867V161.718C220.867 160.637 217.107 161.953 217.107 158.193V145.315C217.107 141.555 220.867 142.871 220.867 141.79V141.508H213.206L204.37 160.12H204.229V145.315C204.229 141.555 207.519 142.871 207.519 141.79V141.508H196.662V141.79C196.662 142.824 200.328 141.367 200.328 145.597V157.911C200.328 162.141 196.662 160.684 196.662 161.718V162H204.229L213.065 143.388H213.206ZM207.19 135.821C209.117 135.821 213.394 134.975 216.496 131.168L216.167 130.839C213.864 133.565 209.963 135.257 207.002 134.74C207.472 134.317 207.707 133.471 207.707 132.766C207.707 131.638 207.096 130.322 205.639 130.322C204.464 130.322 203.43 131.309 203.43 132.625C203.43 134.223 204.558 135.821 207.19 135.821ZM238.078 167.828C238.078 171.729 234.412 170.695 234.412 171.541V171.87H245.692V171.588C245.692 170.695 241.885 171.588 241.885 168.063V161.859C243.295 162.329 244.705 162.517 245.598 162.517C252.084 162.517 256.173 158.522 256.173 151.472C256.173 145.174 252.46 140.944 246.585 140.944C245.269 140.944 243.483 141.273 241.838 142.307V127.878L241.603 127.737C239.911 127.925 236.057 128.442 234.365 128.677V129.006C234.365 129.899 238.078 128.583 238.078 132.296V141.602C236.715 141.132 235.352 140.944 234.553 140.944C228.02 140.944 223.978 145.033 223.978 152.036C223.978 158.522 227.691 162.564 233.566 162.564C234.788 162.564 236.48 162.188 238.078 161.342V167.828ZM234.365 161.624C230.746 161.624 228.114 158.757 228.114 151.989C228.114 146.302 230.041 141.743 235.023 141.743C235.775 141.743 236.809 141.884 238.078 142.307V160.637C236.856 161.342 235.493 161.624 234.365 161.624ZM245.645 141.978C249.264 141.978 252.037 144.751 252.037 151.519C252.037 157.253 250.11 161.765 245.128 161.765C244.188 161.765 243.154 161.624 241.885 161.154C241.885 155.091 241.838 149.075 241.838 143.059C243.107 142.26 244.423 141.978 245.645 141.978ZM285.398 145.08C285.351 141.978 288.923 142.683 288.923 141.884V141.508H281.215C279.053 146.866 276.891 152.13 274.682 157.441H274.494L267.021 141.508H259.219V141.884C259.219 142.777 262.979 141.79 262.885 144.939L262.556 158.052C262.462 161.859 258.561 160.825 258.561 161.718V162H267.209V161.765C267.209 160.825 263.355 162 263.402 158.24L263.59 143.482H263.778L272.755 162.235H273.366C276.045 155.937 278.677 149.545 281.309 143.153H281.497L281.826 158.099C281.92 161.765 278.348 160.872 278.348 161.718V162H289.205V161.718C289.205 160.872 285.774 161.859 285.68 158.193L285.398 145.08ZM301.023 140.944C295.242 140.944 293.362 144.469 293.362 146.255C293.362 147.43 294.114 148.417 295.336 148.417C297.028 148.417 297.733 147.242 297.733 145.926C297.733 144.751 297.169 143.529 296.276 142.965C297.216 142.213 298.673 141.602 300.553 141.602C304.36 141.602 304.924 144.704 304.924 147.242V150.297C304.125 150.203 303.279 150.156 302.386 150.156C297.451 150.156 291.764 151.801 291.764 157.441C291.764 160.825 294.49 162.517 297.404 162.517C300.083 162.517 302.433 161.953 304.83 159.368H305.018C305.112 161.906 306.475 162.47 308.355 162.47C309.718 162.47 310.94 162.047 311.598 161.765L311.551 161.295C309.06 161.248 308.825 160.684 308.825 158.334V148.135C308.825 144.563 307.133 140.944 301.023 140.944ZM299.284 161.436C297.122 161.436 295.9 159.885 295.9 156.971C295.9 153.493 297.921 150.814 303.185 150.814C303.749 150.814 304.501 150.861 304.924 150.908V158.381C303.749 160.12 301.446 161.436 299.284 161.436ZM321.499 151.425H330.147V157.911C330.147 162.047 326.951 160.684 326.951 161.718V162H337.808V161.718C337.808 160.637 334.048 161.953 334.048 158.193V145.315C334.048 141.555 337.808 142.871 337.808 141.79V141.508H326.951V141.79C326.951 142.824 330.147 141.461 330.147 145.597V150.673H321.499V145.315C321.499 141.555 324.789 142.871 324.789 141.79V141.508H313.932V141.79C313.932 142.824 317.598 141.367 317.598 145.597V157.911C317.598 162.141 313.932 160.684 313.932 161.718V162H324.789V161.718C324.789 160.637 321.499 161.953 321.499 158.193V151.425ZM349.904 140.944C344.123 140.944 342.243 144.469 342.243 146.255C342.243 147.43 342.995 148.417 344.217 148.417C345.909 148.417 346.614 147.242 346.614 145.926C346.614 144.751 346.05 143.529 345.157 142.965C346.097 142.213 347.554 141.602 349.434 141.602C353.241 141.602 353.805 144.704 353.805 147.242V150.297C353.006 150.203 352.16 150.156 351.267 150.156C346.332 150.156 340.645 151.801 340.645 157.441C340.645 160.825 343.371 162.517 346.285 162.517C348.964 162.517 351.314 161.953 353.711 159.368H353.899C353.993 161.906 355.356 162.47 357.236 162.47C358.599 162.47 359.821 162.047 360.479 161.765L360.432 161.295C357.941 161.248 357.706 160.684 357.706 158.334V148.135C357.706 144.563 356.014 140.944 349.904 140.944ZM348.165 161.436C346.003 161.436 344.781 159.885 344.781 156.971C344.781 153.493 346.802 150.814 352.066 150.814C352.63 150.814 353.382 150.861 353.805 150.908V158.381C352.63 160.12 350.327 161.436 348.165 161.436Z" fill="white"/>
<path d="M1546.24 889.137L1546.21 889.056C1549.07 885.519 1555.99 881.523 1555.99 877.338C1555.99 875.205 1554.45 872.964 1550.34 872.964C1546.97 872.964 1545.32 875.34 1545.32 876.609C1545.32 877.257 1545.7 877.824 1546.37 877.824C1547.27 877.824 1547.75 877.122 1547.75 876.339C1547.75 875.718 1547.43 875.016 1546.81 874.611C1547.72 873.801 1548.78 873.396 1549.75 873.396C1551.99 873.396 1553.56 874.962 1553.56 877.446C1553.56 882.765 1548.48 885.357 1544.35 890.784L1544.46 891H1555.69L1557.04 886.032L1556.93 886.005C1556.77 885.951 1556.69 886.005 1556.55 886.248C1555.15 888.732 1554.88 889.137 1551.8 889.137H1546.24ZM1564.96 872.964C1560.51 872.964 1559 877.77 1559 882.09C1559 886.707 1560.46 891.297 1564.96 891.297C1569.37 891.297 1570.88 886.356 1570.88 882.063C1570.88 877.473 1569.5 872.964 1564.96 872.964ZM1564.96 890.973C1562.35 890.973 1561.45 886.599 1561.45 882.036C1561.45 877.608 1562.32 873.288 1564.94 873.288C1567.66 873.288 1568.45 877.041 1568.45 882.063C1568.45 886.707 1567.64 890.973 1564.96 890.973ZM1580.1 872.937L1574.75 874.476L1574.78 874.611C1574.81 874.8 1575.08 874.773 1575.19 874.773L1576.43 874.638C1577.67 874.53 1577.94 874.962 1577.94 876.042V888.759C1577.94 891.081 1575.35 890.244 1575.35 890.838V891H1582.77V890.838C1582.77 890.217 1580.18 891.081 1580.18 888.921V872.991L1580.1 872.937ZM1587.21 878.823C1587.21 881.982 1589.16 884.034 1592.05 884.034C1592.83 884.034 1593.67 883.953 1594.67 883.44L1594.59 883.224C1594.1 883.359 1593.59 883.467 1593.1 883.467C1590.48 883.467 1589.67 880.767 1589.67 878.715C1589.67 876.123 1590.43 873.288 1592.88 873.288C1595.67 873.288 1596.37 876.474 1596.37 879.498C1596.37 884.304 1593.96 888.516 1588.92 890.838L1589.02 891.108C1594.26 889.299 1598.82 884.979 1598.82 879.39C1598.82 875.961 1597.15 872.964 1593.1 872.964C1589.29 872.964 1587.21 875.664 1587.21 878.823Z" fill="white"/>
<path d="M1489.67 37.976C1489.67 41.108 1486.78 40.19 1486.78 40.865V41H1495.25V40.865C1495.25 40.19 1492.23 41.135 1492.23 38.003V33.224C1493.01 33.359 1494.01 33.413 1494.82 33.413C1498.2 33.413 1501.6 31.901 1501.6 28.04C1501.6 24.989 1499.12 22.802 1494.28 22.802H1486.75V22.991C1486.75 23.639 1489.67 22.721 1489.67 25.583V37.976ZM1492.23 23.234H1493.82C1496.33 23.234 1498.79 24.746 1498.79 28.121C1498.79 31.01 1497.09 33.008 1494.34 33.008C1493.74 33.008 1492.77 32.954 1492.23 32.846V23.234ZM1514.38 34.466V34.142C1514.38 31.415 1512.68 28.904 1509.14 28.904C1505.6 28.904 1503.25 31.577 1503.25 35.087C1503.25 38.705 1505.52 41.297 1509.46 41.297C1511.25 41.297 1512.84 40.622 1514.03 39.407L1513.81 39.191C1512.73 40.19 1511.27 40.838 1509.79 40.838C1506.68 40.838 1505.63 38.543 1505.71 34.682H1514.14L1514.38 34.466ZM1509.06 29.255C1511.25 29.255 1511.92 31.874 1511.92 33.575V34.115L1505.74 34.331C1505.95 31.361 1507.14 29.255 1509.06 29.255ZM1519.82 36.113C1520.14 34.358 1520.28 32.819 1520.28 30.686V29.66H1524.84V40.595H1517.8C1518.93 39.353 1519.52 37.652 1519.82 36.113ZM1527.06 31.415C1527.06 29.255 1529.22 30.011 1529.22 29.39V29.228H1517.44V29.417C1517.44 30.038 1519.82 29.066 1519.82 32.252C1519.82 36.356 1518.79 39.299 1517.26 40.595C1516.99 40.595 1516.12 40.568 1515.37 40.406L1515.34 40.433L1515.47 45.293H1515.61C1515.74 45.293 1515.82 45.212 1515.85 44.996C1516.42 41.81 1517.04 41 1519.85 41H1524.52C1527.46 41 1528.3 41.432 1528.76 44.996C1528.78 45.212 1528.84 45.293 1529 45.293H1529.14L1529.27 40.433L1529.24 40.406C1528.46 40.568 1527.52 40.595 1527.06 40.595V31.415ZM1539.81 30.308V38.651C1539.81 41.027 1537.97 40.244 1537.97 40.838V41H1544.21V40.838C1544.21 40.217 1542.05 40.973 1542.05 38.813V31.415C1542.05 29.255 1544.21 30.011 1544.21 29.39V29.228H1539.81L1534.73 39.92H1534.65V31.415C1534.65 29.255 1536.54 30.011 1536.54 29.39V29.228H1530.3V29.39C1530.3 29.984 1532.41 29.147 1532.41 31.577V38.651C1532.41 41.081 1530.3 40.244 1530.3 40.838V41H1534.65L1539.73 30.308H1539.81ZM1550.07 40.946C1547.89 40.892 1546.97 39.569 1546.43 37.517C1546.16 36.491 1546.13 36.221 1545.81 36.221H1545.7C1545.75 37.976 1545.75 39.623 1545.78 41.378H1546.16L1546.67 40.487C1547.89 41.054 1548.91 41.297 1550.18 41.297C1553.88 41.297 1555.53 39.569 1555.53 37.787C1555.53 36.221 1554.34 34.682 1551.07 34.574V34.493C1554.34 34.385 1555.23 32.819 1555.23 31.739C1555.23 30.848 1554.5 28.877 1550.37 28.877C1547.18 28.877 1545.92 30.74 1545.92 31.712C1545.92 32.468 1546.32 32.954 1547.05 32.954C1547.78 32.954 1548.16 32.441 1548.16 31.793C1548.16 31.145 1547.89 30.47 1547.35 30.146C1547.99 29.687 1548.83 29.309 1550.18 29.309C1551.96 29.309 1552.88 30.443 1552.88 31.604C1552.88 33.521 1551.32 34.223 1548.8 34.358V34.79C1549.32 34.763 1549.43 34.763 1549.56 34.763C1552.07 34.817 1553.12 36.113 1553.12 38.057C1553.12 39.461 1552.04 40.946 1550.07 40.946ZM1562.52 28.904C1559.2 28.904 1558.12 30.929 1558.12 31.955C1558.12 32.63 1558.55 33.197 1559.25 33.197C1560.22 33.197 1560.63 32.522 1560.63 31.766C1560.63 31.091 1560.3 30.389 1559.79 30.065C1560.33 29.633 1561.17 29.282 1562.25 29.282C1564.43 29.282 1564.76 31.064 1564.76 32.522V34.277C1564.3 34.223 1563.81 34.196 1563.3 34.196C1560.47 34.196 1557.2 35.141 1557.2 38.381C1557.2 40.325 1558.76 41.297 1560.44 41.297C1561.98 41.297 1563.33 40.973 1564.7 39.488H1564.81C1564.87 40.946 1565.65 41.27 1566.73 41.27C1567.51 41.27 1568.21 41.027 1568.59 40.865L1568.57 40.595C1567.13 40.568 1567 40.244 1567 38.894V33.035C1567 30.983 1566.03 28.904 1562.52 28.904ZM1561.52 40.676C1560.28 40.676 1559.57 39.785 1559.57 38.111C1559.57 36.113 1560.74 34.574 1563.76 34.574C1564.08 34.574 1564.52 34.601 1564.76 34.628V38.921C1564.08 39.92 1562.76 40.676 1561.52 40.676ZM1579.44 30.308V38.651C1579.44 41.027 1577.6 40.244 1577.6 40.838V41H1583.84V40.838C1583.84 40.217 1581.68 40.973 1581.68 38.813V31.415C1581.68 29.255 1583.84 30.011 1583.84 29.39V29.228H1579.44L1574.36 39.92H1574.28V31.415C1574.28 29.255 1576.17 30.011 1576.17 29.39V29.228H1569.93V29.39C1569.93 29.984 1572.04 29.147 1572.04 31.577V38.651C1572.04 41.081 1569.93 40.244 1569.93 40.838V41H1574.28L1579.36 30.308H1579.44ZM1575.98 25.961C1577.09 25.961 1579.55 25.475 1581.33 23.288L1581.14 23.099C1579.82 24.665 1577.58 25.637 1575.87 25.34C1576.14 25.097 1576.28 24.611 1576.28 24.206C1576.28 23.558 1575.93 22.802 1575.09 22.802C1574.42 22.802 1573.82 23.369 1573.82 24.125C1573.82 25.043 1574.47 25.961 1575.98 25.961ZM1589.81 34.925H1594.78V38.651C1594.78 41.027 1592.94 40.244 1592.94 40.838V41H1599.18V40.838C1599.18 40.217 1597.02 40.973 1597.02 38.813V31.415C1597.02 29.255 1599.18 30.011 1599.18 29.39V29.228H1592.94V29.39C1592.94 29.984 1594.78 29.201 1594.78 31.577V34.493H1589.81V31.415C1589.81 29.255 1591.7 30.011 1591.7 29.39V29.228H1585.46V29.39C1585.46 29.984 1587.57 29.147 1587.57 31.577V38.651C1587.57 41.081 1585.46 40.244 1585.46 40.838V41H1591.7V40.838C1591.7 40.217 1589.81 40.973 1589.81 38.813V34.925ZM1546.66 79.623C1545.17 80.595 1543.88 80.757 1542.88 80.757C1540.47 80.757 1538.93 79.056 1538.93 75.33C1538.93 71.253 1540.72 69.336 1543.04 69.336C1543.66 69.336 1544.28 69.444 1544.85 69.687C1544.52 70.146 1544.31 70.794 1544.31 71.361C1544.31 72.117 1544.66 72.765 1545.52 72.765C1546.22 72.765 1546.66 72.144 1546.66 71.442C1546.66 70.524 1545.98 68.904 1542.82 68.904C1539.02 68.904 1536.48 71.523 1536.48 75.276C1536.48 79.002 1538.77 81.297 1542.5 81.297C1544.31 81.297 1545.71 80.73 1546.85 79.893L1546.66 79.623ZM1553.37 68.904C1550.05 68.904 1548.97 70.929 1548.97 71.955C1548.97 72.63 1549.4 73.197 1550.1 73.197C1551.07 73.197 1551.48 72.522 1551.48 71.766C1551.48 71.091 1551.15 70.389 1550.64 70.065C1551.18 69.633 1552.02 69.282 1553.1 69.282C1555.29 69.282 1555.61 71.064 1555.61 72.522V74.277C1555.15 74.223 1554.66 74.196 1554.15 74.196C1551.32 74.196 1548.05 75.141 1548.05 78.381C1548.05 80.325 1549.62 81.297 1551.29 81.297C1552.83 81.297 1554.18 80.973 1555.56 79.488H1555.66C1555.72 80.946 1556.5 81.27 1557.58 81.27C1558.36 81.27 1559.07 81.027 1559.44 80.865L1559.42 80.595C1557.99 80.568 1557.85 80.244 1557.85 78.894V73.035C1557.85 70.983 1556.88 68.904 1553.37 68.904ZM1552.37 80.676C1551.13 80.676 1550.43 79.785 1550.43 78.111C1550.43 76.113 1551.59 74.574 1554.61 74.574C1554.93 74.574 1555.37 74.601 1555.61 74.628V78.921C1554.93 79.92 1553.61 80.676 1552.37 80.676ZM1570.29 70.308V78.651C1570.29 81.027 1568.45 80.244 1568.45 80.838V81H1574.69V80.838C1574.69 80.217 1572.53 80.973 1572.53 78.813V71.415C1572.53 69.255 1574.69 70.011 1574.69 69.39V69.228H1570.29L1565.21 79.92H1565.13V71.415C1565.13 69.255 1567.02 70.011 1567.02 69.39V69.228H1560.78V69.39C1560.78 69.984 1562.89 69.147 1562.89 71.577V78.651C1562.89 81.081 1560.78 80.244 1560.78 80.838V81H1565.13L1570.21 70.308H1570.29ZM1566.83 65.961C1567.94 65.961 1570.4 65.475 1572.18 63.288L1571.99 63.099C1570.67 64.665 1568.43 65.637 1566.72 65.34C1566.99 65.097 1567.13 64.611 1567.13 64.206C1567.13 63.558 1566.78 62.802 1565.94 62.802C1565.27 62.802 1564.67 63.369 1564.67 64.125C1564.67 65.043 1565.32 65.961 1566.83 65.961ZM1583.01 69.633C1584.58 69.633 1585.74 70.389 1586.63 73.062C1586.71 73.305 1586.79 73.413 1586.95 73.386L1587.09 73.359C1586.9 71.874 1586.74 70.389 1586.57 68.904C1585.22 69.093 1583.55 69.228 1581.36 69.228C1579.42 69.228 1577.45 69.12 1576.18 68.904L1575.67 73.359C1575.72 73.359 1575.77 73.386 1575.86 73.386C1575.96 73.386 1576.02 73.305 1576.13 73.062C1577.15 70.47 1578.04 69.633 1579.74 69.633H1580.28V78.705C1580.28 80.892 1578.12 80.406 1578.12 80.811V81H1584.5V80.838C1584.5 80.433 1582.47 80.784 1582.47 78.813V69.633H1583.01ZM1593.39 68.904C1590.07 68.904 1588.99 70.929 1588.99 71.955C1588.99 72.63 1589.42 73.197 1590.13 73.197C1591.1 73.197 1591.5 72.522 1591.5 71.766C1591.5 71.091 1591.18 70.389 1590.67 70.065C1591.21 69.633 1592.04 69.282 1593.12 69.282C1595.31 69.282 1595.63 71.064 1595.63 72.522V74.277C1595.18 74.223 1594.69 74.196 1594.18 74.196C1591.34 74.196 1588.07 75.141 1588.07 78.381C1588.07 80.325 1589.64 81.297 1591.31 81.297C1592.85 81.297 1594.2 80.973 1595.58 79.488H1595.69C1595.74 80.946 1596.53 81.27 1597.61 81.27C1598.39 81.27 1599.09 81.027 1599.47 80.865L1599.44 80.595C1598.01 80.568 1597.88 80.244 1597.88 78.894V73.035C1597.88 70.983 1596.9 68.904 1593.39 68.904ZM1592.39 80.676C1591.15 80.676 1590.45 79.785 1590.45 78.111C1590.45 76.113 1591.61 74.574 1594.64 74.574C1594.96 74.574 1595.39 74.601 1595.63 74.628V78.921C1594.96 79.92 1593.64 80.676 1592.39 80.676Z" fill="white"/>
<path d="M10.341 792.586C4.59 792.586 1.215 796.987 1.215 802.225C1.215 807.463 4.428 811.27 10.26 811.27C12.744 811.27 14.58 810.703 16.092 810.19L17.01 811.486H17.28C17.361 809.029 17.442 806.572 17.55 804.088H17.415C17.037 804.088 16.983 804.898 16.632 806.005C15.741 808.921 14.31 810.892 10.368 810.892C6.075 810.892 4.05 807.004 4.05 802.279C4.05 797.635 5.751 792.991 10.341 792.991C15.903 792.991 15.93 798.58 16.659 798.58H16.821L16.578 792.154H16.335L15.444 793.423C14.256 793.072 12.447 792.586 10.341 792.586ZM21.1075 808.84C21.1075 811.108 18.9475 810.271 18.9475 810.838V811H25.7785V810.838C25.7785 810.217 23.3485 811.054 23.3485 808.975V791.29L23.2405 791.182L18.9475 791.641V791.803C18.9475 792.397 21.1075 791.533 21.1075 793.801V808.84ZM33.3866 798.904C29.6066 798.904 27.3386 801.658 27.3386 805.06C27.3386 808.489 29.4176 811.297 33.3866 811.297C37.1666 811.297 39.4886 808.435 39.4886 805.006C39.4886 801.604 37.3286 798.904 33.3866 798.904ZM33.3866 799.255C36.2216 799.255 37.0856 802.495 37.0856 805.141C37.0856 807.706 36.1406 810.973 33.4406 810.973C30.5786 810.973 29.7416 807.679 29.7416 805.006C29.7416 802.441 30.7406 799.255 33.3866 799.255ZM52.6519 798.904L48.5209 799.363V799.525C48.5209 800.119 50.5189 799.255 50.5189 801.523V808.786C49.8169 810.001 48.7369 810.757 47.6029 810.757C46.3069 810.757 45.4699 809.893 45.4699 808.246V799.012L45.3619 798.904L41.2309 799.363V799.525C41.2309 800.119 43.2289 799.255 43.2289 801.523V807.706C43.2289 810.433 45.0649 811.297 46.9009 811.297C48.0889 811.297 49.3849 810.865 50.4919 809.488H50.5999L50.5189 811.162L50.6269 811.27L54.8389 810.811V810.649C54.8389 810.055 52.7599 810.919 52.7599 808.651V799.012L52.6519 798.904ZM62.8193 799.309C63.8183 799.309 64.8983 799.579 65.9783 800.308V808.975C64.9253 810.325 63.7643 810.757 62.6033 810.757C60.2543 810.757 58.8773 808.624 58.8773 805.276C58.8773 802.279 59.8763 799.309 62.8193 799.309ZM66.0593 809.488L65.9783 811.162L66.0863 811.27L70.2443 810.811V810.649C70.2443 810.055 68.2193 810.919 68.2193 808.651V791.317L68.1113 791.209L63.9803 791.668V791.83C63.9803 792.451 66.0053 791.56 66.0053 793.828V799.795L65.8703 799.822C64.8443 799.093 63.3593 798.904 62.5763 798.904C58.9583 798.904 56.4743 801.28 56.4743 805.465C56.4743 809.191 58.4993 811.297 62.0363 811.297C63.2243 811.297 64.8443 810.865 65.9513 809.488H66.0593ZM83.6561 805.168L89.0021 794.26H89.0561L89.3261 808.138C89.3801 810.946 86.4911 810.19 86.4911 810.865V811H94.8341V810.865C94.8071 810.244 91.8641 811.027 91.8101 808.111L91.5401 795.61C91.4861 792.964 94.5101 793.639 94.5101 793.018V792.802H89.2451L83.4131 804.736L76.7981 792.802H71.8031V793.018C71.8031 793.639 74.7191 792.937 74.6651 795.583L74.3951 806.923C74.2871 811.216 71.3441 810.136 71.3441 810.865V811H77.9591V810.865C77.9591 810.244 75.7451 810.865 75.1781 809.083C74.9891 808.516 74.8541 807.814 74.8811 806.923L75.1241 794.746H75.1781C77.2571 799.066 80.0921 803.413 82.1171 807.382C83.4941 807.409 84.3311 807.706 85.2221 808.678L85.4921 808.516L83.6561 805.168ZM98.7369 808.84C98.7369 811.108 96.6849 810.271 96.6849 810.838V811H103.273V810.838C103.273 810.217 100.978 811.054 100.978 808.975V799.012L100.87 798.904L96.6579 799.363V799.525C96.6579 800.119 98.7369 799.255 98.7369 801.523V808.84ZM99.6819 792.802C98.8449 792.802 98.1969 793.477 98.1969 794.26C98.1969 795.097 98.8449 795.772 99.6819 795.772C100.519 795.772 101.167 795.097 101.167 794.26C101.167 793.477 100.519 792.802 99.6819 792.802ZM106.774 808.84C106.774 811.108 104.614 810.271 104.614 810.838V811H111.445V810.838C111.445 810.217 109.015 811.054 109.015 808.975V791.29L108.907 791.182L104.614 791.641V791.803C104.614 792.397 106.774 791.533 106.774 793.801V808.84ZM114.896 808.84C114.896 811.108 112.736 810.271 112.736 810.838V811H119.567V810.838C119.567 810.217 117.137 811.054 117.137 808.975V791.29L117.029 791.182L112.736 791.641V791.803C112.736 792.397 114.896 791.533 114.896 793.801V808.84ZM0.972 851H9.288C17.55 851 19.494 845.114 19.494 841.82C19.494 835.664 14.607 832.802 8.694 832.802H0.972V832.991C0.972 833.612 3.888 832.721 3.888 835.583V847.895C3.888 851.189 0.972 850.19 0.972 850.838V851ZM6.426 833.234H8.424C14.391 833.234 16.659 836.582 16.659 842.009C16.659 848.543 13.23 850.595 9.45 850.595H8.802C7.155 850.595 6.426 849.785 6.426 848.165V833.234ZM23.8541 848.84C23.8541 851.108 21.8021 850.271 21.8021 850.838V851H28.3901V850.838C28.3901 850.217 26.0951 851.054 26.0951 848.975V839.012L25.9871 838.904L21.7751 839.363V839.525C21.7751 840.119 23.8541 839.255 23.8541 841.523V848.84ZM24.7991 832.802C23.9621 832.802 23.3141 833.477 23.3141 834.26C23.3141 835.097 23.9621 835.772 24.7991 835.772C25.6361 835.772 26.2841 835.097 26.2841 834.26C26.2841 833.477 25.6361 832.802 24.7991 832.802ZM40.3696 839.93C40.9096 839.93 41.4226 839.579 41.4226 838.985C41.4226 838.202 40.7746 837.851 40.0456 837.851C39.1006 837.851 37.9126 838.391 37.2376 839.282C36.5896 839.039 35.8336 838.877 35.0236 838.877C32.0806 838.877 30.0286 840.821 30.0286 843.305C30.0286 844.817 30.6496 846.221 31.9726 846.95L31.9996 847.058C30.8656 847.544 30.2446 848.3 30.2446 848.894C30.2446 851.513 38.7226 849.218 38.7226 853.16C38.7226 855.023 37.5616 856.859 34.7266 856.859C32.0536 856.859 30.9736 855.833 30.2716 854.996C31.3786 854.537 31.8376 853.646 31.8376 852.863C31.8376 852.431 31.4596 851.756 30.7036 851.756C29.9746 851.756 29.3266 852.512 29.3266 853.538C29.3266 855.455 31.5676 857.183 34.7806 857.183C38.9926 857.183 41.1796 854.915 41.1796 852.782C41.1796 848.327 30.6496 850.757 30.6496 848.759C30.6496 848.246 31.5136 847.409 32.3506 847.166C33.2146 847.625 34.2406 847.733 34.9696 847.733C37.9396 847.733 39.9646 845.762 39.9646 843.305C39.9646 841.604 39.0466 840.146 37.5076 839.417C37.8586 839.066 38.2096 838.796 38.8036 838.661C39.0736 839.714 39.9106 839.93 40.3696 839.93ZM32.4316 843.332C32.4316 841.334 33.1336 839.201 35.0506 839.201C37.0756 839.201 37.5616 841.496 37.5616 843.197C37.5616 845.033 37.0486 847.436 35.0506 847.436C33.0256 847.436 32.4316 845.222 32.4316 843.332ZM44.6842 848.84C44.6842 851.108 42.6322 850.271 42.6322 850.838V851H49.2202V850.838C49.2202 850.217 46.9252 851.054 46.9252 848.975V839.012L46.8172 838.904L42.6052 839.363V839.525C42.6052 840.119 44.6842 839.255 44.6842 841.523V848.84ZM45.6292 832.802C44.7922 832.802 44.1442 833.477 44.1442 834.26C44.1442 835.097 44.7922 835.772 45.6292 835.772C46.4662 835.772 47.1142 835.097 47.1142 834.26C47.1142 833.477 46.4662 832.802 45.6292 832.802ZM58.2027 850.298L58.0677 850.028C57.0957 850.514 56.3667 850.649 55.7997 850.649C54.5847 850.649 54.3147 849.785 54.3147 848.408V839.606H58.0137V839.228H54.3147V835.907H54.0177C53.7477 837.392 53.0997 838.526 52.0467 839.228H50.2917V839.606H52.0737V848.597C52.0737 850.163 52.5327 851.27 54.9357 851.27C55.7457 851.27 56.9337 851.054 58.2027 850.298ZM64.295 838.904C60.974 838.904 59.894 840.929 59.894 841.955C59.894 842.63 60.326 843.197 61.028 843.197C62 843.197 62.405 842.522 62.405 841.766C62.405 841.091 62.081 840.389 61.568 840.065C62.108 839.633 62.945 839.282 64.025 839.282C66.212 839.282 66.536 841.064 66.536 842.522V844.277C66.077 844.223 65.591 844.196 65.078 844.196C62.243 844.196 58.976 845.141 58.976 848.381C58.976 850.325 60.542 851.297 62.216 851.297C63.755 851.297 65.105 850.973 66.482 849.488H66.59C66.644 850.946 67.427 851.27 68.507 851.27C69.29 851.27 69.992 851.027 70.37 850.865L70.343 850.595C68.912 850.568 68.777 850.244 68.777 848.894V843.035C68.777 840.983 67.805 838.904 64.295 838.904ZM63.296 850.676C62.054 850.676 61.352 849.785 61.352 848.111C61.352 846.113 62.513 844.574 65.537 844.574C65.861 844.574 66.293 844.601 66.536 844.628V848.921C65.861 849.92 64.538 850.676 63.296 850.676ZM73.7364 848.84C73.7364 851.108 71.5764 850.271 71.5764 850.838V851H78.4074V850.838C78.4074 850.217 75.9774 851.054 75.9774 848.975V831.29L75.8694 831.182L71.5764 831.641V831.803C71.5764 832.397 73.7364 831.533 73.7364 833.801V848.84ZM3.888 887.976C3.888 891.108 0.999 890.19 0.999 890.865V891H9.477V890.865C9.477 890.19 6.453 891.135 6.453 888.003V883.224C7.236 883.359 8.235 883.413 9.045 883.413C12.42 883.413 15.822 881.901 15.822 878.04C15.822 874.989 13.338 872.802 8.505 872.802H0.972V872.991C0.972 873.639 3.888 872.721 3.888 875.583V887.976ZM6.453 873.234H8.046C10.557 873.234 13.014 874.746 13.014 878.121C13.014 881.01 11.313 883.008 8.559 883.008C7.965 883.008 6.993 882.954 6.453 882.846V873.234ZM19.6642 888.84C19.6642 891.108 17.5582 890.271 17.5582 890.838V891H24.3352V890.838C24.3352 890.217 21.9052 891.054 21.9052 888.975V881.928C22.5802 880.524 23.4172 879.849 24.0112 879.687C24.0112 880.821 24.9022 881.55 25.7122 881.55C26.4142 881.55 26.9542 881.091 26.9542 880.308C26.9542 879.417 26.0632 878.904 25.1992 878.904C23.9032 878.904 22.7692 879.579 21.6622 881.604L21.5542 881.577L21.7162 879.012L21.6082 878.904L17.4772 879.309V879.444C17.4772 880.065 19.6642 879.228 19.6642 881.388V888.84ZM33.2547 878.904C29.4747 878.904 27.2067 881.658 27.2067 885.06C27.2067 888.489 29.2857 891.297 33.2547 891.297C37.0347 891.297 39.3567 888.435 39.3567 885.006C39.3567 881.604 37.1967 878.904 33.2547 878.904ZM33.2547 879.255C36.0897 879.255 36.9537 882.495 36.9537 885.141C36.9537 887.706 36.0087 890.973 33.3087 890.973C30.4467 890.973 29.6097 887.679 29.6097 885.006C29.6097 882.441 30.6087 879.255 33.2547 879.255ZM47.5791 879.309C48.5781 879.309 49.6581 879.579 50.7381 880.308V888.975C49.6851 890.325 48.5241 890.757 47.3631 890.757C45.0141 890.757 43.6371 888.624 43.6371 885.276C43.6371 882.279 44.6361 879.309 47.5791 879.309ZM50.8191 889.488L50.7381 891.162L50.8461 891.27L55.0041 890.811V890.649C55.0041 890.055 52.9791 890.919 52.9791 888.651V871.317L52.8711 871.209L48.7401 871.668V871.83C48.7401 872.451 50.7651 871.56 50.7651 873.828V879.795L50.6301 879.822C49.6041 879.093 48.1191 878.904 47.3361 878.904C43.7181 878.904 41.2341 881.28 41.2341 885.465C41.2341 889.191 43.2591 891.297 46.7961 891.297C47.9841 891.297 49.6041 890.865 50.7111 889.488H50.8191ZM67.4439 878.904L63.3129 879.363V879.525C63.3129 880.119 65.3109 879.255 65.3109 881.523V888.786C64.6089 890.001 63.5289 890.757 62.3949 890.757C61.0989 890.757 60.2619 889.893 60.2619 888.246V879.012L60.1539 878.904L56.0229 879.363V879.525C56.0229 880.119 58.0209 879.255 58.0209 881.523V887.706C58.0209 890.433 59.8569 891.297 61.6929 891.297C62.8809 891.297 64.1769 890.865 65.2839 889.488H65.3919L65.3109 891.162L65.4189 891.27L69.6309 890.811V890.649C69.6309 890.055 67.5519 890.919 67.5519 888.651V879.012L67.4439 878.904ZM81.4453 889.623C79.9603 890.595 78.6643 890.757 77.6653 890.757C75.2623 890.757 73.7233 889.056 73.7233 885.33C73.7233 881.253 75.5053 879.336 77.8273 879.336C78.4483 879.336 79.0693 879.444 79.6363 879.687C79.3123 880.146 79.0963 880.794 79.0963 881.361C79.0963 882.117 79.4473 882.765 80.3113 882.765C81.0133 882.765 81.4453 882.144 81.4453 881.442C81.4453 880.524 80.7703 878.904 77.6113 878.904C73.8043 878.904 71.2663 881.523 71.2663 885.276C71.2663 889.002 73.5613 891.297 77.2873 891.297C79.0963 891.297 80.5003 890.73 81.6343 889.893L81.4453 889.623ZM90.0806 890.298L89.9456 890.028C88.9736 890.514 88.2446 890.649 87.6776 890.649C86.4626 890.649 86.1926 889.785 86.1926 888.408V879.606H89.8916V879.228H86.1926V875.907H85.8956C85.6256 877.392 84.9776 878.526 83.9246 879.228H82.1696V879.606H83.9516V888.597C83.9516 890.163 84.4106 891.27 86.8136 891.27C87.6236 891.27 88.8116 891.054 90.0806 890.298ZM93.3316 888.84C93.3316 891.108 91.2796 890.271 91.2796 890.838V891H97.8676V890.838C97.8676 890.217 95.5726 891.054 95.5726 888.975V879.012L95.4646 878.904L91.2526 879.363V879.525C91.2526 880.119 93.3316 879.255 93.3316 881.523V888.84ZM94.2766 872.802C93.4396 872.802 92.7916 873.477 92.7916 874.26C92.7916 875.097 93.4396 875.772 94.2766 875.772C95.1136 875.772 95.7616 875.097 95.7616 874.26C95.7616 873.477 95.1136 872.802 94.2766 872.802ZM105.527 878.904C101.747 878.904 99.4792 881.658 99.4792 885.06C99.4792 888.489 101.558 891.297 105.527 891.297C109.307 891.297 111.629 888.435 111.629 885.006C111.629 881.604 109.469 878.904 105.527 878.904ZM105.527 879.255C108.362 879.255 109.226 882.495 109.226 885.141C109.226 887.706 108.281 890.973 105.581 890.973C102.719 890.973 101.882 887.679 101.882 885.006C101.882 882.441 102.881 879.255 105.527 879.255ZM125.09 882.495C125.09 879.768 123.308 878.904 121.472 878.904C120.014 878.904 118.502 879.606 117.557 881.01L117.449 880.983L117.611 879.039L117.503 878.931L113.453 879.39V879.552C113.453 880.146 115.478 879.282 115.478 881.55V888.759C115.478 891.189 113.372 890.244 113.372 890.838V891H119.717V890.838C119.717 890.217 117.719 891.081 117.719 888.921V881.361C118.286 880.281 119.636 879.525 120.77 879.525C121.985 879.525 122.849 880.335 122.849 881.982V888.759C122.849 891.135 120.905 890.244 120.905 890.838V891H127.25V890.838C127.25 890.217 125.09 891.081 125.09 888.921V882.495Z" fill="white"/>
</svg>
